<svg version="1" xmlns="http://www.w3.org/2000/svg" width="933.333" height="933.333" viewBox="0 0 700.000000 700.000000"><path d="M468.4 135.6c-57.9 90.7-79 123-79.2 121.3-.1-1.3 1.8-55.7 4.3-120.8 2.4-65.2 4.3-118.7 4-118.9-.6-.6-192.4 14.4-193.1 15.1-.3.3 12.3 40.7 28.1 89.9 35.6 110.6 32.8 101.2 30.7 99.6-.9-.7-31.3-26.6-67.6-57.6l-66.1-56.3-2 2.8c-19.7 26.7-110.1 155-109.7 155.4.4.4 55.9 21.3 123.4 46.5 94.7 35.3 122.5 46.1 121.5 47-.6.6-46.4 28.7-101.7 62.4-55.3 33.6-100.8 61.5-101.1 61.8-.7.8 147.3 121.8 148.5 121.5.4-.1 24.3-28.6 53.2-63.3 28.9-34.6 52.9-63 53.3-63 .3 0 7.7 46.6 16.3 103.6 8.6 57 15.9 103.8 16.2 104.2.5.4 170.1-50.4 171.4-51.4.2-.1-18.1-36.6-40.6-81.1-51-100.6-53.5-105.6-52.5-105 .4.2 45.3 25.7 99.6 56.7 56.1 31.9 99.2 55.9 99.7 55.4 1.4-1.5 58.3-161.4 57.7-162.1-.4-.3-51.2-11.8-112.9-25.4-61.8-13.7-113.8-25.2-115.6-25.6-3.3-.8-.5-2.8 112.2-83.2C630 219.8 682 182.6 682 182.3 682 181.8 548 12 547.5 12c-.1 0-35.8 55.6-79.1 123.6zm-96.1-84.4c-1.4 28.9-11.2 296.3-10.9 296.5.2.2 42.5-65.8 94.1-146.7 51.6-80.8 94.1-146.7 94.5-146.5.5.3 22.5 28 49 61.6 40.3 51 48 61.3 46.9 62.4-.8.7-57.9 41.4-126.9 90.5-145.6 103.6-126.4 89.9-125.9 90.4.3.3 58 13.2 128.4 28.7s128.4 28.5 128.8 28.9c.6.6-35.9 104.7-38.2 108.7-.4.9-38.2-20.1-122.6-68.2-67-38.2-122-69.3-122.2-69.2-.1.2 26.1 52.4 58.3 116.1 32.2 63.7 58.4 115.9 58.2 116.1-.7.7-116.2 35.4-116.6 35-.2-.2-8.3-52.5-17.9-116.2-9.5-63.7-17.6-116.4-17.9-117.1-.2-.8-28 31.8-63.4 74.2L205 572l-51.5-42.1c-28.3-23.1-51.5-42.4-51.5-42.8 0-.4 48.7-30.4 108.2-66.6 59.4-36.3 108-66.5 107.8-67-.2-.6-59.2-23-131.1-49.9-72-26.9-130.9-49.3-130.9-49.8 0-1 76.9-109.2 77.8-109.5.4-.1 41 34.1 90.2 76.1 49.2 42 89.6 76.3 89.8 76.1.1-.1-17.2-54.6-38.6-121.1-21.4-66.5-38.8-121.1-38.6-121.3.3-.3 122.9-10.4 134-11 1.9-.1 2 .3 1.7 8.1z"/></svg>