<svg xmlns="http://www.w3.org/2000/svg" viewBox="0 0 272 430" width="100%" height="100%">

<path class="a" d="m 134.61,202.47 c 0,-0.85 -4.48,-4.01 -10,-7.04 -1.2,-0.65 -2.75,-1.42 -3.43,-1.75 -0.68,-0.31 -1.67,-0.71 -2.21,-0.9 -0.52,-0.25 -1.34,-0.58 -1.8,-0.77 -0.47,-0.25 -1.08,-0.66 -1.37,-0.98 -0.36,-0.31 -1.29,-0.89 -2.78,-1.67 -6.25,-3.17 -10.36,-7.49 -11.04,-11.73 -0.28,-1.71 -0.1,-3.95 0.53,-5.86 0.39,-1.2 1.13,-3.18 1.27,-3.35 0,0 0.48,0.1 1.04,0.24 2.33,0.57 3.92,0.14 5.87,-1.75 0.86,-0.81 2.72,-3.5 4.38,-6.33 1.52,-2.6 2.24,-3.66 5.11,-7.47 7.14,-9.51 8.78,-12.01 9.92,-15.08 0.76,-2.08 0.66,-4.01 -0.28,-5.6 -0.68,-1.15 -1.51,-1.58 -3.42,-1.78 -0.91,-0.1 -1.21,-0.1 -2.59,0.3 -1.51,0.36 -1.63,0.38 -4.81,0.41 -1.79,0 -3.26,0 -3.26,-0.1 0,0 0.46,-0.61 1.03,-1.31 l 1.03,-1.25 1.01,-0.24 c 2.37,-0.54 3.92,-1.05 6.44,-2.08 2.15,-0.89 4.9,-2.32 6.29,-3.25 l 0.47,-0.31 0.68,0.45 c 1.07,0.7 2.47,1.11 4.09,1.2 1.28,0.1 1.54,0.1 3.1,-0.34 3.03,-0.74 5.01,-1.95 6.21,-3.8 0.77,-1.19 0.97,-2.27 0.63,-3.51 -0.1,-0.36 -0.21,-0.72 -0.23,-0.82 -0.1,-0.12 0.58,-0.32 2.34,-0.74 2.73,-0.63 3.81,-0.95 6.08,-1.85 4.79,-1.88 9.51,-4.04 11.58,-5.29 0.64,-0.39 1.5,-0.92 1.93,-1.17 0.8,-0.46 2.29,-1.63 3.6,-2.82 1.41,-1.29 2.41,-1.86 4.42,-2.55 1.23,-0.43 0.81,-0.59 -0.71,-0.28 -0.61,0.1 -1.25,0.2 -1.43,0.2 -1.08,0 -4.49,1.42 -6.55,2.72 -1.12,0.71 -4.05,1.64 -6.32,2 -0.47,0.1 -0.44,0.1 0.58,-0.59 3.41,-2.04 8.65,-4.24 12.5,-5.21 2.6,-0.648 6.49,-1.187 9.26,-1.287 2.49,-0.1 5.72,0.519 7.82,1.467 0.86,0.39 0.95,0.37 0.59,-0.13 -0.93,-1.347 -2.9,-3.007 -4.69,-3.937 -2.34,-1.22 -6.72,-2.14 -10.32,-2.15 l -1.63,0 2.38,-1.14 c 1.32,-0.66 2.56,-1.3 2.79,-1.47 0.21,-0.15 0.95,-0.63 1.63,-1.03 0.69,-0.41 1.29,-0.79 1.34,-0.85 0.1,-0.1 0.65,-0.53 1.33,-1.03 2.65,-1.88 5.96,-5.93 7.52,-9.25 1.36,-2.87 1.89,-4.79 2.4,-8.66 0.13,-0.97 0.32,-1.81 0.52,-2.24 0.16,-0.36 0.28,-0.67 0.22,-0.67 -0.16,0 -1.66,1.16 -2.04,1.57 -0.23,0.23 -1.03,1.27 -1.79,2.31 -3.47,4.68 -4.64,5.84 -7.92,7.81 -2.7,1.6 -3.93,2.11 -6.28,2.59 -1.16,0.24 -2.13,0.4 -2.16,0.38 -0.19,-0.19 1.68,-2.06 4.18,-4.19 0.61,-0.51 1.11,-1 1.11,-1.05 0,-0.1 0.76,-0.68 2.4,-1.88 0.21,-0.17 0.98,-0.73 1.74,-1.26 0.73,-0.54 1.73,-1.28 2.2,-1.63 0.46,-0.34 1.68,-1.24 2.72,-2.01 1.89,-1.4 5.22,-4.58 5.72,-5.45 l 0.22,-0.4 -1.08,0.61 c -1.28,0.74 -3.14,1.45 -7.81,2.99 -1.95,0.64 -4.01,1.36 -4.59,1.62 -0.57,0.23 -1.09,0.4 -1.12,0.36 -0.11,-0.1 0.49,-0.58 1.18,-1.25 3.11,-2.86 6.96,-9.05 9.19,-14.77 1.29,-3.32 1.77,-6.89 1.22,-9.48 -0.16,-0.77 -0.31,-0.93 -0.41,-0.5 -0.36,1.22 -1.38,3.69 -1.84,4.5 -1.75,2.95 -2.11,3.47 -3.49,5.15 -1.82,2.23 -5.15,5.13 -8.49,7.44 -1.29,0.88 -7.82,3.85 -7.2,3.27 0.11,-0.1 0.82,-0.67 1.6,-1.26 1.56,-1.2 3.83,-3.31 5.09,-4.78 0.48,-0.53 1.29,-1.45 1.83,-2.02 0.54,-0.56 1.36,-1.6 1.83,-2.26 0.47,-0.65 1.1,-1.59 1.45,-2.09 0.79,-1.14 1.45,-2.45 2.36,-4.76 0.72,-1.8 1.67,-5.14 1.58,-5.55 -0.1,-0.11 -0.19,0.1 -0.43,0.44 -0.97,1.65 -2.94,4.51 -3.63,5.26 -0.42,0.47 -0.95,1.07 -1.19,1.39 -0.44,0.55 -2.98,2.95 -5.14,4.84 -2.12,1.84 -5.56,4.28 -7.58,5.37 l -1.01,0.53 1.1,-1.21 c 0.61,-0.67 1.29,-1.53 1.54,-1.9 0.24,-0.38 0.55,-0.78 0.66,-0.89 0.64,-0.51 3.43,-5.22 5.01,-8.4 1.43,-2.89 3.94,-10.55 4.26,-13 0.18,-1.47 0.22,-4.13 0.1,-4.52 -0.1,-0.21 -0.17,-0.12 -0.43,0.59 -0.46,1.2 -3.95,8.21 -4.58,9.2 -2.85,4.38 -5.17,7.17 -8.99,10.8 -2.61,2.48 -4.51,3.9 -7.35,5.56 -1.35,0.77 -12.37,6.37 -12.56,6.37 -0.46,0 5.99,-6.76 7.51,-7.89 0.43,-0.31 1.19,-0.9 1.67,-1.3 0.52,-0.41 1.32,-1 1.81,-1.34 0.51,-0.32 1.14,-0.75 1.43,-0.98 0.29,-0.21 0.68,-0.48 0.87,-0.61 0.22,-0.12 0.99,-0.63 1.75,-1.11 0.76,-0.48 1.69,-1.02 2.06,-1.2 0.7,-0.32 0.95,-0.56 0.66,-0.59 -1.8,-0.16 -6.93,0.99 -8.63,1.94 -0.32,0.17 -1.29,0.74 -2.14,1.24 -0.86,0.51 -1.85,1.1 -2.2,1.3 -0.35,0.21 -1.49,0.94 -2.52,1.64 -1.03,0.7 -2.49,1.68 -3.25,2.17 -0.76,0.49 -1.84,1.26 -2.39,1.71 -0.56,0.45 -1.34,1.08 -1.72,1.36 -2.52,1.88 -4.16,3.25 -6.59,5.46 -0.75,0.68 -1.82,1.64 -2.36,2.12 l -0.99,0.86 -0.1,-2.03 c -0.1,-2 -0.16,-2.48 -0.91,-5.2 -0.24,-0.95 -0.98,-2.49 -1.5,-3.16 -1.32,-1.75 -3.4,-2.73 -5.5,-2.64 l -0.87,0.1 0.67,0.47 c 1.38,0.99 2.9,3.23 3.28,4.89 0.31,1.26 0.22,3.32 -0.25,5.53 -0.59,2.87 -0.99,3.93 -2.68,7.06 -0.34,0.66 -0.84,1.62 -1.12,2.14 -0.9,1.76 -1.81,3.11 -3.96,5.79 -1.15,1.46 -2.28,2.9 -2.48,3.21 -0.21,0.3 -1.62,1.81 -3.14,3.31 -3.4,3.42 -3.85,3.93 -5,5.59 -0.11,0.16 -0.32,0.41 -0.45,0.55 -1.07,1.15 -3.98,5.96 -5.39,8.897 -0.83,1.8 -2.04,5.16 -2.33,6.47 -0.1,0.27 -0.219,1.12 -0.388,1.86 -0.258,1.17 -0.298,1.76 -0.298,4.14 0,2.91 0.1,3.7 0.686,5.57 0.74,2.2 2.13,4.39 3.7,5.76 l 0.71,0.63 -0.58,0.8 c -0.32,0.44 -0.64,0.77 -0.73,0.75 -0.1,-0.1 -0.37,-0.51 -0.63,-1.08 -0.42,-0.87 -0.56,-1.06 -1.2,-1.47 -1.3,-0.87 -2.871,-1.06 -4.988,-0.62 -1.2,0.25 -2.39,0.8 -4.16,1.92 -0.99,0.64 -3.74,1.92 -5.82,2.74 -0.97,0.37 -2.97,1.19 -4.46,1.81 -4.31,1.79 -5.31,2.15 -7.19,2.52 -0.95,0.18 -2.2,0.42 -2.77,0.53 -1.09,0.23 -2.39,0.76 -3.2,1.3 -0.7,0.49 -1.39,1.62 -1.77,2.94 l -0.33,1.15 -10.15,3.86 c -5.58,2.14 -10.29,3.9 -10.48,3.95 -0.23,0.1 -0.62,-0.1 -1.27,-0.42 -0.51,-0.25 -1.49,-0.64 -2.18,-0.85 -1.35,-0.44 -6.65,-1.67 -6.75,-1.57 -0.1,0.1 -0.1,9.66 -0.1,21.43 -0.1,16.97 0,21.36 0.12,21.48 0.22,0.33 21.55,9.76 22.62,10.09 0.91,0.19 1.98,0.19 2.53,0.1 0.49,-0.2 0.84,-0.58 1.71,-1.69 1.28,-1.66 1.47,-2.26 1.17,-3.54 -0.1,-0.45 -0.1,-0.58 0.16,-0.97 1.04,-1.36 1.78,-3.04 1.78,-3.87 0,-0.27 -0.1,-0.78 -0.21,-1.1 -0.13,-0.26 -0.2,-0.84 -0.19,-1.23 0.1,-0.78 -0.17,-1.48 -0.52,-1.94 -0.18,-0.2 -0.2,-0.38 -0.1,-0.71 0.1,-0.18 0.12,-0.64 0.12,-0.9 l 0,-0.45 7.58,-3.91 7.61,-3.97 0.16,0.94 c 0.1,0.48 0.21,1.25 0.22,1.69 0.1,0.95 0.28,2.01 0.57,3.33 0.58,2.37 0.98,4.17 1.64,7.22 0.86,3.94 2.99,12.45 3.52,14 0.21,0.58 0.51,1.36 0.67,1.68 l 0.3,0.72 23.718,0 23.71,0 0,-0.26 z m -20.05,-0.51 c 0.89,-1.43 1.09,-1.88 1.47,-3.3 0.34,-1.29 0.4,-1.8 0.47,-3.5 0.1,-1.15 0.1,-2.06 0.1,-2.06 0.1,0 1.92,0.77 3.43,1.43 1.89,0.77 5.37,2.65 8.02,4.26 1.72,1.16 4.66,3.17 4.84,3.49 0.1,0.1 -3.22,0.12 -9.24,0.12 l -9.32,0 0.27,-0.44 z M 87.932,201.3 c -0.22,-0.57 -0.48,-1.22 -0.59,-1.48 -0.44,-0.97 -2.79,-10.46 -3.75,-14.98 -0.24,-1.29 -0.72,-3.5 -1.03,-4.91 -0.32,-1.4 -0.61,-2.73 -0.65,-2.98 -0.12,-0.6 -0.34,-2.51 -0.41,-3.58 l -0.1,-0.9 8.11,-4.23 8.122,-4.22 1.302,1.25 c 0.885,0.87 1.634,1.47 2.404,1.86 0.59,0.33 1.13,0.64 1.2,0.68 0.1,0 -0.11,0.43 -0.3,0.95 -0.22,0.52 -0.65,1.73 -0.96,2.71 -0.49,1.55 -0.58,1.99 -0.66,3.45 -0.1,1.25 -0.1,2.03 0.12,2.93 0.67,4.4 5.09,9.32 11.25,12.41 2.8,1.42 2.93,1.5 3.4,2.33 0.53,1.03 0.67,2.33 0.36,4 -0.39,2.38 -0.8,3.55 -1.79,5.03 l -0.48,0.78 -12.59,0 -12.598,0 -0.4,-1.1 z m -29.05,-5.03 c -0.34,-0.12 -5.54,-2.4 -11.55,-5.04 l -10.93,-4.84 -0.1,-18.97 c 0,-10.42 0,-18.93 0.1,-18.93 0.1,0 0.3,0.1 0.56,0.12 0.26,0.1 0.97,0.26 1.62,0.41 1.69,0.4 2.97,0.86 3.94,1.36 0.96,0.5 2.67,1.93 3.23,2.71 0.5,0.69 1.52,2.66 1.75,3.39 0.22,0.78 1.08,3.22 1.22,3.57 0.1,0.13 0.31,0.83 0.53,1.52 0.22,0.65 0.45,1.32 0.51,1.46 0.1,0.13 0.27,0.74 0.46,1.29 0.19,0.57 0.4,1.16 0.47,1.3 0.1,0.13 0.28,0.77 0.49,1.41 0.22,0.66 0.63,1.85 0.91,2.67 0.29,0.82 0.7,2 0.91,2.59 0.57,1.59 1.24,3.5 1.33,3.75 0.1,0.1 0.17,0.43 0.28,0.78 0.1,0.31 0.21,0.65 0.25,0.77 0.1,0.17 0.1,0.17 -0.47,0.1 -1.4,-0.25 -2.89,0.1 -3.51,0.83 -0.72,0.78 -0.72,2.21 0,3.04 0.3,0.33 0.3,0.39 0.11,0.84 -0.42,1.04 -0.1,2.52 0.72,3.04 0.3,0.32 0.34,0.39 0.3,0.77 -0.11,0.78 0.3,2.01 0.85,2.59 0.24,0.19 0.47,0.45 0.52,0.45 0.1,0 0,0.25 -0.12,0.64 -0.38,1.04 -0.18,1.69 0.83,2.52 1.36,1.16 5.05,2.19 6.23,1.81 0.22,-0.1 0.29,-0.1 0.4,0.26 0.25,0.7 0.29,1.1 0.15,1.42 -0.19,0.57 -0.88,0.71 -2.01,0.39 z m 2.42,-1.81 c -0.1,-0.33 -0.14,-0.45 -0.12,-0.51 0,-0.1 0.37,-0.33 0.76,-0.58 0.75,-0.53 1.01,-0.53 0.79,0.1 -0.17,0.57 -1.06,1.74 -1.17,1.66 -0.1,-0.11 -0.17,-0.31 -0.26,-0.58 z m -2.98,-1.62 c -2.2,-0.45 -4.02,-1.54 -4.02,-2.19 0,-0.39 0.38,-1.03 0.61,-1.11 0.1,-0.1 0.42,0.1 0.72,0.14 0.57,0.26 2.72,0.97 3.35,1.16 0.67,0.1 1.51,-0.39 2.96,-1.93 0.75,-0.78 1.56,-1.62 1.8,-2 0.4,-0.52 0.44,-0.59 0.61,-0.4 0.21,0.33 0.21,1.29 0,1.88 -0.4,0.9 -1.89,3.04 -2.63,3.67 -0.72,0.53 -1.73,0.99 -2.18,0.99 -0.22,0.1 -0.76,-0.1 -1.23,-0.21 z m -0.85,-3.1 c -3.09,-0.97 -4.32,-1.94 -4.32,-3.23 0,-0.64 0.17,-0.77 0.79,-0.58 0.31,0.13 1.44,0.46 2.5,0.65 l 1.94,0.59 0.65,-0.33 c 0.36,-0.2 1.51,-1.03 2.57,-1.88 l 1.91,-1.48 0.31,0.33 c 0.88,0.77 0.31,2.06 -2.03,4.58 -0.59,0.58 -1.34,1.29 -1.67,1.48 -0.67,0.39 -0.97,0.39 -2.65,-0.13 z m -0.87,-3.68 c -1.89,-0.45 -3.18,-0.9 -3.79,-1.29 -0.82,-0.45 -1.07,-1.48 -0.56,-2.12 0.35,-0.53 0.78,-0.65 1.73,-0.32 1.56,0.51 3.15,0.96 3.57,0.96 0.25,0 0.7,-0.14 1.01,-0.27 0.62,-0.32 2.76,-1.86 3.53,-2.57 l 0.48,-0.45 0.43,0.25 c 0.59,0.32 0.84,1.09 0.62,1.87 -0.18,0.65 -0.6,1.03 -2.95,2.91 -1.21,0.97 -1.99,1.48 -2.33,1.48 -0.1,0 -0.88,-0.26 -1.74,-0.45 z m -0.87,-3.81 c -2.41,-0.63 -3.6,-1.03 -3.87,-1.42 -0.55,-0.71 -0.45,-1.41 0.28,-1.86 0.51,-0.3 1.08,-0.3 3.63,0.2 l 1.77,0.38 0.49,-0.38 c 0.96,-0.81 1,-0.84 0.73,-1.58 -0.33,-0.95 -0.24,-0.98 1.25,-0.73 2.06,0.38 2.31,0.61 2.31,1.9 0,0.79 -0.26,1.1 -2.14,2.53 -2.14,1.61 -2.15,1.61 -4.45,0.96 z m 8.31,-2.7 c -0.25,-0.26 -0.42,-0.51 -0.42,-0.75 0,-0.18 -0.1,-0.61 -0.16,-0.99 -0.19,-0.81 -0.73,-1.43 -1.62,-1.72 -0.37,-0.14 -0.67,-0.3 -0.66,-0.35 0.1,-0.17 39.868,-23.4 40.208,-23.48 0.82,-0.12 2.58,1.03 4.34,2.85 1.3,1.34 1.97,2.24 1.78,2.41 -0.11,0.12 -42.888,22.41 -42.978,22.41 -0.1,-0.1 -0.27,-0.26 -0.49,-0.38 z m -7.71,-1.47 c -0.63,-0.14 -0.77,-0.23 -0.88,-0.49 -0.21,-0.54 -1.39,-3.83 -1.86,-5.26 -0.24,-0.7 -0.64,-1.84 -0.9,-2.58 -0.27,-0.69 -0.58,-1.59 -0.71,-1.98 -0.12,-0.39 -0.57,-1.67 -0.97,-2.79 -0.4,-1.13 -0.84,-2.38 -0.97,-2.76 -0.39,-1.16 -1.74,-5.05 -2.22,-6.34 -0.68,-1.77 -1.54,-3.1 -2.82,-4.34 -1.67,-1.6 -3.61,-2.5 -7.01,-3.24 l -1.65,-0.36 0,-1.07 c 0,-0.67 0.1,-1.09 0.12,-1.09 0.36,0 4.29,0.95 5.43,1.29 0.7,0.22 1.74,0.62 2.3,0.91 1.15,0.57 2.78,1.94 3.45,2.88 0.82,1.16 1.78,3.38 2.61,6.06 0.1,0.3 0.23,0.69 0.3,0.81 0.1,0.13 0.31,0.82 0.53,1.51 0.22,0.64 0.45,1.34 0.51,1.46 0.1,0.13 0.27,0.74 0.46,1.31 0.2,0.55 0.4,1.15 0.46,1.29 0.1,0.11 0.29,0.77 0.49,1.41 0.22,0.66 0.63,1.84 0.92,2.67 0.29,0.78 0.7,1.94 0.91,2.58 0.48,1.39 1.23,3.5 1.33,3.75 0.1,0.1 0.23,0.66 0.41,1.21 0.18,0.55 0.39,1.17 0.45,1.29 0.24,0.51 0.53,1.78 0.45,1.9 -0.1,0.18 -0.24,0.18 -1.14,-0.1 z m 1.3,-3.77 c -0.25,-0.71 -1.82,-5.25 -3.52,-10.03 -3.56,-10.21 -3.49,-9.95 -3.4,-10.04 0.1,-0.1 3.81,-1.28 8.39,-2.77 4.58,-1.5 8.42,-2.75 8.53,-2.79 0.16,-0.1 0.33,0.11 0.59,0.55 1.62,2.83 5,4.97 8.41,5.4 1.3,0.18 2.01,0 3.18,-0.77 0.55,-0.4 1.06,-0.7 1.08,-0.67 0.1,0.1 -0.1,0.53 -0.14,1.14 -0.4,2.24 -0.45,2.53 -0.65,4.91 -0.11,1.31 -0.23,2.77 -0.29,3.28 l -0.11,0.89 -10.32,6.04 c -5.68,3.31 -10.46,6.07 -10.6,6.12 -0.69,0.13 -0.69,0.13 -1.15,-1.26 z m 47.968,-6.75 c -1.01,-0.18 -2.82,-0.96 -4.21,-1.81 -0.72,-0.38 -2.483,-2.02 -2.483,-2.24 0,-0.14 8.833,-4.76 9.203,-4.83 0.1,-0.1 0.29,0.25 0.51,0.85 0.27,0.75 0.33,1.12 0.33,2.31 0,1.46 -0.2,2.05 -1.02,3.14 -0.76,0.99 -2.09,1.2 -3.94,0.72 -0.52,-0.17 -0.98,-0.25 -1.02,-0.22 -0.1,0.1 0.89,0.57 1.69,0.78 2.74,0.77 4.58,-0.56 5.02,-3.66 0.49,-3.44 -2.16,-8.01 -5.99,-10.41 -1.1,-0.66 -3.46,-1.1 -4.475,-0.79 -0.627,0.2 -1.621,0.98 -1.989,1.58 -0.314,0.53 -1.424,1.18 -1.424,0.84 0,-0.31 1,-1.95 1.563,-2.53 0.537,-0.61 2.775,-2.11 5.695,-3.87 1.17,-0.69 2.98,-1.92 4.02,-2.71 2.45,-1.89 6.23,-4.9 6.46,-5.18 0.1,-0.14 -1.29,0.83 -3.12,2.13 -1.8,1.28 -3.7,2.57 -4.22,2.87 -0.52,0.29 -1.48,0.85 -2.13,1.22 -0.63,0.37 -1.57,0.85 -2.05,1.05 -1.16,0.48 -4.834,2.93 -5.508,3.65 -0.77,0.85 -1.49,2.12 -1.93,3.41 l -0.4,1.12 -6.39,3.74 c -3.52,2.07 -6.47,3.8 -6.52,3.8 -0.16,0.1 0.1,-3.84 0.3,-5.44 0.1,-0.47 0.21,-1.29 0.26,-1.72 0.1,-0.47 0.23,-1.33 0.35,-1.93 0.18,-0.88 0.26,-1.05 0.43,-0.99 0.55,0.25 1.56,0.44 2.13,0.44 l 0.67,0 -0.47,-0.2 c -0.24,-0.1 -0.86,-0.37 -1.36,-0.57 -1.13,-0.47 -2.13,-1.39 -2.88,-2.65 -0.94,-1.6 -1.12,-2.94 -0.72,-5.43 0.46,-2.8 1.76,-4.92 4.37,-7 1.95,-1.57 3.92,-2.32 7.35,-2.81 1.57,-0.22 1.64,-0.25 2.77,-1.07 0.86,-0.63 1.28,-1.17 0.52,-0.68 -1.35,0.9 -2.43,1.23 -4.41,1.35 -1.51,0.1 -3.93,0.61 -5.05,1.07 -1.98,0.78 -4.96,3.83 -5.95,6.06 -0.38,0.88 -0.8,2.38 -0.83,3.01 0,0.13 -0.39,-0.54 -0.83,-1.48 -0.97,-1.9 -1.78,-3.1 -3.02,-4.36 -0.91,-0.93 -1.28,-1.16 -2.31,-1.38 -1.17,-0.27 -2.55,0.36 -2.97,1.36 -0.12,0.29 -0.33,0.45 -0.78,0.61 -0.34,0.12 -0.63,0.2 -0.68,0.16 -0.14,-0.14 0.31,-1.24 0.73,-1.82 0.73,-0.98 1.97,-1.53 4.33,-1.93 2.9,-0.5 4.1,-0.87 7.01,-2.07 1.49,-0.62 4.01,-1.63 5.6,-2.27 3.53,-1.41 5.43,-2.3 6.87,-3.17 0.61,-0.37 1.57,-0.91 2.15,-1.19 2.424,-1.28 5.618,-1.07 6.418,0.38 0.1,0.19 0,0.25 -0.59,0.37 -0.968,0.2 -1.952,0.8 -2.47,1.53 -0.258,0.34 -0.457,0.63 -0.457,0.67 0,0.1 0.348,-0.25 0.766,-0.66 1.213,-1.12 2.141,-1.27 3.151,-0.48 l 0.37,0.3 -1.02,0.76 c -1.069,0.78 -3.396,3.15 -4.098,4.15 -2.43,3.51 -2.93,4.59 -3.14,6.76 -0.1,0.65 -0.1,0.87 0.25,1.47 0.29,0.62 0.41,0.75 1.01,1.02 0.62,0.28 0.88,0.32 2.184,0.32 0.855,0 1.959,-0.11 2.566,-0.24 1.228,-0.25 3.498,-1.05 5.098,-1.76 0.59,-0.28 2.08,-0.95 3.29,-1.49 1.21,-0.53 2.56,-1.19 3,-1.44 0.96,-0.51 5.52,-3.99 6.62,-5.03 0.43,-0.38 0.55,-0.43 1.52,-0.51 0.59,-0.1 1.08,-0.1 1.08,0 0,0.1 -0.32,0.43 -0.7,0.81 -0.4,0.38 -0.91,0.97 -1.14,1.28 -0.41,0.61 -0.38,0.59 0.57,-0.21 0.82,-0.69 3.64,-2.04 4.99,-2.34 2.11,-0.53 3.95,-0.17 4.64,0.92 1.06,1.67 0.83,3.57 -0.86,6.96 -0.95,1.9 -2.75,4.48 -8.35,11.93 -3.22,4.33 -4.16,5.65 -5.49,7.99 -2.77,4.78 -4.85,7.2 -6.61,7.71 -0.6,0.18 -0.73,0.18 -1.85,-0.1 z M 75.622,153.21 c -1.6,-0.33 -4.05,-1.76 -5.23,-3.06 -0.51,-0.57 -1.43,-1.89 -1.33,-1.96 0.1,0 2.12,-0.7 4.64,-1.55 l 4.59,-1.48 0.18,0.41 c 0.1,0.22 0.14,0.56 0.1,0.78 -0.1,0.22 0.1,0.9 0.19,1.54 l 0.26,1.13 -0.27,0.81 c -0.26,0.81 -0.66,1.32 -1.25,1.62 -0.41,0.2 -1.46,0.19 -2.52,-0.1 -1.13,-0.25 -1.38,-0.18 -0.64,0.21 2,1.02 3.44,1.01 4.43,0 0.25,-0.29 0.54,-0.74 0.63,-1.03 0.1,-0.28 0.19,-0.48 0.25,-0.45 0.1,0.1 0.32,0.4 0.58,0.79 0.55,0.84 0.61,0.76 -0.92,1.79 -1,0.69 -1.05,0.69 -1.93,0.69 -0.49,0 -1.29,-0.1 -1.76,-0.17 z m -25.55,-0.34 c -0.1,-0.1 -0.16,-0.25 -0.16,-0.37 0,-0.4 -1.33,-2.44 -2.15,-3.26 -0.49,-0.48 -0.85,-0.89 -0.81,-0.93 0.13,-0.13 26.66,-10.16 26.88,-10.16 0.25,0 1.15,0.95 2.12,2.25 0.52,0.7 1.89,3.28 1.89,3.56 0,0.1 -1.71,0.67 -3.78,1.36 -2.09,0.68 -8.23,2.68 -13.68,4.46 -5.44,1.78 -9.95,3.24 -10.01,3.24 -0.1,0 -0.21,-0.1 -0.3,-0.15 z m 45.54,-10.83 -0.64,-0.28 0.52,-0.47 c 1.35,-1.18 3.116,-2.38 4.688,-3.17 1.82,-0.93 1.94,-1.07 0.47,-0.57 -1.803,0.62 -3.828,1.74 -5.118,2.82 -0.5,0.4 -0.64,0.45 -0.75,0.31 -0.48,-0.58 -0.17,-2.42 0.69,-4.11 0.76,-1.45 2.669,-4.2 3.783,-5.34 0.566,-0.61 2.885,-2.38 3.115,-2.38 0.1,0 0.27,0.15 0.41,0.36 0.36,0.49 0.76,0.6 0.95,0.26 0.1,-0.15 0.5,-0.78 0.93,-1.38 0.43,-0.62 0.79,-1.14 0.8,-1.15 0,-0.1 0.32,0.1 0.66,0.28 1.07,0.53 2.09,0.97 2.24,0.97 0.1,0 0.38,0.1 0.7,0.21 0.3,0.1 0.81,0.22 1.11,0.26 0.32,0.1 0.62,0.1 0.66,0.14 0.26,0.15 3.71,0.28 4.47,0.15 0.27,-0.1 0.54,-0.1 0.6,-0.1 0.1,0.1 -0.49,0.78 -1.2,1.66 -1.64,2.02 -1.67,2.4 -0.24,2.11 0.38,-0.1 1.24,-0.11 1.96,-0.11 1.55,0 1.56,-0.1 -0.32,1.38 -3.19,2.42 -6.05,4.15 -9.3,5.68 -2.33,1.08 -3.35,1.47 -4.91,1.94 -2.914,0.84 -5.048,1 -6.278,0.44 z m 15.658,-14.43 c -1.53,-0.2 -3.56,-0.91 -5.3,-1.91 -0.77,-0.43 -2.58,-2.22 -3.24,-3.23 -2.28,-3.39 -2.819,-8.34 -1.46,-13.73 0.98,-4.01 2.89,-8.21 5.55,-12.267 0.54,-0.85 1.66,-2.46 2.02,-2.9 0.1,-0.13 0.66,-0.82 1.25,-1.58 2.12,-2.64 5.87,-6.41 7.8,-7.81 1.62,-1.14 6.03,-3.42 8.07,-4.14 2.2,-0.77 5.14,-1.5 6.71,-1.68 3.37,-0.37 4.34,-0.33 6.41,0.27 4.32,1.26 7.38,3.45 9.07,6.47 0.98,1.79 0.99,1.85 1.25,3.19 0.35,1.7 0.23,4.6 -0.24,6.37 -0.33,1.27 -1.26,3.25 -1.81,3.92 -0.15,0.19 -0.59,0.76 -0.96,1.298 -0.81,1.139 -1.84,2.349 -2.89,3.419 -0.49,0.5 -0.94,1.16 -1.27,1.83 -0.45,0.87 -0.54,1.27 -0.75,2.77 -0.36,2.42 -0.64,3.24 -1.46,4.27 -0.77,0.95 -2.33,2.07 -4.08,3 -0.6,0.29 -1.11,0.58 -1.14,0.63 -0.1,0.12 1.07,0.23 1.95,0.19 0.43,0 1.32,-0.16 2,-0.33 2.6,-0.6 3.79,-0.67 5.01,-0.25 0.97,0.33 1.61,0.97 1.81,1.87 0.52,2.27 -1.94,4.71 -5.74,5.66 -2.92,0.75 -5.83,0.24 -7.09,-1.24 l -0.42,-0.51 -1.26,0.8 c -2.44,1.54 -5,2.82 -7.44,3.76 -1.58,0.57 -3.41,1.19 -4.2,1.35 -0.2,0.1 -0.54,0.11 -0.71,0.13 -1.23,0.27 -1.7,0.33 -2.57,0.4 -0.54,0.1 -1,0.11 -1.03,0.13 -0.1,0.1 -3.1,-0.1 -3.84,-0.15 z m 24.26,-7.34 c -0.15,-0.14 -0.27,-0.33 -0.27,-0.43 0,-0.19 0.57,-0.56 0.91,-0.56 0.34,0 1.51,0.49 1.92,0.8 0.42,0.33 1.44,0.31 1.85,0 0.18,-0.14 0.5,-0.6 0.72,-1.02 0.23,-0.41 0.5,-0.84 0.61,-0.92 0.25,-0.21 1.2,-0.1 1.52,0.21 0.29,0.27 0.3,1.1 0,1.54 -0.34,0.52 -0.1,0.54 0.42,0.1 0.7,-0.76 0.73,-1.43 0.14,-2.1 -0.72,-0.85 -2.24,-0.42 -3.45,0.96 -0.78,0.91 -0.93,0.91 -2.02,0.43 -1.06,-0.49 -2.45,-0.51 -2.94,-0.1 -0.61,0.57 -0.27,1.43 0.57,1.43 l 0.27,0 -0.27,-0.28 z m -16.54,-4.12 c 1.44,-0.95 3.72,-3.17 4.37,-4.28 1.21,-2.08 1.21,-3.71 0,-5.76 -0.79,-1.33 -3.02,-3.44 -4.88,-4.65 -0.91,-0.59 -2.95,-1.469 -4.39,-1.907 -0.97,-0.3 -1.25,-0.34 -2.32,-0.26 -1.5,0.1 -1.89,0.29 -3.28,1.717 -1,1.04 -1.19,1.4 -1.11,2.05 0.1,0.33 -0.1,0.48 -0.8,1.11 -0.46,0.41 -1.08,0.99 -1.37,1.31 -0.67,0.75 -1.48,2.14 -1.48,2.52 0,0.16 0,0.29 0.1,0.29 0,0 0.3,-0.1 0.62,-0.18 0.59,-0.16 2.2,-0.19 2.95,-0.1 0.22,0.1 1.09,0.37 1.95,0.71 2.08,0.84 4.98,2.75 6.36,4.18 1.14,1.18 1.56,1.87 1.85,3.07 0.13,0.44 0.24,0.84 0.26,0.86 0,0 0.57,-0.34 1.25,-0.77 z m -1.36,-1.82 c -0.93,-1.97 -3.46,-4.09 -6.85,-5.73 -2.01,-0.97 -2.82,-1.21 -4.51,-1.31 l -1.25,-0.1 0.28,-0.51 c 0.67,-1.22 3.11,-3.46 3.76,-3.46 0.13,0 0.19,-0.1 0.15,-0.14 -0.1,-0.1 -0.3,-0.12 -0.59,-0.1 -0.42,0.1 -0.51,0 -0.57,-0.19 -0.16,-0.49 0.97,-1.78 2.16,-2.48 1.18,-0.677 2.77,-0.528 5.53,0.56 2.34,0.94 3.63,1.8 5.36,3.55 2.86,2.93 3.08,4.93 0.87,8 -0.78,1.07 -1.17,1.44 -2.53,2.44 -1.04,0.74 -1.21,0.69 -1.81,-0.58 z m 2.5,-5.17 c -1.03,-1.92 -4.05,-4.39 -6.33,-5.15 -0.47,-0.13 -1.1,-0.34 -1.41,-0.45 -0.32,-0.1 -0.53,-0.13 -0.46,-0.1 0.1,0.1 0.45,0.21 0.84,0.34 1.48,0.46 4.17,2.33 6.03,4.17 0.82,0.81 1.42,1.34 1.33,1.17 z m 7.55,-7.29 c 0.1,-0.1 0.16,-0.1 0.3,-0.1 0.12,-0.1 0.49,-0.14 0.81,-0.28 3.26,-1.29 6.41,-4.497 7.06,-7.187 0.38,-1.5 0,-2.42 -1.15,-3.01 -0.74,-0.38 -1.4,-0.4 -2.41,-0.12 -0.39,0.11 -0.81,0.21 -0.91,0.24 -0.12,0.1 -0.54,0.23 -0.97,0.47 -3.33,1.79 -6.11,5.21 -6.18,7.6 -0.1,0.907 0.27,1.477 1.05,2.007 0.47,0.33 0.68,0.39 1.44,0.41 0.5,0 0.94,0 0.96,-0.1 z m -1.86,-0.67 c -0.92,-0.35 -1.25,-1.488 -0.84,-2.757 0.82,-2.57 4.36,-5.93 6.99,-6.63 0.7,-0.19 0.77,-0.2 1.29,-0.26 0.81,-0.1 1.22,0.1 1.68,0.52 0.72,0.73 0.7,1.81 -0.1,3.34 -0.66,1.31 -1.41,2.2 -2.74,3.36 -1.72,1.487 -2.7,2.007 -4.81,2.597 -0.23,0.1 -1.18,-0.1 -1.49,-0.17 z m 0.95,-0.53 c 0.94,-0.3 1.76,-1.277 1.76,-2.107 0,-0.72 -0.37,-1.06 -1.08,-0.95 -0.61,0.11 -1.4,0.6 -1.78,1.16 -0.34,0.45 -0.44,1.347 -0.21,1.657 0.21,0.29 0.82,0.39 1.31,0.24 z m -11.21,-3.887 c 1.49,-0.26 2.9,-1.37 4.16,-3.3 0.85,-1.32 1.18,-2.25 1.28,-3.6 0.1,-0.9 0.1,-1.15 -0.2,-1.7 -0.37,-0.83 -0.72,-1.18 -1.49,-1.56 -0.66,-0.29 -0.91,-0.29 -1.9,0 -1.38,0.46 -2.48,1.39 -3.57,3.07 -1.25,1.93 -1.67,3.65 -1.26,5.1 0.4,1.42 1.59,2.2 2.98,1.98 z m -1.57,-0.79 c -0.67,-0.45 -0.96,-1.17 -0.96,-2.28 0,-2.92 2.67,-6.38 5.18,-6.69 0.78,-0.11 1.6,0.33 1.97,1.05 0.36,0.65 0.37,2.13 0.1,3.17 -0.29,0.94 -1.39,2.73 -2.06,3.43 -0.65,0.61 -1.56,1.24 -2.1,1.44 -0.68,0.25 -1.58,0.18 -2.09,-0.12 z m 1.86,-0.56 c 0.69,-0.59 0.85,-2.22 0.25,-2.54 -0.34,-0.17 -1.04,-0.1 -1.3,0.25 -0.34,0.38 -0.51,1.25 -0.35,1.83 0.22,0.83 0.75,0.99 1.39,0.46 z m 22.79,-0.49 c 1.15,-0.7 2.61,-3.04 2.81,-4.51 0.11,-0.72 0.1,-0.89 -0.15,-1.33 -0.73,-1.36 -2.44,-1.45 -3.09,-0.2 -0.24,0.46 -0.24,0.49 0,1.17 0.43,1.26 0.46,2.38 0.1,3.62 -0.33,1.1 -0.39,1.55 -0.22,1.55 0.1,0 0.31,-0.14 0.57,-0.3 z m 0.31,-1.42 c 0.28,-0.68 0.24,-2.11 -0.1,-3.1 -0.14,-0.45 -0.27,-0.95 -0.27,-1.09 0,-0.39 0.49,-0.69 1.12,-0.69 0.44,0 0.6,0.1 0.9,0.41 0.31,0.38 0.32,0.47 0.26,1.19 -0.11,0.99 -0.76,2.38 -1.51,3.23 -0.28,0.34 -0.55,0.58 -0.59,0.56 -0.1,-0.1 0.1,-0.26 0.15,-0.51 z m -17.71,-8.42 c 0.28,-0.15 0.89,-0.49 1.36,-0.74 1.01,-0.58 1.46,-0.7 2.68,-0.65 0.88,0.1 0.95,0 1.33,-0.36 0.63,-0.64 0.43,-1.71 -0.42,-2.15 -0.48,-0.25 -0.93,-0.2 -2.05,0.35 -1.7,0.8 -2.86,1.82 -3.3,2.94 -0.33,0.8 -0.23,0.96 0.4,0.61 z m 0.73,-1.38 c 0.51,-0.65 1.67,-1.44 2.64,-1.79 1.24,-0.46 1.77,-0.3 1.77,0.53 0,0.58 -0.3,0.73 -1.15,0.66 -0.88,-0.1 -2.13,0.21 -2.9,0.73 -0.78,0.52 -0.86,0.49 -0.36,-0.13 z m 16.16,30.727 c 2.79,-1.85 3.43,-2.95 3.92,-6.67 0.27,-2.06 0.68,-2.86 2.38,-4.72 0.71,-0.76 1.54,-1.71 1.83,-2.11 0.32,-0.41 0.81,-1.089 1.14,-1.517 1.27,-1.68 2.29,-4.07 2.63,-6.14 0.2,-1.28 0.16,-3.97 -0.1,-5.15 -0.28,-1.29 -0.53,-1.89 -1.41,-3.44 -1.08,-1.9 -2.01,-2.84 -4.36,-4.44 -1.72,-1.17 -5.58,-2.55 -7.49,-2.7 -0.86,-0.1 -5.34,0.27 -5.57,0.42 -0.1,0.1 -0.68,0.21 -1.43,0.39 -1.82,0.45 -4.36,1.28 -5.56,1.81 -1,0.45 -3.96,2 -5.38,2.81 -0.92,0.53 -0.92,0.48 0.1,-0.62 2.29,-2.67 3.93,-5 5.11,-7.24 0.44,-0.85 1.22,-2.36 1.74,-3.36 1.14,-2.17 1.74,-3.84 2.21,-6.15 0.54,-2.65 0.67,-3.77 0.55,-4.61 -0.24,-1.66 -0.41,-2.33 -0.77,-3.19 -0.22,-0.48 -0.35,-0.92 -0.31,-0.97 0.15,-0.14 1.16,1.08 1.6,1.92 0.43,0.79 0.82,2.06 1.25,3.92 0.15,0.61 0.22,1.65 0.23,3.51 0,2.35 0,2.66 -0.2,2.87 -0.13,0.15 -0.23,0.3 -0.23,0.34 0,0.1 -0.49,0.75 -1.07,1.55 -0.6,0.81 -1.33,1.93 -1.62,2.48 -0.64,1.21 -0.65,1.21 1.45,-1.27 0.7,-0.82 1.7,-1.89 2.24,-2.37 0.55,-0.49 1.4,-1.25 1.91,-1.72 0.99,-0.94 4.98,-4.47 6.2,-5.5 1.62,-1.35 6.66,-5.22 7.65,-5.86 0.56,-0.37 1.85,-1.23 2.88,-1.93 1.04,-0.69 2.73,-1.75 3.77,-2.35 1.02,-0.59 2.29,-1.34 2.83,-1.64 1.03,-0.59 2.31,-1.13 2.43,-1.02 0.1,0.1 0.21,0 -1.52,1.18 -0.82,0.54 -1.79,1.26 -2.17,1.57 -0.38,0.33 -1.05,0.86 -1.49,1.17 -0.83,0.61 -4.28,4.03 -6.05,6.01 -0.57,0.63 -1.44,1.78 -1.95,2.54 -1.15,1.76 -1.11,1.72 -2.35,2.44 -2.71,1.53 -6.13,4.08 -8.1,5.99 -1.17,1.11 -1.14,1.1 1.49,-0.8 2.59,-1.91 5.4,-3.44 14.35,-7.92 4.55,-2.29 8.99,-4.58 9.87,-5.12 2.86,-1.69 4.96,-3.39 7.96,-6.4 3.7,-3.72 5.46,-5.86 7.86,-9.64 0.73,-1.14 0.96,-1.53 1.79,-3.16 0.42,-0.84 0.77,-1.49 0.77,-1.45 0,0.23 -1.33,4.57 -1.51,4.9 -0.1,0.19 -0.38,0.98 -0.64,1.76 -0.81,2.46 -2,5.01 -3.72,7.98 -0.67,1.17 -2.46,3.91 -2.85,4.33 -0.15,0.18 -0.56,0.7 -0.87,1.15 -0.33,0.47 -1.05,1.34 -1.62,1.95 -1.02,1.12 -1.59,1.79 -2.44,2.93 -0.77,1.02 -1.59,1.82 -2.89,2.83 -0.69,0.5 -1.38,1.1 -1.56,1.29 l -0.33,0.37 0.33,-0.21 c 0.18,-0.12 0.76,-0.49 1.29,-0.83 0.54,-0.33 1.49,-0.96 2.14,-1.39 0.64,-0.45 1.77,-1.08 2.53,-1.42 3.13,-1.43 4.69,-2.39 8,-4.78 2.23,-1.61 6.76,-5.73 8.05,-7.32 0.26,-0.32 0.49,-0.52 0.49,-0.43 0,0.18 -1.62,2.85 -1.95,3.21 -0.11,0.13 -0.57,0.78 -1.03,1.41 -1.33,1.91 -5.83,6.64 -7.75,8.15 -2.03,1.59 -2.81,2.2 -3.5,2.75 -1.05,0.86 -1.48,1.03 -3.98,1.64 -4.35,1.09 -7.62,2.43 -10.36,4.28 -1.68,1.12 -3.12,2.24 -3.12,2.43 0,0.1 0.2,-0.1 0.44,-0.22 0.7,-0.54 2.8,-1.84 3.9,-2.38 2.16,-1.08 4.09,-1.7 8.72,-2.82 5.14,-1.23 7.47,-1.83 8.35,-2.18 1.44,-0.56 5.76,-2.74 6.39,-3.24 0.33,-0.24 1.08,-0.79 1.69,-1.22 2.38,-1.67 4.98,-4.03 6.44,-5.8 1.03,-1.24 2.72,-3.66 2.72,-3.87 0,-0.2 0.75,-0.98 0.81,-0.85 0.1,0.1 -0.1,0.65 -0.23,1.29 -0.98,3.8 -4.27,10.08 -7.36,14.01 -1.06,1.34 -3.9,4.13 -5.42,5.33 -0.43,0.33 -1.07,0.84 -1.43,1.13 -1.19,0.96 -3.99,2.74 -5.48,3.5 -1.67,0.83 -2.73,1.27 -4.89,1.99 -0.8,0.27 -1.44,0.52 -1.4,0.54 0.1,0.1 2.43,-0.57 3.51,-0.97 2.11,-0.8 3.02,-1.19 5.28,-2.22 1.29,-0.59 2.98,-1.34 3.76,-1.68 0.79,-0.33 2.44,-1.07 3.69,-1.61 1.25,-0.55 3.63,-1.45 5.3,-2.01 4.03,-1.32 3.97,-1.31 2.9,-0.51 -0.48,0.37 -1.08,0.82 -1.33,1.03 -1.47,1.12 -2.57,1.91 -3.08,2.24 -0.92,0.56 -4.59,3.33 -5.13,3.89 -0.27,0.28 -0.89,0.83 -1.37,1.24 -1.91,1.66 -3.48,3.2 -4.18,4.13 -0.41,0.54 -1,1.31 -1.32,1.73 -0.32,0.44 -0.57,0.79 -0.55,0.81 0.1,0.1 3.26,-0.41 5.12,-0.81 2.15,-0.44 3.31,-0.82 4.86,-1.65 4.46,-2.34 6.51,-4.1 9.45,-8.02 0.68,-0.93 1.28,-1.71 1.31,-1.74 0.14,-0.16 0.16,0.18 0.1,1.04 -0.34,2.5 -1.95,6.39 -3.56,8.64 -1.32,1.87 -2.68,3.49 -3.64,4.42 -1.14,1.07 -3.71,2.99 -4.93,3.69 -0.52,0.29 -1.04,0.63 -1.17,0.73 -0.31,0.3 -4.96,2.52 -6.86,3.29 -0.91,0.37 -2.25,0.81 -3.05,1.01 -1.69,0.4 -3.15,0.91 -4.91,1.69 -1.28,0.57 -2.91,1.48 -3.31,1.86 -0.13,0.11 -0.32,0.27 -0.46,0.34 -0.29,0.21 0.78,-0.26 2.4,-1.02 1.47,-0.69 2.13,-0.91 3.99,-1.35 0.76,-0.18 1.62,-0.38 1.91,-0.45 0.96,-0.23 6.62,-0.47 8.59,-0.36 3.39,0.2 6.49,0.89 8.46,1.91 l 1.03,0.53 -0.7,-0.1 c -1.14,-0.14 -5.78,-0.1 -7.04,0.1 -6.15,0.88 -9.69,1.947 -15.32,4.617 -2.12,1 -4.64,2.49 -8.09,4.77 -1.42,0.95 -2.96,1.93 -3.42,2.18 -0.46,0.25 -0.82,0.46 -0.78,0.46 0.44,0 4.2,-1.51 5.25,-2.12 0.48,-0.26 0.91,-0.38 1.72,-0.45 0.62,-0.1 1.14,-0.1 1.2,-0.1 0.17,0.11 1.99,-0.22 3.66,-0.65 1.89,-0.5 3.45,-1.11 4.4,-1.74 l 0.65,-0.42 -0.45,0.39 c -1.33,1.15 -6.64,3.94 -10.45,5.5 -1.12,0.45 -2.37,0.99 -2.77,1.15 -1.42,0.65 -3.8,1.47 -4.96,1.75 -5.45,1.27 -6.22,1.4 -7.02,1.23 -1.04,-0.26 -2.08,-0.33 -2.71,-0.18 -0.33,0.1 -1.27,0.27 -2.1,0.46 -1.28,0.26 -1.63,0.34 -2.23,0.44 -0.1,0 0.61,-0.46 1.48,-1.07 z" />

<path class="a" d="m 185.73,397.55 c 1.17,-0.2 1.84,-0.6 2.28,-1.8 0.13,-0.2 0.32,-0.7 0.41,-0.9 0.11,-0.2 0.23,-0.6 0.29,-0.8 0.1,-0.3 0.14,-0.6 0.19,-0.6 0.4,0 29.43,3 29.66,3.1 0.49,0.1 1.37,-0.2 1.81,-0.7 0.64,-0.6 1.23,-2.1 1.24,-3 0,-0.6 -0.1,-0.8 -0.42,-1.2 l -0.41,-0.3 0.48,0.1 c 1.13,0.2 9.09,0.9 9.17,0.8 0.1,-0.1 0.19,-0.6 0.32,-1.2 0.12,-0.8 0.37,-2 0.54,-2.7 0.16,-0.8 0.36,-1.9 0.45,-2.3 0.1,-0.4 0.23,-1.2 0.33,-1.8 0.37,-1.9 0.48,-2.6 0.91,-5 0.23,-1.4 0.67,-3.81 0.97,-5.43 0.3,-1.55 0.61,-3.35 0.68,-4.02 0.1,-0.67 0.2,-1.49 0.28,-2.02 0.49,-2.97 0.56,-8.8 0.14,-11.59 -0.27,-1.71 -0.47,-2.59 -1.27,-5.62 -0.15,-0.55 -0.32,-1.25 -0.38,-1.53 -0.17,-0.79 -1.53,-4.79 -1.82,-5.3 -0.15,-0.28 -0.32,-0.6 -0.38,-0.74 -0.1,-0.19 -0.44,-1.02 -0.89,-1.9 -0.44,-0.89 -0.9,-1.82 -1.01,-2.1 -0.29,-0.59 -1.09,-1.9 -2,-3.24 -0.69,-0.98 -0.75,-1.13 -1.08,-2.84 -0.44,-2.19 -0.94,-3.3 -1.87,-4.24 -0.91,-0.87 -1.94,-1.34 -3.36,-1.57 -0.91,-0.19 -1.35,-0.19 -2.03,-0.1 l -0.88,0.18 -1.03,-0.65 c -3.9,-2.37 -7.88,-3.85 -12.34,-4.69 -1.56,-0.28 -2.35,-0.7 -2.19,-1.07 0.1,-0.14 0.13,-0.42 0.16,-0.6 0.1,-0.28 0.19,-0.42 0.52,-0.51 0.66,-0.14 1.72,-0.7 2.31,-1.26 1.66,-1.48 2.97,-5.19 3.17,-8.97 0.1,-1.85 -0.1,-2.96 -0.68,-4.08 -0.62,-1.25 -1.94,-2.23 -3.13,-2.42 -0.37,-0.1 -0.72,-0.13 -0.77,-0.22 -0.1,-0.1 -0.12,-0.62 -0.12,-1.12 0,-1.39 -0.48,-5.11 -0.86,-6.88 -0.15,-0.65 -0.13,-0.7 0.29,-1.29 0.7,-0.98 0.7,-1.07 0,-6.45 -0.1,-0.61 -0.2,-2.27 -0.26,-3.7 -0.12,-2.23 -0.18,-2.78 -0.5,-3.79 -0.79,-2.49 -1.86,-4.17 -3.96,-6.27 -5.63,-5.63 -15.5,-8.16 -24.68,-6.32 -7.75,1.54 -13.66,5.72 -16.05,11.33 -0.84,1.99 -0.98,2.82 -1.11,6.83 -0.1,2.03 -0.17,3.71 -0.18,3.73 -0.1,0.1 -1.16,-0.1 -2.5,-0.11 -4.06,-0.28 -7.17,0.1 -10.75,1.22 -2.78,0.89 -3.88,1.49 -5.43,2.96 -1.38,1.31 -2.04,2.7 -2.04,4.24 0,1.02 0.26,1.57 1.11,2.37 0.56,0.5 0.89,0.69 2.05,1.06 2.24,0.71 4.14,0.93 7.72,0.93 1.82,0 3.65,-0.1 4.38,-0.19 2.47,-0.37 3.92,-0.59 4.99,-0.89 0.6,-0.17 1.11,-0.26 1.13,-0.22 0.1,0 -0.1,0.65 -0.14,1.35 -0.44,3.34 -0.39,7.61 0.14,11.47 0.11,0.78 0.31,2.23 0.43,3.16 0.3,2.32 0.58,3.9 0.76,4.37 0.1,0.22 0.15,0.74 0.15,1.15 0,0.43 0.1,1.07 0.16,1.49 0.12,0.55 0.12,1.02 0,2 -0.25,1.95 0.15,3.07 1.41,3.9 1.26,0.84 1.45,2.14 1.86,13.33 0.1,2.28 -0.11,9.62 -0.37,13.49 -0.1,1.1 -0.19,3.2 -0.27,4.59 -0.13,2.39 -0.32,4.5 -0.69,7.61 -0.1,0.67 -0.25,1.65 -0.4,2.24 -0.25,0.9 -0.39,1.27 -1.24,3.31 -0.45,1.11 -0.56,2.43 -0.25,3.23 0.1,0.4 0.19,0.7 0.16,0.7 0,0.1 -9.16,-0.8 -20.3,-1.91 -11.16,-1.21 -20.44,-2.02 -20.65,-2.02 -0.19,0.1 -0.52,0.2 -0.7,0.4 -0.31,0.41 -0.32,0.41 -0.39,3.73 -0.1,1.8 -0.1,3.6 0.1,3.8 0.1,0.4 0.96,1.4 1.28,1.4 0.1,0 0.38,0.1 0.66,0.1 l 0.51,0.1 0.1,3.8 c 0.1,3.5 0.1,3.6 0.37,3.9 0.37,0.5 1.6,0.7 4.35,1.1 2.65,0.3 4.29,0.1 5.13,-0.8 0.48,-0.3 1,-1.6 1.69,-3.9 l 0.43,-1.4 0.45,0.1 c 0.25,0.2 0.51,0.2 0.59,0.3 0.1,0.1 0.51,0.1 0.97,0.2 0.47,0.1 1.66,0.5 2.65,0.7 1.65,0.3 3.01,0.7 7.25,1.8 2.15,0.5 3.46,0.6 18.82,2 7.9,0.8 14.54,1.5 14.79,1.6 l 0.44,0.1 0.1,1.8 c 0.1,1.7 0.1,2 0.36,2.3 0.38,0.4 1.61,0.6 4.22,1 1.88,0.2 2.62,0.2 3.63,0.1 z m -3.49,-1.5 c -0.97,-0.1 -2.12,-0.3 -2.55,-0.3 l -0.81,-0.1 0,-4 0,-3.9 0.46,0.1 c 0.24,0.2 2.14,0.3 4.22,0.5 2.05,0.3 3.77,0.4 3.8,0.5 0.11,0.1 -1.24,4.7 -1.66,5.8 -0.8,2 -0.58,1.8 -3.46,1.4 z m 3.61,-0.1 c 0,-0.1 0.1,-0.2 0.12,-0.2 0.26,-0.3 1.6,-4.7 2.04,-6.6 0.1,-0.2 0.16,-0.4 0.36,-0.4 0.34,0 0.34,0.2 0.1,1.3 -0.5,1.8 -1.16,3.8 -1.33,4.3 -0.48,1.1 -0.59,1.4 -0.8,1.4 -0.24,0.3 -0.44,0.3 -0.44,0.2 z m 30.47,-1.2 c -1.49,-0.2 -2.91,-0.5 -4.61,-1 -2.23,-0.6 -6.35,-1.6 -11.35,-2.8 -6,-1.4 -10.25,-2.6 -10.01,-2.6 0.1,0 0,-0.2 -0.18,-0.5 -0.15,-0.2 -0.27,-0.8 -0.27,-1 0,-0.8 0.57,-3.2 0.89,-4.1 0.25,-0.5 0.29,-0.5 1.49,0 0.33,0.3 1.16,0.6 1.86,0.9 0.69,0.3 1.71,0.6 2.25,0.9 1.29,0.6 3.35,1.5 7.38,2.8 1.84,0.7 3.66,1.3 4.04,1.4 0.7,0.3 3.88,1.2 9.34,2.9 1.62,0.5 2.96,1 3.02,1.1 0.1,0.1 -0.12,0.8 -0.51,1.7 -0.4,0.8 -0.47,0.8 -3.34,0.4 z m -17.41,-1.6 c -5.45,-0.6 -9.92,-1.1 -9.92,-1.1 0,0 0.1,-0.5 0.14,-1.2 0.11,-0.7 0.19,-1.4 0.19,-1.6 0,-0.3 0.25,-0.3 2.05,0.3 2.41,0.6 4.14,1 6.62,1.5 5.94,1.6 12.06,3 12.12,3.1 0.1,0.1 -0.24,0.1 -0.61,0 -0.39,-0.1 -5.16,-0.5 -10.59,-1 z m -36.4,-3.6 c -7.75,-0.8 -14.46,-1.5 -14.91,-1.5 -1.71,-0.2 -4.04,-0.5 -7.81,-1.6 -0.61,-0.1 -2.28,-0.6 -3.7,-0.9 -1.41,-0.4 -2.68,-0.7 -2.83,-0.7 -0.13,-0.2 -0.57,-0.3 -0.96,-0.3 -0.86,-0.2 -0.92,-0.3 -0.81,-0.8 l 0.1,-0.5 22.64,2.3 c 12.47,1.4 22.8,2.3 22.98,2.3 0.29,0 0.31,0.1 0.31,1.5 l 0,1.6 -0.45,-0.1 c -0.25,0 -6.81,-0.6 -14.53,-1.4 z m 63.45,0.9 c -0.12,0 -0.12,-6.8 0,-17.75 l 0.11,-8.26 1.29,-0.5 c 0.72,-0.25 1.35,-0.5 1.41,-0.5 0.1,0 0.33,-0.18 0.58,-0.43 0.39,-0.43 0.46,-0.59 0.45,-1.08 0,-0.7 -0.26,-2.09 -0.79,-4.5 -0.54,-2.47 -0.86,-4.84 -0.98,-7.02 -0.1,-1.07 -0.17,-2.78 -0.28,-3.85 -0.11,-1.08 -0.27,-2.75 -0.34,-3.73 -0.1,-0.97 -0.23,-2.45 -0.35,-3.34 -0.12,-0.88 -0.21,-1.66 -0.21,-1.8 0,-0.34 0.83,1.11 2.02,3.57 0.59,1.19 1.23,2.51 1.41,2.83 0.82,1.63 2.76,8.41 3.37,11.8 0.33,1.9 0.32,9.41 0,11.2 -0.13,0.67 -0.29,1.64 -0.37,2.47 -0.1,0.59 -0.3,2.01 -0.48,2.99 -0.2,1.07 -0.6,3.4 -0.92,5.1 -0.3,1.9 -0.58,3.4 -0.62,3.4 -0.1,0.2 -0.18,1 -0.34,2 -0.16,0.9 -0.38,2.1 -0.5,2.8 -0.12,0.6 -0.28,1.3 -0.34,1.8 -0.1,0.4 -0.28,1.3 -0.43,1.9 l -0.3,1.3 -1.61,-0.1 c -0.9,-0.2 -1.68,-0.3 -1.73,-0.3 z m -101.71,-0.1 c -0.96,-0.1 -2.1,-0.3 -2.55,-0.3 l -0.8,-0.3 0,-3.7 c 0,-3 0.1,-4 0.17,-4 0.51,0 8.23,0.9 8.29,1 0.12,0.1 -1.17,4.7 -1.64,5.8 -0.81,1.9 -0.58,1.9 -3.47,1.5 z m 95.72,-0.5 c -2.13,-0.1 -3.91,-0.4 -3.97,-0.4 -0.1,-0.1 -0.12,-5.6 -0.15,-12.1 l -0.1,-12.07 0.53,0.1 c 0.29,0.1 1.67,0.1 3.04,0.1 2.27,0 3.75,-0.16 4.98,-0.59 0.24,-0.1 0.25,0.59 0.24,11.36 0,6.3 -0.1,12 -0.1,12.7 -0.1,1.3 -0.12,1.3 -0.38,1.3 -0.17,0 -2.04,-0.1 -4.17,-0.3 z m -92.09,0.3 c 0,-0.1 0.1,-0.1 0.11,-0.2 0.23,-0.2 1.18,-3.1 1.83,-5.7 0.32,-1.3 0.39,-1.3 0.69,-1.2 0.18,0.1 0.18,0.2 0,0.9 -0.28,1.1 -1.21,4.1 -1.4,4.6 -0.5,1.2 -0.61,1.4 -0.8,1.5 -0.26,0.2 -0.45,0.2 -0.45,0.1 z m 84.82,-1.4 c -0.62,-0.2 -1.49,-0.5 -1.95,-0.6 l -0.83,-0.1 -0.1,-2.2 c -0.1,-2.5 -0.27,-5.6 -0.56,-7.4 -0.1,-0.8 -0.29,-2.2 -0.41,-3.01 -0.42,-3.14 -2.83,-10.93 -4.26,-13.87 -1.01,-2.09 -2.19,-3.57 -6.12,-7.48 -1.96,-1.95 -4.12,-4.23 -4.8,-5.06 -1.27,-1.54 -2.92,-3.9 -3.06,-4.41 -0.1,-0.15 0.1,-0.85 0.26,-1.54 0.2,-0.74 0.68,-2.46 1.05,-3.81 0.38,-1.39 0.8,-2.89 0.95,-3.35 l 0.26,-0.83 0.23,0.42 c 0.37,0.74 1.76,2.31 2.41,2.78 1.24,0.89 1.93,1.12 3.44,1.07 1.13,-0.1 1.47,-0.1 2.04,-0.37 1.23,-0.65 2.95,-2.33 3.68,-3.67 0.22,-0.43 0.55,-1.35 0.75,-2.09 0.33,-1.21 0.38,-1.62 0.38,-3.71 0,-2.71 -0.2,-3.68 -1.13,-5.35 -0.26,-0.51 -0.44,-0.93 -0.4,-0.97 0.16,-0.18 2.48,0.36 4.42,1.02 1.91,0.65 6.48,2.78 7.26,3.39 l 0.41,0.32 -0.35,0.38 c -0.17,0.19 -0.44,0.6 -0.57,0.88 -0.29,0.7 -0.55,2.69 -0.4,3.21 l 0.12,0.41 0.15,-0.41 c 0.1,-0.19 0.31,-0.84 0.47,-1.45 0.27,-0.89 0.41,-1.11 1.05,-1.76 0.63,-0.61 0.89,-0.75 1.54,-0.88 2.3,-0.47 4.64,0.54 5.54,2.41 0.65,1.35 1.38,6.46 2.03,14.12 0.1,0.97 0.22,2.33 0.29,2.93 0.1,0.61 0.16,1.91 0.2,2.93 0.12,2.74 0.32,3.99 1.19,8.04 0.34,1.49 0.61,3.31 0.52,3.4 -0.12,0.1 -2.39,0.93 -3.75,1.28 -1.72,0.5 -2.81,0.67 -5.01,0.75 -1.48,0.1 -2.1,0 -3.77,-0.25 -2.14,-0.34 -4.06,-1.01 -4.31,-1.44 -0.1,-0.25 -0.1,-0.63 0.13,-1.46 0.17,-0.62 0.35,-1.59 0.44,-2.14 0.1,-0.56 0.3,-1.68 0.48,-2.47 0.41,-1.76 0.71,-3.44 0.98,-5.57 0.2,-1.59 0.26,-2.46 0.63,-7.67 0.1,-1.12 0.2,-2.51 0.28,-3.07 0.1,-0.55 0.12,-1.16 0.12,-1.39 0,-0.42 0,-0.37 -0.2,0.14 -0.1,0.33 -0.3,1.44 -0.47,2.5 -0.16,1.07 -0.42,2.56 -0.57,3.27 -0.14,0.73 -0.36,2.13 -0.48,3.15 -0.29,2.55 -0.78,5.11 -1.74,9.34 -1.02,4.5 -1.11,5.45 -0.58,6.22 0.34,0.42 1.35,0.93 2.79,1.35 l 0.95,0.34 0.1,8.9 c 0.1,4.83 0.1,10.33 0.1,12.13 l 0,3.3 -0.38,-0.2 c -0.21,-0.1 -0.89,-0.3 -1.5,-0.4 z m -58.79,-4 -35.51,-3.6 0,-3 0,-3.11 0.32,0 c 0.67,0 71.48,7.01 71.55,7.11 0.1,0.1 -0.1,0.4 -0.2,0.9 -0.7,1.4 -1,4.1 -0.57,5 0.1,0.1 0.1,0.2 0,0.2 -0.1,0.1 -16.08,-1.7 -35.62,-3.5 z m 51.74,1.7 -2.85,-1 0.1,-2.8 c 0,-1.5 0.1,-6.1 0.12,-10.35 l 0.1,-7.62 0.51,-0.17 c 0.27,-0.1 0.58,-0.1 0.66,-0.1 0.1,0 0.48,0.94 0.88,2.13 1.3,3.81 2.15,6.98 2.45,9.41 0.12,0.8 0.31,2 0.43,2.7 0.11,0.7 0.2,1.5 0.2,2 0,0.4 0.1,1.1 0.13,1.6 0.1,0.7 0.3,5.1 0.23,5.1 0,0 -1.3,-0.4 -2.87,-0.9 z m -5.44,-1.9 c -0.64,-0.2 -1.38,-0.5 -1.61,-0.6 -0.25,-0.1 -0.49,-0.1 -0.55,-0.1 -0.1,0 -0.62,-0.3 -1.23,-0.6 -0.63,-0.3 -1.73,-0.8 -2.46,-1.2 l -1.35,-0.3 -0.1,-3 c -0.1,-1.6 -0.1,-5.33 -0.1,-8.32 l 0,-5.33 0.31,0.1 c 0.18,0.1 0.95,0.17 1.72,0.25 1.42,0.17 4.79,0 6.16,-0.25 l 0.59,-0.17 0,4.74 c 0,4.05 -0.15,15.28 -0.2,15.28 0,0 -0.55,-0.1 -1.2,-0.4 z m -9.74,-3.9 c -0.33,-0.2 -0.67,-0.2 -0.77,-0.2 -0.1,0.1 -1.64,-0.1 -3.43,-0.2 -1.81,-0.2 -3.32,-0.3 -3.38,-0.4 -0.1,0 0.22,-0.3 0.63,-0.6 0.93,-0.7 1.82,-2.3 2.1,-3.61 0.31,-1.52 0.37,-1.92 0.52,-3.94 0.16,-2.39 0.36,-4.26 0.54,-5.23 0.1,-0.43 0.21,-1.37 0.28,-2.21 0.1,-0.76 0.22,-2.12 0.3,-2.97 0.25,-2.55 0.56,-4.23 1.66,-9.01 0.3,-1.26 0.66,-2.93 0.84,-3.68 0.43,-1.99 0.58,-2.22 0.49,-0.69 -0.16,2.46 -0.81,6.65 -1.4,8.97 -0.18,0.74 -0.33,1.58 -0.33,1.77 0,0.23 -0.15,0.92 -0.3,1.58 -0.38,1.57 -0.38,2.33 0,2.93 0.34,0.59 0.6,0.76 2.04,1.35 l 1.11,0.42 0.1,4.16 c 0.1,2.17 0.1,5.74 0.11,7.86 0,3.7 0,3.9 -0.22,3.8 -0.13,-0.1 -0.52,-0.1 -0.85,-0.1 z m -15.35,-1.5 -4.39,-0.5 1.81,-0.1 c 3.06,-0.1 6.69,-0.8 8.08,-1.6 0.32,-0.1 0.81,-0.4 1.11,-0.8 l 0.54,-0.51 0.12,-1.62 c 0.1,-1.08 0.17,-3.17 0.25,-4.89 0.1,-1.72 0.2,-3.63 0.29,-4.23 0.44,-3.68 0.56,-4.66 0.63,-6.05 0.11,-2.05 0.66,-6.74 1.17,-9.99 0.23,-1.4 0.52,-3.4 0.64,-4.37 0.48,-3.9 0.82,-5.67 2.14,-11.1 0.38,-1.58 0.73,-3.06 0.78,-3.3 l 0.11,-0.47 0.47,0.47 c 0.29,0.24 0.68,0.74 0.9,1.07 l 0.4,0.65 0,-0.47 c 0,-0.55 -0.94,-2.41 -1.58,-3.2 -0.61,-0.69 -2.7,-2.04 -4.2,-2.74 -2.24,-0.98 -5.8,-2 -9.19,-2.6 -2.04,-0.37 -6.44,-0.51 -8.15,-0.28 -1.26,0.14 -3.44,0.84 -4.21,1.35 -0.7,0.46 -1.77,1.57 -1.88,2.05 -0.1,0.22 0,0.5 0.21,0.83 0.16,0.23 0.29,0.65 0.29,0.83 l 0,0.41 -0.45,-0.27 c -0.25,-0.18 -0.58,-0.51 -0.72,-0.79 -0.23,-0.46 -0.24,-0.65 -0.1,-1.87 0.16,-1.48 0.1,-2.82 -0.57,-6.16 -0.15,-0.88 -0.4,-2.42 -0.55,-3.4 -0.15,-1.02 -0.37,-2.51 -0.51,-3.34 -0.18,-1.21 -0.24,-2.46 -0.23,-5.71 0,-3.72 0.1,-4.41 0.32,-6.13 0.17,-1.07 0.39,-2.47 0.48,-3.08 0.2,-1.29 0.2,-1.29 1.98,-0.5 0.15,0.1 0.97,0.37 1.8,0.65 0.83,0.23 1.62,0.56 1.77,0.61 0.14,0.1 1.13,0.41 2.19,0.69 1.08,0.33 2.17,0.66 2.43,0.79 0.83,0.32 3.32,0.93 5.12,1.16 3.08,0.48 5.56,0.33 8.02,-0.51 2,-0.65 6.16,-3.02 7.62,-4.33 l 0.84,-0.78 3,-0.19 c 1.66,-0.1 4,-0.27 5.22,-0.46 2.68,-0.32 2.45,-0.32 2.57,0.1 0.16,0.51 0.61,3.81 0.84,6.31 l 0.24,2.37 -0.73,0.89 c -0.69,0.88 -1.15,1.68 -1.41,2.55 -0.1,0.19 -0.1,0.37 -0.1,0.37 0,0 0.2,-0.22 0.42,-0.56 1.03,-1.51 2.05,-2.22 3.37,-2.22 0.9,-0.1 1.73,0.47 2.29,1.39 0.61,0.93 0.74,1.58 0.71,3.3 -0.1,3.63 -1.4,7.57 -2.98,8.68 -1.33,0.98 -3.46,1.02 -4.18,0.1 -0.23,-0.27 -0.23,-0.27 -0.23,0.24 0,0.55 0.36,1.1 0.95,1.34 0.5,0.23 0.51,0.32 0.21,1.81 -1.06,5.16 -4.38,10.18 -8.53,12.91 -0.45,0.29 -0.62,0.52 -0.73,0.93 -0.1,0.33 -0.27,0.98 -0.42,1.44 -0.14,0.47 -0.48,1.68 -0.76,2.69 -0.28,1.04 -0.66,2.42 -0.84,3.08 -0.19,0.6 -0.6,2.37 -0.92,3.9 -0.31,1.48 -0.82,3.8 -1.13,5.11 -1.4,5.99 -1.69,7.62 -2.08,11.87 -0.1,0.84 -0.22,2.29 -0.34,3.18 -0.43,3.52 -0.62,5.31 -0.75,6.95 -0.33,3.65 -1.35,5.35 -4.04,6.25 -0.65,0.3 -0.4,0.3 -5.46,-0.2 z m 8.4,-61.45 c 1.02,-0.17 2.39,-0.86 3.11,-1.57 0.76,-0.79 1.41,-2.09 1.59,-3.25 0.39,-2.32 -0.96,-4.88 -3.12,-5.9 -1.72,-0.79 -3.33,-0.79 -5.04,0 -1.63,0.75 -2.82,2.37 -3.13,4.27 -0.32,2.01 0.69,4.37 2.32,5.48 1.28,0.84 2.9,1.21 4.27,0.97 z m -3.21,-1.01 c -1.03,-0.51 -1.72,-1.2 -2.27,-2.19 -0.47,-0.88 -0.47,-0.92 -0.47,-2.41 0,-1.49 0,-1.57 0.47,-2.42 0.54,-1.02 1.21,-1.67 2.27,-2.22 0.67,-0.37 0.87,-0.37 2.28,-0.37 1.47,0 1.55,0 2.4,0.46 1,0.56 1.66,1.21 2.22,2.28 0.36,0.65 0.39,0.83 0.39,2.27 0,1.4 -0.1,1.58 -0.38,2.23 -0.51,0.98 -1.13,1.66 -1.88,2.09 -1.09,0.65 -1.54,0.75 -2.98,0.7 -1.1,-0.1 -1.44,-0.1 -2.05,-0.42 z m 2.15,-4.47 c 0.11,-0.27 -0.1,-0.64 -0.28,-0.64 -0.1,0 -0.27,0.1 -0.37,0.23 -0.14,0.14 -0.14,0.23 0,0.41 0.1,0.11 0.27,0.21 0.37,0.21 0.11,0 0.24,-0.1 0.28,-0.21 z m -15.72,4.24 c 2.75,-0.48 4.79,-3.3 4.34,-6.09 -0.7,-4.27 -5.79,-6.03 -8.99,-3.1 -2.67,2.45 -1.99,7.05 1.3,8.68 0.55,0.27 2.22,0.69 2.53,0.65 0.1,0 0.4,-0.1 0.82,-0.14 z m -3.05,-0.97 c -0.84,-0.43 -1.75,-1.31 -2.21,-2.15 -0.33,-0.64 -0.36,-0.83 -0.36,-2.18 0,-1.25 0.1,-1.53 0.32,-2.09 0.45,-0.84 1.34,-1.76 2.18,-2.18 0.63,-0.37 0.84,-0.37 2.17,-0.37 1.32,0 1.53,0 2.16,0.37 0.83,0.42 1.72,1.34 2.17,2.18 0.29,0.56 0.33,0.84 0.33,2.09 0,1.67 -0.21,2.27 -1.23,3.34 -1.05,1.07 -1.92,1.4 -3.64,1.35 -0.98,-0.1 -1.39,-0.1 -1.89,-0.36 z m 1.72,-4.13 c 0.1,-0.1 0.1,-0.2 0.1,-0.35 0,-0.32 -0.54,-0.36 -0.66,-0.1 -0.1,0.28 0.35,0.61 0.57,0.37 z m 37.62,4.35 c 0.22,-0.14 0.45,-0.37 0.55,-0.5 0.14,-0.29 0.13,-0.29 -0.11,-0.2 -0.53,0.24 -1.24,0.24 -1.42,0 -0.39,-0.45 -0.1,-1.21 0.97,-2.23 1.16,-1.15 1.22,-1.48 0.45,-2.5 -1.18,-1.53 -0.69,-3.43 0.89,-3.43 0.84,0 1.57,1.2 1.57,2.55 0,0.69 0.12,0.6 0.3,-0.2 0.22,-0.97 -0.24,-2.49 -0.86,-2.81 -1.52,-0.8 -3.55,0.83 -3.27,2.58 0.1,0.43 0.26,0.89 0.57,1.31 0.78,1.02 0.77,1.3 -0.1,1.94 -0.83,0.71 -1.42,1.69 -1.45,2.38 -0.1,0.93 1.05,1.58 1.88,1.11 z M 191,307.59 c 0.49,-0.51 0.39,-0.64 -0.85,-1.44 -0.47,-0.32 -0.76,-0.65 -1.01,-1.16 -0.41,-0.8 -0.43,-1.26 -0.15,-2.23 0.31,-1.02 0.3,-1.49 -0.11,-2.33 -0.6,-1.35 -1.75,-1.81 -2.99,-1.21 -1.43,0.75 -1.7,2.7 -0.69,4.74 0.77,1.58 1.51,2.32 3.06,3.07 1.63,0.79 2.33,0.93 2.74,0.56 z m -2.53,-1.11 c -1.14,-0.6 -1.37,-0.8 -2.01,-1.63 -0.78,-1.02 -1.02,-1.68 -1.13,-2.97 -0.11,-1.4 0.45,-2.29 1.44,-2.29 1.42,0 2.1,1.35 1.63,3.08 -0.5,1.8 0.2,3.39 1.89,4.28 l 0.38,0.17 -0.46,0 c -0.26,0 -0.98,-0.27 -1.74,-0.64 z m -27.01,-1.54 c 0.96,-0.14 3.06,-1.11 3.68,-1.67 0.97,-0.93 1.33,-2.6 0.78,-3.68 -0.56,-1.06 -1.43,-1.39 -2.5,-0.97 -1,0.46 -1.31,1.08 -1.32,2.69 0,1.07 -0.1,1.26 -0.34,1.53 -0.19,0.24 -0.61,0.48 -0.92,0.51 -0.99,0.29 -1.05,0.29 -1.18,0.57 -0.39,0.75 0.52,1.26 1.8,1.02 z m -1.11,-0.75 c 0,-0.1 0.13,-0.14 0.27,-0.14 0.16,0 0.56,-0.13 0.9,-0.27 0.91,-0.43 1.35,-1.3 1.32,-2.69 -0.1,-1.17 0.13,-1.54 0.71,-1.82 0.63,-0.32 1.09,-0.28 1.54,0.19 0.37,0.37 0.42,0.51 0.42,1.21 0,1.53 -0.66,2.37 -2.38,3.06 -1.29,0.51 -2.78,0.8 -2.78,0.46 z m 9.23,74.36 c 0.14,0 0.33,0 0.42,0 0.1,0.1 0,0.1 -0.24,0.1 -0.24,0 -0.31,-0.1 -0.18,-0.1 z m -1.45,-0.1 c 0.1,-0.2 0.22,-0.2 0.26,0 0.1,0.1 -0.1,0.1 -0.18,0.1 -0.17,0 -0.2,-0.1 -0.1,-0.1 z m -3.88,-0.4 c -2.77,-0.2 -3.18,-0.3 -3.47,-0.6 -0.87,-0.8 -0.94,-2.11 -0.21,-3.83 0.94,-2.24 1.03,-2.54 1.24,-3.37 0.27,-1.12 0.58,-3.88 0.77,-6.86 0.1,-1.28 0.24,-3.53 0.35,-5.06 0.29,-3.8 0.5,-10.59 0.49,-14.77 0,-3.49 -0.22,-9.34 -0.37,-10.55 l -0.1,-0.64 0.6,0.1 c 0.33,0 0.67,0.1 0.75,0.1 0.1,0 0.15,2.46 0.16,6.91 0.1,3.87 0.1,7.3 0.1,7.72 0.1,1.58 -0.16,6.74 -0.36,9.19 -0.1,1.45 -0.24,3.77 -0.28,5.26 -0.14,4.13 -0.3,5.49 -0.73,6.02 -0.56,0.75 -0.76,1.57 -0.8,3.44 -0.1,1.64 -0.1,1.79 -0.48,2.51 -0.6,1.21 -0.67,1.72 -0.27,2.33 0.52,0.8 2.68,1.7 4.92,2.2 0.69,0.1 1.16,0.3 1.05,0.3 -0.12,0 -1.63,-0.2 -3.35,-0.3 z m 5.53,-0.8 c -2.76,-0.3 -4.7,-0.9 -5.59,-1.81 l -0.43,-0.51 0,-2.88 c 0,-3.44 0.1,-3.74 1.21,-4.34 0.64,-0.37 1.01,-0.3 0.74,0.1 -0.6,0.82 -0.69,1.12 -0.69,1.57 0,1.04 0.89,1.64 3.29,2.16 2.66,0.6 5.2,0.53 8.07,-0.29 1.39,-0.38 3.79,-1.35 4.38,-1.72 0.57,-0.45 0.68,-0.3 0.59,0.67 -0.1,0.45 -0.16,1.72 -0.24,2.84 -0.1,1.08 -0.17,2 -0.21,2.3 -0.15,0.71 -2.23,1.31 -5.92,1.71 -1.03,0.1 -2.06,0.3 -2.29,0.3 -0.8,0.1 -1.27,0.1 -2.91,-0.1 z m -0.91,-7 c -1.37,-0.15 -2.25,-0.52 -2.25,-0.74 0,-0.53 0.95,-3.07 1.45,-3.93 0.71,-1.19 1.88,-2.62 2.63,-3.21 0.33,-0.26 1.04,-0.69 1.58,-0.93 0.92,-0.45 1.04,-0.45 2.83,-0.51 l 1.87,0 -0.86,0.84 c -0.71,0.76 -1.97,2.62 -1.97,2.97 0,0.1 0.2,-0.17 0.44,-0.43 1.73,-2.11 3,-3.09 4.73,-3.6 0.77,-0.24 2.67,-0.37 2.83,-0.24 0.1,0.1 0,0.75 -0.12,1.47 -0.12,0.76 -0.22,1.61 -0.2,1.86 0,0.26 -0.12,1.27 -0.25,2.29 l -0.24,1.77 -0.57,0.15 c -0.31,0.1 -0.66,0.23 -0.77,0.3 -0.31,0.3 -2.13,0.97 -3.37,1.42 -2.67,0.82 -5.13,1.05 -7.76,0.52 z m 24.07,-6.53 c -1.21,-0.17 -3.21,-0.93 -3.46,-1.19 -0.1,-0.16 -0.13,-0.42 -0.1,-0.71 0.1,-0.7 0.5,-2.79 0.94,-4.89 0.57,-2.74 0.79,-4.03 1.08,-6.31 0.13,-1.11 0.27,-2 0.32,-2 0.1,0 0.38,0.43 0.77,0.97 0.38,0.52 2.46,2.71 4.6,4.89 4.88,4.97 5.74,6.04 6.53,7.97 l 0.2,0.51 -0.65,0.17 c -1.9,0.67 -3.08,0.85 -5.25,0.93 -2.26,0.1 -3.04,0.1 -4.98,-0.34 z m 3.9,-25.46 c -1.02,-0.5 -2.04,-1.44 -2.75,-2.51 -0.56,-0.83 -0.56,-0.83 -0.28,-1.07 0.27,-0.22 0.35,-0.22 1.57,0.33 2.03,0.88 2.35,0.98 3.25,0.98 1.5,0 2.8,-0.75 3.76,-2.23 1.82,-2.7 1.82,-7.11 0,-9.81 -0.28,-0.42 -0.51,-0.83 -0.51,-0.93 0,-0.18 0.62,-0.27 1.29,-0.23 0.46,0.1 0.6,0.2 0.91,0.65 0.58,0.94 1.11,2.32 1.36,3.58 0.29,1.45 0.21,4.51 -0.14,5.8 -0.69,2.52 -2.46,4.79 -4.26,5.54 -0.77,0.32 -1.09,0.37 -2.16,0.32 -1.05,0 -1.37,-0.1 -2.04,-0.42 z m -0.46,-3.48 c -0.81,-0.37 -1.53,-0.65 -1.6,-0.65 -0.1,0 -0.13,-0.1 -0.13,-0.14 0,-0.1 0.1,-0.14 0.12,-0.14 0.1,0 0.68,-0.56 1.38,-1.25 2.2,-2.14 3.92,-4.7 4.96,-7.3 0.3,-0.69 0.61,-1.3 0.67,-1.25 0.25,0.14 0.96,1.76 1.16,2.6 0.12,0.45 0.2,1.49 0.2,2.17 0,3.78 -1.9,6.56 -4.48,6.56 -0.66,0 -1.1,-0.1 -2.28,-0.6 z m -13.96,-1.53 c -5.21,-1.26 -8.85,-1.72 -15.59,-2.04 -2.51,-0.15 -3.54,-0.24 -3.68,-0.38 -0.15,-0.14 -0.21,-0.74 -0.25,-2.69 -0.1,-1.45 0,-2.66 0.1,-2.7 0.25,-0.32 1.14,-0.79 2.49,-1.21 1.36,-0.46 1.44,-0.46 4.04,-0.46 1.45,0 3.31,0.1 4.11,0.14 4.51,0.56 9.36,2.04 11.99,3.62 1.79,1.07 1.72,0.98 1.54,1.96 -0.26,1.2 -1.02,3.99 -1.17,4.17 -0.22,0.28 -0.74,0.24 -3.54,-0.41 z m -41.78,-33.52 c -1.34,-0.24 -1.63,-0.33 -2.31,-0.79 -1,-0.66 -1.1,-0.79 -1.21,-1.53 -0.14,-1.07 0.25,-1.95 1.38,-3.16 0.52,-0.52 1.3,-1.21 1.72,-1.51 1.67,-1.16 5.77,-2.43 8.7,-2.72 1.03,-0.11 2.68,-0.13 4.67,-0.1 4.86,0.16 5.52,0.36 12.33,3.84 5.02,2.56 7.18,3.49 8.78,3.67 0.41,0.1 0.1,-0.1 -1.11,-0.51 -1.67,-0.56 -2.21,-0.79 -4.11,-1.91 -0.46,-0.27 -1.69,-0.97 -2.72,-1.58 -1.03,-0.6 -2.31,-1.36 -2.83,-1.69 -1.18,-0.76 -2.63,-1.5 -3.42,-1.73 -0.31,-0.11 -0.54,-0.24 -0.48,-0.3 0.1,-0.1 0.86,-0.2 1.79,-0.35 1.39,-0.21 2.48,-0.25 6.6,-0.25 5.48,0 6.55,0.1 10.62,0.84 4.63,0.85 8.56,1.91 10.19,2.72 0.66,0.35 0.8,0.49 0.8,0.76 0,0.8 -0.66,1.49 -2.58,2.74 -2.82,1.83 -5.49,2.98 -7.45,3.3 -2.11,0.33 -5.9,0.1 -8.56,-0.69 -3.08,-0.84 -10.51,-3.34 -14.42,-4.87 -0.87,-0.33 -3.82,-0.94 -5.31,-1.1 -3.23,-0.35 -8.25,0.81 -10.5,2.39 -0.22,0.14 -0.37,0.28 -0.34,0.33 0.1,0.1 0.59,-0.14 1.25,-0.37 2.16,-0.69 4.27,-0.98 7.57,-1.03 2.72,0 3.04,0.1 4.59,0.37 0.92,0.24 2.13,0.61 2.69,0.84 0.98,0.42 1.02,0.42 0.95,0.83 -0.1,0.29 -0.11,0.85 -0.16,1.31 -0.1,0.52 -0.17,0.92 -0.26,1.02 -0.56,0.42 -3.76,1.02 -7.61,1.45 -1.24,0.18 -7.8,-0.1 -9.25,-0.24 z m 50.42,-5.53 c 0.12,-0.47 -0.23,-1.16 -0.76,-1.56 -1.2,-0.91 -4.84,-2.05 -9.32,-2.94 -1.37,-0.28 -4.94,-0.9 -5.65,-1 -1.47,-0.19 -8.37,-0.31 -10.84,-0.19 -1.46,0.1 -3.52,0.17 -4.55,0.21 l -1.85,0.1 0.1,-3.74 c 0.12,-4.32 0.25,-5.03 1.24,-7.07 2.6,-5.27 8.78,-9.12 16.39,-10.2 1.99,-0.28 6.48,-0.28 8.52,0 2.92,0.41 5.8,1.29 8.36,2.57 3.79,1.89 7.01,5.09 8.33,8.25 0.6,1.45 0.69,1.98 0.85,5.21 0.14,2.66 0.2,3.35 0.64,6.57 0.24,1.63 0.15,2 -0.5,2.4 -0.78,0.47 -7.59,1.54 -10.57,1.68 -0.41,0 -0.46,-0.1 -0.39,-0.28 z" />

<style>
.a{fill:#9c9c9c;fill-opacity:1}
</style>

</svg>