<?xml version="1.0" encoding="UTF-8" standalone="no"?>
<svg xmlns="http://www.w3.org/2000/svg" viewBox="0 0 1250 96" width="100%" height="100%">

<view id="in-the-spotlight-base" viewBox="0 0 264 48" />
<view id="the-latest-stuff" viewBox="264 0 264 48" />
<view id="dhmb-articles" viewBox="528 0 244 48" />
<view id="frequent-topics-base" viewBox="772 0 260 48" />
<view id="about-dhmb-base" viewBox="1032 0 218 48" />
<view id="how-to-use-base" viewBox="0 48 192 48" />
<view id="how-to-use-dhmb" viewBox="192 48 308 48" />
<view id="your-privacy-base" viewBox="500 48 218 48" />
<view id="whoops" viewBox="718 48 148 48" />

<g id="in-the-spotlight" transform="translate(0 0)">
<path class="a" d="m 2.5355,6.5465 6.657,0 0,29.2985 -6.657,0 0,-29.2985 z" />
<path class="a" d="m 21.411,15.645 0,2.7 0.11,0 q 2.241,-3.4 5.471,-3.4 2.109,0 3.34,1.4 1.252,1.4 1.252,3.8 l 0,15.7 -6.394,0 0,-12.5 q 0,-1 -0.483,-1.6 -0.484,-0.7 -1.253,-0.7 -2.043,0 -2.043,2.6 l 0,12.2 -6.372,0 0,-20.2 6.372,0 z" />
<path class="a" d="m 48.174,10.245 6.389,0 0,5.4 2.49,0 0,5.3 -2.53,0 0,14.9 -6.349,0 0,-14.9 -2.417,0 0,-5.3 2.417,0 0,-5.4 z" />
<path class="a" d="m 60.303,4.8465 6.37,0 0,13.3985 0.11,0 q 2.35,-3.3 5.43,-3.3 2.2,0 3.4,1.5 1.23,1.4 1.23,4 l 0,15.4 -6.39,0 0,-12.3 q 0,-1.2 -0.48,-1.9 -0.46,-0.6 -1.3,-0.6 -2,0 -2,2.7 l 0,12.1 -6.37,0 0,-30.9985 z" />
<path class="a" d="m 91.063,29.645 5.38,0 q -1.53,6.8 -7.69,6.8 -3.84,0 -6.08,-2.9 -2.24,-2.9 -2.24,-8 0,-4.8 2.24,-7.7 2.24,-2.9 5.95,-2.9 2.24,0 4.31,1.4 2.06,1.4 3.01,3.7 0.94,2.3 1.05,7.3 l -10.65,0 q 0.13,4.5 2.5,4.5 0.81,0 1.45,-0.6 0.64,-0.6 0.77,-1.6 z m -4.64,-5.8 4.64,0 q -0.1,-2.1 -0.59,-3.2 -0.53,-1 -1.67,-1 -1.28,0 -1.83,1 -0.55,1 -0.55,3.2 z" />
<path class="a" d="m 112.51,35.345 0,-6.9 q 3.16,1.9 5.31,1.9 1.26,0 1.98,-0.7 0.73,-0.7 0.73,-1.9 0,-0.8 -0.6,-1.6 -0.57,-0.8 -2,-1.9 -3.45,-2.6 -5.01,-4.9 -1.54,-2.3 -1.54,-5.1 0,-3.8 2.4,-6.0985 2.39,-2.4 6.2,-2.4 2.81,0 5.58,1.2 l 0,6.4985 q -2.97,-1.6 -4.81,-1.6 -1.24,0 -1.96,0.6 -0.7,0.6 -0.7,1.7 0,1.8 3.31,4.1 1.98,1.4 4,3.9 2.05,2.4 2.05,5.7 0,3.8 -2.66,6.3 -2.66,2.5 -6.75,2.5 -2.79,0 -5.53,-1.3 z" />
<path class="a" d="m 137.86,15.645 0,2.6 0.11,0 q 2.13,-3.2 4.81,-3.2 2.88,0 4.62,3 1.76,2.9 1.76,7.9 0,4.7 -1.81,7.7 -1.78,2.9 -4.57,2.9 -2.94,0 -4.81,-3.4 l -0.11,0 0,11 -6.37,0 0,-28.5 6.37,0 z m 4.92,10 q 0,-5 -2.52,-5 -2.4,0 -2.4,5.1 0,5.2 2.4,5.2 2.52,0 2.52,-5.3 z" />
<path class="a" d="m 160.54,14.945 q 4.37,0 6.66,2.9 2.28,2.9 2.28,8.1 0,5.1 -2.37,7.9 -2.38,2.7 -6.57,2.7 -4.02,0 -6.4,-2.8 -2.35,-2.8 -2.35,-7.8 0,-5.2 2.24,-8.1 2.27,-2.9 6.51,-2.9 z m 0,15.9 q 1.25,0 1.87,-1.1 0.64,-1.2 0.64,-4 0,-2.8 -0.62,-3.9 -0.61,-1.2 -1.84,-1.2 -1.21,0 -1.85,1.1 -0.64,1.1 -0.64,4 0,5.1 2.44,5.1 z" />
<path class="a" d="m 174.03,10.245 6.39,0 0,5.4 2.49,0 0,5.3 -2.53,0 0,14.9 -6.35,0 0,-14.9 -2.42,0 0,-5.3 2.42,0 0,-5.4 z" />
<path class="a" d="m 186.33,4.8465 6.4,0 0,30.9985 -6.4,0 0,-30.9985 z" />
<path class="a" d="m 197.76,9.546 q 0,-1.3995 0.99,-2.3995 0.99,-1 2.37,-1 1.41,0 2.4,1 0.99,1 0.99,2.3995 0,1.399 -0.99,2.399 -0.99,1 -2.4,1 -1.36,0 -2.37,-1 -0.99,-1 -0.99,-2.399 z m 0.18,6.099 6.39,0 0,20.2 -6.39,0 0,-20.2 z" />
<path class="a" d="m 219.51,35.945 0,-2.9 q -1.87,2.8 -4.44,2.8 -3.25,0 -5.05,-2.7 -1.8,-2.8 -1.8,-7.7 0,-4.9 1.76,-7.7 1.75,-2.7 4.81,-2.7 2.72,0 4.59,2.7 l 0.1,0 0,-2.1 6.39,0 0,18.7 q 0,2.6 -0.92,4.9 -0.9,2.3 -3.21,3.6 -2.31,1.3 -5.05,1.3 -2.75,0 -5.17,-1.4 -2.41,-1.5 -3.14,-5 l 5.72,0 q 0.98,1.6 2.46,1.6 1.25,0 2.11,-1 0.85,-1 0.85,-2.4 z m 0,-10.6 q 0,-4.9 -2.46,-4.9 -1.21,0 -1.91,1.2 -0.7,1.2 -0.7,3.3 0,5.5 2.57,5.5 2.5,0 2.5,-5.1 z" />
<path class="a" d="m 230.72,4.8465 6.37,0 0,13.3985 0.11,0 q 2.35,-3.3 5.43,-3.3 2.19,0 3.4,1.5 1.23,1.4 1.23,4 l 0,15.4 -6.39,0 0,-12.3 q 0,-1.2 -0.48,-1.9 -0.47,-0.6 -1.3,-0.6 -2,0 -2,2.7 l 0,12.1 -6.37,0 0,-30.9985 z" />
<path class="a" d="m 252.78,10.245 6.39,0 0,5.4 2.49,0 0,5.3 -2.53,0 0,14.9 -6.35,0 0,-14.9 -2.42,0 0,-5.3 2.42,0 0,-5.4 z" />
</g>

<g id="the-latest-stuff" transform="translate(264 0)">
<path class="a" d="m 2.4815,6.609 15.8885,0 0,6.702 -4.593,0 0,22.6 -6.7475,0 0,-22.6 -4.548,0 0,-6.702 z" />
<path class="a" d="m 21.819,4.909 6.372,0 0,13.402 0.11,0 q 2.351,-3.3 5.428,-3.3 2.197,0 3.405,1.5 1.231,1.4 1.231,4 l 0,15.4 -6.394,0 0,-12.3 q 0,-1.2 -0.484,-1.9 -0.461,-0.6 -1.296,-0.6 -2,0 -2,2.7 l 0,12.1 -6.372,0 0,-31.002 z" />
<path class="a" d="m 52.579,29.711 5.38,0 q -1.53,6.8 -7.69,6.8 -3.84,0 -6.08,-2.9 -2.243,-2.9 -2.243,-8 0,-4.8 2.243,-7.7 2.24,-2.9 5.95,-2.9 2.24,0 4.31,1.4 2.06,1.4 3.01,3.7 0.94,2.3 1.05,7.3 l -10.65,0 q 0.13,4.5 2.5,4.5 0.82,0 1.45,-0.6 0.64,-0.6 0.77,-1.6 z m -4.63,-5.8 4.63,0 q -0.1,-2.1 -0.59,-3.2 -0.53,-1 -1.67,-1 -1.28,0 -1.83,1 -0.54,1 -0.54,3.2 z" />
<path class="a" d="m 74.029,6.609 6.65,0 0,22.502 5.28,0 0,6.8 -11.93,0 0,-29.302 z" />
<path class="a" d="m 99.817,35.911 0,-2.7 -0.1,0 q -1.16,1.8 -2.26,2.6 -1.08,0.8 -2.55,0.8 -2.88,0 -4.59,-3 -1.72,-2.9 -1.72,-8 0,-4.8 1.74,-7.7 1.74,-2.9 4.57,-2.9 1.52,0 2.57,0.8 1.06,0.7 2.2,2.4 l 0.1,0 0,-2.5 6.383,0 0,20.2 -6.343,0 z m 0,-10.2 q 0,-5 -2.458,-5 -2.48,0 -2.48,5 0,5.2 2.57,5.2 2.368,0 2.368,-5.2 z" />
<path class="a" d="m 111.8,10.31 6.4,0 0,5.401 2.48,0 0,5.3 -2.53,0 0,14.9 -6.35,0 0,-14.9 -2.41,0 0,-5.3 2.41,0 0,-5.401 z" />
<path class="a" d="m 133.43,29.711 5.38,0 q -1.54,6.8 -7.69,6.8 -3.85,0 -6.09,-2.9 -2.24,-2.9 -2.24,-8 0,-4.8 2.24,-7.7 2.24,-2.9 5.96,-2.9 2.24,0 4.3,1.4 2.07,1.4 3.01,3.7 0.95,2.3 1.06,7.3 l -10.66,0 q 0.13,4.5 2.51,4.5 0.81,0 1.45,-0.6 0.63,-0.6 0.77,-1.6 z m -4.64,-5.8 4.64,0 q -0.1,-2.1 -0.6,-3.2 -0.53,-1 -1.67,-1 -1.27,0 -1.82,1 -0.55,1 -0.55,3.2 z" />
<path class="a" d="m 143.84,29.411 q 3.27,1.9 4.72,1.9 0.8,0 1.32,-0.4 0.53,-0.4 0.53,-1 0,-0.6 -0.44,-0.9 -0.44,-0.3 -3.29,-1.5 -2.29,-1 -3.3,-2.4 -1.01,-1.4 -1.01,-3.4 0,-2.9 2,-4.8 2.02,-1.9 5.14,-1.9 3.03,0 7.43,2.4 l -2.46,4.6 q -2.86,-1.8 -4.68,-1.8 -1.59,0 -1.59,1.3 0,0.6 0.57,1 0.6,0.5 2.14,1 2.87,1 4.17,2.5 1.32,1.4 1.32,3.5 0,3.1 -2.07,5.1 -2.06,1.9 -5.27,1.9 -3.47,0 -7.43,-2.4 l 2.2,-4.7 z" />
<path class="a" d="m 161.11,10.31 6.4,0 0,5.401 2.48,0 0,5.3 -2.53,0 0,14.9 -6.35,0 0,-14.9 -2.42,0 0,-5.3 2.42,0 0,-5.401 z" />
<path class="a" d="m 185.02,35.411 0,-6.9 q 3.16,1.9 5.31,1.9 1.26,0 1.98,-0.7 0.73,-0.7 0.73,-1.9 0,-0.8 -0.6,-1.6 -0.57,-0.8 -2,-1.9 -3.45,-2.6 -5.01,-4.9 -1.53,-2.3 -1.53,-5.1 0,-3.801 2.39,-6.102 2.4,-2.4 6.2,-2.4 2.81,0 5.58,1.2 l 0,6.502 q -2.97,-1.6 -4.81,-1.6 -1.23,0 -1.96,0.6 -0.7,0.6 -0.7,1.7 0,1.8 3.32,4.1 1.97,1.4 4,3.9 2.04,2.4 2.04,5.7 0,3.8 -2.66,6.3 -2.66,2.5 -6.75,2.5 -2.79,0 -5.53,-1.3 z" />
<path class="a" d="m 204.79,10.31 6.4,0 0,5.401 2.48,0 0,5.3 -2.53,0 0,14.9 -6.35,0 0,-14.9 -2.41,0 0,-5.3 2.41,0 0,-5.401 z" />
<path class="a" d="m 216.77,15.711 6.39,0 0,13 q 0,1 0.46,1.7 0.49,0.6 1.3,0.6 1.85,0 1.85,-2.7 l 0,-12.6 6.39,0 0,11.7 q 0,4.5 -2.09,6.8 -2.09,2.4 -6.02,2.4 -4.39,0 -6.35,-2.4 -1.93,-2.4 -1.93,-6.1 l 0,-12.4 z" />
<path class="a" d="m 238.45,15.711 0,-4.7 q 0,-2.802 1.83,-4.402 1.84,-1.7 5.12,-1.7 l 2.55,0 0,6.402 -1.61,0 q -0.68,0 -1.12,0.5 -0.42,0.4 -0.42,1.3 l 0,2.6 3.15,0 0,5.3 -3.15,0 0,14.9 -6.35,0 0,-14.9 -2.24,0 0,-5.3 2.24,0 z" />
<path class="a" d="m 252.34,15.711 0,-4.7 q 0,-2.802 1.83,-4.402 1.84,-1.7 5.11,-1.7 l 2.55,0 0,6.402 -1.6,0 q -0.68,0 -1.12,0.5 -0.42,0.4 -0.42,1.3 l 0,2.6 3.14,0 0,5.3 -3.14,0 0,14.9 -6.35,0 0,-14.9 -2.24,0 0,-5.3 2.24,0 z" />
</g>

<g id="dhmb-articles" transform="translate(528 0)">
<path class="a" d="m 3.2975,6.5735 6.22,0 q 6.4615,0 9.8215,3.7005 3.36,3.6 3.36,10.7 0,5.4 -1.67,8.7 -1.64,3.3 -4.63,4.7 -2.97,1.5 -6.5715,1.5 l -6.53,0 0,-29.3005 z m 6.66,6.2005 0,16.8 q 3.0315,-0.2 4.2815,-2.1 1.26,-1.9 1.26,-6.2 0,-2.5 -0.44,-4.3 -0.44,-1.8 -1.32,-2.7 -0.86,-1 -1.69,-1.2 -0.82,-0.2 -2.0915,-0.3 z" />
<path class="a" d="m 27.209,6.5735 6.66,0 0,10.8005 5.91,0 0,-10.8005 6.65,0 0,29.3005 -6.65,0 0,-12.2 -5.91,0 0,12.2 -6.66,0 0,-29.3005 z" />
<path class="a" d="m 54.829,6.5735 8.41,0 q 1.8,9.5005 2.84,16.3005 l 0.72,-4.6 q 0.44,-2.6 0.95,-5.1 l 1.29,-6.6005 8.59,0 3.34,29.3005 -6.59,0 -1.78,-20.2 -4.11,20.2 -4.5,0 -4.31,-20.2 -1.71,20.2 -6.31,0 3.17,-29.3005 z" />
<path class="a" d="m 86.269,6.5735 6.77,0 q 5.91,0 8.491,2.3 2.59,2.3005 2.59,5.9005 0,3.9 -3.77,6.2 4.28,1.7 4.28,6.4 0,3.8 -2.66,6.2 -2.651,2.3 -7.001,2.3 l -8.7,0 0,-29.3005 z m 6.66,5.6005 0,6.3 q 4.46,-0.1 4.46,-3.1 0,-1.8 -1.08,-2.5 -1.05,-0.7 -3.38,-0.7 z m 0,11.6 0,6.4 q 2.52,-0.1 3.78,-0.8 1.27,-0.7 1.27,-2.4 0,-3.2 -4.5,-3.2 l -0.55,0 z" />
<path class="a" d="m 129.63,35.874 0,-2.7 -0.1,0 q -1.17,1.8 -2.27,2.6 -1.07,0.8 -2.55,0.8 -2.87,0 -4.59,-3 -1.71,-2.9 -1.71,-8 0,-4.8 1.73,-7.7 1.74,-2.9 4.57,-2.9 1.52,0 2.57,0.8 1.06,0.7 2.2,2.4 l 0.1,0 0,-2.5 6.39,0 0,20.2 -6.35,0 z m 0,-10.2 q 0,-5 -2.46,-5 -2.48,0 -2.48,5 0,5.2 2.57,5.2 2.37,0 2.37,-5.2 z" />
<path class="a" d="m 146.95,15.674 0,3.4 0.1,0 q 2.28,-4 4.81,-4 0.37,0 1.03,0.2 l 0,6.2 q -1.16,-0.2 -2.15,-0.2 -3.52,0 -3.52,4.6 l 0,10 -6.37,0 0,-20.2 6.11,0 z" />
<path class="a" d="m 158.33,10.274 6.39,0 0,5.4 2.49,0 0,5.3 -2.53,0 0,14.9 -6.35,0 0,-14.9 -2.42,0 0,-5.3 2.42,0 0,-5.4 z" />
<path class="a" d="m 170.46,9.5735 q 0,-1.4 0.99,-2.4 0.99,-1 2.37,-1 1.41,0 2.4,1 0.98,1 0.98,2.4 0,1.4005 -0.98,2.4005 -0.99,1 -2.4,1 -1.36,0 -2.37,-1 -0.99,-1 -0.99,-2.4005 z m 0.17,6.1005 6.4,0 0,20.2 -6.4,0 0,-20.2 z" />
<path class="a" d="m 193.02,29.674 0,5.3 q -2.28,1.5 -4.59,1.5 -3.4,0 -5.47,-2.9 -2.04,-3 -2.04,-8 0,-4.7 2.11,-7.6 2.11,-3 5.45,-3 2.33,0 4.59,1.6 l 0,5.3 q -1.3,-0.7 -2.33,-0.7 -1.54,0 -2.48,1.2 -0.95,1.3 -0.95,3.3 0,2.2 0.92,3.5 0.93,1.2 2.51,1.2 0.97,0 2.28,-0.7 z" />
<path class="a" d="m 197,4.8735 6.4,0 0,31.0005 -6.4,0 0,-31.0005 z" />
<path class="a" d="m 217.92,29.674 5.38,0 q -1.54,6.8 -7.69,6.8 -3.84,0 -6.08,-2.9 -2.25,-2.9 -2.25,-8 0,-4.8 2.25,-7.7 2.24,-2.9 5.95,-2.9 2.24,0 4.31,1.4 2.06,1.4 3.01,3.7 0.94,2.3 1.05,7.3 l -10.65,0 q 0.13,4.5 2.5,4.5 0.81,0 1.45,-0.6 0.64,-0.6 0.77,-1.6 z m -4.64,-5.8 4.64,0 q -0.1,-2.1 -0.59,-3.2 -0.53,-1 -1.67,-1 -1.28,0 -1.83,1 -0.55,1 -0.55,3.2 z" />
<path class="a" d="m 228.33,29.374 q 3.28,1.9 4.73,1.9 0.79,0 1.32,-0.4 0.52,-0.4 0.52,-1 0,-0.6 -0.43,-0.9 -0.44,-0.3 -3.3,-1.5 -2.29,-1 -3.3,-2.4 -1.01,-1.4 -1.01,-3.4 0,-2.9 2,-4.8 2.02,-1.9 5.14,-1.9 3.04,0 7.43,2.4 l -2.46,4.6 q -2.86,-1.8 -4.68,-1.8 -1.58,0 -1.58,1.3 0,0.6 0.57,1 0.59,0.5 2.13,1 2.88,1 4.17,2.5 1.32,1.4 1.32,3.5 0,3.1 -2.06,5.1 -2.07,1.9 -5.28,1.9 -3.47,0 -7.42,-2.4 l 2.19,-4.7 z" />
</g>

<g id="frequent-topics" transform="translate(772 0)">
<path class="a" d="m 1.831,6.4705 13.469,0 0,6.3015 -6.811,0 0,5.3 5.998,0 0,6.1 -5.998,0 0,11.6 -6.658,0 0,-29.3015 z" />
<path class="a" d="m 25.078,15.572 0,3.4 0.09,0 q 2.285,-4 4.812,-4 0.374,0 1.033,0.2 l 0,6.2 q -1.165,-0.2 -2.153,-0.2 -3.516,0 -3.516,4.6 l 0,10 -6.372,0 0,-20.2 6.108,0 z" />
<path class="a" d="m 43.931,29.572 5.383,0 q -1.538,6.8 -7.69,6.8 -3.846,0 -6.087,-2.9 -2.241,-2.9 -2.241,-8 0,-4.8 2.241,-7.7 2.241,-2.9 5.955,-2.9 2.241,0 4.306,1.4 2.066,1.4 3.011,3.7 0.945,2.3 1.054,7.3 l -10.656,0 q 0.131,4.5 2.505,4.5 0.813,0 1.45,-0.6 0.637,-0.6 0.769,-1.6 z m -4.636,-5.8 4.636,0 q -0.07,-2.1 -0.594,-3.2 -0.527,-1 -1.669,-1 -1.275,0 -1.824,1 -0.549,1 -0.549,3.2 z" />
<path class="a" d="m 63.71,44.072 0,-10.7 q -1.28,1.6 -2.35,2.4 -1.08,0.7 -2.51,0.7 -2.83,0 -4.61,-2.9 -1.78,-2.9 -1.78,-7.7 0,-5.1 1.73,-8 1.74,-2.9 4.7,-2.9 2.66,0 4.73,3.1 l 0.1,0 0,-2.5 6.39,0 0,28.5 -6.39,0 z m 0,-18.4 q 0,-5.1 -2.42,-5.1 -2.48,0 -2.48,5.4 0,2.3 0.63,3.6 0.66,1.2 1.85,1.2 2.42,0 2.42,-5.1 z" />
<path class="a" d="m 74.8,15.572 6.4,0 0,13 q 0,1 0.46,1.7 0.48,0.6 1.29,0.6 1.85,0 1.85,-2.7 l 0,-12.6 6.39,0 0,11.7 q 0,4.5 -2.08,6.8 -2.09,2.4 -6.02,2.4 -4.4,0 -6.35,-2.4 -1.94,-2.4 -1.94,-6.1 l 0,-12.4 z" />
<path class="a" d="m 105.45,29.572 5.38,0 q -1.53,6.8 -7.69,6.8 -3.84,0 -6.08,-2.9 -2.24,-2.9 -2.24,-8 0,-4.8 2.24,-7.7 2.24,-2.9 5.95,-2.9 2.24,0 4.31,1.4 2.06,1.4 3.01,3.7 0.94,2.3 1.05,7.3 l -10.65,0 q 0.13,4.5 2.5,4.5 0.81,0 1.45,-0.6 0.64,-0.6 0.77,-1.6 z m -4.64,-5.8 4.64,0 q -0.1,-2.1 -0.59,-3.2 -0.53,-1 -1.67,-1 -1.28,0 -1.83,1 -0.55,1 -0.55,3.2 z" />
<path class="a" d="m 121.49,15.572 0,2.7 0.11,0 q 2.24,-3.4 5.47,-3.4 2.11,0 3.34,1.4 1.25,1.4 1.25,3.8 l 0,15.7 -6.39,0 0,-12.5 q 0,-1 -0.48,-1.6 -0.49,-0.7 -1.26,-0.7 -2.04,0 -2.04,2.6 l 0,12.2 -6.37,0 0,-20.2 6.37,0 z" />
<path class="a" d="m 137.18,10.171 6.39,0 0,5.401 2.49,0 0,5.3 -2.53,0 0,14.9 -6.35,0 0,-14.9 -2.42,0 0,-5.3 2.42,0 0,-5.401 z" />
<path class="a" d="m 158.89,6.4705 15.88,0 0,6.7015 -4.59,0 0,22.6 -6.74,0 0,-22.6 -4.55,0 0,-6.7015 z" />
<path class="a" d="m 184.25,14.872 q 4.37,0 6.65,2.9 2.29,2.9 2.29,8.1 0,5.1 -2.38,7.9 -2.37,2.7 -6.56,2.7 -4.03,0 -6.4,-2.8 -2.35,-2.8 -2.35,-7.8 0,-5.2 2.24,-8.1 2.26,-2.9 6.51,-2.9 z m 0,15.9 q 1.25,0 1.87,-1.1 0.63,-1.2 0.63,-4 0,-2.8 -0.61,-3.9 -0.62,-1.2 -1.85,-1.2 -1.21,0 -1.84,1.1 -0.64,1.1 -0.64,4 0,5.1 2.44,5.1 z" />
<path class="a" d="m 203.32,15.572 0,2.6 0.11,0 q 2.13,-3.2 4.81,-3.2 2.88,0 4.61,3 1.76,2.9 1.76,7.9 0,4.7 -1.8,7.7 -1.78,2.9 -4.57,2.9 -2.95,0 -4.81,-3.4 l -0.11,0 0,11 -6.37,0 0,-28.5 6.37,0 z m 4.92,10 q 0,-5 -2.53,-5 -2.39,0 -2.39,5.1 0,5.2 2.39,5.2 2.53,0 2.53,-5.3 z" />
<path class="a" d="m 218.39,9.4705 q 0,-1.4 0.99,-2.4 0.99,-1 2.37,-1 1.41,0 2.4,1 0.99,1 0.99,2.4 0,1.4015 -0.99,2.4015 -0.99,1 -2.4,1 -1.36,0 -2.37,-1 -0.99,-1 -0.99,-2.4015 z m 0.18,6.1015 6.39,0 0,20.2 -6.39,0 0,-20.2 z" />
<path class="a" d="m 240.96,29.572 0,5.3 q -2.29,1.5 -4.6,1.5 -3.4,0 -5.47,-2.9 -2.04,-3 -2.04,-8 0,-4.7 2.11,-7.6 2.11,-3 5.45,-3 2.33,0 4.59,1.6 l 0,5.3 q -1.3,-0.7 -2.33,-0.7 -1.54,0 -2.48,1.2 -0.95,1.3 -0.95,3.3 0,2.2 0.93,3.5 0.92,1.2 2.5,1.2 0.97,0 2.29,-0.7 z" />
<path class="a" d="m 245.5,29.272 q 3.28,1.9 4.73,1.9 0.79,0 1.32,-0.4 0.52,-0.4 0.52,-1 0,-0.6 -0.43,-0.9 -0.44,-0.3 -3.3,-1.5 -2.29,-1 -3.3,-2.4 -1.01,-1.4 -1.01,-3.4 0,-2.9 2,-4.8 2.02,-1.9 5.14,-1.9 3.04,0 7.43,2.4 l -2.46,4.6 q -2.86,-1.8 -4.68,-1.8 -1.58,0 -1.58,1.3 0,0.6 0.57,1 0.59,0.5 2.13,1 2.88,1 4.17,2.5 1.32,1.4 1.32,3.5 0,3.1 -2.06,5.1 -2.07,1.9 -5.28,1.9 -3.47,0 -7.42,-2.4 l 2.19,-4.7 z" />
</g>

<g id="about-dhmb" transform="translate(1032 0)">
<path class="a" d="m 25,35.754 -6.922,0 -1.12,-4.9 -7.0315,0 -1.1625,4.9 -6.79,0 7.7775,-29.297 7.4695,0 L 25,35.754 Z m -9.317,-10.2 q -1.494,-6.5 -2.241,-12.4 l -0.09,0 q -0.791,6.1 -2.219,12.4 l 4.548,0 z" />
<path class="a" d="m 27.68,4.757 6.372,0 0,13.197 0.11,0 q 1.165,-1.6 2.176,-2.3 1.032,-0.8 2.636,-0.8 2.681,0 4.483,2.8 1.801,2.8 1.801,8.1 0,4.8 -1.735,7.7 -1.714,3 -4.461,3 -2.856,0 -4.9,-3.3 l -0.11,0 0,2.6 -6.372,0 0,-30.997 z m 11.25,20.797 q 0,-5 -2.57,-5 -2.308,0 -2.308,4.8 0,2.8 0.594,4.1 0.615,1.3 1.933,1.3 2.351,0 2.351,-5.2 z" />
<path class="a" d="m 56.638,14.854 q 4.38,0 6.66,2.9 2.29,2.9 2.29,8.1 0,5.1 -2.38,7.9 -2.37,2.7 -6.57,2.7 -4.02,0 -6.39,-2.8 -2.353,-2.8 -2.353,-7.8 0,-5.2 2.243,-8.1 2.26,-2.9 6.5,-2.9 z m 0,15.9 q 1.26,0 1.87,-1.1 0.64,-1.2 0.64,-4 0,-2.8 -0.62,-3.9 -0.61,-1.2 -1.84,-1.2 -1.21,0 -1.85,1.1 -0.64,1.1 -0.64,4 0,5.1 2.44,5.1 z" />
<path class="a" d="m 69.188,15.554 6.39,0 0,13 q 0,1 0.46,1.7 0.49,0.6 1.3,0.6 1.85,0 1.85,-2.7 l 0,-12.6 6.39,0 0,11.7 q 0,4.5 -2.09,6.8 -2.08,2.4 -6.02,2.4 -4.39,0 -6.35,-2.4 -1.93,-2.4 -1.93,-6.1 l 0,-12.4 z" />
<path class="a" d="m 91.138,10.154 6.39,0 0,5.4 2.502,0 0,5.3 -2.542,0 0,14.9 -6.35,0 0,-14.9 -2.42,0 0,-5.3 2.42,0 0,-5.4 z" />
<path class="a" d="m 115.06,6.457 6.22,0 q 6.46,0 9.82,3.697 3.36,3.6 3.36,10.7 0,5.4 -1.67,8.7 -1.65,3.3 -4.63,4.7 -2.97,1.5 -6.57,1.5 l -6.53,0 0,-29.297 z m 6.66,6.197 0,16.8 q 3.03,-0.2 4.28,-2.1 1.25,-1.9 1.25,-6.2 0,-2.5 -0.44,-4.3 -0.43,-1.8 -1.31,-2.7 -0.86,-1 -1.7,-1.2 -0.81,-0.2 -2.08,-0.3 z" />
<path class="a" d="m 138.97,6.457 6.65,0 0,10.797 5.91,0 0,-10.797 6.66,0 0,29.297 -6.66,0 0,-12.2 -5.91,0 0,12.2 -6.65,0 0,-29.297 z" />
<path class="a" d="m 166.59,6.457 8.41,0 q 1.8,9.497 2.84,16.297 l 0.72,-4.6 q 0.44,-2.6 0.95,-5.1 l 1.29,-6.597 8.59,0 3.34,29.297 -6.59,0 -1.78,-20.2 -4.11,20.2 -4.5,0 -4.31,-20.2 -1.71,20.2 -6.31,0 3.17,-29.297 z" />
<path class="a" d="m 198.03,6.457 6.77,0 q 5.91,0 8.5,2.2995 2.59,2.2975 2.59,5.8975 0,3.9 -3.78,6.2 4.29,1.7 4.29,6.4 0,3.8 -2.66,6.2 -2.66,2.3 -7.01,2.3 l -8.7,0 0,-29.297 z m 6.66,5.597 0,6.3 q 4.46,-0.1 4.46,-3.1 0,-1.8 -1.08,-2.5 -1.05,-0.7 -3.38,-0.7 z m 0,11.6 0,6.4 q 2.52,-0.1 3.78,-0.8 1.27,-0.7 1.27,-2.4 0,-3.2 -4.5,-3.2 l -0.55,0 z" />
</g>

<g id="how-to-use" transform="translate(0 48)">
<path class="a" d="m 3.2836,6.557 6.6568,0 0,10.8 5.9116,0 0,-10.8 6.658,0 0,29.3 -6.658,0 0,-12.2 -5.9116,0 0,12.2 -6.6568,0 0,-29.3 z" />
<path class="a" d="m 35.672,14.957 q 4.372,0 6.658,2.9 2.285,2.9 2.285,8.1 0,5.1 -2.373,7.9 -2.373,2.7 -6.57,2.7 -4.021,0 -6.394,-2.8 -2.351,-2.8 -2.351,-7.8 0,-5.2 2.241,-8.1 2.263,-2.9 6.504,-2.9 z m 0.04,15.9 q 1.252,0 1.867,-1.1 0.638,-1.2 0.638,-4 0,-2.8 -0.616,-3.9 -0.615,-1.2 -1.845,-1.2 -1.209,0 -1.846,1.1 -0.637,1.1 -0.637,4 0,5.1 2.439,5.1 z" />
<path class="a" d="m 45.538,15.657 6.306,0 q 2.197,9.6 2.483,11.3 l 0.09,0 2.154,-11.3 5.408,0 2.15,11.2 0.1,0 q 0.53,-2.6 0.72,-3.5 l 1.85,-7.7 6.31,0 -6.27,20.2 -4.81,0 q -2.46,-9 -2.74,-10.9 l -0.1,0 q -0.2,1.5 -2.663,10.9 l -4.768,0 -6.218,-20.2 z" />
<path class="a" d="m 87.749,10.257 6.39,0 0,5.4 2.48,0 0,5.3 -2.52,0 0,14.9 -6.35,0 0,-14.9 -2.42,0 0,-5.3 2.42,0 0,-5.4 z" />
<path class="a" d="m 107.48,14.957 q 4.37,0 6.65,2.9 2.29,2.9 2.29,8.1 0,5.1 -2.37,7.9 -2.38,2.7 -6.57,2.7 -4.02,0 -6.4,-2.8 -2.351,-2.8 -2.351,-7.8 0,-5.2 2.241,-8.1 2.27,-2.9 6.51,-2.9 z m 0,15.9 q 1.25,0 1.87,-1.1 0.64,-1.2 0.64,-4 0,-2.8 -0.62,-3.9 -0.62,-1.2 -1.85,-1.2 -1.2,0 -1.84,1.1 -0.64,1.1 -0.64,4 0,5.1 2.44,5.1 z" />
<path class="a" d="m 131.78,6.557 6.83,0 0,20.6 q 0,1.5 0.77,2.3 0.77,0.9 2.07,0.9 1.34,0 2.11,-0.9 0.79,-0.9 0.79,-2.5 l 0,-20.4 6.79,0 0,19.2 q 0,4 -1.04,6.3 -1.03,2.4 -3.05,3.5 -2,1.1 -5.6,1.1 -5.32,0 -7.5,-2.7 -2.17,-2.7 -2.17,-9.2 l 0,-18.2 z" />
<path class="a" d="m 157.22,29.357 q 3.28,1.9 4.73,1.9 0.79,0 1.32,-0.4 0.52,-0.4 0.52,-1 0,-0.6 -0.44,-0.9 -0.44,-0.3 -3.29,-1.5 -2.29,-1 -3.3,-2.4 -1.01,-1.4 -1.01,-3.4 0,-2.9 2,-4.8 2.02,-1.9 5.14,-1.9 3.03,0 7.43,2.4 l -2.46,4.6 q -2.86,-1.8 -4.68,-1.8 -1.58,0 -1.58,1.3 0,0.6 0.57,1 0.59,0.5 2.13,1 2.88,1 4.17,2.5 1.32,1.4 1.32,3.5 0,3.1 -2.06,5.1 -2.07,1.9 -5.28,1.9 -3.47,0 -7.42,-2.4 l 2.19,-4.7 z" />
<path class="a" d="m 183.19,29.657 5.39,0 q -1.54,6.8 -7.69,6.8 -3.85,0 -6.09,-2.9 -2.24,-2.9 -2.24,-8 0,-4.8 2.24,-7.7 2.24,-2.9 5.96,-2.9 2.24,0 4.3,1.4 2.07,1.4 3.01,3.7 0.95,2.3 1.06,7.3 l -10.66,0 q 0.13,4.5 2.5,4.5 0.82,0 1.46,-0.6 0.63,-0.6 0.76,-1.6 z m -4.63,-5.8 4.63,0 q -0.1,-2.1 -0.59,-3.2 -0.53,-1 -1.67,-1 -1.27,0 -1.82,1 -0.55,1 -0.55,3.2 z" />
</g>

<g id="how-to-use-dhmb" transform="translate(192 48)">
<path class="a" d="m 2.7931,6.664 6.657,0 0,10.8 5.9109,0 0,-10.8 6.658,0 0,29.296 -6.658,0 0,-12.196 -5.9109,0 0,12.196 -6.657,0 0,-29.296 z" />
<path class="a" d="m 35.177,15.064 q 4.38,0 6.66,2.9 2.29,2.9 2.29,8.1 0,5.096 -2.38,7.896 -2.37,2.7 -6.57,2.7 -4.017,0 -6.39,-2.8 -2.351,-2.8 -2.351,-7.796 0,-5.2 2.241,-8.1 2.263,-2.9 6.5,-2.9 z m 0,15.896 q 1.26,0 1.87,-1.1 0.64,-1.2 0.64,-3.996 0,-2.8 -0.62,-3.9 -0.61,-1.2 -1.84,-1.2 -1.21,0 -1.85,1.1 -0.64,1.1 -0.64,4 0,5.096 2.44,5.096 z" />
<path class="a" d="m 45.047,15.764 6.31,0 q 2.19,9.6 2.48,11.3 l 0.1,0 2.15,-11.3 5.41,0 2.15,11.2 0.1,0 q 0.53,-2.6 0.72,-3.5 l 1.85,-7.7 6.31,0 -6.27,20.196 -4.81,0 q -2.46,-8.996 -2.74,-10.896 l -0.1,0 q -0.2,1.5 -2.66,10.896 l -4.77,0 -6.22,-20.196 z" />
<path class="a" d="m 87.257,10.364 6.39,0 0,5.4 2.49,0 0,5.3 -2.53,0 0,14.896 -6.35,0 0,-14.896 -2.42,0 0,-5.3 2.42,0 0,-5.4 z" />
<path class="a" d="m 107,15.064 q 4.37,0 6.66,2.9 2.28,2.9 2.28,8.1 0,5.096 -2.37,7.896 -2.37,2.7 -6.57,2.7 -4.02,0 -6.4,-2.8 -2.363,-2.8 -2.363,-7.796 0,-5.2 2.253,-8.1 2.27,-2.9 6.51,-2.9 z m 0,15.896 q 1.26,0 1.87,-1.1 0.64,-1.2 0.64,-3.996 0,-2.8 -0.62,-3.9 -0.61,-1.2 -1.84,-1.2 -1.21,0 -1.85,1.1 -0.64,1.1 -0.64,4 0,5.096 2.44,5.096 z" />
<path class="a" d="m 131.3,6.664 6.83,0 0,20.6 q 0,1.496 0.77,2.296 0.77,0.9 2.07,0.9 1.34,0 2.11,-0.9 0.79,-0.9 0.79,-2.496 l 0,-20.4 6.79,0 0,19.2 q 0,3.996 -1.03,6.296 -1.04,2.4 -3.06,3.5 -2,1.1 -5.6,1.1 -5.32,0 -7.49,-2.7 -2.18,-2.7 -2.18,-9.196 l 0,-18.2 z" />
<path class="a" d="m 156.75,29.46 q 3.27,1.9 4.72,1.9 0.79,0 1.32,-0.4 0.53,-0.4 0.53,-1 0,-0.6 -0.44,-0.9 -0.44,-0.3 -3.3,-1.496 -2.29,-1 -3.3,-2.4 -1.01,-1.4 -1.01,-3.4 0,-2.9 2,-4.8 2.02,-1.9 5.14,-1.9 3.04,0 7.43,2.4 l -2.46,4.6 q -2.86,-1.8 -4.68,-1.8 -1.58,0 -1.58,1.3 0,0.6 0.57,1 0.59,0.5 2.13,1 2.88,1 4.18,2.5 1.31,1.4 1.31,3.496 0,3.1 -2.06,5.1 -2.07,1.9 -5.28,1.9 -3.47,0 -7.42,-2.4 l 2.2,-4.7 z" />
<path class="a" d="m 182.72,29.76 5.38,0 q -1.54,6.8 -7.69,6.8 -3.85,0 -6.09,-2.9 -2.24,-2.9 -2.24,-7.996 0,-4.8 2.24,-7.7 2.24,-2.9 5.96,-2.9 2.24,0 4.3,1.4 2.07,1.4 3.02,3.7 0.94,2.3 1.05,7.3 l -10.66,0 q 0.13,4.496 2.51,4.496 0.81,0 1.45,-0.6 0.64,-0.6 0.77,-1.6 z m -4.64,-5.796 4.64,0 q -0.1,-2.1 -0.6,-3.2 -0.52,-1 -1.67,-1 -1.27,0 -1.82,1 -0.55,1 -0.55,3.2 z" />
<path class="a" d="m 204.16,6.664 6.22,0 q 6.46,0 9.82,3.7 3.36,3.6 3.36,10.7 0,5.4 -1.67,8.696 -1.64,3.3 -4.63,4.7 -2.97,1.5 -6.57,1.5 l -6.53,0 0,-29.296 z m 6.66,6.2 0,16.796 q 3.03,-0.2 4.28,-2.096 1.26,-1.9 1.26,-6.2 0,-2.5 -0.44,-4.3 -0.44,-1.8 -1.32,-2.7 -0.86,-1 -1.69,-1.2 -0.82,-0.2 -2.09,-0.3 z" />
<path class="a" d="m 228.07,6.664 6.66,0 0,10.8 5.91,0 0,-10.8 6.65,0 0,29.296 -6.65,0 0,-12.196 -5.91,0 0,12.196 -6.66,0 0,-29.296 z" />
<path class="a" d="m 255.69,6.664 8.41,0 q 1.81,9.5 2.84,16.3 l 0.72,-4.6 q 0.44,-2.6 0.95,-5.1 l 1.29,-6.6 8.6,0 3.34,29.296 -6.6,0 -1.78,-20.196 -4.1,20.196 -4.51,0 -4.31,-20.196 -1.71,20.196 -6.31,0 3.17,-29.296 z" />
<path class="a" d="m 287.13,6.664 6.77,0 q 5.91,0 8.5,2.3 2.59,2.3 2.59,5.9 0,3.9 -3.77,6.2 4.28,1.7 4.28,6.4 0,3.796 -2.66,6.196 -2.66,2.3 -7.01,2.3 l -8.7,0 0,-29.296 z m 6.66,5.6 0,6.3 q 4.46,-0.1 4.46,-3.1 0,-1.8 -1.08,-2.5 -1.05,-0.7 -3.38,-0.7 z m 0,11.6 0,6.396 q 2.53,-0.1 3.78,-0.8 1.27,-0.7 1.27,-2.396 0,-3.2 -4.5,-3.2 l -0.55,0 z" />
</g>

<g id="your-privacy" transform="translate(500 48)">
<path class="a" d="m 2.7795,6.674 7.4695,0 q 2.483,6.299 3.604,9.699 l 0.09,0 q 1.121,-3.5 3.56,-9.699 l 7.647,0 -7.867,15.999 0,13.3 -6.745,0 0,-13.3 L 2.7825,6.674 Z" />
<path class="a" d="m 33.474,15.073 q 4.373,0 6.658,2.9 2.285,2.9 2.285,8.1 0,5.1 -2.373,7.9 -2.373,2.7 -6.57,2.7 -4.021,0 -6.394,-2.8 -2.351,-2.8 -2.351,-7.8 0,-5.2 2.241,-8.1 2.263,-2.9 6.504,-2.9 z m 0.04,15.9 q 1.253,0 1.868,-1.1 0.637,-1.2 0.637,-4 0,-2.8 -0.615,-3.9 -0.615,-1.2 -1.846,-1.2 -1.208,0 -1.846,1.1 -0.637,1.1 -0.637,4 0,5.1 2.439,5.1 z" />
<path class="a" d="m 46.021,15.773 6.39,0 0,13 q 0,1 0.46,1.7 0.49,0.6 1.3,0.6 1.85,0 1.85,-2.7 l 0,-12.6 6.39,0 0,11.7 q 0,4.5 -2.09,6.8 -2.08,2.4 -6.02,2.4 -4.391,0 -6.347,-2.4 -1.933,-2.4 -1.933,-6.1 l 0,-12.4 z" />
<path class="a" d="m 73.291,15.773 0,3.4 0.1,0 q 2.28,-4 4.81,-4 0.37,0 1.03,0.2 l 0,6.2 q -1.16,-0.2 -2.15,-0.2 -3.52,0 -3.52,4.6 l 0,10 -6.37,0 0,-20.2 6.11,0 z" />
<path class="a" d="m 94.421,6.674 8.259,0 q 4.35,0 6.99,2.5 2.64,2.399 2.64,6.499 0,4.3 -2.68,6.7 -2.66,2.4 -7.4,2.4 l -1.14,0 0,11.2 -6.669,0 0,-29.299 z m 6.669,5.599 0,6.9 q 2.25,0 3.31,-0.8 1.07,-0.9 1.07,-2.6 0,-1.9 -1.03,-2.7 -1.03,-0.8 -3.35,-0.8 z" />
<path class="a" d="m 122.79,15.773 0,3.4 0.1,0 q 2.28,-4 4.81,-4 0.37,0 1.03,0.2 l 0,6.2 q -1.16,-0.2 -2.15,-0.2 -3.52,0 -3.52,4.6 l 0,10 -6.37,0 0,-20.2 6.11,0 z" />
<path class="a" d="m 132.15,9.674 q 0,-1.4 0.99,-2.4 0.99,-1 2.37,-1 1.41,0 2.4,1 0.98,1 0.98,2.4 0,1.399 -0.98,2.399 -0.99,1 -2.4,1 -1.36,0 -2.37,-1 -0.99,-1 -0.99,-2.399 z m 0.17,6.099 6.4,0 0,20.2 -6.4,0 0,-20.2 z" />
<path class="a" d="m 141.82,15.773 6.24,0 2.52,10.9 0.1,0 2.53,-10.9 6.33,0 -6.29,20.2 -5.18,0 -6.24,-20.2 z" />
<path class="a" d="m 172.18,35.973 0,-2.7 -0.1,0 q -1.16,1.8 -2.26,2.6 -1.08,0.8 -2.55,0.8 -2.88,0 -4.59,-3 -1.71,-2.9 -1.71,-8 0,-4.8 1.73,-7.7 1.74,-2.9 4.57,-2.9 1.52,0 2.57,0.8 1.06,0.7 2.2,2.4 l 0.1,0 0,-2.5 6.39,0 0,20.2 -6.35,0 z m 0,-10.2 q 0,-5 -2.46,-5 -2.48,0 -2.48,5 0,5.2 2.57,5.2 2.37,0 2.37,-5.2 z" />
<path class="a" d="m 194.35,29.773 0,5.3 q -2.28,1.5 -4.59,1.5 -3.41,0 -5.47,-2.9 -2.04,-3 -2.04,-8 0,-4.7 2.11,-7.6 2.1,-3 5.44,-3 2.33,0 4.6,1.6 l 0,5.3 q -1.3,-0.7 -2.33,-0.7 -1.54,0 -2.49,1.2 -0.94,1.3 -0.94,3.3 0,2.2 0.92,3.5 0.93,1.2 2.51,1.2 0.96,0 2.28,-0.7 z" />
<path class="a" d="m 196.15,15.773 6.31,0 1.6,5.2 q 0.84,2.8 1.46,5.5 l 0.1,0 q 0.51,-2.6 0.84,-3.7 l 2.13,-7 6.4,0 -8.62,28.5 -6.37,0 2.59,-8.6 -6.44,-19.9 z" />
</g>

<g id="whoops" transform="translate(718 48)">
<path class="a" d="m 2.0806,6.443 6.394,0 3.7804,17.7 0.09,0 3.428,-17.7 5.801,0 3.471,17.5 0.09,0 3.604,-17.5 6.569,0 -7.031,29.3 -6.02,0 -2.791,-13.1 q -0.461,-2.2 -0.769,-4.2 l -0.09,0 q -0.549,3.4 -0.791,4.6 l -2.768,12.7 -5.9334,0 -7.032,-29.3 z" />
<path class="a" d="m 38.183,4.743 6.372,0 0,13.4 0.11,0 q 2.351,-3.3 5.427,-3.3 2.197,0 3.406,1.5 1.23,1.4 1.23,4 l 0,15.4 -6.394,0 0,-12.3 q 0,-1.2 -0.483,-1.9 -0.462,-0.6 -1.297,-0.6 -1.999,0 -1.999,2.7 l 0,12.1 -6.372,0 0,-31 z" />
<path class="a" d="m 67.059,14.843 q 4.37,0 6.65,2.9 2.29,2.9 2.29,8.1 0,5.1 -2.37,7.9 -2.38,2.7 -6.57,2.7 -4.03,0 -6.4,-2.8 -2.349,-2.8 -2.349,-7.8 0,-5.2 2.239,-8.1 2.26,-2.9 6.51,-2.9 z m 0,15.9 q 1.25,0 1.86,-1.1 0.64,-1.2 0.64,-4 0,-2.8 -0.62,-3.9 -0.61,-1.2 -1.84,-1.2 -1.21,0 -1.85,1.1 -0.63,1.1 -0.63,4 0,5.1 2.44,5.1 z" />
<path class="a" d="m 87.359,14.843 q 4.37,0 6.66,2.9 2.28,2.9 2.28,8.1 0,5.1 -2.37,7.9 -2.38,2.7 -6.57,2.7 -4.02,0 -6.4,-2.8 -2.35,-2.8 -2.35,-7.8 0,-5.2 2.24,-8.1 2.27,-2.9 6.51,-2.9 z m 0,15.9 q 1.25,0 1.87,-1.1 0.63,-1.2 0.63,-4 0,-2.8 -0.61,-3.9 -0.62,-1.2 -1.85,-1.2 -1.21,0 -1.84,1.1 -0.64,1.1 -0.64,4 0,5.1 2.44,5.1 z" />
<path class="a" d="m 106.43,15.543 0,2.6 0.11,0 q 2.13,-3.2 4.81,-3.2 2.88,0 4.62,3 1.76,2.9 1.76,7.9 0,4.7 -1.81,7.7 -1.78,2.9 -4.57,2.9 -2.94,0 -4.81,-3.4 l -0.11,0 0,11 -6.37,0 0,-28.5 6.37,0 z m 4.92,10 q 0,-5 -2.52,-5 -2.4,0 -2.4,5.1 0,5.2 2.4,5.2 2.52,0 2.52,-5.3 z" />
<path class="a" d="m 122.25,29.243 q 3.28,1.9 4.73,1.9 0.79,0 1.31,-0.4 0.53,-0.4 0.53,-1 0,-0.6 -0.44,-0.9 -0.44,-0.3 -3.29,-1.5 -2.29,-1 -3.3,-2.4 -1.01,-1.4 -1.01,-3.4 0,-2.9 2,-4.8 2.02,-1.9 5.14,-1.9 3.03,0 7.43,2.4 l -2.46,4.6 q -2.86,-1.8 -4.68,-1.8 -1.59,0 -1.59,1.3 0,0.6 0.58,1 0.59,0.5 2.13,1 2.88,1 4.17,2.5 1.32,1.4 1.32,3.5 0,3.1 -2.06,5.1 -2.07,1.9 -5.28,1.9 -3.47,0 -7.43,-2.4 l 2.2,-4.7 z" />
<path class="a" d="m 139.85,6.443 6.4,0 0,21 -6.4,0 0,-21 z m -0.42,26.4 q 0,-1.5 1.08,-2.5 1.08,-1.1 2.57,-1.1 1.5,0 2.57,1.1 1.08,1.1 1.08,2.5 0,1.5 -1.08,2.6 -1.07,1.1 -2.57,1.1 -1.51,0 -2.59,-1.1 -1.06,-1.1 -1.06,-2.6 z" />
</g>

<style>
.a{fill:#3ed481;fill-opacity:1;stroke:#000000;stroke-width:1.1;stroke-opacity:1}
</style>

</svg>