<?xml version="1.0" encoding="UTF-8" standalone="no"?>
<svg xmlns="http://www.w3.org/2000/svg" viewBox="0 0 1620 48" width="100%" height="100%">

<view id="prev-base" viewBox="0 0 42 48" />
<view id="next-base" viewBox="42 0 42 48" />
<view id="prev-categories" viewBox="84 0 42 48" />
<view id="next-categories" viewBox="126 0 42 48" />
<view id="prev-tags" viewBox="168 0 42 48" />
<view id="next-tags" viewBox="210 0 42 48" />
<view id="more-goods-base" viewBox="252 0 198 48" />
<view id="more-goods-categories" viewBox=" 450 0 198 48" />
<view id="more-goods-tags" viewBox=" 648 0 198 48" />
<view id="more-thataway-base" viewBox=" 846 0 258 48" />
<view id="more-thataway-categories" viewBox="1104 0 258 48" />
<view id="more-thataway-tags" viewBox="1362 0 258 48" />

<g id="prev-base" transform="translate(0 0)">
<rect class="a" ry="1.85" height="5.977" width="24.251" y="12.433" x="-5.3885" transform="matrix(0.86603,-0.5,0.5,0.86603,0,0)" />
<rect class="a" ry="1.85" height="5.977" width="24.242" y="8.6258" x="10.307" transform="matrix(0.86603,0.5,-0.5,0.86603,0,0)" />
<rect class="a"  ry="1.81" height="5.846" width="38.316" y="12.682" x="1.9062" />
<rect style="fill:#3ed481;stroke-width:0.5" ry="1.68" height="5.428" width="22.021" y="12.716" x="-5.4701" transform="matrix(0.86601,-0.50002,0.49991,0.86608,0,0)" />
<rect style="fill:#3ed481;stroke-width:0.5" ry="1.68" height="5.428" width="22.021" y="-14.349" x="10.136" transform="matrix(0.86601,0.50002,0.49991,-0.86608,0,0)" />
<rect style="fill:#3ed481" ry="0.339" height="2.733" width="0.179" y="14.308" x="2.2192" />
<path class="z" d="m 2.8062,43.184 0,-9.843 3.189,0 q 1.813,0 2.364,0.148 0.846,0.221 1.4162,0.967 0.5716,0.738 0.5716,1.913 0,0.907 -0.33,1.524 -0.3288,0.618 -0.8388,0.974 -0.504,0.349 -1.027,0.463 -0.712,0.141 -2.062,0.141 l -1.295,0 0,3.713 -1.988,0 z m 1.988,-8.178 0,2.793 1.087,0 q 1.175,0 1.571,-0.154 0.396,-0.155 0.618,-0.484 0.228,-0.329 0.228,-0.765 0,-0.537 -0.315,-0.886 -0.316,-0.349 -0.799,-0.437 -0.356,-0.07 -1.43,-0.07 l -0.96,0 z" />
<path class="z" d="m 11.999,43.184 0,-9.843 4.183,0 q 1.578,0 2.289,0.269 0.719,0.262 1.148,0.94 0.43,0.678 0.43,1.551 0,1.107 -0.651,1.833 -0.651,0.718 -1.947,0.906 0.644,0.376 1.061,0.826 0.423,0.45 1.134,1.598 l 1.202,1.92 -2.377,0 -1.436,-2.142 q -0.766,-1.148 -1.048,-1.443 -0.282,-0.303 -0.597,-0.41 -0.316,-0.114 -1.001,-0.114 l -0.403,0 0,4.109 -1.987,0 z m 1.987,-5.68 1.471,0 q 1.43,0 1.786,-0.121 0.356,-0.121 0.557,-0.416 0.201,-0.296 0.201,-0.739 0,-0.497 -0.268,-0.799 -0.262,-0.309 -0.745,-0.389 -0.242,-0.03 -1.451,-0.03 l -1.551,0 0,2.498 z" />
<path class="z" d="m 21.929,43.184 0,-9.843 7.298,0 0,1.665 -5.311,0 0,2.182 4.942,0 0,1.659 -4.942,0 0,2.678 5.499,0 0,1.659 -7.486,0 z" />
<path class="z" d="m 33.625,43.184 -3.519,-9.843 2.156,0 2.49,7.285 2.411,-7.285 2.108,0 -3.525,9.843 -2.121,0 z" />
</g>

<g id="next-base" transform="translate(42 0)">
<g transform="matrix(-1,0,0,-1,42,31.5)">
<rect class="a" ry="1.85" height="5.977" width="24.251" y="12.433" x="-5.3885" transform="matrix(0.86603,-0.5,0.5,0.86603,0,0)" />
<rect class="a" ry="1.85" height="5.977" width="24.242" y="8.6258" x="10.307" transform="matrix(0.86603,0.5,-0.5,0.86603,0,0)" />
<rect class="a"  ry="1.81" height="5.846" width="38.316" y="12.682" x="1.9062" />
<rect style="fill:#3ed481;stroke-width:0.5" ry="1.68" height="5.428" width="22.021" y="12.716" x="-5.4701" transform="matrix(0.86601,-0.50002,0.49991,0.86608,0,0)" />
<rect style="fill:#3ed481;stroke-width:0.5" ry="1.68" height="5.428" width="22.021" y="-14.349" x="10.136" transform="matrix(0.86601,0.50002,0.49991,-0.86608,0,0)" />
<rect style="fill:#3ed481" ry="0.339" height="2.733" width="0.179" y="14.308" x="2.2192" />
</g>
<path class="z" d="m 3.299,43.221 0,-9.842 1.934,0 4.028,6.573 0,-6.573 1.846,0 0,9.842 -1.994,0 -3.967,-6.418 0,6.418 -1.847,0 z" />
<path class="z" d="m 13.216,43.221 0,-9.842 7.298,0 0,1.665 -5.311,0 0,2.182 4.941,0 0,1.658 -4.941,0 0,2.679 5.499,0 0,1.658 -7.486,0 z" />
<path class="z" d="m 21.4,43.221 3.363,-5.136 -3.048,-4.706 2.323,0 1.974,3.162 1.934,-3.162 2.303,0 -3.062,4.78 3.364,5.062 -2.397,0 -2.182,-3.404 -2.189,3.404 -2.383,0 z"/>
<path class="z" d="m 33.8,43.221 0,-8.177 -2.92,0 0,-1.665 7.821,0 0,1.665 -2.913,0 0,8.177 -1.988,0 z" />
</g>

<g id="prev-categories" transform="translate(84 0)">
<rect class="b" ry="1.85" height="5.977" width="24.251" y="12.433" x="-5.3885" transform="matrix(0.86603,-0.5,0.5,0.86603,0,0)" />
<rect class="b" ry="1.85" height="5.977" width="24.242" y="8.6258" x="10.307" transform="matrix(0.86603,0.5,-0.5,0.86603,0,0)" />
<rect class="b"  ry="1.81" height="5.846" width="38.316" y="12.682" x="1.9062" />
<rect style="fill:#f6ca2f;stroke-width:0.5" ry="1.68" height="5.428" width="22.021" y="12.716" x="-5.4701" transform="matrix(0.86601,-0.50002,0.49991,0.86608,0,0)" />
<rect style="fill:#f6ca2f;stroke-width:0.5" ry="1.68" height="5.428" width="22.021" y="-14.349" x="10.136" transform="matrix(0.86601,0.50002,0.49991,-0.86608,0,0)" />
<rect style="fill:#f6ca2f" ry="0.339" height="2.733" width="0.179" y="14.308" x="2.2192" />
<path class="z" d="m 2.8062,43.184 0,-9.843 3.189,0 q 1.813,0 2.364,0.148 0.846,0.221 1.4162,0.967 0.5716,0.738 0.5716,1.913 0,0.907 -0.33,1.524 -0.3288,0.618 -0.8388,0.974 -0.504,0.349 -1.027,0.463 -0.712,0.141 -2.062,0.141 l -1.295,0 0,3.713 -1.988,0 z m 1.988,-8.178 0,2.793 1.087,0 q 1.175,0 1.571,-0.154 0.396,-0.155 0.618,-0.484 0.228,-0.329 0.228,-0.765 0,-0.537 -0.315,-0.886 -0.316,-0.349 -0.799,-0.437 -0.356,-0.07 -1.43,-0.07 l -0.96,0 z" />
<path class="z" d="m 11.999,43.184 0,-9.843 4.183,0 q 1.578,0 2.289,0.269 0.719,0.262 1.148,0.94 0.43,0.678 0.43,1.551 0,1.107 -0.651,1.833 -0.651,0.718 -1.947,0.906 0.644,0.376 1.061,0.826 0.423,0.45 1.134,1.598 l 1.202,1.92 -2.377,0 -1.436,-2.142 q -0.766,-1.148 -1.048,-1.443 -0.282,-0.303 -0.597,-0.41 -0.316,-0.114 -1.001,-0.114 l -0.403,0 0,4.109 -1.987,0 z m 1.987,-5.68 1.471,0 q 1.43,0 1.786,-0.121 0.356,-0.121 0.557,-0.416 0.201,-0.296 0.201,-0.739 0,-0.497 -0.268,-0.799 -0.262,-0.309 -0.745,-0.389 -0.242,-0.03 -1.451,-0.03 l -1.551,0 0,2.498 z" />
<path class="z" d="m 21.929,43.184 0,-9.843 7.298,0 0,1.665 -5.311,0 0,2.182 4.942,0 0,1.659 -4.942,0 0,2.678 5.499,0 0,1.659 -7.486,0 z" />
<path class="z" d="m 33.625,43.184 -3.519,-9.843 2.156,0 2.49,7.285 2.411,-7.285 2.108,0 -3.525,9.843 -2.121,0 z" />
</g>

<g id="next-categories" transform="translate(126 0)">
<g transform="matrix(-1,0,0,-1,42,31.5)">
<rect class="b" ry="1.85" height="5.977" width="24.251" y="12.433" x="-5.3885" transform="matrix(0.86603,-0.5,0.5,0.86603,0,0)" />
<rect class="b" ry="1.85" height="5.977" width="24.242" y="8.6258" x="10.307" transform="matrix(0.86603,0.5,-0.5,0.86603,0,0)" />
<rect class="b"  ry="1.81" height="5.846" width="38.316" y="12.682" x="1.9062" />
<rect style="fill:#f6ca2f;stroke-width:0.5" ry="1.68" height="5.428" width="22.021" y="12.716" x="-5.4701" transform="matrix(0.86601,-0.50002,0.49991,0.86608,0,0)" />
<rect style="fill:#f6ca2f;stroke-width:0.5" ry="1.68" height="5.428" width="22.021" y="-14.349" x="10.136" transform="matrix(0.86601,0.50002,0.49991,-0.86608,0,0)" />
<rect style="fill:#f6ca2f" ry="0.339" height="2.733" width="0.179" y="14.308" x="2.2192" />
</g>
<path class="z" d="m 3.299,43.221 0,-9.842 1.934,0 4.028,6.573 0,-6.573 1.846,0 0,9.842 -1.994,0 -3.967,-6.418 0,6.418 -1.847,0 z" />
<path class="z" d="m 13.216,43.221 0,-9.842 7.298,0 0,1.665 -5.311,0 0,2.182 4.941,0 0,1.658 -4.941,0 0,2.679 5.499,0 0,1.658 -7.486,0 z" />
<path class="z" d="m 21.4,43.221 3.363,-5.136 -3.048,-4.706 2.323,0 1.974,3.162 1.934,-3.162 2.303,0 -3.062,4.78 3.364,5.062 -2.397,0 -2.182,-3.404 -2.189,3.404 -2.383,0 z"/>
<path class="z" d="m 33.8,43.221 0,-8.177 -2.92,0 0,-1.665 7.821,0 0,1.665 -2.913,0 0,8.177 -1.988,0 z" />
</g>

<g id="prev-tags" transform="translate(168 0)">
<rect class="c" ry="1.85" height="5.977" width="24.251" y="12.433" x="-5.3885" transform="matrix(0.86603,-0.5,0.5,0.86603,0,0)" />
<rect class="c" ry="1.85" height="5.977" width="24.242" y="8.6258" x="10.307" transform="matrix(0.86603,0.5,-0.5,0.86603,0,0)" />
<rect class="c"  ry="1.81" height="5.846" width="38.316" y="12.682" x="1.9062" />
<rect style="fill:#b2b5ff;stroke-width:0.5" ry="1.68" height="5.428" width="22.021" y="12.716" x="-5.4701" transform="matrix(0.86601,-0.50002,0.49991,0.86608,0,0)" />
<rect style="fill:#b2b5ff;stroke-width:0.5" ry="1.68" height="5.428" width="22.021" y="-14.349" x="10.136" transform="matrix(0.86601,0.50002,0.49991,-0.86608,0,0)" />
<rect style="fill:#b2b5ff" ry="0.339" height="2.733" width="0.179" y="14.308" x="2.2192" />
<path class="z" d="m 2.8062,43.184 0,-9.843 3.189,0 q 1.813,0 2.364,0.148 0.846,0.221 1.4162,0.967 0.5716,0.738 0.5716,1.913 0,0.907 -0.33,1.524 -0.3288,0.618 -0.8388,0.974 -0.504,0.349 -1.027,0.463 -0.712,0.141 -2.062,0.141 l -1.295,0 0,3.713 -1.988,0 z m 1.988,-8.178 0,2.793 1.087,0 q 1.175,0 1.571,-0.154 0.396,-0.155 0.618,-0.484 0.228,-0.329 0.228,-0.765 0,-0.537 -0.315,-0.886 -0.316,-0.349 -0.799,-0.437 -0.356,-0.07 -1.43,-0.07 l -0.96,0 z" />
<path class="z" d="m 11.999,43.184 0,-9.843 4.183,0 q 1.578,0 2.289,0.269 0.719,0.262 1.148,0.94 0.43,0.678 0.43,1.551 0,1.107 -0.651,1.833 -0.651,0.718 -1.947,0.906 0.644,0.376 1.061,0.826 0.423,0.45 1.134,1.598 l 1.202,1.92 -2.377,0 -1.436,-2.142 q -0.766,-1.148 -1.048,-1.443 -0.282,-0.303 -0.597,-0.41 -0.316,-0.114 -1.001,-0.114 l -0.403,0 0,4.109 -1.987,0 z m 1.987,-5.68 1.471,0 q 1.43,0 1.786,-0.121 0.356,-0.121 0.557,-0.416 0.201,-0.296 0.201,-0.739 0,-0.497 -0.268,-0.799 -0.262,-0.309 -0.745,-0.389 -0.242,-0.03 -1.451,-0.03 l -1.551,0 0,2.498 z" />
<path class="z" d="m 21.929,43.184 0,-9.843 7.298,0 0,1.665 -5.311,0 0,2.182 4.942,0 0,1.659 -4.942,0 0,2.678 5.499,0 0,1.659 -7.486,0 z" />
<path class="z" d="m 33.625,43.184 -3.519,-9.843 2.156,0 2.49,7.285 2.411,-7.285 2.108,0 -3.525,9.843 -2.121,0 z" />
</g>

<g id="next-tags" transform="translate(210 0)">
<g transform="matrix(-1,0,0,-1,42,31.5)">
<rect class="c" ry="1.85" height="5.977" width="24.251" y="12.433" x="-5.3885" transform="matrix(0.86603,-0.5,0.5,0.86603,0,0)" />
<rect class="c" ry="1.85" height="5.977" width="24.242" y="8.6258" x="10.307" transform="matrix(0.86603,0.5,-0.5,0.86603,0,0)" />
<rect class="c"  ry="1.81" height="5.846" width="38.316" y="12.682" x="1.9062" />
<rect style="fill:#b2b5ff;stroke-width:0.5" ry="1.68" height="5.428" width="22.021" y="12.716" x="-5.4701" transform="matrix(0.86601,-0.50002,0.49991,0.86608,0,0)" />
<rect style="fill:#b2b5ff;stroke-width:0.5" ry="1.68" height="5.428" width="22.021" y="-14.349" x="10.136" transform="matrix(0.86601,0.50002,0.49991,-0.86608,0,0)" />
<rect style="fill:#b2b5ff" ry="0.339" height="2.733" width="0.179" y="14.308" x="2.2192" />
</g>
<path class="z" d="m 3.299,43.221 0,-9.842 1.934,0 4.028,6.573 0,-6.573 1.846,0 0,9.842 -1.994,0 -3.967,-6.418 0,6.418 -1.847,0 z" />
<path class="z" d="m 13.216,43.221 0,-9.842 7.298,0 0,1.665 -5.311,0 0,2.182 4.941,0 0,1.658 -4.941,0 0,2.679 5.499,0 0,1.658 -7.486,0 z" />
<path class="z" d="m 21.4,43.221 3.363,-5.136 -3.048,-4.706 2.323,0 1.974,3.162 1.934,-3.162 2.303,0 -3.062,4.78 3.364,5.062 -2.397,0 -2.182,-3.404 -2.189,3.404 -2.383,0 z"/>
<path class="z" d="m 33.8,43.221 0,-8.177 -2.92,0 0,-1.665 7.821,0 0,1.665 -2.913,0 0,8.177 -1.988,0 z" />
</g>

<g id="more-goods-base" transform="translate(252 0)">
<path class="a" d="m 8.3339,15.69 0,2.5 q 2.7241,-3.2 5.5361,-3.2 3.384,0 4.373,3.5 1.538,-1.8 2.856,-2.7 1.341,-0.8 3.12,-0.8 4.461,0 4.461,6.2 l 0,14.7 -6.394,0 0,-11.9 q 0,-2.9 -1.89,-2.9 -1.934,0 -1.934,2.8 l 0,12 -6.394,0 0,-12.3 q 0,-1.1 -0.527,-1.8 -0.505,-0.7 -1.318,-0.7 -0.8564,0 -1.3837,0.7 -0.5054,0.7 -0.5054,1.9 l 0,12.2 -6.3721,0 0,-20.2 6.3721,0 z" />
<path class="a" d="m 41.028,14.99 q 4.373,0 6.658,2.9 2.285,2.9 2.285,8.1 0,5.1 -2.373,7.9 -2.373,2.7 -6.57,2.7 -4.021,0 -6.394,-2.8 -2.351,-2.8 -2.351,-7.8 0,-5.2 2.242,-8.1 2.263,-2.9 6.503,-2.9 z m 0.04,15.9 q 1.253,0 1.868,-1.1 0.637,-1.2 0.637,-4 0,-2.8 -0.615,-3.9 -0.615,-1.2 -1.846,-1.2 -1.208,0 -1.845,1.1 -0.638,1.1 -0.638,4 0,5.1 2.439,5.1 z" />
<path class="a" d="m 59.837,15.69 0,3.4 0.09,0 q 2.285,-4 4.812,-4 0.373,0 1.033,0.2 l 0,6.2 q -1.165,-0.2 -2.154,-0.2 -3.515,0 -3.515,4.6 l 0,10 -6.372,0 0,-20.2 6.108,0 z" />
<path class="a" d="m 78.69,29.69 5.383,0 q -1.538,6.8 -7.691,6.8 -3.845,0 -6.086,-2.9 -2.241,-2.9 -2.241,-8 0,-4.8 2.241,-7.7 2.241,-2.9 5.955,-2.9 2.241,0 4.306,1.4 2.066,1.4 3.01,3.7 0.945,2.3 1.055,7.3 l -10.657,0 q 0.132,4.5 2.505,4.5 0.813,0 1.45,-0.6 0.638,-0.6 0.77,-1.6 z m -4.637,-5.8 4.637,0 q -0.07,-2.1 -0.594,-3.2 -0.527,-1 -1.67,-1 -1.274,0 -1.823,1 -0.55,1 -0.55,3.2 z" />
<path class="a" d="m 109.58,35.99 0,-2.9 q -1.86,2.8 -4.43,2.8 -3.26,0 -5.06,-2.7 -1.801,-2.8 -1.801,-7.7 0,-4.9 1.761,-7.7 1.76,-2.7 4.81,-2.7 2.72,0 4.59,2.7 l 0.1,0 0,-2.1 6.39,0 0,18.7 q 0,2.6 -0.92,4.9 -0.9,2.3 -3.21,3.6 -2.3,1.3 -5.05,1.3 -2.75,0 -5.16,-1.4 -2.422,-1.5 -3.147,-5 l 5.717,0 q 0.99,1.6 2.46,1.6 1.25,0 2.11,-1 0.85,-1 0.85,-2.4 z m 0,-10.6 q 0,-4.9 -2.46,-4.9 -1.21,0 -1.91,1.2 -0.7,1.2 -0.7,3.3 0,5.5 2.57,5.5 2.5,0 2.5,-5.1 z" />
<path class="a" d="m 128.39,14.99 q 4.38,0 6.66,2.9 2.29,2.9 2.29,8.1 0,5.1 -2.38,7.9 -2.37,2.7 -6.57,2.7 -4.02,0 -6.39,-2.8 -2.35,-2.8 -2.35,-7.8 0,-5.2 2.24,-8.1 2.26,-2.9 6.5,-2.9 z m 0,15.9 q 1.25,0 1.86,-1.1 0.64,-1.2 0.64,-4 0,-2.8 -0.61,-3.9 -0.62,-1.2 -1.85,-1.2 -1.21,0 -1.85,1.1 -0.63,1.1 -0.63,4 0,5.1 2.44,5.1 z" />
<path class="a" d="m 148.7,14.99 q 4.37,0 6.65,2.9 2.29,2.9 2.29,8.1 0,5.1 -2.37,7.9 -2.38,2.7 -6.57,2.7 -4.03,0 -6.4,-2.8 -2.35,-2.8 -2.35,-7.8 0,-5.2 2.24,-8.1 2.26,-2.9 6.51,-2.9 z m 0,15.9 q 1.25,0 1.87,-1.1 0.63,-1.2 0.63,-4 0,-2.8 -0.61,-3.9 -0.62,-1.2 -1.85,-1.2 -1.21,0 -1.84,1.1 -0.64,1.1 -0.64,4 0,5.1 2.44,5.1 z" />
<path class="a" d="m 171.46,4.8885 6.35,0 0,31.0015 -6.39,0 0,-2.7 -0.1,0 q -2.13,3.4 -4.81,3.4 -2.82,0 -4.55,-3 -1.72,-2.9 -1.72,-7.8 0,-4.9 1.76,-7.8 1.76,-3 4.64,-3 2.61,0 4.81,3 l 0,-13.1015 z m 0,20.7015 q 0,-4.9 -2.42,-4.9 -2.48,0 -2.48,5.3 0,2.3 0.66,3.6 0.68,1.3 1.87,1.3 1.09,0 1.73,-1.4 0.64,-1.4 0.64,-3.9 z" />
<path class="a" d="m 183.41,29.39 q 3.28,1.9 4.73,1.9 0.79,0 1.31,-0.4 0.53,-0.4 0.53,-1 0,-0.6 -0.44,-0.9 -0.44,-0.3 -3.29,-1.5 -2.29,-1 -3.3,-2.4 -1.01,-1.4 -1.01,-3.4 0,-2.9 2,-4.8 2.02,-1.9 5.14,-1.9 3.03,0 7.43,2.4 l -2.46,4.6 q -2.86,-1.8 -4.68,-1.8 -1.59,0 -1.59,1.3 0,0.6 0.58,1 0.59,0.5 2.13,1 2.88,1 4.17,2.5 1.32,1.4 1.32,3.5 0,3.1 -2.06,5.1 -2.07,1.9 -5.28,1.9 -3.47,0 -7.43,-2.4 l 2.2,-4.7 z" />
</g>

<g id="more-goods-categories" transform="translate(450 0)">
<path class="b" d="m 8.3339,15.69 0,2.5 q 2.7241,-3.2 5.5361,-3.2 3.384,0 4.373,3.5 1.538,-1.8 2.856,-2.7 1.341,-0.8 3.12,-0.8 4.461,0 4.461,6.2 l 0,14.7 -6.394,0 0,-11.9 q 0,-2.9 -1.89,-2.9 -1.934,0 -1.934,2.8 l 0,12 -6.394,0 0,-12.3 q 0,-1.1 -0.527,-1.8 -0.505,-0.7 -1.318,-0.7 -0.8564,0 -1.3837,0.7 -0.5054,0.7 -0.5054,1.9 l 0,12.2 -6.3721,0 0,-20.2 6.3721,0 z" />
<path class="b" d="m 41.028,14.99 q 4.373,0 6.658,2.9 2.285,2.9 2.285,8.1 0,5.1 -2.373,7.9 -2.373,2.7 -6.57,2.7 -4.021,0 -6.394,-2.8 -2.351,-2.8 -2.351,-7.8 0,-5.2 2.242,-8.1 2.263,-2.9 6.503,-2.9 z m 0.04,15.9 q 1.253,0 1.868,-1.1 0.637,-1.2 0.637,-4 0,-2.8 -0.615,-3.9 -0.615,-1.2 -1.846,-1.2 -1.208,0 -1.845,1.1 -0.638,1.1 -0.638,4 0,5.1 2.439,5.1 z" />
<path class="b" d="m 59.837,15.69 0,3.4 0.09,0 q 2.285,-4 4.812,-4 0.373,0 1.033,0.2 l 0,6.2 q -1.165,-0.2 -2.154,-0.2 -3.515,0 -3.515,4.6 l 0,10 -6.372,0 0,-20.2 6.108,0 z" />
<path class="b" d="m 78.69,29.69 5.383,0 q -1.538,6.8 -7.691,6.8 -3.845,0 -6.086,-2.9 -2.241,-2.9 -2.241,-8 0,-4.8 2.241,-7.7 2.241,-2.9 5.955,-2.9 2.241,0 4.306,1.4 2.066,1.4 3.01,3.7 0.945,2.3 1.055,7.3 l -10.657,0 q 0.132,4.5 2.505,4.5 0.813,0 1.45,-0.6 0.638,-0.6 0.77,-1.6 z m -4.637,-5.8 4.637,0 q -0.07,-2.1 -0.594,-3.2 -0.527,-1 -1.67,-1 -1.274,0 -1.823,1 -0.55,1 -0.55,3.2 z" />
<path class="b" d="m 109.58,35.99 0,-2.9 q -1.86,2.8 -4.43,2.8 -3.26,0 -5.06,-2.7 -1.801,-2.8 -1.801,-7.7 0,-4.9 1.761,-7.7 1.76,-2.7 4.81,-2.7 2.72,0 4.59,2.7 l 0.1,0 0,-2.1 6.39,0 0,18.7 q 0,2.6 -0.92,4.9 -0.9,2.3 -3.21,3.6 -2.3,1.3 -5.05,1.3 -2.75,0 -5.16,-1.4 -2.422,-1.5 -3.147,-5 l 5.717,0 q 0.99,1.6 2.46,1.6 1.25,0 2.11,-1 0.85,-1 0.85,-2.4 z m 0,-10.6 q 0,-4.9 -2.46,-4.9 -1.21,0 -1.91,1.2 -0.7,1.2 -0.7,3.3 0,5.5 2.57,5.5 2.5,0 2.5,-5.1 z" />
<path class="b" d="m 128.39,14.99 q 4.38,0 6.66,2.9 2.29,2.9 2.29,8.1 0,5.1 -2.38,7.9 -2.37,2.7 -6.57,2.7 -4.02,0 -6.39,-2.8 -2.35,-2.8 -2.35,-7.8 0,-5.2 2.24,-8.1 2.26,-2.9 6.5,-2.9 z m 0,15.9 q 1.25,0 1.86,-1.1 0.64,-1.2 0.64,-4 0,-2.8 -0.61,-3.9 -0.62,-1.2 -1.85,-1.2 -1.21,0 -1.85,1.1 -0.63,1.1 -0.63,4 0,5.1 2.44,5.1 z" />
<path class="b" d="m 148.7,14.99 q 4.37,0 6.65,2.9 2.29,2.9 2.29,8.1 0,5.1 -2.37,7.9 -2.38,2.7 -6.57,2.7 -4.03,0 -6.4,-2.8 -2.35,-2.8 -2.35,-7.8 0,-5.2 2.24,-8.1 2.26,-2.9 6.51,-2.9 z m 0,15.9 q 1.25,0 1.87,-1.1 0.63,-1.2 0.63,-4 0,-2.8 -0.61,-3.9 -0.62,-1.2 -1.85,-1.2 -1.21,0 -1.84,1.1 -0.64,1.1 -0.64,4 0,5.1 2.44,5.1 z" />
<path class="b" d="m 171.46,4.8885 6.35,0 0,31.0015 -6.39,0 0,-2.7 -0.1,0 q -2.13,3.4 -4.81,3.4 -2.82,0 -4.55,-3 -1.72,-2.9 -1.72,-7.8 0,-4.9 1.76,-7.8 1.76,-3 4.64,-3 2.61,0 4.81,3 l 0,-13.1015 z m 0,20.7015 q 0,-4.9 -2.42,-4.9 -2.48,0 -2.48,5.3 0,2.3 0.66,3.6 0.68,1.3 1.87,1.3 1.09,0 1.73,-1.4 0.64,-1.4 0.64,-3.9 z" />
<path class="b" d="m 183.41,29.39 q 3.28,1.9 4.73,1.9 0.79,0 1.31,-0.4 0.53,-0.4 0.53,-1 0,-0.6 -0.44,-0.9 -0.44,-0.3 -3.29,-1.5 -2.29,-1 -3.3,-2.4 -1.01,-1.4 -1.01,-3.4 0,-2.9 2,-4.8 2.02,-1.9 5.14,-1.9 3.03,0 7.43,2.4 l -2.46,4.6 q -2.86,-1.8 -4.68,-1.8 -1.59,0 -1.59,1.3 0,0.6 0.58,1 0.59,0.5 2.13,1 2.88,1 4.17,2.5 1.32,1.4 1.32,3.5 0,3.1 -2.06,5.1 -2.07,1.9 -5.28,1.9 -3.47,0 -7.43,-2.4 l 2.2,-4.7 z" />
</g>

<g id="more-goods-tags" transform="translate(648 0)">
<path class="c" d="m 8.3339,15.69 0,2.5 q 2.7241,-3.2 5.5361,-3.2 3.384,0 4.373,3.5 1.538,-1.8 2.856,-2.7 1.341,-0.8 3.12,-0.8 4.461,0 4.461,6.2 l 0,14.7 -6.394,0 0,-11.9 q 0,-2.9 -1.89,-2.9 -1.934,0 -1.934,2.8 l 0,12 -6.394,0 0,-12.3 q 0,-1.1 -0.527,-1.8 -0.505,-0.7 -1.318,-0.7 -0.8564,0 -1.3837,0.7 -0.5054,0.7 -0.5054,1.9 l 0,12.2 -6.3721,0 0,-20.2 6.3721,0 z" />
<path class="c" d="m 41.028,14.99 q 4.373,0 6.658,2.9 2.285,2.9 2.285,8.1 0,5.1 -2.373,7.9 -2.373,2.7 -6.57,2.7 -4.021,0 -6.394,-2.8 -2.351,-2.8 -2.351,-7.8 0,-5.2 2.242,-8.1 2.263,-2.9 6.503,-2.9 z m 0.04,15.9 q 1.253,0 1.868,-1.1 0.637,-1.2 0.637,-4 0,-2.8 -0.615,-3.9 -0.615,-1.2 -1.846,-1.2 -1.208,0 -1.845,1.1 -0.638,1.1 -0.638,4 0,5.1 2.439,5.1 z" />
<path class="c" d="m 59.837,15.69 0,3.4 0.09,0 q 2.285,-4 4.812,-4 0.373,0 1.033,0.2 l 0,6.2 q -1.165,-0.2 -2.154,-0.2 -3.515,0 -3.515,4.6 l 0,10 -6.372,0 0,-20.2 6.108,0 z" />
<path class="c" d="m 78.69,29.69 5.383,0 q -1.538,6.8 -7.691,6.8 -3.845,0 -6.086,-2.9 -2.241,-2.9 -2.241,-8 0,-4.8 2.241,-7.7 2.241,-2.9 5.955,-2.9 2.241,0 4.306,1.4 2.066,1.4 3.01,3.7 0.945,2.3 1.055,7.3 l -10.657,0 q 0.132,4.5 2.505,4.5 0.813,0 1.45,-0.6 0.638,-0.6 0.77,-1.6 z m -4.637,-5.8 4.637,0 q -0.07,-2.1 -0.594,-3.2 -0.527,-1 -1.67,-1 -1.274,0 -1.823,1 -0.55,1 -0.55,3.2 z" />
<path class="c" d="m 109.58,35.99 0,-2.9 q -1.86,2.8 -4.43,2.8 -3.26,0 -5.06,-2.7 -1.801,-2.8 -1.801,-7.7 0,-4.9 1.761,-7.7 1.76,-2.7 4.81,-2.7 2.72,0 4.59,2.7 l 0.1,0 0,-2.1 6.39,0 0,18.7 q 0,2.6 -0.92,4.9 -0.9,2.3 -3.21,3.6 -2.3,1.3 -5.05,1.3 -2.75,0 -5.16,-1.4 -2.422,-1.5 -3.147,-5 l 5.717,0 q 0.99,1.6 2.46,1.6 1.25,0 2.11,-1 0.85,-1 0.85,-2.4 z m 0,-10.6 q 0,-4.9 -2.46,-4.9 -1.21,0 -1.91,1.2 -0.7,1.2 -0.7,3.3 0,5.5 2.57,5.5 2.5,0 2.5,-5.1 z" />
<path class="c" d="m 128.39,14.99 q 4.38,0 6.66,2.9 2.29,2.9 2.29,8.1 0,5.1 -2.38,7.9 -2.37,2.7 -6.57,2.7 -4.02,0 -6.39,-2.8 -2.35,-2.8 -2.35,-7.8 0,-5.2 2.24,-8.1 2.26,-2.9 6.5,-2.9 z m 0,15.9 q 1.25,0 1.86,-1.1 0.64,-1.2 0.64,-4 0,-2.8 -0.61,-3.9 -0.62,-1.2 -1.85,-1.2 -1.21,0 -1.85,1.1 -0.63,1.1 -0.63,4 0,5.1 2.44,5.1 z" />
<path class="c" d="m 148.7,14.99 q 4.37,0 6.65,2.9 2.29,2.9 2.29,8.1 0,5.1 -2.37,7.9 -2.38,2.7 -6.57,2.7 -4.03,0 -6.4,-2.8 -2.35,-2.8 -2.35,-7.8 0,-5.2 2.24,-8.1 2.26,-2.9 6.51,-2.9 z m 0,15.9 q 1.25,0 1.87,-1.1 0.63,-1.2 0.63,-4 0,-2.8 -0.61,-3.9 -0.62,-1.2 -1.85,-1.2 -1.21,0 -1.84,1.1 -0.64,1.1 -0.64,4 0,5.1 2.44,5.1 z" />
<path class="c" d="m 171.46,4.8885 6.35,0 0,31.0015 -6.39,0 0,-2.7 -0.1,0 q -2.13,3.4 -4.81,3.4 -2.82,0 -4.55,-3 -1.72,-2.9 -1.72,-7.8 0,-4.9 1.76,-7.8 1.76,-3 4.64,-3 2.61,0 4.81,3 l 0,-13.1015 z m 0,20.7015 q 0,-4.9 -2.42,-4.9 -2.48,0 -2.48,5.3 0,2.3 0.66,3.6 0.68,1.3 1.87,1.3 1.09,0 1.73,-1.4 0.64,-1.4 0.64,-3.9 z" />
<path class="c" d="m 183.41,29.39 q 3.28,1.9 4.73,1.9 0.79,0 1.31,-0.4 0.53,-0.4 0.53,-1 0,-0.6 -0.44,-0.9 -0.44,-0.3 -3.29,-1.5 -2.29,-1 -3.3,-2.4 -1.01,-1.4 -1.01,-3.4 0,-2.9 2,-4.8 2.02,-1.9 5.14,-1.9 3.03,0 7.43,2.4 l -2.46,4.6 q -2.86,-1.8 -4.68,-1.8 -1.59,0 -1.59,1.3 0,0.6 0.58,1 0.59,0.5 2.13,1 2.88,1 4.17,2.5 1.32,1.4 1.32,3.5 0,3.1 -2.06,5.1 -2.07,1.9 -5.28,1.9 -3.47,0 -7.43,-2.4 l 2.2,-4.7 z" />
</g>

<g id="more-thataway-base" transform="translate(846 0)">
<path class="a" d="m 8.737,15.719 0,2.5 q 2.725,-3.2 5.537,-3.2 3.384,0 4.373,3.5 1.538,-1.8 2.856,-2.7 1.341,-0.8 3.12,-0.8 4.461,0 4.461,6.204 l 0,14.7 -6.394,0 0,-11.9 q 0,-2.9 -1.89,-2.9 -1.933,0 -1.933,2.8 l 0,12 -6.394,0 0,-12.3 q 0,-1.1 -0.528,-1.8 -0.505,-0.7 -1.318,-0.7 -0.8565,0 -1.384,0.7 -0.506,0.7 -0.506,1.9 l 0,12.2 -6.372,0 0,-20.204 6.372,0 z" />
<path class="a" d="m 41.432,15.019 q 4.373,0 6.658,2.9 2.285,2.904 2.285,8.104 0,5.1 -2.373,7.9 -2.373,2.7 -6.57,2.7 -4.021,0 -6.394,-2.8 -2.351,-2.8 -2.351,-7.8 0,-5.2 2.242,-8.104 2.263,-2.9 6.503,-2.9 z m 0.04,15.904 q 1.253,0 1.868,-1.1 0.637,-1.2 0.637,-4 0,-2.8 -0.615,-3.9 -0.615,-1.2 -1.846,-1.2 -1.208,0 -1.845,1.1 -0.638,1.1 -0.638,4 0,5.1 2.439,5.1 z" />
<path class="a" d="m 60.24,15.719 0,3.4 0.1,0 q 2.29,-4 4.81,-4 0.38,0 1.04,0.2 l 0,6.204 q -1.17,-0.2 -2.16,-0.2 -3.51,0 -3.51,4.6 l 0,10 -6.375,0 0,-20.204 6.105,0 z" />
<path class="a" d="m 79.09,29.723 5.39,0 q -1.54,6.8 -7.69,6.8 -3.85,0 -6.09,-2.9 -2.24,-2.9 -2.24,-8 0,-4.8 2.24,-7.704 2.24,-2.9 5.96,-2.9 2.24,0 4.3,1.4 2.07,1.4 3.01,3.7 0.95,2.304 1.06,7.304 l -10.66,0 q 0.13,4.5 2.5,4.5 0.82,0 1.46,-0.6 0.63,-0.6 0.76,-1.6 z m -4.63,-5.8 4.63,0 q -0.1,-2.1 -0.59,-3.2 -0.53,-1.004 -1.67,-1.004 -1.27,0 -1.82,1.004 -0.55,1 -0.55,3.2 z" />
<path class="a" d="m 100.63,10.319 6.39,0 0,5.4 2.49,0 0,5.304 -2.53,0 0,14.9 -6.35,0 0,-14.9 -2.42,0 0,-5.304 2.42,0 0,-5.4 z" />
<path class="a" d="m 112.76,4.9185 6.37,0 0,13.4005 0.11,0 q 2.35,-3.3 5.43,-3.3 2.19,0 3.4,1.5 1.23,1.4 1.23,4.004 l 0,15.4 -6.39,0 0,-12.3 q 0,-1.2 -0.48,-1.9 -0.47,-0.6 -1.3,-0.6 -2,0 -2,2.7 l 0,12.1 -6.37,0 0,-31.0045 z" />
<path class="a" d="m 144.09,35.923 0,-2.7 -0.1,0 q -1.16,1.8 -2.26,2.6 -1.08,0.8 -2.55,0.8 -2.88,0 -4.59,-3 -1.72,-2.9 -1.72,-8 0,-4.8 1.74,-7.704 1.74,-2.9 4.57,-2.9 1.52,0 2.57,0.8 1.06,0.7 2.2,2.4 l 0.1,0 0,-2.5 6.39,0 0,20.204 -6.35,0 z m 0,-10.2 q 0,-5 -2.46,-5 -2.48,0 -2.48,5 0,5.2 2.57,5.2 2.37,0 2.37,-5.2 z" />
<path class="a" d="m 156.09,10.319 6.39,0 0,5.4 2.48,0 0,5.304 -2.52,0 0,14.9 -6.35,0 0,-14.9 -2.42,0 0,-5.304 2.42,0 0,-5.4 z" />
<path class="a" d="m 178.28,35.923 0,-2.7 -0.1,0 q -1.16,1.8 -2.26,2.6 -1.08,0.8 -2.55,0.8 -2.88,0 -4.59,-3 -1.72,-2.9 -1.72,-8 0,-4.8 1.74,-7.704 1.74,-2.9 4.57,-2.9 1.52,0 2.57,0.8 1.06,0.7 2.2,2.4 l 0.1,0 0,-2.5 6.39,0 0,20.204 -6.35,0 z m 0,-10.2 q 0,-5 -2.46,-5 -2.48,0 -2.48,5 0,5.2 2.57,5.2 2.37,0 2.37,-5.2 z" />
<path class="a" d="m 187.44,15.719 6.31,0 q 2.2,9.604 2.48,11.304 l 0.1,0 2.15,-11.304 5.41,0 2.15,11.204 0.1,0 q 0.53,-2.6 0.72,-3.5 l 1.85,-7.704 6.31,0 -6.27,20.204 -4.81,0 q -2.46,-9 -2.74,-10.9 l -0.1,0 q -0.2,1.5 -2.66,10.9 l -4.77,0 -6.22,-20.204 z" />
<path class="a" d="m 227.85,35.923 0,-2.7 -0.1,0 q -1.16,1.8 -2.26,2.6 -1.08,0.8 -2.55,0.8 -2.88,0 -4.59,-3 -1.72,-2.9 -1.72,-8 0,-4.8 1.74,-7.704 1.74,-2.9 4.57,-2.9 1.52,0 2.57,0.8 1.06,0.7 2.2,2.4 l 0.1,0 0,-2.5 6.39,0 0,20.204 -6.35,0 z m 0,-10.2 q 0,-5 -2.46,-5 -2.48,0 -2.48,5 0,5.2 2.57,5.2 2.37,0 2.37,-5.2 z" />
<path class="a" d="m 237.06,15.719 6.3,0 1.61,5.204 q 0.83,2.8 1.45,5.5 l 0.11,0 q 0.5,-2.6 0.83,-3.7 l 2.13,-7.004 6.4,0 -8.62,28.504 -6.37,0 2.6,-8.6 -6.44,-19.904 z" />
</g>

<g id="more-thataway-categories" transform="translate(1104 0)">
<path class="b" d="m 8.737,15.719 0,2.5 q 2.725,-3.2 5.537,-3.2 3.384,0 4.373,3.5 1.538,-1.8 2.856,-2.7 1.341,-0.8 3.12,-0.8 4.461,0 4.461,6.204 l 0,14.7 -6.394,0 0,-11.9 q 0,-2.9 -1.89,-2.9 -1.933,0 -1.933,2.8 l 0,12 -6.394,0 0,-12.3 q 0,-1.1 -0.528,-1.8 -0.505,-0.7 -1.318,-0.7 -0.8565,0 -1.384,0.7 -0.506,0.7 -0.506,1.9 l 0,12.2 -6.372,0 0,-20.204 6.372,0 z" />
<path class="b" d="m 41.432,15.019 q 4.373,0 6.658,2.9 2.285,2.904 2.285,8.104 0,5.1 -2.373,7.9 -2.373,2.7 -6.57,2.7 -4.021,0 -6.394,-2.8 -2.351,-2.8 -2.351,-7.8 0,-5.2 2.242,-8.104 2.263,-2.9 6.503,-2.9 z m 0.04,15.904 q 1.253,0 1.868,-1.1 0.637,-1.2 0.637,-4 0,-2.8 -0.615,-3.9 -0.615,-1.2 -1.846,-1.2 -1.208,0 -1.845,1.1 -0.638,1.1 -0.638,4 0,5.1 2.439,5.1 z" />
<path class="b" d="m 60.24,15.719 0,3.4 0.1,0 q 2.29,-4 4.81,-4 0.38,0 1.04,0.2 l 0,6.204 q -1.17,-0.2 -2.16,-0.2 -3.51,0 -3.51,4.6 l 0,10 -6.375,0 0,-20.204 6.105,0 z" />
<path class="b" d="m 79.09,29.723 5.39,0 q -1.54,6.8 -7.69,6.8 -3.85,0 -6.09,-2.9 -2.24,-2.9 -2.24,-8 0,-4.8 2.24,-7.704 2.24,-2.9 5.96,-2.9 2.24,0 4.3,1.4 2.07,1.4 3.01,3.7 0.95,2.304 1.06,7.304 l -10.66,0 q 0.13,4.5 2.5,4.5 0.82,0 1.46,-0.6 0.63,-0.6 0.76,-1.6 z m -4.63,-5.8 4.63,0 q -0.1,-2.1 -0.59,-3.2 -0.53,-1.004 -1.67,-1.004 -1.27,0 -1.82,1.004 -0.55,1 -0.55,3.2 z" />
<path class="b" d="m 100.63,10.319 6.39,0 0,5.4 2.49,0 0,5.304 -2.53,0 0,14.9 -6.35,0 0,-14.9 -2.42,0 0,-5.304 2.42,0 0,-5.4 z" />
<path class="b" d="m 112.76,4.9185 6.37,0 0,13.4005 0.11,0 q 2.35,-3.3 5.43,-3.3 2.19,0 3.4,1.5 1.23,1.4 1.23,4.004 l 0,15.4 -6.39,0 0,-12.3 q 0,-1.2 -0.48,-1.9 -0.47,-0.6 -1.3,-0.6 -2,0 -2,2.7 l 0,12.1 -6.37,0 0,-31.0045 z" />
<path class="b" d="m 144.09,35.923 0,-2.7 -0.1,0 q -1.16,1.8 -2.26,2.6 -1.08,0.8 -2.55,0.8 -2.88,0 -4.59,-3 -1.72,-2.9 -1.72,-8 0,-4.8 1.74,-7.704 1.74,-2.9 4.57,-2.9 1.52,0 2.57,0.8 1.06,0.7 2.2,2.4 l 0.1,0 0,-2.5 6.39,0 0,20.204 -6.35,0 z m 0,-10.2 q 0,-5 -2.46,-5 -2.48,0 -2.48,5 0,5.2 2.57,5.2 2.37,0 2.37,-5.2 z" />
<path class="b" d="m 156.09,10.319 6.39,0 0,5.4 2.48,0 0,5.304 -2.52,0 0,14.9 -6.35,0 0,-14.9 -2.42,0 0,-5.304 2.42,0 0,-5.4 z" />
<path class="b" d="m 178.28,35.923 0,-2.7 -0.1,0 q -1.16,1.8 -2.26,2.6 -1.08,0.8 -2.55,0.8 -2.88,0 -4.59,-3 -1.72,-2.9 -1.72,-8 0,-4.8 1.74,-7.704 1.74,-2.9 4.57,-2.9 1.52,0 2.57,0.8 1.06,0.7 2.2,2.4 l 0.1,0 0,-2.5 6.39,0 0,20.204 -6.35,0 z m 0,-10.2 q 0,-5 -2.46,-5 -2.48,0 -2.48,5 0,5.2 2.57,5.2 2.37,0 2.37,-5.2 z" />
<path class="b" d="m 187.44,15.719 6.31,0 q 2.2,9.604 2.48,11.304 l 0.1,0 2.15,-11.304 5.41,0 2.15,11.204 0.1,0 q 0.53,-2.6 0.72,-3.5 l 1.85,-7.704 6.31,0 -6.27,20.204 -4.81,0 q -2.46,-9 -2.74,-10.9 l -0.1,0 q -0.2,1.5 -2.66,10.9 l -4.77,0 -6.22,-20.204 z" />
<path class="b" d="m 227.85,35.923 0,-2.7 -0.1,0 q -1.16,1.8 -2.26,2.6 -1.08,0.8 -2.55,0.8 -2.88,0 -4.59,-3 -1.72,-2.9 -1.72,-8 0,-4.8 1.74,-7.704 1.74,-2.9 4.57,-2.9 1.52,0 2.57,0.8 1.06,0.7 2.2,2.4 l 0.1,0 0,-2.5 6.39,0 0,20.204 -6.35,0 z m 0,-10.2 q 0,-5 -2.46,-5 -2.48,0 -2.48,5 0,5.2 2.57,5.2 2.37,0 2.37,-5.2 z" />
<path class="b" d="m 237.06,15.719 6.3,0 1.61,5.204 q 0.83,2.8 1.45,5.5 l 0.11,0 q 0.5,-2.6 0.83,-3.7 l 2.13,-7.004 6.4,0 -8.62,28.504 -6.37,0 2.6,-8.6 -6.44,-19.904 z" />
</g>

<g id="more-thataway-tags" transform="translate(1362 0)">
<path class="c" d="m 8.737,15.719 0,2.5 q 2.725,-3.2 5.537,-3.2 3.384,0 4.373,3.5 1.538,-1.8 2.856,-2.7 1.341,-0.8 3.12,-0.8 4.461,0 4.461,6.204 l 0,14.7 -6.394,0 0,-11.9 q 0,-2.9 -1.89,-2.9 -1.933,0 -1.933,2.8 l 0,12 -6.394,0 0,-12.3 q 0,-1.1 -0.528,-1.8 -0.505,-0.7 -1.318,-0.7 -0.8565,0 -1.384,0.7 -0.506,0.7 -0.506,1.9 l 0,12.2 -6.372,0 0,-20.204 6.372,0 z" />
<path class="c" d="m 41.432,15.019 q 4.373,0 6.658,2.9 2.285,2.904 2.285,8.104 0,5.1 -2.373,7.9 -2.373,2.7 -6.57,2.7 -4.021,0 -6.394,-2.8 -2.351,-2.8 -2.351,-7.8 0,-5.2 2.242,-8.104 2.263,-2.9 6.503,-2.9 z m 0.04,15.904 q 1.253,0 1.868,-1.1 0.637,-1.2 0.637,-4 0,-2.8 -0.615,-3.9 -0.615,-1.2 -1.846,-1.2 -1.208,0 -1.845,1.1 -0.638,1.1 -0.638,4 0,5.1 2.439,5.1 z" />
<path class="c" d="m 60.24,15.719 0,3.4 0.1,0 q 2.29,-4 4.81,-4 0.38,0 1.04,0.2 l 0,6.204 q -1.17,-0.2 -2.16,-0.2 -3.51,0 -3.51,4.6 l 0,10 -6.375,0 0,-20.204 6.105,0 z" />
<path class="c" d="m 79.09,29.723 5.39,0 q -1.54,6.8 -7.69,6.8 -3.85,0 -6.09,-2.9 -2.24,-2.9 -2.24,-8 0,-4.8 2.24,-7.704 2.24,-2.9 5.96,-2.9 2.24,0 4.3,1.4 2.07,1.4 3.01,3.7 0.95,2.304 1.06,7.304 l -10.66,0 q 0.13,4.5 2.5,4.5 0.82,0 1.46,-0.6 0.63,-0.6 0.76,-1.6 z m -4.63,-5.8 4.63,0 q -0.1,-2.1 -0.59,-3.2 -0.53,-1.004 -1.67,-1.004 -1.27,0 -1.82,1.004 -0.55,1 -0.55,3.2 z" />
<path class="c" d="m 100.63,10.319 6.39,0 0,5.4 2.49,0 0,5.304 -2.53,0 0,14.9 -6.35,0 0,-14.9 -2.42,0 0,-5.304 2.42,0 0,-5.4 z" />
<path class="c" d="m 112.76,4.9185 6.37,0 0,13.4005 0.11,0 q 2.35,-3.3 5.43,-3.3 2.19,0 3.4,1.5 1.23,1.4 1.23,4.004 l 0,15.4 -6.39,0 0,-12.3 q 0,-1.2 -0.48,-1.9 -0.47,-0.6 -1.3,-0.6 -2,0 -2,2.7 l 0,12.1 -6.37,0 0,-31.0045 z" />
<path class="c" d="m 144.09,35.923 0,-2.7 -0.1,0 q -1.16,1.8 -2.26,2.6 -1.08,0.8 -2.55,0.8 -2.88,0 -4.59,-3 -1.72,-2.9 -1.72,-8 0,-4.8 1.74,-7.704 1.74,-2.9 4.57,-2.9 1.52,0 2.57,0.8 1.06,0.7 2.2,2.4 l 0.1,0 0,-2.5 6.39,0 0,20.204 -6.35,0 z m 0,-10.2 q 0,-5 -2.46,-5 -2.48,0 -2.48,5 0,5.2 2.57,5.2 2.37,0 2.37,-5.2 z" />
<path class="c" d="m 156.09,10.319 6.39,0 0,5.4 2.48,0 0,5.304 -2.52,0 0,14.9 -6.35,0 0,-14.9 -2.42,0 0,-5.304 2.42,0 0,-5.4 z" />
<path class="c" d="m 178.28,35.923 0,-2.7 -0.1,0 q -1.16,1.8 -2.26,2.6 -1.08,0.8 -2.55,0.8 -2.88,0 -4.59,-3 -1.72,-2.9 -1.72,-8 0,-4.8 1.74,-7.704 1.74,-2.9 4.57,-2.9 1.52,0 2.57,0.8 1.06,0.7 2.2,2.4 l 0.1,0 0,-2.5 6.39,0 0,20.204 -6.35,0 z m 0,-10.2 q 0,-5 -2.46,-5 -2.48,0 -2.48,5 0,5.2 2.57,5.2 2.37,0 2.37,-5.2 z" />
<path class="c" d="m 187.44,15.719 6.31,0 q 2.2,9.604 2.48,11.304 l 0.1,0 2.15,-11.304 5.41,0 2.15,11.204 0.1,0 q 0.53,-2.6 0.72,-3.5 l 1.85,-7.704 6.31,0 -6.27,20.204 -4.81,0 q -2.46,-9 -2.74,-10.9 l -0.1,0 q -0.2,1.5 -2.66,10.9 l -4.77,0 -6.22,-20.204 z" />
<path class="c" d="m 227.85,35.923 0,-2.7 -0.1,0 q -1.16,1.8 -2.26,2.6 -1.08,0.8 -2.55,0.8 -2.88,0 -4.59,-3 -1.72,-2.9 -1.72,-8 0,-4.8 1.74,-7.704 1.74,-2.9 4.57,-2.9 1.52,0 2.57,0.8 1.06,0.7 2.2,2.4 l 0.1,0 0,-2.5 6.39,0 0,20.204 -6.35,0 z m 0,-10.2 q 0,-5 -2.46,-5 -2.48,0 -2.48,5 0,5.2 2.57,5.2 2.37,0 2.37,-5.2 z" />
<path class="c" d="m 237.06,15.719 6.3,0 1.61,5.204 q 0.83,2.8 1.45,5.5 l 0.11,0 q 0.5,-2.6 0.83,-3.7 l 2.13,-7.004 6.4,0 -8.62,28.504 -6.37,0 2.6,-8.6 -6.44,-19.904 z" />
</g>

<style>
.a{fill:#3ed481;fill-opacity:1;stroke:#000000;stroke-width:0.9;stroke-opacity:1}
.b{fill:#f6ca2f;fill-opacity:1;stroke:#000000;stroke-width:0.9;stroke-opacity:1}
.c{fill:#b2b5ff;fill-opacity:1;stroke:#000000;stroke-width:0.9;stroke-opacity:1}
.z{fill:#000000;fill-opacity:1}
</style>

</svg>