<?xml version="1.0" encoding="UTF-8" standalone="no"?>
<?xml-stylesheet type="text/css" href="svgstyles.css"?>
<svg xmlns="http://www.w3.org/2000/svg" viewBox="0 0 912 96" height="100%" width="100%">

<view id="1-key-center" viewBox="0 0 48 48" />
<view id="1-key-left" viewBox="48 0 48 48" />
<view id="1-key" viewBox="96 0 48 48" />
<view id="2-keys" viewBox="144 0 48 48" />
<view id="3-keys" viewBox="192 0 48 48" />
<view id="home" viewBox="240 0 48 48" />
<view id="how-to" viewBox="288 0 48 48" />
<view id="interview" viewBox="336 0 48 48" />
<view id="news" viewBox="384 0 48 48" />
<view id="opinion" viewBox="432 0 48 48" />
<view id="review" viewBox="480 0 48 48" />
<view id="topical" viewBox="528 0 48 48" />
<view id="series" viewBox="576 0 48 48" />
<view id="rss" viewBox="624 0 48 48" />
<view id="patreon" viewBox="672 0 48 48" />
<view id="facebook" viewBox="720 0 48 48" />
<view id="twitter" viewBox="768 0 48 48" />
<view id="youtube" viewBox="816 0 48 48" />
<view id="pinterest" viewBox="864 0 48 48" />
<view id="patreon-button" viewBox="0 48 240 48" />

<g id="1-key-center" transform="translate(0 0)">
<path d="M 34.2,13.3 C 34.2,8.2 30,3.5 24.9,3.1 20.2,2.4 15.2,5.7 14.1,10.4 c -1.4,4.7 1.3,10.1 5.8,12.1 0.4,0.5 0.1,1.3 0.2,1.9 0,6.2 0.1,12.4 0.1,18.5 l 3.9,2.1 c 1.3,-0.7 2.6,-1.4 3.9,-2 -0.1,-0.9 0,-1.9 -0.1,-2.8 -0.7,-0.8 -1.5,-1.6 -2.2,-2.4 0.7,-0.8 1.5,-1.6 2.2,-2.4 -0.8,-0.8 -1.5,-1.6 -2.3,-2.4 0.7,-0.8 1.5,-1.5 2.2,-2.3 0,-2.7 -0.1,-5.3 0,-8 1.2,-0.7 2.5,-1.4 3.4,-2.5 1.8,-1.8 2.979773,-4.4 2.979773,-7 z m -12,-2.7 c -1.1,-1.3 0,-3.5 1.7,-3.4 1.8,-0.1 2.9,2.4 1.6,3.7 -0.9,0.9 -2.5,0.8 -3.3,-0.3 z" />
</g>

<g id="1-key-left" transform="translate(48 0)">
<path d="m 25.459325,13.3 c 0,-5.1002996 -4.2,-9.8002996 -9.3,-10.2002996 -4.7,-0.7 -9.700006,2.6 -10.8000061,7.3002996 -1.3999999,4.7 1.3000001,10.1 5.8000061,12.1 0.4,0.5 0.1,1.3 0.2,1.9 0,6.2 0.1,12.4 0.1,18.5 l 3.9,2.1 c 1.3,-0.7 2.6,-1.4 3.9,-2 -0.1,-0.9 0,-1.9 -0.1,-2.8 -0.7,-0.8 -1.5,-1.6 -2.2,-2.4 0.7,-0.8 1.5,-1.6 2.2,-2.4 -0.8,-0.8 -1.5,-1.6 -2.3,-2.4 0.7,-0.8 1.5,-1.5 2.2,-2.3 0,-2.7 -0.1,-5.3 0,-8 1.2,-0.7 2.5,-1.4 3.4,-2.5 1.8,-1.8 2.98,-4.4 2.98,-7 z m -12,-2.7 c -1.1,-1.3002996 0,-3.5002996 1.7,-3.4002996 1.8,-0.1 2.9,2.4 1.6,3.7002996 -0.9,0.9 -2.5,0.8 -3.3,-0.3 z" />
</g>

<g id="1-key" transform="translate(96 0)">
<path d="m 42.92,13.3 c 0,-5.1003 -4.2,-9.8003 -9.3,-10.2003 -4.7,-0.7 -9.7,2.6 -10.8,7.3003 -1.4,4.7 1.3,10.1 5.8,12.1 0.4,0.5 0.1,1.3 0.2,1.9 0,6.2 0.1,12.4 0.1,18.5 l 3.9,2.1 c 1.3,-0.7 2.6,-1.4 3.9,-2 -0.1,-0.9 0,-1.9 -0.1,-2.8 -0.7,-0.8 -1.5,-1.6 -2.2,-2.4 0.7,-0.8 1.5,-1.6 2.2,-2.4 -0.8,-0.8 -1.5,-1.6 -2.3,-2.4 0.7,-0.8 1.5,-1.5 2.2,-2.3 0,-2.7 -0.1,-5.3 0,-8 1.2,-0.7 2.5,-1.4 3.4,-2.5 1.8,-1.8 2.98,-4.4 2.98,-7 z m -12,-2.7 c -1.1,-1.3003 0,-3.5003 1.7,-3.4003 1.8,-0.1 2.9,2.4 1.6,3.7003 -0.9,0.9 -2.5,0.8 -3.3,-0.3 z" />
</g>

<g id="2-keys" transform="translate(144 0)">
<g transform="matrix(0.84360348,0,0,0.85637387,-2.9957332,-3.4031074)">
<path id="path5" d="M 44.46,27.043 C 48.484368,23.162788 48.928172,16.281452 45.410641,11.9285 42.13887,7.4658378 35.467938,6.1474619 30.716325,8.9560484 25.869203,11.58064 23.583659,17.941219 25.665,23.051 25.599217,23.811896 24.711674,24.213265 24.266754,24.803246 19.357836,29.712164 14.448918,34.621082 9.54,39.53 c 0.488,1.583333 0.976,3.166667 1.464,4.75 1.586333,0.491667 3.172667,0.983333 4.759,1.475 0.704804,-0.788834 1.600497,-1.494864 2.186694,-2.335148 0.05177,-1.192617 0.103537,-2.385235 0.155306,-3.577852 1.228,-0.036 2.456,-0.072 3.684,-0.108 0.03733,-1.229 0.07467,-2.458 0.112,-3.687 1.211333,-0.026 2.422667,-0.052 3.634,-0.078 2.136537,-2.104342 4.215849,-4.278861 6.388125,-6.339375 1.525692,0.333806 3.109558,0.883937 4.731007,0.758077 C 39.563293,30.334127 42.413664,29.111291 44.46,27.043 Z M 37.006,15.538 c 0.19974,-2.046895 3.174742,-2.799873 4.312125,-1.07725 1.27805,1.548251 -0.169573,4.152044 -2.163633,3.852187 C 37.801372,18.216814 36.78533,16.868554 37.006,15.538 Z" />
<path d="m 53.54,50.06 -3.166,-1.894 1.657,-3.292 -3.189,-1.853 1.66,-3.233 -2.522,-8.467 c -0.046,-0.161 0.004,-0.334 0.13,-0.444 1.078,-0.919 1.964,-2.021 2.641,-3.271 1.456,-2.691 1.776,-5.784 0.905,-8.712 -0.482,-1.618 -1.299,-3.042 -2.341,-4.238 0.449,1.365 0.693,2.804 0.693,4.284 0,3.651 -1.419,7.081 -3.995,9.656 -2.575,2.574 -6.001,3.992 -9.646,3.992 -0.158,0 -0.315,-0.011 -0.472,-0.017 1.033,0.475 2.144,0.804 3.308,0.957 0.165,0.022 0.303,0.137 0.35,0.299 l 6.472,21.722 4.875,0.972 3.561,-3.484 -0.921,-2.977 z" />
</g>
</g>

<g id="3-keys" transform="translate(192 0)">
<g transform="matrix(0.84360348,0,0,0.85637387,-2.9957332,-3.4031074)">
<g transform="matrix(0.99918355,0,0,0.96876987,-0.01062955,0.18964364)">
<path d="M 44.46,27.043 C 48.484368,23.162788 48.928172,16.281452 45.410641,11.9285 42.13887,7.4658378 35.467938,6.1474619 30.716325,8.9560484 25.869203,11.58064 23.583659,17.941219 25.665,23.051 25.599217,23.811896 24.711674,24.213265 24.266754,24.803246 19.357836,29.712164 14.448918,34.621082 9.54,39.53 c 0.488,1.583333 0.976,3.166667 1.464,4.75 1.586333,0.491667 3.172667,0.983333 4.759,1.475 0.704804,-0.788834 1.600497,-1.494864 2.186694,-2.335148 0.05177,-1.192617 0.103537,-2.385235 0.155306,-3.577852 1.228,-0.036 2.456,-0.072 3.684,-0.108 0.03733,-1.229 0.07467,-2.458 0.112,-3.687 1.211333,-0.026 2.422667,-0.052 3.634,-0.078 2.136537,-2.104342 4.215849,-4.278861 6.388125,-6.339375 1.525692,0.333806 3.109558,0.883937 4.731007,0.758077 C 39.563293,30.334127 42.413664,29.111291 44.46,27.043 Z M 37.006,15.538 c 0.19974,-2.046895 3.174742,-2.799873 4.312125,-1.07725 1.27805,1.548251 -0.169573,4.152044 -2.163633,3.852187 C 37.801372,18.216814 36.78533,16.868554 37.006,15.538 Z" />
<path d="m 53.54,50.06 -3.166,-1.894 1.657,-3.292 -3.189,-1.853 1.66,-3.233 -2.522,-8.467 c -0.046,-0.161 0.004,-0.334 0.13,-0.444 1.078,-0.919 1.964,-2.021 2.641,-3.271 1.456,-2.691 1.776,-5.784 0.905,-8.712 -0.482,-1.618 -1.299,-3.042 -2.341,-4.238 0.449,1.365 0.693,2.804 0.693,4.284 0,3.651 -1.419,7.081 -3.995,9.656 -2.575,2.574 -6.001,3.992 -9.646,3.992 -0.158,0 -0.315,-0.011 -0.472,-0.017 1.033,0.475 2.144,0.804 3.308,0.957 0.165,0.022 0.303,0.137 0.35,0.299 l 6.472,21.722 4.875,0.972 3.561,-3.484 -0.921,-2.977 z" />
<path d="m 33.258047,53.881097 -1.780501,-3.199646 3.105921,-2.034812 -1.82123,-3.175467 3.078572,-1.982238 1.393036,-8.790311 c -3.26439,-0.364195 -5.140266,-2.61701 -5.140266,-2.61701 l -2.127215,2.20916 -6.002553,20.642455 3.728516,3.242928 4.852286,-1.263281 0.713424,-3.03179 z" />
</g>
</g>
</g>

<g id="home" transform="translate(240 0)">
<g transform="matrix(0.32672399,0,0,0.38888799,3.169715,-0.893284)">
<path d="M 125.678,56.259 104,39.44 104,20 c 0,-1.1 -0.9,-2 -2,-2 l -12,0 c -1.1,0 -2,0.9 -2,2 l 0,7.026 -20.322,-15.767 c -2.164,-1.679 -5.191,-1.679 -7.354,0 l -58,45 c -2.618,2.032 -3.094,5.801 -1.063,8.418 2.031,2.617 5.799,3.095 8.418,1.062 L 61,25.922 c 0,0 1.45,-1.288 3,-1.288 1.55,0 2.998,1.286 2.998,1.286 l 51.324,39.82 c 1.094,0.849 2.389,1.26 3.674,1.26 1.79,0 3.562,-0.798 4.744,-2.322 2.031,-2.618 1.556,-6.387 -1.062,-8.419 z" />
<path d="M 110.42,67.016 65.58,32.226 c -0.869,-0.674 -2.291,-0.674 -3.16,0 L 17.58,67.016 C 16.71,67.689 16,69.143 16,70.241 L 16,116 c 0,1.1 0.9,2 2,2 l 32,0 c 1.1,0 2,-0.9 2,-2 l 0,-32 c 0,-1.1 0.9,-2 2,-2 l 20,0 c 1.1,0 2,0.9 2,2 l 0,32 c 0,1.1 0.9,2 2,2 l 32,0 c 1.1,0 2,-0.9 2,-2 l 0,-45.759 c 0,-1.098 -0.711,-2.552 -1.58,-3.225 z" />
</g>
</g>

<g id="how-to" transform="translate(288 0)">
<path d="m 43.563,20.364 -5.367,-1.073 c -0.238,-0.728 -0.53,-1.433 -0.877,-2.114 l 3.037,-4.555 c 0.467,-0.7 0.374,-1.635 -0.222,-2.231 L 37.568,7.8244 C 36.97,7.227 36.036,7.1342 35.337,7.6031 L 30.783,10.64 C 30.101,10.294 29.395,10.001 28.669,9.7639 L 27.595,4.3957 C 27.429,3.5701 26.705,2.9748 25.862,2.9748 l -3.629,0 c -0.842,0 -1.567,0.5953 -1.734,1.4209 L 19.425,9.768 c -0.728,0.239 -1.428,0.537 -2.103,0.88 L 12.756,7.6039 C 12.057,7.1342 11.124,7.2291 10.525,7.8251 L 7.9564,10.392 c -0.5953,0.596 -0.6889,1.53 -0.2213,2.231 l 3.0469,4.565 c -0.345,0.675 -0.643,1.375 -0.8828,2.103 l -5.3723,1.074 c -0.8242,0.165 -1.4195,0.89 -1.4195,1.732 l 0,3.629 c 0,0.843 0.5953,1.568 1.4209,1.734 l 5.3729,1.075 c 0.2388,0.727 0.5378,1.427 0.8818,2.102 l -3.0464,4.565 c -0.4676,0.701 -0.3748,1.635 0.2212,2.231 l 2.5682,2.566 c 0.343,0.342 0.795,0.518 1.251,0.518 0.34,0 0.682,-0.102 0.981,-0.296 l 4.566,-3.044 c 0.674,0.343 1.374,0.64 2.103,0.879 l 1.074,5.372 c 0.165,0.825 0.89,1.42 1.732,1.42 l 3.629,0 c 0.843,0 1.567,-0.595 1.734,-1.421 l 1.075,-5.372 c 0.727,-0.239 1.427,-0.536 2.101,-0.879 l 4.566,3.043 c 0.298,0.2 0.64,0.297 0.98,0.297 0.456,0 0.909,-0.176 1.251,-0.518 l 2.566,-2.566 c 0.595,-0.596 0.689,-1.531 0.221,-2.231 l -3.043,-4.566 c 0.343,-0.674 0.64,-1.374 0.879,-2.101 l 5.373,-1.076 c 0.824,-0.164 1.419,-0.889 1.419,-1.732 l 0,-3.629 c 0,-0.842 -0.595,-1.567 -1.421,-1.733 z M 24.048,31.05 c -3.943,0 -7.139,-3.196 -7.139,-7.138 0,-3.943 3.196,-7.138 7.139,-7.138 3.942,0 7.137,3.195 7.137,7.138 0,3.942 -3.195,7.138 -7.137,7.138 z" />
</g>

<g id="interview" transform="translate(336 0)">
<path d="m30.6 3l-12.9 0c-8 0-14.5 7.4-14.5 16.5 0 8.3 5.3 15.1 12.4 16.3l0 7.5c0 0.7 0.4 1.4 1.1 1.7 0.2 0.1 0.4 0.1 0.6 0.1 0.5 0 0.9-0.2 1.3-0.6l7.9-8.6 4.2 0c8 0 14.5-7.4 14.5-16.5 0-9.1-6.5-16.5-14.5-16.5Zm-8 16c0 3.1-0.6 5.3-1.7 6.6 -1.1 1.3-2.7 1.9-4.7 1.9 -0.2 0-0.3-0.1-0.3-0.3l0-2.5c0-0.2 0.1-0.3 0.3-0.3 1.6 0 2.3-1.1 2.3-3.4l0-1 -3.7 0c-0.2 0-0.3-0.1-0.3-0.3l0-7.1c0-0.2 0.1-0.3 0.3-0.3l7.5 0c0.2 0 0.3 0.1 0.3 0.3l0 6.4Zm11.2 0c0 3.1-0.6 5.3-1.7 6.6 -1.1 1.3-2.7 1.9-4.7 1.9 -0.2 0-0.3-0.1-0.3-0.3l0-2.5c0-0.2 0.1-0.3 0.3-0.3 1.6 0 2.3-1.1 2.3-3.4l0-1 -3.7 0c-0.2 0-0.3-0.1-0.3-0.3l0-7.1c0-0.2 0.1-0.3 0.3-0.3l7.5 0c0.2 0 0.3 0.1 0.3 0.3l0 6.4Z"/>
</g>

<g id="news" transform="translate(384 0)">
<path d="m 27.167,18.657 c 1.955,-1.032 3.291,-2.973 3.291,-5.226 0,-3.321 -2.872,-6.0154 -6.415,-6.0154 -3.543,0 -6.417,2.6944 -6.417,6.0154 0,2.253 1.338,4.195 3.293,5.226 l -9.573,23.364 c -0.438,1.176 0.223,2.464 1.477,2.876 0.262,0.09 0.53,0.126 0.795,0.126 0.993,0 1.923,-0.581 2.27,-1.511 L 17,40.509 l 14.086,0 1.111,3.003 c 0.348,0.93 1.279,1.511 2.273,1.511 0.263,0 0.532,-0.04 0.794,-0.126 1.255,-0.412 1.915,-1.7 1.476,-2.876 L 27.167,18.657 Z m -6.057,10.758 5.356,1.507 -7.555,4.429 2.199,-5.936 z m 1.05,-2.834 1.883,-5.628 2.321,6.811 -4.204,-1.183 z m -0.865,10.921 7.128,-4.178 1.549,4.178 -8.677,0 z M 44.896,13.431 c 0,4.071 -2.745,7.971 -7.35,10.43 -0.128,0.07 -0.271,0.1 -0.412,0.1 -0.229,0 -0.455,-0.09 -0.615,-0.247 l -0.332,-0.341 c -0.156,-0.155 -0.226,-0.365 -0.198,-0.574 0.02,-0.211 0.143,-0.403 0.332,-0.527 3.407,-2.246 5.366,-5.387 5.366,-8.841 0,-3.451 -1.959,-6.5921 -5.368,-8.8421 -0.183,-0.1227 -0.308,-0.3137 -0.333,-0.5238 -0.02,-0.21 0.05,-0.4194 0.205,-0.5781 l 0.328,-0.3357 c 0.16,-0.166 0.385,-0.252 0.615,-0.2489 0.141,0 0.283,0.031 0.412,0.098 4.605,2.4622 7.352,6.3606 7.35,10.4306 z m -9.355,0 c 0,-2.128 -1.114,-4.096 -3.133,-5.5394 C 32.21,7.749 32.088,7.5434 32.066,7.3142 32.046,7.0872 32.126,6.8594 32.293,6.692 L 32.46,6.5178 c 0.178,-0.1829 0.426,-0.2777 0.68,-0.2784 0.159,0 0.321,0.038 0.466,0.116 3.152,1.7132 4.874,4.2926 4.873,7.0746 0,2.783 -1.721,5.364 -4.873,7.079 -0.145,0.07 -0.306,0.115 -0.466,0.115 -0.252,0 -0.502,-0.1 -0.68,-0.278 l -0.167,-0.173 c -0.165,-0.17 -0.248,-0.395 -0.227,-0.626 0.02,-0.225 0.144,-0.434 0.342,-0.577 2.019,-1.444 3.134,-3.41 3.133,-5.539 z M 11.567,23.714 c -0.162,0.162 -0.388,0.25 -0.615,0.247 -0.14,0 -0.284,-0.03 -0.412,-0.1 -4.6017,-2.459 -7.3487,-6.359 -7.3467,-10.43 0,-4.07 2.745,-7.968 7.3467,-10.4304 0.13,-0.067 0.272,-0.1013 0.412,-0.098 0.229,0 0.454,0.084 0.615,0.249 l 0.327,0.3356 C 12.049,3.646 12.124,3.8553 12.1,4.0653 12.07,4.2754 11.95,4.4665 11.766,4.5891 8.3613,6.8393 6.4013,9.98 6.4013,13.431 c 0,3.454 1.96,6.595 5.3617,8.841 0.19,0.124 0.312,0.316 0.334,0.526 0.03,0.21 -0.04,0.42 -0.199,0.575 l -0.331,0.341 z M 9.6095,13.43 c 0,-2.782 1.7175,-5.3614 4.8695,-7.0745 0.146,-0.078 0.307,-0.1154 0.465,-0.116 0.254,0 0.503,0.095 0.682,0.2784 l 0.166,0.1741 c 0.167,0.1675 0.249,0.3953 0.226,0.6222 -0.02,0.2293 -0.143,0.4349 -0.342,0.5775 -2.019,1.4433 -3.132,3.4123 -3.132,5.5393 0,2.129 1.113,4.095 3.132,5.54 0.199,0.142 0.321,0.351 0.342,0.577 0.02,0.231 -0.06,0.456 -0.227,0.626 l -0.165,0.172 c -0.179,0.181 -0.429,0.278 -0.682,0.278 -0.159,0 -0.319,-0.04 -0.466,-0.115 C 11.327,18.794 9.6086,16.213 9.6095,13.43 Z" />
</g>

<g id="opinion" transform="translate(432 0)">
<path d="M45.1 5C44.8 4.1 43.9 3.6 42.9 3.8 42.2 4 40.5 4.2 39.6 3.7 37 2.2 33.1 3.2 31.6 5.8L30.8 5.4C29.1 4.4 26.9 5 25.9 6.6L25.1 8.1C17.5 6.7 9.6 10.1 5.5 17.1c-5.2 8.9-2.1 20.3 6.8 25.4 8.9 5.1 20.4 2.1 25.5-6.8 4.1-7 3-15.6-2-21.4l0.8-1.5C37.7 11.2 37.1 9 35.4 8L34.6 7.6c0.6-1 2.3-1.4 3.3-0.9 2.4 1.4 5.6 0.5 5.9 0.4 0.9-0.2 1.5-1.2 1.2-2.1Zm-15.7 11.5c-0.5 0.8-1.5 1.1-2.4 0.6 -5.1-2.9-11.7-1.2-14.6 3.9 -0.5 0.8-1.5 1.1-2.4 0.6 -0.8-0.5-1.1-1.5-0.6-2.4 3.9-6.7 12.6-9.1 19.4-5.2 0.8 0.5 1.1 1.5 0.6 2.4Z"/>
</g>

<g id="review" transform="translate(480 0)">
<path d="m44.3 21.2l0 0 -10.6 8 4.1 13.1c0.1 0.2 0.1 0.4 0.1 0.6 0 1.1-0.9 2.1-2 2.1 -0.4 0-0.8-0.1-1.2-0.4l0 0 -10.7-8.1 -10.7 8.1 0 0c-0.3 0.2-0.7 0.4-1.2 0.4 -1.1 0-2-0.9-2-2.1 0-0.2 0-0.4 0.1-0.6l4.1-13.1 -10.6-8 0 0c-0.5-0.4-0.8-1-0.8-1.7 0-1.1 0.9-2.1 2-2.1l13.1 0 4.1-13c0.2-0.8 1-1.5 1.9-1.5 0.9 0 1.6 0.6 1.9 1.5l4.1 13 13.1 0c1.1 0 2 0.9 2 2.1 0 0.7-0.3 1.3-0.8 1.7"/>
</g>

<g id="topical" transform="translate(528 0)">
<path d="m 42.341,29.676 -6.079,0 0.888,-11.348 5.263,0 c 1.51,0.02 2.668,-2.019 2.668,-3.53 0,-1.512 -1.23,-3.388 -2.74,-3.388 l -4.78,0 0.467,-5.4686 C 38.141,4.4288 36.29,3.1135 34.783,3.0038 33.27,2.8898 31.235,4.0223 31.125,5.5293 l -0.493,5.8797 -11.337,0 0.465,-5.4686 C 19.875,4.4288 18.021,3.1135 16.514,3.0038 15.007,2.8898 12.968,4.0223 12.858,5.5293 l -0.494,5.8797 -6.5586,0 c -1.5117,0 -2.7402,1.948 -2.7402,3.46 0,1.511 1.2306,3.538 2.7402,3.459 l 6.1476,0 -0.959,11.349 -5.1886,0 c -1.5118,0 -2.7402,1.948 -2.7402,3.46 0,1.513 1.2317,3.559 2.7402,3.461 l 4.7776,0 -0.465,5.468 c -0.115,1.51 1.738,2.826 3.246,2.936 l 0.21,0 c 1.42,0 3.34,-1.097 3.446,-2.535 l 0.493,-5.879 11.267,0 -0.465,5.469 c -0.115,1.51 1.809,2.826 3.316,2.936 l 0.21,0 c 1.42,0 3.342,-1.097 3.446,-2.535 l 0.494,-5.879 6.56,0 c 1.51,0 2.74,-1.949 2.74,-3.46 0,-1.512 -1.23,-3.46 -2.74,-3.46 z m -24.416,0 0.959,-11.348 11.338,0 -1.031,11.421 z" />
</g>

<g id="series" transform="translate(576 0)">
<g transform="matrix(0.893259 0 0 0.893617 2.55337 2.55319)">
<path d="m0.5 2.1l0 45.2 13.3 0 0-45.2 -13.3 0Zm9.7 39.3l-6.3 0 0-2.9 6.3 0 0 2.9Zm0-4.8l-6.3 0 0-2.9 6.3 0 0 2.9Zm0-25l-6.3 0 0-2.9 6.3 0 0 2.9Z" />
<path d="m15.2 2.1l0 45.2 13.3 0 0-45.2 -13.3 0Zm9.8 39.3l-6.3 0 0-2.9 6.3 0 0 2.9Zm0-4.8l-6.3 0 0-2.9 6.3 0 0 2.9Zm0-25l-6.3 0 0-2.9 6.3 0 0 2.9Z" />
<path d="M41.9 0.5L28.8 2.7 34.4 47.5 47.5 45.3 41.9 0.5ZM33.4 11.6L33 8.7l6.2-1.1 0.4 2.8 -6.2 1.2Zm2.7 21.9l6.2-1.1 0.4 2.8 -6.2 1.1 -0.4-2.8Zm0.5 3.9l6.2-1.1 0.4 2.8 -6.2 1.1 -0.4-2.8Z" />
</g>
</g>

<g id="rss" style="fill:#ffffff" transform="translate(624 0)">
<path d="M 9.0030118,33.001289 C 5.7013553,33.001289 3,35.702644 3,39.0043 c 0,3.301657 2.7013553,6.003012 6.0030118,6.003012 3.3016562,0 6.0030112,-2.701355 6.0030112,-6.003012 0,-3.301656 -2.701355,-6.003011 -6.0030112,-6.003011 z M 7.5022589,2.9862294 C 4.9509789,2.9862294 3,4.9372082 3,7.4884883 c 0,2.5512797 1.9509789,4.5022597 4.5022589,4.5022597 15.7579051,0 28.5143051,12.7564 28.5143051,28.514305 0,2.551281 1.95098,4.502259 4.502259,4.502259 2.551281,0 4.502259,-1.950978 4.502259,-4.502259 0,-20.71039 -16.808433,-37.5188236 -37.5188231,-37.5188236 z m 0,15.0075296 C 4.9509789,17.993759 3,19.944738 3,22.496018 c 0,2.55128 1.9509789,4.502259 4.5022589,4.502259 7.5037641,0 13.5067761,6.003012 13.5067761,13.506776 0,2.551281 1.950979,4.502259 4.502259,4.502259 2.55128,0 4.502259,-1.950978 4.502259,-4.502259 0,-12.456249 -10.055045,-22.511294 -22.5112941,-22.511294 z"/>
</g>

<g id="patreon" style="fill:#ffffff" transform="translate(672 0)">
<path d="m 30.542,2.361 c -8.982,0 -16.29,7.3061 -16.29,16.29 0,8.954 7.308,16.239 16.29,16.239 8.956,0 16.261,-7.285 16.261,-16.239 0,-8.9839 -7.305,-16.29 -16.261,-16.29" />
<path d="m 9.4987,45.749 0,-43.388 -7.9563,0 0,43.388 z" />
</g>

<g id="facebook" style="fill:#ffffff" transform="translate(720 0)">
<path d="m 27.057,47.306 -8.527,0 0,-21.229 -7.11,0 0,-8.246 7.11,0 0,-6.065 q 0,-5.2085 3.033,-8.1488 2.839,-2.74696 7.578,-2.74696 2.656,0 6.351,0.28496 l 0,7.3912 -4.454,0 q -3.981,0 -3.981,3.6016 l 0,5.683 8.15,0 -1.041,8.246 -7.109,0 0,21.228 z" />
</g>

<g id="twitter" style="fill:#ffffff" transform="translate(768 0)">
<path d="m 47.508,9.6007 c 0,0 -1.832,2.9683 -4.799,4.9713 0.611,13.616 -9.34,28.71 -27.401,28.71 -8.988,0 -14.751,-4.361 -14.751,-4.361 0,0 7.0698,1.479 14.226,-3.931 -7.242,-0.438 -8.9882,-6.716 -8.9882,-6.716 0,0 2.0045,0.525 4.3612,-0.172 -8.1193,-2.013 -7.7667,-9.607 -7.7667,-9.607 0,0 2.0035,1.229 4.3606,1.229 C -0.57827,14.048 3.7828,6.8055 3.7828,6.8055 c 0,0 6.6392,9.3415 19.9022,10.1235 C 21.766,6.3669 33.893,1.4824 40.086,8.1128 43.32,7.5882 46.287,5.7563 46.287,5.7563 c 0,0 -1.05,3.5777 -4.284,5.3247 2.623,-0.172 5.505,-1.4803 5.505,-1.4803 z" />
</g>

<g id="youtube" style="fill:#ffffff" transform="translate(816 0)">
<path d="m 24.071416,7.7929731 c 13.334222,0 18.612347,0.1851975 20.742114,2.3149669 1.574178,1.574182 2.407566,4.826715 2.407566,13.982413 0,9.155697 -0.833388,12.408231 -2.407566,13.982402 -2.129767,2.129773 -7.407892,2.314972 -20.742114,2.314972 -13.334212,0 -18.612335,-0.185199 -20.742109,-2.314972 C 1.7551273,36.498584 0.92174008,33.24605 0.92174008,24.090353 0.92174008,14.934655 1.7551273,11.682122 3.329307,10.10794 5.459081,7.9781706 10.737204,7.7929731 24.071416,7.7929731 Z M 19.256283,17.052849 V 30.10927 l 12.500826,-6.481909 z" />
</g>

<g id="pinterest" style="fill:#ffffff" transform="translate(864 0)">
<path d="m 14.191578,47.217277 c -0.781587,-0.26053 -1.302648,-6.686916 -0.521061,-9.986952 l 3.300038,-14.15542 c 0,0 -0.781588,-1.736862 -0.781588,-4.255311 0,-3.994778 2.257923,-6.947441 5.123739,-6.947441 2.43161,0 3.647412,1.823701 3.647412,3.994778 0,2.431609 -1.650015,6.16586 -2.431603,9.552737 -0.694748,2.865822 1.476328,5.123741 4.255304,5.123741 5.0369,0 9.031678,-5.297428 9.031678,-13.026457 0,-6.860601 -4.950053,-11.636973 -11.984341,-11.636973 -8.163242,0 -12.852765,5.992174 -12.852765,12.331714 0,2.43161 0.842374,4.984797 1.997386,6.426388 0.347374,0.434213 0.434214,0.52106 0.173687,1.476333 l -0.694747,2.692135 c 0,0 -0.173688,0.825008 -1.215801,0.260529 -3.5605458,-1.9366 -5.4710948,-6.77376 -5.4710948,-10.942225 0,-9.031677 6.5132078,-17.281766 18.8449228,-17.281766 9.900111,0 17.62914,7.034288 17.62914,16.500179 0,9.813265 -6.252701,17.802826 -14.850164,17.802826 -4.776365,0 -6.513227,-3.300036 -6.513227,-3.300036 l -1.823702,6.773758 c -0.955275,3.560565 -4.081625,8.857992 -4.863213,8.597463 z" />
</g>

<g id="patreon-button" transform="translate(0 48)">
<path style="fill:#ffffff" d="m 57.55,23.417 c 1.63,-0.369 2.5,-1.57 2.5,-2.863 0,-1.94 -1.44,-3.325 -4.59,-3.325 l -6.24,0 0,12.931 6.48,0 c 3.16,0 4.71,-1.57 4.71,-3.602 0,-1.755 -1.06,-2.864 -2.86,-3.141 z m -2.98,-4.064 c 1.43,0 2.05,0.647 2.05,1.57 0,0.924 -0.56,1.571 -2.05,1.571 l -2.07,0 0,-3.141 2.07,0 z m 0.22,8.683 -2.29,0 0,-3.418 2.37,0 c 1.38,0 2.1,0.647 2.1,1.663 0,1.016 -0.68,1.755 -2.18,1.755 z" />
<path style="fill:#ffffff" d="m 65.71,27.851 0,-3.141 5.85,0 0,-2.309 -5.85,0 0,-2.955 6.18,0 0,-2.217 -9.48,0 0,12.931 9.62,0 0,-2.309 -6.32,0 z" />
<path style="fill:#ffffff" d="m 80.2,30.53 c 3.42,0 5.57,-1.755 6.23,-4.526 L 83.1,25.357 c -0.28,1.663 -1.31,2.586 -2.84,2.586 -2.19,0 -3.44,-1.662 -3.44,-4.249 0,-2.678 1.23,-4.341 3.34,-4.341 1.65,0 2.66,1.016 2.86,2.771 l 3.34,-0.554 c -0.38,-2.863 -2.6,-4.711 -6.12,-4.711 -4.22,0 -6.79,2.771 -6.79,6.835 0,4.065 2.36,6.836 6.75,6.836 z" />
<path style="fill:#ffffff" d="m 94.16,30.53 c 4.16,0 6.83,-2.679 6.83,-6.836 0,-4.156 -2.67,-6.835 -6.83,-6.835 -4.15,0 -6.82,2.679 -6.82,6.835 0,4.157 2.67,6.836 6.82,6.836 z m 0,-2.494 c -2.16,0 -3.45,-1.663 -3.45,-4.342 0,-2.771 1.29,-4.433 3.45,-4.433 2.17,0 3.43,1.662 3.43,4.433 0,2.771 -1.26,4.342 -3.43,4.342 z" />
<path style="fill:#ffffff" d="m 102.91,30.16 2.81,0 0,-8.867 c 0,-0.462 0,-1.016 -0.1,-1.386 l 0.1,0 c 0,0.277 0.16,0.832 0.29,1.201 l 2.9,9.052 2.77,0 2.79,-9.052 c 0.12,-0.369 0.26,-0.924 0.3,-1.293 l 0.1,0 c -0.1,0.554 -0.1,1.016 -0.1,1.478 l 0,8.867 3,0 0,-12.931 -4.59,0 -2.43,7.851 c -0.2,0.647 -0.3,1.201 -0.35,1.663 l 0,0 c -0.1,-0.462 -0.14,-1.016 -0.34,-1.571 l -2.55,-7.943 -4.52,0 0,12.931 z" />
<path style="fill:#ffffff" d="m 123.83,27.851 0,-3.141 5.84,0 0,-2.309 -5.84,0 0,-2.955 6.17,0 0,-2.217 -9.47,0 0,12.931 9.61,0 0,-2.309 -6.31,0 z" />
<path style="fill:#ffffff" d="m 146.49,30.16 3.31,0 -5.03,-12.931 -3.76,0 -5.03,12.931 3.3,0 1.05,-3.048 5.11,0 1.05,3.048 z m -5.4,-5.172 1.27,-3.603 c 0.2,-0.646 0.37,-1.108 0.5,-1.847 l 0,0 c 0.14,0.739 0.32,1.201 0.51,1.847 l 1.27,3.603 -3.59,0 z" />
<path style="fill:#ffffff" d="m 162.28,17.229 -6.14,0 0,12.931 3.29,0 0,-4.711 2.77,0 c 3.12,0 5.05,-1.57 5.05,-4.156 0,-2.494 -1.97,-4.064 -4.97,-4.064 z m -0.8,6.096 -2.05,0 0,-3.879 2.05,0 c 1.48,0 2.31,0.646 2.31,1.939 0,1.201 -0.85,1.94 -2.31,1.94 z" />
<path style="fill:#ffffff" d="m 176.63,30.16 3.31,0 -5.03,-12.931 -3.76,0 -5.02,12.931 3.28,0 1.06,-3.048 5.1,0 1.06,3.048 z m -5.41,-5.172 1.27,-3.603 c 0.2,-0.646 0.38,-1.108 0.52,-1.847 l 0,0 c 0.12,0.739 0.3,1.201 0.5,1.847 l 1.27,3.603 -3.6,0 z" />
<path style="fill:#ffffff" d="m 190.02,17.229 -11.33,0 0,2.401 4.02,0 0,10.53 3.28,0 0,-10.53 4.03,0 0,-2.401 z" />
<path style="fill:#ffffff" d="m 199.51,30.16 3.57,0 -3.06,-5.45 c 1.79,-0.554 2.71,-1.939 2.71,-3.51 0,-2.401 -1.56,-3.971 -5.07,-3.971 l -6.08,0 0,12.931 3.29,0 0,-4.988 1.99,0 2.65,4.988 z m -4.64,-10.807 2.13,0 c 1.61,0 2.29,0.647 2.29,1.847 0,1.109 -0.7,1.848 -2.29,1.848 l -2.13,0 0,-3.695 z" />
<path style="fill:#ffffff" d="m 210.49,30.53 c 4.15,0 6.82,-2.679 6.82,-6.836 0,-4.156 -2.67,-6.835 -6.82,-6.835 -4.15,0 -6.82,2.679 -6.82,6.835 0,4.157 2.67,6.836 6.82,6.836 z m 0,-2.494 c -2.16,0 -3.45,-1.663 -3.45,-4.342 0,-2.771 1.29,-4.433 3.45,-4.433 2.17,0 3.43,1.662 3.43,4.433 0,2.771 -1.26,4.342 -3.43,4.342 z" />
<path style="fill:#ffffff" d="m 218.77,30.16 3.02,0 0,-7.297 c 0,-0.646 0,-1.201 0,-1.755 l 0,0 c 0.18,0.462 0.49,1.016 0.81,1.57 l 4.61,7.482 3.5,0 0,-12.931 -3.02,0 0,7.389 c 0,0.647 0,1.109 0,1.663 l 0,0 c -0.17,-0.462 -0.52,-1.109 -0.83,-1.663 l -4.44,-7.389 -3.65,0 0,12.931 z" />
<path style="fill:#ffffff" d="m 33.48,21.016 a 8.611,8.0821 0 0 1 -8.61,8.036 8.611,8.0821 0 0 1 -8.614,-8.036 8.611,8.0821 0 0 1 8.614,-8.036 8.611,8.0821 0 0 1 8.61,8.036 z" />
<path style="fill:#052d49" d="m 9.371,13.072 4.256,0 0,21.522 -4.256,0 z" />
</g>

</svg>