<?xml version="1.0" encoding="UTF-8" standalone="no"?>
<svg xmlns="http://www.w3.org/2000/svg" viewBox="0 0 216 48" width="100%" height="100%">

<view id="base" viewBox="0 0 36 48" />
<view id="back-base" viewBox="36 0 36 48" />
<view id="categories" viewBox="72 0 36 48" />
<view id="back-categories" viewBox="108 0 36 48" />
<view id="tags" viewBox="144 0 36 48" />
<view id="back-tags" viewBox="180 0 36 48" />

<g id="base" transform="translate(0 0)">
<rect class="a" ry="1.35" height="4.38" width="28.73" y="7.82" x="5.65" />
<rect class="a" ry="1.35" height="4.38" width="28.73" y="15.13" x="5.65" />
<rect class="a" ry="1.35" height="4.38" width="28.73" y="22.45" x="5.65" />
<path class="z" d="m 5.5618,38.423 0,-7.386 2.225,0 1.342,5.039 1.3272,-5.039 2.232,0 0,7.386 -1.385,0 0,-5.814 -1.4632,5.814 -1.436,0 -1.457,-5.814 0,5.814 -1.385,0 z" />
<path class="z" d="m 14.181,38.423 0,-7.386 5.477,0 0,1.249 -3.984,0 0,1.637 3.704,0 0,1.241 -3.704,0 0,2.01 4.12,0 0,1.249 -5.613,0 z" />
<path class="z" d="m 21.086,38.559 0,-7.385 1.45,0 3.022,4.931 0,-4.931 1.385,0 0,7.385 -1.493,0 -2.978,-4.816 0,4.816 -1.386,0 z" />
<path class="z" d="m 28.515,31.037 1.493,0 0,3.998 q 0,0.955 0.07,1.235 0.101,0.452 0.459,0.732 0.359,0.273 0.984,0.273 0.639,0 0.954,-0.259 0.323,-0.265 0.388,-0.638 0.07,-0.381 0.07,-1.257 l 0,-4.084 1.486,0 0,3.876 q 0,1.328 -0.122,1.881 -0.115,0.545 -0.446,0.926 -0.323,0.38 -0.868,0.603 -0.538,0.222 -1.421,0.222 -1.055,0 -1.601,-0.244 -0.541,-0.244 -0.857,-0.632 -0.323,-0.394 -0.424,-0.818 -0.143,-0.639 -0.143,-1.873 l 0,-3.941 z" />
</g>

<g id="back-base" transform="translate(36 0)">
<rect class="a" transform="matrix(0.866,-0.5,0.5,0.866,0,0)" x="-3.19" y="16.15" width="18.18"  height="4.48" ry="1.38" />
<rect class="a" transform="matrix(0.866,0.5,-0.5,0.866,0,0)" x="14.07" y="9.15" width="18.18"  height="4.48" ry="1.38" />
<rect class="a" x="5.58" y="15" width="28.73" height="4.38" ry="1.35" />
<rect class="b" transform="matrix(0.866,-0.5,0.5,0.866,0,0)" x="-3.25" y="16.37" width="16.51" height="4" ry="1.26" />
<rect class="b" transform="matrix(0.866,0.5,0.5,-0.866,0,0)" x="13.94" y="-13.44" width="16.51" height="4.07" ry="1.26" />
<rect class="b" x="5.82" y="16.2" width="0.13" height="2.04" ry="0.25" />
<path class="z" d="m 5.2228,31.021 3.003,0 q 0.89,0 1.325,0.08 0.441,0.08 0.7852,0.306 0.351,0.236 0.584,0.631 0.231,0.39 0.231,0.876 0,0.528 -0.287,0.969 -0.283,0.44 -0.775,0.66 0.693,0.201 1.062,0.682 0.369,0.481 0.369,1.132 0,0.512 -0.24,0.999 -0.236,0.482 -0.654,0.774 -0.412,0.288 -1.0192,0.354 -0.378,0.04 -1.827,0.05 l -2.557,0 0,-7.512 z m 1.516,1.251 0,1.737 0.994,0 q 0.886,0 1.101,-0.02 0.389,-0.05 0.61,-0.267 0.225,-0.225 0.225,-0.588 0,-0.349 -0.194,-0.564 -0.19,-0.221 -0.57,-0.268 -0.225,-0.02 -1.295,-0.02 l -0.871,0 z m 0,2.988 0,2.008 1.405,0 q 0.818,0 1.038,-0.06 0.339,-0.06 0.548,-0.298 0.216,-0.24 0.216,-0.64 0,-0.338 -0.164,-0.574 -0.165,-0.236 -0.477,-0.344 -0.308,-0.111 -1.34,-0.111 l -1.226,0 z" />
<path class="z" d="m 19.58,38.534 -1.65,0 -0.656,-1.707 -3.002,0 -0.62,1.707 -1.609,0 2.926,-7.513 1.604,0 3.007,7.513 z m -2.792,-2.972 -1.035,-2.788 -1.015,2.788 2.05,0 z" />
<path class="z" d="m 25.216,35.771 1.471,0.467 q -0.338,1.23 -1.128,1.829 -0.783,0.594 -1.992,0.594 -1.497,0 -2.459,-1.019 -0.963,-1.025 -0.963,-2.797 0,-1.876 0.967,-2.911 0.968,-1.04 2.547,-1.04 1.378,0 2.239,0.814 0.512,0.482 0.769,1.384 l -1.502,0.358 q -0.133,-0.584 -0.558,-0.923 -0.42,-0.337 -1.025,-0.337 -0.835,0 -1.358,0.6 -0.518,0.598 -0.518,1.942 0,1.424 0.514,2.029 0.511,0.604 1.331,0.604 0.604,0 1.04,-0.385 0.436,-0.384 0.625,-1.209 z" />
<path class="z" d="m 28.014,38.534 0,-7.513 1.517,0 0,3.336 3.063,-3.336 2.04,0 -2.828,2.926 2.982,4.586 -1.963,0 -2.065,-3.526 -1.229,1.256 0,2.27 -1.517,0 z" />
</g>

<g id="categories" transform="translate(72 0)">
<rect class="c" ry="1.35" height="4.38" width="28.73" y="7.82" x="5.65" />
<rect class="c" ry="1.35" height="4.38" width="28.73" y="15.13" x="5.65" />
<rect class="c" ry="1.35" height="4.38" width="28.73" y="22.45" x="5.65" />
<path class="z" d="m 5.5618,38.423 0,-7.386 2.225,0 1.342,5.039 1.3272,-5.039 2.232,0 0,7.386 -1.385,0 0,-5.814 -1.4632,5.814 -1.436,0 -1.457,-5.814 0,5.814 -1.385,0 z" />
<path class="z" d="m 14.181,38.423 0,-7.386 5.477,0 0,1.249 -3.984,0 0,1.637 3.704,0 0,1.241 -3.704,0 0,2.01 4.12,0 0,1.249 -5.613,0 z" />
<path class="z" d="m 21.086,38.559 0,-7.385 1.45,0 3.022,4.931 0,-4.931 1.385,0 0,7.385 -1.493,0 -2.978,-4.816 0,4.816 -1.386,0 z" />
<path class="z" d="m 28.515,31.037 1.493,0 0,3.998 q 0,0.955 0.07,1.235 0.101,0.452 0.459,0.732 0.359,0.273 0.984,0.273 0.639,0 0.954,-0.259 0.323,-0.265 0.388,-0.638 0.07,-0.381 0.07,-1.257 l 0,-4.084 1.486,0 0,3.876 q 0,1.328 -0.122,1.881 -0.115,0.545 -0.446,0.926 -0.323,0.38 -0.868,0.603 -0.538,0.222 -1.421,0.222 -1.055,0 -1.601,-0.244 -0.541,-0.244 -0.857,-0.632 -0.323,-0.394 -0.424,-0.818 -0.143,-0.639 -0.143,-1.873 l 0,-3.941 z" />
</g>

<g id="back-categories" transform="translate(108 0)">
<rect class="c" transform="matrix(0.866,-0.5,0.5,0.866,0,0)" x="-3.19" y="16.15" width="18.18"  height="4.48" ry="1.38" />
<rect class="c" transform="matrix(0.866,0.5,-0.5,0.866,0,0)" x="14.07" y="9.15" width="18.18"  height="4.48" ry="1.38" />
<rect class="c" x="5.58" y="15" width="28.73" height="4.38" ry="1.35" />
<rect class="d" transform="matrix(0.866,-0.5,0.5,0.866,0,0)" x="-3.25" y="16.37" width="16.51" height="4" ry="1.26" />
<rect class="d" transform="matrix(0.866,0.5,0.5,-0.866,0,0)" x="13.94" y="-13.44" width="16.51" height="4.07" ry="1.26" />
<rect class="d" x="5.82" y="16.2" width="0.13" height="2.04" ry="0.25" />
<path class="z" d="m 5.2228,31.021 3.003,0 q 0.89,0 1.325,0.08 0.441,0.08 0.7852,0.306 0.351,0.236 0.584,0.631 0.231,0.39 0.231,0.876 0,0.528 -0.287,0.969 -0.283,0.44 -0.775,0.66 0.693,0.201 1.062,0.682 0.369,0.481 0.369,1.132 0,0.512 -0.24,0.999 -0.236,0.482 -0.654,0.774 -0.412,0.288 -1.0192,0.354 -0.378,0.04 -1.827,0.05 l -2.557,0 0,-7.512 z m 1.516,1.251 0,1.737 0.994,0 q 0.886,0 1.101,-0.02 0.389,-0.05 0.61,-0.267 0.225,-0.225 0.225,-0.588 0,-0.349 -0.194,-0.564 -0.19,-0.221 -0.57,-0.268 -0.225,-0.02 -1.295,-0.02 l -0.871,0 z m 0,2.988 0,2.008 1.405,0 q 0.818,0 1.038,-0.06 0.339,-0.06 0.548,-0.298 0.216,-0.24 0.216,-0.64 0,-0.338 -0.164,-0.574 -0.165,-0.236 -0.477,-0.344 -0.308,-0.111 -1.34,-0.111 l -1.226,0 z" />
<path class="z" d="m 19.58,38.534 -1.65,0 -0.656,-1.707 -3.002,0 -0.62,1.707 -1.609,0 2.926,-7.513 1.604,0 3.007,7.513 z m -2.792,-2.972 -1.035,-2.788 -1.015,2.788 2.05,0 z" />
<path class="z" d="m 25.216,35.771 1.471,0.467 q -0.338,1.23 -1.128,1.829 -0.783,0.594 -1.992,0.594 -1.497,0 -2.459,-1.019 -0.963,-1.025 -0.963,-2.797 0,-1.876 0.967,-2.911 0.968,-1.04 2.547,-1.04 1.378,0 2.239,0.814 0.512,0.482 0.769,1.384 l -1.502,0.358 q -0.133,-0.584 -0.558,-0.923 -0.42,-0.337 -1.025,-0.337 -0.835,0 -1.358,0.6 -0.518,0.598 -0.518,1.942 0,1.424 0.514,2.029 0.511,0.604 1.331,0.604 0.604,0 1.04,-0.385 0.436,-0.384 0.625,-1.209 z" />
<path class="z" d="m 28.014,38.534 0,-7.513 1.517,0 0,3.336 3.063,-3.336 2.04,0 -2.828,2.926 2.982,4.586 -1.963,0 -2.065,-3.526 -1.229,1.256 0,2.27 -1.517,0 z" />
</g>

<g id="tags" transform="translate(144 0)">
<rect class="e" ry="1.35" height="4.38" width="28.73" y="7.82" x="5.65" />
<rect class="e" ry="1.35" height="4.38" width="28.73" y="15.13" x="5.65" />
<rect class="e" ry="1.35" height="4.38" width="28.73" y="22.45" x="5.65" />
<path class="z" d="m 5.5618,38.423 0,-7.386 2.225,0 1.342,5.039 1.3272,-5.039 2.232,0 0,7.386 -1.385,0 0,-5.814 -1.4632,5.814 -1.436,0 -1.457,-5.814 0,5.814 -1.385,0 z" />
<path class="z" d="m 14.181,38.423 0,-7.386 5.477,0 0,1.249 -3.984,0 0,1.637 3.704,0 0,1.241 -3.704,0 0,2.01 4.12,0 0,1.249 -5.613,0 z" />
<path class="z" d="m 21.086,38.559 0,-7.385 1.45,0 3.022,4.931 0,-4.931 1.385,0 0,7.385 -1.493,0 -2.978,-4.816 0,4.816 -1.386,0 z" />
<path class="z" d="m 28.515,31.037 1.493,0 0,3.998 q 0,0.955 0.07,1.235 0.101,0.452 0.459,0.732 0.359,0.273 0.984,0.273 0.639,0 0.954,-0.259 0.323,-0.265 0.388,-0.638 0.07,-0.381 0.07,-1.257 l 0,-4.084 1.486,0 0,3.876 q 0,1.328 -0.122,1.881 -0.115,0.545 -0.446,0.926 -0.323,0.38 -0.868,0.603 -0.538,0.222 -1.421,0.222 -1.055,0 -1.601,-0.244 -0.541,-0.244 -0.857,-0.632 -0.323,-0.394 -0.424,-0.818 -0.143,-0.639 -0.143,-1.873 l 0,-3.941 z" />
</g>

<g id="back-tags" transform="translate(180 0)">
<rect class="e" transform="matrix(0.866,-0.5,0.5,0.866,0,0)" x="-3.19" y="16.15" width="18.18"  height="4.48" ry="1.38" />
<rect class="e" transform="matrix(0.866,0.5,-0.5,0.866,0,0)" x="14.07" y="9.15" width="18.18"  height="4.48" ry="1.38" />
<rect class="e" x="5.58" y="15" width="28.73" height="4.38" ry="1.35" />
<rect class="f" transform="matrix(0.866,-0.5,0.5,0.866,0,0)" x="-3.25" y="16.37" width="16.51" height="4" ry="1.26" />
<rect class="f" transform="matrix(0.866,0.5,0.5,-0.866,0,0)" x="13.94" y="-13.44" width="16.51" height="4.07" ry="1.26" />
<rect class="f" x="5.82" y="16.2" width="0.13" height="2.04" ry="0.25" />
<path class="z" d="m 5.2228,31.021 3.003,0 q 0.89,0 1.325,0.08 0.441,0.08 0.7852,0.306 0.351,0.236 0.584,0.631 0.231,0.39 0.231,0.876 0,0.528 -0.287,0.969 -0.283,0.44 -0.775,0.66 0.693,0.201 1.062,0.682 0.369,0.481 0.369,1.132 0,0.512 -0.24,0.999 -0.236,0.482 -0.654,0.774 -0.412,0.288 -1.0192,0.354 -0.378,0.04 -1.827,0.05 l -2.557,0 0,-7.512 z m 1.516,1.251 0,1.737 0.994,0 q 0.886,0 1.101,-0.02 0.389,-0.05 0.61,-0.267 0.225,-0.225 0.225,-0.588 0,-0.349 -0.194,-0.564 -0.19,-0.221 -0.57,-0.268 -0.225,-0.02 -1.295,-0.02 l -0.871,0 z m 0,2.988 0,2.008 1.405,0 q 0.818,0 1.038,-0.06 0.339,-0.06 0.548,-0.298 0.216,-0.24 0.216,-0.64 0,-0.338 -0.164,-0.574 -0.165,-0.236 -0.477,-0.344 -0.308,-0.111 -1.34,-0.111 l -1.226,0 z" />
<path class="z" d="m 19.58,38.534 -1.65,0 -0.656,-1.707 -3.002,0 -0.62,1.707 -1.609,0 2.926,-7.513 1.604,0 3.007,7.513 z m -2.792,-2.972 -1.035,-2.788 -1.015,2.788 2.05,0 z" />
<path class="z" d="m 25.216,35.771 1.471,0.467 q -0.338,1.23 -1.128,1.829 -0.783,0.594 -1.992,0.594 -1.497,0 -2.459,-1.019 -0.963,-1.025 -0.963,-2.797 0,-1.876 0.967,-2.911 0.968,-1.04 2.547,-1.04 1.378,0 2.239,0.814 0.512,0.482 0.769,1.384 l -1.502,0.358 q -0.133,-0.584 -0.558,-0.923 -0.42,-0.337 -1.025,-0.337 -0.835,0 -1.358,0.6 -0.518,0.598 -0.518,1.942 0,1.424 0.514,2.029 0.511,0.604 1.331,0.604 0.604,0 1.04,-0.385 0.436,-0.384 0.625,-1.209 z" />
<path class="z" d="m 28.014,38.534 0,-7.513 1.517,0 0,3.336 3.063,-3.336 2.04,0 -2.828,2.926 2.982,4.586 -1.963,0 -2.065,-3.526 -1.229,1.256 0,2.27 -1.517,0 z" />
</g>

<style>
.a{fill:#3ed481;fill-opacity:1;stroke:#000000;stroke-width:0.5;stroke-opacity:1}
.b{fill:#3ed481;fill-opacity:1}
.c{fill:#f6ca2f;fill-opacity:1;stroke:#000000;stroke-width:0.5;stroke-opacity:1}
.d{fill:#f6ca2f;fill-opacity:1}
.e{fill:#b2b5ff;fill-opacity:1;stroke:#000000;stroke-width:0.5;stroke-opacity:1}
.f{fill:#b2b5ff;fill-opacity:1}
.z{fill:#000000;fill-opacity:1}
</style>

</svg>