<?xml version="1.0" encoding="UTF-8" standalone="no"?>
<svg xmlns="http://www.w3.org/2000/svg" viewBox="0 0 1922 144" width="100%" height="100%">

<view id="security" viewBox="0 0 136 48" />
<view id="security-articles" viewBox="136 0 272 48" />
<view id="privacy" viewBox="408 0 126 48" />
<view id="privacy-articles" viewBox="534 0 260 48" />
<view id="hardware" viewBox="794 0 168 48" />
<view id="hardware-articles" viewBox="962 0 304 48" />
<view id="software" viewBox="1266 0 156 48" />
<view id="software-articles" viewBox="1422 0 292 48" />
<view id="big-data" viewBox="0 48 146 48" />
<view id="big-data-articles" viewBox="146 48 284 48" />
<view id="social-media" viewBox="430 48 218 48" />
<view id="social-media-articles" viewBox="648 48 356 48" />
<view id="wireless" viewBox="1004 48 149 48" />
<view id="wireless-articles" viewBox="1153 48 286 48" />
<view id="passwords" viewBox="1439 48 182 48" />
<view id="passwords-articles" viewBox="1621 48 301 48" />
<view id="muppets" viewBox="0 96 149 48" />
<view id="muppets-articles" viewBox="149 96 268 48" />
<view id="weebles" viewBox="417 96 144 48" />
<view id="weebles-articles" viewBox="561 96 264 48" />

<g id="security" transform="translate(0 0)">
<path class="a" d="m 3.0952,35.187 0,-6.9 q 3.164,1.9 5.317,1.9 1.253,0 1.9788,-0.7 0.725,-0.7 0.725,-1.9 0,-0.8 -0.593,-1.6 -0.5726,-0.8 -2.0008,-1.9 -3.449,-2.6 -5.01,-4.9 -1.538,-2.3 -1.538,-5.1 0,-3.801 2.395,-6.1012 2.395,-2.4 6.1978,-2.4 2.812,0 5.581,1.2 l 0,6.5012 q -2.967,-1.6 -4.812,-1.6 -1.232,0 -1.9568,0.6 -0.703,0.6 -0.703,1.7 0,1.8 3.3188,4.1 1.977,1.4 3.999,3.9 2.043,2.4 2.043,5.7 0,3.8 -2.658,6.3 -2.659,2.5 -6.7468,2.5 -2.79,0 -5.537,-1.3 z" />
<path class="a" d="m 31.572,29.487 5.384,0 q -1.538,6.8 -7.691,6.8 -3.845,0 -6.086,-2.9 -2.241,-2.9 -2.241,-8 0,-4.8 2.241,-7.7 2.241,-2.9 5.954,-2.9 2.242,0 4.307,1.4 2.066,1.4 3.01,3.7 0.945,2.3 1.055,7.3 l -10.657,0 q 0.132,4.5 2.505,4.5 0.813,0 1.45,-0.6 0.638,-0.6 0.769,-1.6 z m -4.636,-5.8 4.636,0 q -0.07,-2.1 -0.593,-3.2 -0.527,-1 -1.67,-1 -1.274,0 -1.824,1 -0.549,1 -0.549,3.2 z" />
<path class="a" d="m 52.205,29.487 0,5.3 q -2.285,1.5 -4.593,1.5 -3.405,0 -5.471,-2.9 -2.043,-3 -2.043,-8 0,-4.7 2.109,-7.6 2.11,-3 5.449,-3 2.329,0 4.593,1.6 l 0,5.3 q -1.297,-0.7 -2.329,-0.7 -1.539,0 -2.483,1.2 -0.945,1.3 -0.945,3.3 0,2.2 0.923,3.5 0.923,1.2 2.505,1.2 0.966,0 2.285,-0.7 z" />
<path class="a" d="m 55.852,15.487 6.394,0 0,13 q 0,1 0.462,1.7 0.483,0.6 1.296,0.6 1.846,0 1.846,-2.7 l 0,-12.6 6.398,0 0,11.7 q 0,4.5 -2.09,6.8 -2.089,2.4 -6.022,2.4 -4.395,0 -6.35,-2.4 -1.934,-2.4 -1.934,-6.1 l 0,-12.4 z" />
<path class="a" d="m 83.118,15.487 0,3.4 0.1,0 q 2.29,-4 4.81,-4 0.38,0 1.04,0.2 l 0,6.2 q -1.17,-0.2 -2.16,-0.2 -3.51,0 -3.51,4.6 l 0,10 -6.37,0 0,-20.2 6.1,0 z" />
<path class="a" d="m 92.478,9.3858 q 0,-1.4 0.99,-2.4 0.99,-1 2.37,-1 1.41,0 2.4,1 0.99,1 0.99,2.4 0,1.4012 -0.99,2.4012 -0.99,1 -2.4,1 -1.36,0 -2.37,-1 -0.99,-1 -0.99,-2.4012 z m 0.18,6.1012 6.39,0 0,20.2 -6.39,0 0,-20.2 z" />
<path class="a" d="m 104.88,10.086 6.39,0 0,5.401 2.49,0 0,5.3 -2.53,0 0,14.9 -6.35,0 0,-14.9 -2.42,0 0,-5.3 2.42,0 0,-5.401 z" />
<path class="a" d="m 115.01,15.487 6.3,0 1.61,5.2 q 0.83,2.8 1.45,5.5 l 0.11,0 q 0.5,-2.6 0.83,-3.7 l 2.13,-7 6.4,0 -8.62,28.5 -6.37,0 2.6,-8.6 -6.44,-19.9 z" />
</g>

<g id="security-articles" transform="translate(136 0)">
<path class="a" d="m 3.422,35.247 0,-6.9 q 3.164,1.9 5.317,1.9 1.2525,0 1.977,-0.7 0.725,-0.7 0.725,-1.9 0,-0.8 -0.593,-1.6 -0.571,-0.8 -1.999,-1.9 -3.45,-2.6 -5.01,-4.9 -1.538,-2.3 -1.538,-5.1 0,-3.801 2.395,-6.102 2.395,-2.4 6.196,-2.4 2.813,0 5.581,1.2 l 0,6.502 q -2.966,-1.6 -4.812,-1.6 -1.23,0 -1.955,0.6 -0.703,0.6 -0.703,1.7 0,1.8 3.317,4.1 1.978,1.4 3.999,3.9 2.044,2.4 2.044,5.7 0,3.8 -2.659,6.3 -2.659,2.5 -6.745,2.5 -2.791,0 -5.537,-1.3 z" />
<path class="a" d="m 31.898,29.547 5.383,0 q -1.538,6.8 -7.69,6.8 -3.845,0 -6.087,-2.9 -2.241,-2.9 -2.241,-8 0,-4.8 2.241,-7.7 2.242,-2.9 5.955,-2.9 2.241,0 4.307,1.4 2.065,1.4 3.01,3.7 0.945,2.3 1.055,7.3 l -10.657,0 q 0.132,4.5 2.505,4.5 0.813,0 1.45,-0.6 0.637,-0.6 0.769,-1.6 z m -4.636,-5.8 4.636,0 q -0.07,-2.1 -0.593,-3.2 -0.528,-1 -1.67,-1 -1.275,0 -1.824,1 -0.549,1 -0.549,3.2 z" />
<path class="a" d="m 52.53,29.547 0,5.3 q -2.28,1.5 -4.59,1.5 -3.41,0 -5.47,-2.9 -2.05,-3 -2.05,-8 0,-4.7 2.11,-7.6 2.11,-3 5.45,-3 2.33,0 4.59,1.6 l 0,5.3 q -1.29,-0.7 -2.32,-0.7 -1.54,0 -2.49,1.2 -0.94,1.3 -0.94,3.3 0,2.2 0.92,3.5 0.92,1.2 2.51,1.2 0.96,0 2.28,-0.7 z" />
<path class="a" d="m 56.18,15.547 6.39,0 0,13 q 0,1 0.46,1.7 0.49,0.6 1.3,0.6 1.85,0 1.85,-2.7 l 0,-12.6 6.39,0 0,11.7 q 0,4.5 -2.09,6.8 -2.08,2.4 -6.02,2.4 -4.39,0 -6.35,-2.4 -1.93,-2.4 -1.93,-6.1 l 0,-12.4 z" />
<path class="a" d="m 83.45,15.547 0,3.4 0.1,0 q 2.28,-4 4.81,-4 0.37,0 1.03,0.2 l 0,6.2 q -1.16,-0.2 -2.15,-0.2 -3.52,0 -3.52,4.6 l 0,10 -6.37,0 0,-20.2 6.11,0 z" />
<path class="a" d="m 92.81,9.445 q 0,-1.4 0.99,-2.4 0.98,-1 2.37,-1 1.4,0 2.39,1 0.99,1 0.99,2.4 0,1.402 -0.99,2.402 -0.99,1 -2.39,1 -1.36,0 -2.37,-1 -0.99,-1 -0.99,-2.402 z m 0.17,6.102 6.4,0 0,20.2 -6.4,0 0,-20.2 z" />
<path class="a" d="m 105.2,10.145 6.39,0 0,5.402 2.49,0 0,5.3 -2.53,0 0,14.9 -6.35,0 0,-14.9 -2.42,0 0,-5.3 2.42,0 0,-5.402 z" />
<path class="a" d="m 115.33,15.547 6.31,0 1.6,5.2 q 0.84,2.8 1.45,5.5 l 0.11,0 q 0.51,-2.6 0.84,-3.7 l 2.13,-7 6.39,0 -8.61,28.5 -6.37,0 2.59,-8.6 -6.44,-19.9 z" />
<path class="a" d="m 158.15,35.747 0,-2.7 -0.1,0 q -1.17,1.8 -2.27,2.6 -1.07,0.8 -2.55,0.8 -2.87,0 -4.59,-3 -1.71,-2.9 -1.71,-8 0,-4.8 1.73,-7.7 1.74,-2.9 4.57,-2.9 1.52,0 2.58,0.8 1.05,0.7 2.19,2.4 l 0.1,0 0,-2.5 6.39,0 0,20.2 -6.35,0 z m 0,-10.2 q 0,-5 -2.46,-5 -2.48,0 -2.48,5 0,5.2 2.57,5.2 2.37,0 2.37,-5.2 z" />
<path class="a" d="m 175.47,15.547 0,3.4 0.1,0 q 2.28,-4 4.81,-4 0.37,0 1.03,0.2 l 0,6.2 q -1.16,-0.2 -2.15,-0.2 -3.52,0 -3.52,4.6 l 0,10 -6.37,0 0,-20.2 6.11,0 z" />
<path class="a" d="m 186.85,10.145 6.4,0 0,5.402 2.48,0 0,5.3 -2.53,0 0,14.9 -6.35,0 0,-14.9 -2.42,0 0,-5.3 2.42,0 0,-5.402 z" />
<path class="a" d="m 198.98,9.445 q 0,-1.4 0.99,-2.4 0.99,-1 2.37,-1 1.41,0 2.4,1 0.99,1 0.99,2.4 0,1.402 -0.99,2.402 -0.99,1 -2.4,1 -1.36,0 -2.37,-1 -0.99,-1 -0.99,-2.402 z m 0.18,6.102 6.39,0 0,20.2 -6.39,0 0,-20.2 z" />
<path class="a" d="m 221.55,29.547 0,5.3 q -2.29,1.5 -4.6,1.5 -3.4,0 -5.47,-2.9 -2.04,-3 -2.04,-8 0,-4.7 2.11,-7.6 2.11,-3 5.45,-3 2.33,0 4.59,1.6 l 0,5.3 q -1.3,-0.7 -2.33,-0.7 -1.54,0 -2.48,1.2 -0.95,1.3 -0.95,3.3 0,2.2 0.93,3.5 0.92,1.2 2.5,1.2 0.97,0 2.29,-0.7 z" />
<path class="a" d="m 225.52,4.745 6.4,0 0,31.002 -6.4,0 0,-31.002 z" />
<path class="a" d="m 246.44,29.547 5.38,0 q -1.53,6.8 -7.69,6.8 -3.84,0 -6.08,-2.9 -2.24,-2.9 -2.24,-8 0,-4.8 2.24,-7.7 2.24,-2.9 5.95,-2.9 2.24,0 4.31,1.4 2.06,1.4 3.01,3.7 0.94,2.3 1.05,7.3 l -10.65,0 q 0.13,4.5 2.5,4.5 0.81,0 1.45,-0.6 0.64,-0.6 0.77,-1.6 z m -4.64,-5.8 4.64,0 q -0.1,-2.1 -0.59,-3.2 -0.53,-1 -1.67,-1 -1.28,0 -1.83,1 -0.55,1 -0.55,3.2 z" />
<path class="a" d="m 256.86,29.247 q 3.27,1.9 4.72,1.9 0.79,0 1.32,-0.4 0.53,-0.4 0.53,-1 0,-0.6 -0.44,-0.9 -0.44,-0.3 -3.3,-1.5 -2.28,-1 -3.3,-2.4 -1.01,-1.4 -1.01,-3.4 0,-2.9 2,-4.8 2.02,-1.9 5.14,-1.9 3.04,0 7.43,2.4 l -2.46,4.6 q -2.86,-1.8 -4.68,-1.8 -1.58,0 -1.58,1.3 0,0.6 0.57,1 0.59,0.5 2.13,1 2.88,1 4.18,2.5 1.31,1.4 1.31,3.5 0,3.1 -2.06,5.1 -2.07,1.9 -5.27,1.9 -3.48,0 -7.43,-2.4 l 2.2,-4.7 z" />
</g>

<g id="privacy" transform="translate(408 0)">
<path class="a" d="m 3.0126,6.4552 8.2394,0 q 4.351,0 6.987,2.5 2.637,2.4018 2.637,6.5018 0,4.3 -2.681,6.7 -2.658,2.4 -7.382,2.4 l -1.1424,0 0,11.2 -6.658,0 0,-29.3018 z m 6.658,5.6018 0,6.9 q 2.2404,0 3.2954,-0.8 1.077,-0.9 1.077,-2.6 0,-1.9 -1.033,-2.7 -1.033,-0.8 -3.3394,-0.8 z" />
<path class="a" d="m 31.357,15.557 0,3.4 0.09,0 q 2.285,-4 4.812,-4 0.373,0 1.033,0.2 l 0,6.2 q -1.165,-0.2 -2.154,-0.2 -3.515,0 -3.515,4.6 l 0,10 -6.372,0 0,-20.2 6.108,0 z" />
<path class="a" d="m 40.717,9.4555 q 0,-1.4003 0.989,-2.4003 0.989,-1 2.373,-1 1.406,0 2.395,1 0.989,1 0.989,2.4003 0,1.4015 -0.989,2.4015 -0.989,1 -2.395,1 -1.362,0 -2.373,-1 -0.989,-1 -0.989,-2.4015 z m 0.176,6.1015 6.394,0 0,20.2 -6.394,0 0,-20.2 z" />
<path class="a" d="m 50.385,15.557 6.241,0 2.526,10.9 0.09,0 2.527,-10.9 6.328,0 -6.284,20.2 -5.185,0 -6.241,-20.2 z" />
<path class="a" d="m 80.752,35.757 0,-2.7 -0.1,0 q -1.16,1.8 -2.26,2.6 -1.08,0.8 -2.552,0.8 -2.879,0 -4.593,-3 -1.714,-2.9 -1.714,-8 0,-4.8 1.736,-7.7 1.736,-2.9 4.571,-2.9 1.512,0 2.572,0.8 1.05,0.7 2.2,2.4 l 0.1,0 0,-2.5 6.39,0 0,20.2 -6.35,0 z m 0,-10.2 q 0,-5 -2.46,-5 -2.484,0 -2.484,5 0,5.2 2.574,5.2 2.37,0 2.37,-5.2 z" />
<path class="a" d="m 102.93,29.557 0,5.3 q -2.29,1.5 -4.598,1.5 -3.41,0 -5.47,-2.9 -2.05,-3 -2.05,-8 0,-4.7 2.11,-7.6 2.11,-3 5.45,-3 2.338,0 4.598,1.6 l 0,5.3 q -1.29,-0.7 -2.33,-0.7 -1.538,0 -2.488,1.2 -0.94,1.3 -0.94,3.3 0,2.2 0.92,3.5 0.92,1.2 2.508,1.2 0.97,0 2.29,-0.7 z" />
<path class="a" d="m 104.73,15.557 6.31,0 1.6,5.2 q 0.83,2.8 1.45,5.5 l 0.11,0 q 0.51,-2.6 0.83,-3.7 l 2.14,-7 6.39,0 -8.61,28.5 -6.38,0 2.6,-8.6 -6.44,-19.9 z" />
</g>

<g id="privacy-articles" transform="translate(534 0)">
<path class="a" d="m 2.112,6.5055 8.238,0 q 4.35,0 6.987,2.5 2.636,2.3985 2.636,6.4985 0,4.3 -2.68,6.7 -2.659,2.4 -7.3815,2.4 l -1.1415,0 0,11.2 -6.658,0 0,-29.2985 z m 6.658,5.5985 0,6.9 q 2.24,0 3.293,-0.8 1.077,-0.9 1.077,-2.6 0,-1.9 -1.033,-2.7 -1.031,-0.8 -3.337,-0.8 z" />
<path class="a" d="m 30.454,15.604 0,3.4 0.09,0 q 2.285,-4 4.812,-4 0.374,0 1.033,0.2 l 0,6.2 q -1.165,-0.2 -2.153,-0.2 -3.516,0 -3.516,4.6 l 0,10 -6.372,0 0,-20.2 6.108,0 z" />
<path class="a" d="m 39.815,9.505 q 0,-1.3995 0.989,-2.3995 0.988,-1 2.374,-1 1.41,0 2.39,1 0.99,1 0.99,2.3995 0,1.399 -0.99,2.399 -0.98,1 -2.39,1 -1.364,0 -2.374,-1 -0.989,-1 -0.989,-2.399 z m 0.176,6.099 6.397,0 0,20.2 -6.397,0 0,-20.2 z" />
<path class="a" d="m 49.488,15.604 6.24,0 2.52,10.9 0.1,0 2.53,-10.9 6.33,0 -6.29,20.2 -5.18,0 -6.24,-20.2 z" />
<path class="a" d="m 79.848,35.804 0,-2.7 -0.1,0 q -1.16,1.8 -2.26,2.6 -1.08,0.8 -2.55,0.8 -2.88,0 -4.59,-3 -1.72,-2.9 -1.72,-8 0,-4.8 1.74,-7.7 1.74,-2.9 4.57,-2.9 1.52,0 2.57,0.8 1.06,0.7 2.2,2.4 l 0.1,0 0,-2.5 6.39,0 0,20.2 -6.35,0 z m 0,-10.2 q 0,-5 -2.46,-5 -2.48,0 -2.48,5 0,5.2 2.57,5.2 2.37,0 2.37,-5.2 z" />
<path class="a" d="m 102.03,29.604 0,5.3 q -2.286,1.5 -4.602,1.5 -3.41,0 -5.47,-2.9 -2.05,-3 -2.05,-8 0,-4.7 2.11,-7.6 2.11,-3 5.45,-3 2.339,0 4.602,1.6 l 0,5.3 q -1.29,-0.7 -2.326,-0.7 -1.546,0 -2.496,1.2 -0.94,1.3 -0.94,3.3 0,2.2 0.92,3.5 0.92,1.2 2.516,1.2 0.966,0 2.286,-0.7 z" />
<path class="a" d="m 103.83,15.604 6.31,0 1.6,5.2 q 0.84,2.8 1.45,5.5 l 0.11,0 q 0.51,-2.6 0.84,-3.7 l 2.13,-7 6.39,0 -8.61,28.5 -6.37,0 2.59,-8.6 -6.44,-19.9 z" />
<path class="a" d="m 146.66,35.804 0,-2.7 -0.1,0 q -1.17,1.8 -2.26,2.6 -1.08,0.8 -2.55,0.8 -2.88,0 -4.6,-3 -1.71,-2.9 -1.71,-8 0,-4.8 1.74,-7.7 1.73,-2.9 4.57,-2.9 1.51,0 2.57,0.8 1.05,0.7 2.19,2.4 l 0.1,0 0,-2.5 6.4,0 0,20.2 -6.35,0 z m 0,-10.2 q 0,-5 -2.46,-5 -2.49,0 -2.49,5 0,5.2 2.57,5.2 2.38,0 2.38,-5.2 z" />
<path class="a" d="m 163.97,15.604 0,3.4 0.1,0 q 2.28,-4 4.81,-4 0.37,0 1.03,0.2 l 0,6.2 q -1.16,-0.2 -2.15,-0.2 -3.52,0 -3.52,4.6 l 0,10 -6.37,0 0,-20.2 6.11,0 z" />
<path class="a" d="m 175.35,10.204 6.4,0 0,5.4 2.48,0 0,5.3 -2.53,0 0,14.9 -6.35,0 0,-14.9 -2.41,0 0,-5.3 2.41,0 0,-5.4 z" />
<path class="a" d="m 187.48,9.505 q 0,-1.3995 0.99,-2.3995 0.99,-1 2.37,-1 1.41,0 2.4,1 0.99,1 0.99,2.3995 0,1.399 -0.99,2.399 -0.99,1 -2.4,1 -1.36,0 -2.37,-1 -0.99,-1 -0.99,-2.399 z m 0.18,6.099 6.39,0 0,20.2 -6.39,0 0,-20.2 z" />
<path class="a" d="m 210.05,29.604 0,5.3 q -2.29,1.5 -4.59,1.5 -3.41,0 -5.48,-2.9 -2.04,-3 -2.04,-8 0,-4.7 2.11,-7.6 2.11,-3 5.45,-3 2.33,0 4.59,1.6 l 0,5.3 q -1.29,-0.7 -2.33,-0.7 -1.54,0 -2.48,1.2 -0.94,1.3 -0.94,3.3 0,2.2 0.92,3.5 0.92,1.2 2.5,1.2 0.97,0 2.29,-0.7 z" />
<path class="a" d="m 214.02,4.8055 6.4,0 0,30.9985 -6.4,0 0,-30.9985 z" />
<path class="a" d="m 234.94,29.604 5.39,0 q -1.54,6.8 -7.69,6.8 -3.85,0 -6.09,-2.9 -2.24,-2.9 -2.24,-8 0,-4.8 2.24,-7.7 2.24,-2.9 5.95,-2.9 2.25,0 4.31,1.4 2.07,1.4 3.01,3.7 0.95,2.3 1.06,7.3 l -10.66,0 q 0.13,4.5 2.5,4.5 0.82,0 1.45,-0.6 0.64,-0.6 0.77,-1.6 z m -4.63,-5.8 4.63,0 q -0.1,-2.1 -0.59,-3.2 -0.53,-1 -1.67,-1 -1.27,0 -1.82,1 -0.55,1 -0.55,3.2 z" />
<path class="a" d="m 245.36,29.304 q 3.27,1.9 4.72,1.9 0.79,0 1.32,-0.4 0.53,-0.4 0.53,-1 0,-0.6 -0.44,-0.9 -0.44,-0.3 -3.3,-1.5 -2.28,-1 -3.29,-2.4 -1.01,-1.4 -1.01,-3.4 0,-2.9 2,-4.8 2.02,-1.9 5.14,-1.9 3.03,0 7.42,2.4 l -2.46,4.6 q -2.85,-1.8 -4.68,-1.8 -1.58,0 -1.58,1.3 0,0.6 0.57,1 0.6,0.5 2.13,1 2.88,1 4.18,2.5 1.32,1.4 1.32,3.5 0,3.1 -2.07,5.1 -2.06,1.9 -5.27,1.9 -3.47,0 -7.43,-2.4 l 2.2,-4.7 z" />
</g>

<g id="hardware" transform="translate(794 0)">
<path class="a" d="m 2.5118,6.5644 6.658,0 0,10.7996 5.9112,0 0,-10.7996 6.658,0 0,29.2996 -6.658,0 0,-12.2 -5.9112,0 0,12.2 -6.658,0 0,-29.2996 z" />
<path class="a" d="m 37.361,35.864 0,-2.7 -0.09,0 q -1.165,1.8 -2.264,2.6 -1.076,0.8 -2.548,0.8 -2.879,0 -4.593,-3 -1.714,-2.9 -1.714,-8 0,-4.8 1.736,-7.7 1.736,-2.9 4.571,-2.9 1.516,0 2.57,0.8 1.055,0.7 2.198,2.4 l 0.09,0 0,-2.5 6.394,0 0,20.2 -6.351,0 z m 0,-10.2 q 0,-5 -2.46,-5 -2.483,0 -2.483,5 0,5.2 2.57,5.2 2.373,0 2.373,-5.2 z" />
<path class="a" d="m 54.676,15.664 0,3.4 0.09,0 q 2.285,-4 4.812,-4 0.373,0 1.033,0.2 l 0,6.2 q -1.165,-0.2 -2.154,-0.2 -3.515,0 -3.515,4.6 l 0,10 -6.372,0 0,-20.2 6.108,0 z" />
<path class="a" d="m 74.097,4.8644 6.35,0 0,30.9996 -6.39,0 0,-2.7 -0.1,0 q -2.13,3.4 -4.81,3.4 -2.82,0 -4.55,-3 -1.71,-2.9 -1.71,-7.8 0,-4.9 1.75,-7.8 1.76,-3 4.64,-3 2.61,0 4.81,3 l 0,-13.0996 z m 0,20.6996 q 0,-4.9 -2.41,-4.9 -2.49,0 -2.49,5.3 0,2.3 0.66,3.6 0.68,1.3 1.87,1.3 1.1,0 1.74,-1.4 0.63,-1.4 0.63,-3.9 z" />
<path class="a" d="m 83.267,15.664 6.3,0 q 2.2,9.6 2.48,11.3 l 0.1,0 2.16,-11.3 5.4,0 2.163,11.2 0.1,0 q 0.53,-2.6 0.73,-3.5 l 1.84,-7.7 6.31,0 -6.26,20.2 -4.813,0 q -2.46,-9 -2.75,-10.9 l -0.1,0 q -0.2,1.5 -2.66,10.9 l -4.77,0 -6.21,-20.2 z" />
<path class="a" d="m 123.68,35.864 0,-2.7 -0.1,0 q -1.17,1.8 -2.27,2.6 -1.07,0.8 -2.54,0.8 -2.88,0 -4.6,-3 -1.71,-2.9 -1.71,-8 0,-4.8 1.73,-7.7 1.74,-2.9 4.58,-2.9 1.51,0 2.57,0.8 1.05,0.7 2.19,2.4 l 0.1,0 0,-2.5 6.4,0 0,20.2 -6.35,0 z m 0,-10.2 q 0,-5 -2.47,-5 -2.48,0 -2.48,5 0,5.2 2.57,5.2 2.38,0 2.38,-5.2 z" />
<path class="a" d="m 140.99,15.664 0,3.4 0.1,0 q 2.28,-4 4.81,-4 0.37,0 1.03,0.2 l 0,6.2 q -1.16,-0.2 -2.15,-0.2 -3.52,0 -3.52,4.6 l 0,10 -6.37,0 0,-20.2 6.11,0 z" />
<path class="a" d="m 159.84,29.664 5.39,0 q -1.54,6.8 -7.7,6.8 -3.84,0 -6.08,-2.9 -2.24,-2.9 -2.24,-8 0,-4.8 2.24,-7.7 2.24,-2.9 5.95,-2.9 2.24,0 4.31,1.4 2.07,1.4 3.01,3.7 0.94,2.3 1.05,7.3 l -10.65,0 q 0.13,4.5 2.5,4.5 0.82,0 1.45,-0.6 0.64,-0.6 0.77,-1.6 z m -4.63,-5.8 4.63,0 q -0.1,-2.1 -0.59,-3.2 -0.53,-1 -1.67,-1 -1.28,0 -1.82,1 -0.55,1 -0.55,3.2 z" />
</g>

<g id="hardware-articles" transform="translate(962 0)">
<path class="a" d="m 2.3671,6.5642 6.658,0 0,10.7998 5.9099,0 0,-10.7998 6.658,0 0,29.2998 -6.658,0 0,-12.2 -5.9099,0 0,12.2 -6.658,0 0,-29.2998 z" />
<path class="a" d="m 37.217,35.864 0,-2.7 -0.1,0 q -1.17,1.8 -2.26,2.6 -1.08,0.8 -2.55,0.8 -2.88,0 -4.6,-3 -1.71,-2.9 -1.71,-8 0,-4.8 1.74,-7.7 1.73,-2.9 4.57,-2.9 1.51,0 2.57,0.8 1.05,0.7 2.19,2.4 l 0.1,0 0,-2.5 6.4,0 0,20.2 -6.35,0 z m 0,-10.2 q 0,-5 -2.46,-5 -2.49,0 -2.49,5 0,5.2 2.58,5.2 2.37,0 2.37,-5.2 z" />
<path class="a" d="m 54.527,15.664 0,3.4 0.1,0 q 2.29,-4 4.82,-4 0.37,0 1.03,0.2 l 0,6.2 q -1.17,-0.2 -2.16,-0.2 -3.51,0 -3.51,4.6 l 0,10 -6.37,0 0,-20.2 6.11,0 z" />
<path class="a" d="m 73.957,4.8642 6.35,0 0,30.9998 -6.4,0 0,-2.7 -0.1,0 q -2.13,3.4 -4.81,3.4 -2.81,0 -4.55,-3 -1.71,-2.9 -1.71,-7.8 0,-4.9 1.76,-7.8 1.75,-3 4.63,-3 2.62,0 4.82,3 l 0,-13.0998 z m 0,20.6998 q 0,-4.9 -2.42,-4.9 -2.48,0 -2.48,5.3 0,2.3 0.66,3.6 0.68,1.3 1.86,1.3 1.1,0 1.74,-1.4 0.64,-1.4 0.64,-3.9 z" />
<path class="a" d="m 83.117,15.664 6.31,0 q 2.19,9.6 2.48,11.3 l 0.1,0 2.15,-11.3 5.41,0 2.153,11.2 0.1,0 q 0.52,-2.6 0.72,-3.5 l 1.85,-7.7 6.3,0 -6.26,20.2 -4.813,0 q -2.46,-9 -2.75,-10.9 l -0.1,0 q -0.19,1.5 -2.65,10.9 l -4.77,0 -6.22,-20.2 z" />
<path class="a" d="m 123.53,35.864 0,-2.7 -0.1,0 q -1.16,1.8 -2.26,2.6 -1.08,0.8 -2.55,0.8 -2.88,0 -4.59,-3 -1.72,-2.9 -1.72,-8 0,-4.8 1.74,-7.7 1.73,-2.9 4.57,-2.9 1.51,0 2.57,0.8 1.05,0.7 2.2,2.4 l 0.1,0 0,-2.5 6.4,0 0,20.2 -6.35,0 z m 0,-10.2 q 0,-5 -2.46,-5 -2.49,0 -2.49,5 0,5.2 2.57,5.2 2.38,0 2.38,-5.2 z" />
<path class="a" d="m 140.84,15.664 0,3.4 0.1,0 q 2.29,-4 4.81,-4 0.38,0 1.03,0.2 l 0,6.2 q -1.16,-0.2 -2.15,-0.2 -3.51,0 -3.51,4.6 l 0,10 -6.38,0 0,-20.2 6.11,0 z" />
<path class="a" d="m 159.69,29.664 5.39,0 q -1.54,6.8 -7.69,6.8 -3.85,0 -6.09,-2.9 -2.24,-2.9 -2.24,-8 0,-4.8 2.24,-7.7 2.24,-2.9 5.96,-2.9 2.24,0 4.3,1.4 2.07,1.4 3.01,3.7 0.95,2.3 1.06,7.3 l -10.66,0 q 0.13,4.5 2.51,4.5 0.81,0 1.45,-0.6 0.63,-0.6 0.76,-1.6 z m -4.63,-5.8 4.63,0 q -0.1,-2.1 -0.59,-3.2 -0.53,-1 -1.67,-1 -1.27,0 -1.82,1 -0.55,1 -0.55,3.2 z" />
<path class="a" d="m 190.5,35.864 0,-2.7 -0.1,0 q -1.16,1.8 -2.26,2.6 -1.08,0.8 -2.55,0.8 -2.88,0 -4.59,-3 -1.72,-2.9 -1.72,-8 0,-4.8 1.74,-7.7 1.74,-2.9 4.57,-2.9 1.52,0 2.57,0.8 1.06,0.7 2.2,2.4 l 0.1,0 0,-2.5 6.39,0 0,20.2 -6.35,0 z m 0,-10.2 q 0,-5 -2.46,-5 -2.48,0 -2.48,5 0,5.2 2.57,5.2 2.37,0 2.37,-5.2 z" />
<path class="a" d="m 207.82,15.664 0,3.4 0.1,0 q 2.29,-4 4.81,-4 0.38,0 1.04,0.2 l 0,6.2 q -1.17,-0.2 -2.16,-0.2 -3.51,0 -3.51,4.6 l 0,10 -6.37,0 0,-20.2 6.11,0 z" />
<path class="a" d="m 219.2,10.264 6.39,0 0,5.4 2.48,0 0,5.3 -2.52,0 0,14.9 -6.35,0 0,-14.9 -2.42,0 0,-5.3 2.42,0 0,-5.4 z" />
<path class="a" d="m 231.33,9.5642 q 0,-1.4 0.98,-2.4 0.99,-1 2.38,-1 1.4,0 2.39,1 0.99,1 0.99,2.4 0,1.3998 -0.99,2.3998 -0.99,1 -2.39,1 -1.36,0 -2.38,-1 -0.98,-1 -0.98,-2.3998 z m 0.17,6.0998 6.4,0 0,20.2 -6.4,0 0,-20.2 z" />
<path class="a" d="m 253.89,29.664 0,5.3 q -2.28,1.5 -4.59,1.5 -3.41,0 -5.47,-2.9 -2.05,-3 -2.05,-8 0,-4.7 2.11,-7.6 2.11,-3 5.45,-3 2.33,0 4.6,1.6 l 0,5.3 q -1.3,-0.7 -2.33,-0.7 -1.54,0 -2.49,1.2 -0.94,1.3 -0.94,3.3 0,2.2 0.92,3.5 0.92,1.2 2.51,1.2 0.96,0 2.28,-0.7 z" />
<path class="a" d="m 257.87,4.8642 6.39,0 0,30.9998 -6.39,0 0,-30.9998 z" />
<path class="a" d="m 278.79,29.664 5.38,0 q -1.54,6.8 -7.69,6.8 -3.85,0 -6.09,-2.9 -2.24,-2.9 -2.24,-8 0,-4.8 2.24,-7.7 2.24,-2.9 5.96,-2.9 2.24,0 4.3,1.4 2.07,1.4 3.01,3.7 0.95,2.3 1.06,7.3 l -10.66,0 q 0.13,4.5 2.51,4.5 0.81,0 1.45,-0.6 0.63,-0.6 0.77,-1.6 z m -4.64,-5.8 4.64,0 q -0.1,-2.1 -0.6,-3.2 -0.52,-1 -1.67,-1 -1.27,0 -1.82,1 -0.55,1 -0.55,3.2 z" />
<path class="a" d="m 289.2,29.364 q 3.28,1.9 4.73,1.9 0.79,0 1.31,-0.4 0.53,-0.4 0.53,-1 0,-0.6 -0.44,-0.9 -0.44,-0.3 -3.29,-1.5 -2.29,-1 -3.3,-2.4 -1.01,-1.4 -1.01,-3.4 0,-2.9 2,-4.8 2.02,-1.9 5.14,-1.9 3.03,0 7.43,2.4 l -2.46,4.6 q -2.86,-1.8 -4.68,-1.8 -1.59,0 -1.59,1.3 0,0.6 0.58,1 0.59,0.5 2.13,1 2.88,1 4.17,2.5 1.32,1.4 1.32,3.5 0,3.1 -2.07,5.1 -2.06,1.9 -5.27,1.9 -3.47,0 -7.43,-2.4 l 2.2,-4.7 z" />
</g>

<g id="software" transform="translate(1266 0)">
<path class="a" d="m 3.859,35.314 0,-6.9 q 3.164,1.9 5.317,1.9 1.252,0 1.977,-0.7 0.725,-0.7 0.725,-1.9 0,-0.8 -0.593,-1.6 -0.571,-0.8 -1.999,-1.9 -3.45,-2.6 -5.01,-4.9 -1.538,-2.3 -1.538,-5.1 0,-3.8 2.395,-6.0996 2.395,-2.4 6.196,-2.4 2.813,0 5.581,1.2 l 0,6.4996 q -2.966,-1.6 -4.812,-1.6 -1.23,0 -1.955,0.6 -0.703,0.6 -0.703,1.7 0,1.8 3.317,4.1 1.978,1.4 3.999,3.9 2.044,2.4 2.044,5.7 0,3.8 -2.659,6.3 -2.659,2.5 -6.745,2.5 -2.791,0 -5.537,-1.3 z" />
<path class="a" d="m 30.445,14.914 q 4.373,0 6.658,2.9 2.285,2.9 2.285,8.1 0,5.1 -2.373,7.9 -2.373,2.7 -6.57,2.7 -4.021,0 -6.394,-2.8 -2.351,-2.8 -2.351,-7.8 0,-5.2 2.241,-8.1 2.264,-2.9 6.504,-2.9 z m 0.04,15.9 q 1.253,0 1.868,-1.1 0.637,-1.2 0.637,-4 0,-2.8 -0.615,-3.9 -0.615,-1.2 -1.846,-1.2 -1.208,0 -1.846,1.1 -0.637,1.1 -0.637,4 0,5.1 2.439,5.1 z" />
<path class="a" d="m 43.673,15.614 0,-4.7 q 0,-2.7996 1.824,-4.3996 1.845,-1.7 5.119,-1.7 l 2.549,0 0,6.3996 -1.604,0 q -0.681,0 -1.121,0.5 -0.417,0.4 -0.417,1.3 l 0,2.6 3.142,0 0,5.3 -3.142,0 0,14.9 -6.35,0 0,-14.9 -2.241,0 0,-5.3 2.241,0 z" />
<path class="a" d="m 58.59,10.214 6.4,0 0,5.4 2.48,0 0,5.3 -2.53,0 0,14.9 -6.35,0 0,-14.9 -2.41,0 0,-5.3 2.41,0 0,-5.4 z" />
<path class="a" d="m 70.68,15.614 6.3,0 q 2.2,9.6 2.49,11.3 l 0.1,0 2.15,-11.3 5.41,0 2.15,11.2 0.1,0 q 0.53,-2.6 0.72,-3.5 l 1.85,-7.7 6.31,0 -6.27,20.2 -4.81,0 q -2.46,-9 -2.74,-10.9 l -0.1,0 q -0.2,1.5 -2.66,10.9 l -4.77,0 -6.22,-20.2 z" />
<path class="a" d="m 111.08,35.814 0,-2.7 -0.1,0 q -1.17,1.8 -2.27,2.6 -1.07,0.8 -2.55,0.8 -2.87,0 -4.59,-3 -1.709,-2.9 -1.709,-8 0,-4.8 1.729,-7.7 1.74,-2.9 4.57,-2.9 1.52,0 2.57,0.8 1.06,0.7 2.2,2.4 l 0.1,0 0,-2.5 6.39,0 0,20.2 -6.35,0 z m 0,-10.2 q 0,-5 -2.46,-5 -2.48,0 -2.48,5 0,5.2 2.57,5.2 2.37,0 2.37,-5.2 z" />
<path class="a" d="m 128.4,15.614 0,3.4 0.1,0 q 2.28,-4 4.81,-4 0.37,0 1.03,0.2 l 0,6.2 q -1.16,-0.2 -2.15,-0.2 -3.52,0 -3.52,4.6 l 0,10 -6.37,0 0,-20.2 6.11,0 z" />
<path class="a" d="m 147.25,29.614 5.38,0 q -1.53,6.8 -7.69,6.8 -3.84,0 -6.08,-2.9 -2.24,-2.9 -2.24,-8 0,-4.8 2.24,-7.7 2.24,-2.9 5.95,-2.9 2.24,0 4.31,1.4 2.06,1.4 3.01,3.7 0.94,2.3 1.05,7.3 l -10.65,0 q 0.13,4.5 2.5,4.5 0.81,0 1.45,-0.6 0.64,-0.6 0.77,-1.6 z m -4.64,-5.8 4.64,0 q -0.1,-2.1 -0.59,-3.2 -0.53,-1 -1.67,-1 -1.28,0 -1.83,1 -0.55,1 -0.55,3.2 z" />
</g>

<g id="software-articles" transform="translate(1422 0)">
<path class="a" d="m 3.607,35.348 0,-6.9 q 3.164,1.9 5.318,1.9 1.252,0 1.977,-0.7 0.725,-0.7 0.725,-1.9 0,-0.8 -0.593,-1.6 -0.571,-0.8 -1.999,-1.9 -3.45,-2.6 -5.01,-4.9 -1.538,-2.3 -1.538,-5.1 0,-3.8 2.395,-6.1006 2.395,-2.4 6.196,-2.4 2.812,0 5.582,1.2 l 0,6.5006 q -2.967,-1.6 -4.813,-1.6 -1.23,0 -1.9553,0.6 -0.7037,0.6 -0.7037,1.7 0,1.8 3.318,4.1 1.974,1.4 3.994,3.9 2.05,2.4 2.05,5.7 0,3.8 -2.66,6.3 -2.659,2.5 -6.745,2.5 -2.791,0 -5.538,-1.3 z" />
<path class="a" d="m 30.19,14.948 q 4.38,0 6.66,2.9 2.29,2.9 2.29,8.1 0,5.1 -2.38,7.9 -2.37,2.7 -6.57,2.7 -4.02,0 -6.39,-2.8 -2.35,-2.8 -2.35,-7.8 0,-5.2 2.24,-8.1 2.26,-2.9 6.5,-2.9 z m 0,15.9 q 1.26,0 1.87,-1.1 0.64,-1.2 0.64,-4 0,-2.8 -0.62,-3.9 -0.61,-1.2 -1.84,-1.2 -1.21,0 -1.85,1.1 -0.64,1.1 -0.64,4 0,5.1 2.44,5.1 z" />
<path class="a" d="m 43.42,15.648 0,-4.7 q 0,-2.8006 1.82,-4.4006 1.85,-1.7 5.12,-1.7 l 2.55,0 0,6.4006 -1.6,0 q -0.68,0 -1.12,0.5 -0.42,0.4 -0.42,1.3 l 0,2.6 3.14,0 0,5.3 -3.14,0 0,14.9 -6.35,0 0,-14.9 -2.24,0 0,-5.3 2.24,0 z" />
<path class="a" d="m 58.34,10.248 6.4,0 0,5.4 2.48,0 0,5.3 -2.53,0 0,14.9 -6.35,0 0,-14.9 -2.42,0 0,-5.3 2.42,0 0,-5.4 z" />
<path class="a" d="m 70.43,15.648 6.3,0 q 2.2,9.6 2.49,11.3 l 0.1,0 2.15,-11.3 5.4,0 2.16,11.2 0.1,0 q 0.52,-2.6 0.72,-3.5 l 1.85,-7.7 6.3,0 -6.26,20.2 -4.81,0 q -2.46,-9 -2.75,-10.9 l -0.1,0 q -0.19,1.5 -2.66,10.9 l -4.76,0 -6.22,-20.2 z" />
<path class="a" d="m 110.84,35.848 0,-2.7 -0.1,0 q -1.17,1.8 -2.26,2.6 -1.08,0.8 -2.55,0.8 -2.88,0 -4.6,-3 -1.71,-2.9 -1.71,-8 0,-4.8 1.74,-7.7 1.73,-2.9 4.57,-2.9 1.51,0 2.57,0.8 1.05,0.7 2.19,2.4 l 0.1,0 0,-2.5 6.4,0 0,20.2 -6.35,0 z m 0,-10.2 q 0,-5 -2.46,-5 -2.49,0 -2.49,5 0,5.2 2.57,5.2 2.38,0 2.38,-5.2 z" />
<path class="a" d="m 128.15,15.648 0,3.4 0.1,0 q 2.28,-4 4.81,-4 0.37,0 1.03,0.2 l 0,6.2 q -1.16,-0.2 -2.15,-0.2 -3.52,0 -3.52,4.6 l 0,10 -6.37,0 0,-20.2 6.11,0 z" />
<path class="a" d="m 147,29.648 5.39,0 q -1.54,6.8 -7.69,6.8 -3.85,0 -6.09,-2.9 -2.24,-2.9 -2.24,-8 0,-4.8 2.24,-7.7 2.24,-2.9 5.95,-2.9 2.25,0 4.31,1.4 2.07,1.4 3.01,3.7 0.95,2.3 1.06,7.3 l -10.66,0 q 0.13,4.5 2.5,4.5 0.82,0 1.45,-0.6 0.64,-0.6 0.77,-1.6 z m -4.63,-5.8 4.63,0 q -0.1,-2.1 -0.59,-3.2 -0.53,-1 -1.67,-1 -1.27,0 -1.82,1 -0.55,1 -0.55,3.2 z" />
<path class="a" d="m 177.81,35.848 0,-2.7 -0.1,0 q -1.16,1.8 -2.26,2.6 -1.08,0.8 -2.55,0.8 -2.88,0 -4.59,-3 -1.72,-2.9 -1.72,-8 0,-4.8 1.74,-7.7 1.74,-2.9 4.57,-2.9 1.52,0 2.57,0.8 1.06,0.7 2.2,2.4 l 0.1,0 0,-2.5 6.39,0 0,20.2 -6.35,0 z m 0,-10.2 q 0,-5 -2.46,-5 -2.48,0 -2.48,5 0,5.2 2.57,5.2 2.37,0 2.37,-5.2 z" />
<path class="a" d="m 195.12,15.648 0,3.4 0.1,0 q 2.29,-4 4.81,-4 0.38,0 1.04,0.2 l 0,6.2 q -1.17,-0.2 -2.16,-0.2 -3.51,0 -3.51,4.6 l 0,10 -6.37,0 0,-20.2 6.1,0 z" />
<path class="a" d="m 206.51,10.248 6.39,0 0,5.4 2.48,0 0,5.3 -2.52,0 0,14.9 -6.35,0 0,-14.9 -2.42,0 0,-5.3 2.42,0 0,-5.4 z" />
<path class="a" d="m 218.63,9.5474 q 0,-1.4 0.99,-2.4 0.99,-1 2.38,-1 1.4,0 2.39,1 0.99,1 0.99,2.4 0,1.4006 -0.99,2.4006 -0.99,1 -2.39,1 -1.37,0 -2.38,-1 -0.99,-1 -0.99,-2.4006 z m 0.18,6.1006 6.39,0 0,20.2 -6.39,0 0,-20.2 z" />
<path class="a" d="m 241.2,29.648 0,5.3 q -2.28,1.5 -4.59,1.5 -3.41,0 -5.47,-2.9 -2.05,-3 -2.05,-8 0,-4.7 2.11,-7.6 2.11,-3 5.45,-3 2.33,0 4.59,1.6 l 0,5.3 q -1.29,-0.7 -2.32,-0.7 -1.54,0 -2.49,1.2 -0.94,1.3 -0.94,3.3 0,2.2 0.92,3.5 0.92,1.2 2.51,1.2 0.96,0 2.28,-0.7 z" />
<path class="a" d="m 245.18,4.8474 6.39,0 0,31.0006 -6.39,0 0,-31.0006 z" />
<path class="a" d="m 266.1,29.648 5.38,0 q -1.54,6.8 -7.69,6.8 -3.85,0 -6.09,-2.9 -2.24,-2.9 -2.24,-8 0,-4.8 2.24,-7.7 2.24,-2.9 5.96,-2.9 2.24,0 4.3,1.4 2.07,1.4 3.01,3.7 0.95,2.3 1.06,7.3 l -10.66,0 q 0.13,4.5 2.51,4.5 0.81,0 1.45,-0.6 0.63,-0.6 0.77,-1.6 z m -4.64,-5.8 4.64,0 q -0.1,-2.1 -0.6,-3.2 -0.53,-1 -1.67,-1 -1.27,0 -1.82,1 -0.55,1 -0.55,3.2 z" />
<path class="a" d="m 276.51,29.348 q 3.27,1.9 4.72,1.9 0.8,0 1.32,-0.4 0.53,-0.4 0.53,-1 0,-0.6 -0.44,-0.9 -0.44,-0.3 -3.29,-1.5 -2.29,-1 -3.3,-2.4 -1.01,-1.4 -1.01,-3.4 0,-2.9 2,-4.8 2.02,-1.9 5.14,-1.9 3.03,0 7.43,2.4 l -2.46,4.6 q -2.86,-1.8 -4.68,-1.8 -1.59,0 -1.59,1.3 0,0.6 0.57,1 0.6,0.5 2.14,1 2.87,1 4.17,2.5 1.32,1.4 1.32,3.5 0,3.1 -2.07,5.1 -2.06,1.9 -5.27,1.9 -3.47,0 -7.43,-2.4 l 2.2,-4.7 z" />
</g>

<g id="big-data" transform="translate(0 48)">
<path class="a" d="m 2.59,6.5 6.767,0 q 5.912,0 8.504,2.3 2.593,2.3 2.593,5.9 0,3.9 -3.779,6.2 4.285,1.7 4.285,6.4 0,3.8 -2.659,6.2 -2.659,2.3 -7.01,2.3 l -8.701,0 0,-29.3 z m 6.657,5.6 0,6.3 q 4.462,-0.1 4.462,-3.1 0,-1.8 -1.077,-2.5 -1.056,-0.7 -3.385,-0.7 z m 0,11.6 0,6.4 q 2.527,-0.1 3.78,-0.8 1.275,-0.7 1.275,-2.4 0,-3.2 -4.505,-3.2 l -0.55,0 z" />
<path class="a" d="m 24.827,9.5 q 0,-1.4 0.989,-2.4 0.988,-1 2.373,-1 1.406,0 2.395,1 0.988,1 0.988,2.4 0,1.4 -0.988,2.4 -0.989,1 -2.395,1 -1.363,0 -2.373,-1 -0.989,-1 -0.989,-2.4 z m 0.176,6.1 6.394,0 0,20.2 -6.394,0 0,-20.2 z" />
<path class="a" d="m 46.58,35.9 0,-2.9 q -1.868,2.8 -4.439,2.8 -3.252,0 -5.053,-2.7 -1.802,-2.8 -1.802,-7.7 0,-4.9 1.758,-7.7 1.757,-2.7 4.812,-2.7 2.724,0 4.592,2.7 l 0.09,0 0,-2.1 6.394,0 0,18.7 q 0,2.6 -0.923,4.9 -0.901,2.3 -3.208,3.6 -2.307,1.3 -5.054,1.3 -2.746,0 -5.163,-1.4 -2.417,-1.5 -3.142,-5 l 5.712,0 q 0.989,1.6 2.461,1.6 1.253,0 2.11,-1 0.857,-1 0.857,-2.4 z m 0,-10.6 q 0,-4.9 -2.461,-4.9 -1.209,0 -1.912,1.2 -0.703,1.2 -0.703,3.3 0,5.5 2.571,5.5 2.505,0 2.505,-5.1 z" />
<path class="a" d="m 69.56,6.5 6.22,0 q 6.46,0 9.82,3.7 3.36,3.6 3.36,10.7 0,5.4 -1.67,8.7 -1.64,3.3 -4.63,4.7 -2.97,1.5 -6.57,1.5 l -6.53,0 0,-29.3 z m 6.66,6.2 0,16.8 q 3.03,-0.2 4.29,-2.1 1.25,-1.9 1.25,-6.2 0,-2.5 -0.44,-4.3 Q 80.88,15.1 80,14.2 79.14,13.2 78.31,13 77.49,12.8 76.22,12.7 Z" />
<path class="a" d="m 102.83,35.8 0,-2.7 -0.1,0 q -1.16,1.8 -2.26,2.6 -1.08,0.8 -2.55,0.8 -2.88,0 -4.59,-3 -1.72,-2.9 -1.72,-8 0,-4.8 1.74,-7.7 1.73,-2.9 4.57,-2.9 1.52,0 2.57,0.8 1.05,0.7 2.2,2.4 l 0.1,0 0,-2.5 6.4,0 0,20.2 -6.35,0 z m 0,-10.2 q 0,-5 -2.46,-5 -2.48,0 -2.48,5 0,5.2 2.57,5.2 2.37,0 2.37,-5.2 z" />
<path class="a" d="m 114.83,10.2 6.39,0 0,5.4 2.48,0 0,5.3 -2.52,0 0,14.9 -6.35,0 0,-14.9 -2.42,0 0,-5.3 2.42,0 0,-5.4 z" />
<path class="a" d="m 137.02,35.8 0,-2.7 -0.1,0 q -1.16,1.8 -2.26,2.6 -1.08,0.8 -2.55,0.8 -2.88,0 -4.59,-3 -1.72,-2.9 -1.72,-8 0,-4.8 1.74,-7.7 1.73,-2.9 4.57,-2.9 1.51,0 2.57,0.8 1.05,0.7 2.2,2.4 l 0.1,0 0,-2.5 6.4,0 0,20.2 -6.35,0 z m 0,-10.2 q 0,-5 -2.46,-5 -2.49,0 -2.49,5 0,5.2 2.58,5.2 2.37,0 2.37,-5.2 z" />
</g>

<g id="big-data-articles" transform="translate(146 48)">
<path class="a" d="m 2.84,6.5 6.77,0 q 5.91,0 8.5,2.3 2.6,2.3 2.6,5.9 0,3.9 -3.78,6.2 4.28,1.7 4.28,6.4 0,3.8 -2.66,6.2 -2.66,2.3 -7.01,2.3 l -8.7,0 0,-29.3 z m 6.66,5.6 0,6.3 q 4.46,-0.1 4.46,-3.1 0,-1.8 -1.08,-2.5 -1.05,-0.7 -3.38,-0.7 z m 0,11.6 0,6.4 q 2.53,-0.1 3.78,-0.8 1.27,-0.7 1.27,-2.4 0,-3.2 -4.5,-3.2 l -0.55,0 z" />
<path class="a" d="m 25.08,9.5 q 0,-1.4 0.99,-2.4 0.99,-1 2.37,-1 1.41,0 2.4,1 0.98,1 0.98,2.4 0,1.4 -0.98,2.4 -0.99,1 -2.4,1 -1.36,0 -2.37,-1 -0.99,-1 -0.99,-2.4 z m 0.17,6.1 6.4,0 0,20.2 -6.4,0 0,-20.2 z" />
<path class="a" d="m 46.83,35.9 0,-2.9 q -1.87,2.8 -4.44,2.8 -3.25,0 -5.05,-2.7 -1.8,-2.8 -1.8,-7.7 0,-4.9 1.76,-7.7 1.75,-2.7 4.81,-2.7 2.72,0 4.59,2.7 l 0.1,0 0,-2.1 6.39,0 0,18.7 q 0,2.6 -0.92,4.9 -0.9,2.3 -3.21,3.6 -2.3,1.3 -5.05,1.3 -2.75,0 -5.16,-1.4 -2.42,-1.5 -3.15,-5 l 5.72,0 q 0.99,1.6 2.46,1.6 1.25,0 2.11,-1 0.85,-1 0.85,-2.4 z m 0,-10.6 q 0,-4.9 -2.46,-4.9 -1.21,0 -1.91,1.2 -0.7,1.2 -0.7,3.3 0,5.5 2.57,5.5 2.5,0 2.5,-5.1 z" />
<path class="a" d="m 69.82,6.5 6.21,0 q 6.46,0 9.83,3.7 3.36,3.6 3.36,10.7 0,5.4 -1.67,8.7 -1.65,3.3 -4.64,4.7 -2.97,1.5 -6.57,1.5 l -6.52,0 0,-29.3 z m 6.65,6.2 0,16.8 q 3.04,-0.2 4.29,-2.1 1.25,-1.9 1.25,-6.2 0,-2.5 -0.44,-4.3 -0.44,-1.8 -1.32,-2.7 -0.85,-1 -1.69,-1.2 -0.81,-0.2 -2.09,-0.3 z" />
<path class="a" d="m 103.08,35.8 0,-2.7 -0.1,0 q -1.16,1.8 -2.26,2.6 -1.08,0.8 -2.55,0.8 -2.88,0 -4.59,-3 -1.71,-2.9 -1.71,-8 0,-4.8 1.73,-7.7 1.74,-2.9 4.57,-2.9 1.52,0 2.57,0.8 1.06,0.7 2.2,2.4 l 0.1,0 0,-2.5 6.39,0 0,20.2 -6.35,0 z m 0,-10.2 q 0,-5 -2.46,-5 -2.48,0 -2.48,5 0,5.2 2.57,5.2 2.37,0 2.37,-5.2 z" />
<path class="a" d="m 115.08,10.2 6.39,0 0,5.4 2.49,0 0,5.3 -2.53,0 0,14.9 -6.35,0 0,-14.9 -2.42,0 0,-5.3 2.42,0 0,-5.4 z" />
<path class="a" d="m 137.27,35.8 0,-2.7 -0.1,0 q -1.16,1.8 -2.26,2.6 -1.08,0.8 -2.55,0.8 -2.88,0 -4.59,-3 -1.72,-2.9 -1.72,-8 0,-4.8 1.74,-7.7 1.74,-2.9 4.57,-2.9 1.52,0 2.57,0.8 1.06,0.7 2.2,2.4 l 0.1,0 0,-2.5 6.39,0 0,20.2 -6.35,0 z m 0,-10.2 q 0,-5 -2.46,-5 -2.48,0 -2.48,5 0,5.2 2.57,5.2 2.37,0 2.37,-5.2 z" />
<path class="a" d="m 169.61,35.8 0,-2.7 -0.1,0 q -1.17,1.8 -2.27,2.6 -1.07,0.8 -2.55,0.8 -2.87,0 -4.59,-3 -1.71,-2.9 -1.71,-8 0,-4.8 1.73,-7.7 1.74,-2.9 4.57,-2.9 1.52,0 2.58,0.8 1.05,0.7 2.19,2.4 l 0.1,0 0,-2.5 6.39,0 0,20.2 -6.35,0 z m 0,-10.2 q 0,-5 -2.46,-5 -2.48,0 -2.48,5 0,5.2 2.57,5.2 2.37,0 2.37,-5.2 z" />
<path class="a" d="m 186.93,15.6 0,3.4 0.1,0 q 2.28,-4 4.81,-4 0.37,0 1.03,0.2 l 0,6.2 q -1.16,-0.2 -2.15,-0.2 -3.52,0 -3.52,4.6 l 0,10 -6.37,0 0,-20.2 6.11,0 z" />
<path class="a" d="m 198.31,10.2 6.39,0 0,5.4 2.49,0 0,5.3 -2.53,0 0,14.9 -6.35,0 0,-14.9 -2.42,0 0,-5.3 2.42,0 0,-5.4 z" />
<path class="a" d="m 210.44,9.5 q 0,-1.4 0.99,-2.4 0.99,-1 2.37,-1 1.41,0 2.4,1 0.99,1 0.99,2.4 0,1.4 -0.99,2.4 -0.99,1 -2.4,1 -1.36,0 -2.37,-1 -0.99,-1 -0.99,-2.4 z m 0.18,6.1 6.39,0 0,20.2 -6.39,0 0,-20.2 z" />
<path class="a" d="m 233.01,29.6 0,5.3 q -2.29,1.5 -4.6,1.5 -3.4,0 -5.47,-2.9 -2.04,-3 -2.04,-8 0,-4.7 2.11,-7.6 2.11,-3 5.45,-3 2.33,0 4.59,1.6 l 0,5.3 q -1.3,-0.7 -2.33,-0.7 -1.54,0 -2.48,1.2 -0.95,1.3 -0.95,3.3 0,2.2 0.93,3.5 0.92,1.2 2.5,1.2 0.97,0 2.29,-0.7 z" />
<path class="a" d="m 236.98,4.8 6.4,0 0,31 -6.4,0 0,-31 z" />
<path class="a" d="m 257.9,29.6 5.38,0 q -1.53,6.8 -7.69,6.8 -3.84,0 -6.08,-2.9 -2.24,-2.9 -2.24,-8 0,-4.8 2.24,-7.7 2.24,-2.9 5.95,-2.9 2.24,0 4.31,1.4 2.06,1.4 3.01,3.7 0.94,2.3 1.05,7.3 l -10.65,0 q 0.13,4.5 2.5,4.5 0.81,0 1.45,-0.6 0.64,-0.6 0.77,-1.6 z m -4.64,-5.8 4.64,0 q -0.1,-2.1 -0.59,-3.2 -0.53,-1 -1.67,-1 -1.28,0 -1.83,1 -0.55,1 -0.55,3.2 z" />
<path class="a" d="m 268.32,29.3 q 3.27,1.9 4.72,1.9 0.79,0 1.32,-0.4 0.53,-0.4 0.53,-1 0,-0.6 -0.44,-0.9 -0.44,-0.3 -3.3,-1.5 -2.29,-1 -3.3,-2.4 -1.01,-1.4 -1.01,-3.4 0,-2.9 2,-4.8 2.02,-1.9 5.14,-1.9 3.04,0 7.43,2.4 l -2.46,4.6 q -2.86,-1.8 -4.68,-1.8 -1.58,0 -1.58,1.3 0,0.6 0.57,1 0.59,0.5 2.13,1 2.88,1 4.18,2.5 1.31,1.4 1.31,3.5 0,3.1 -2.06,5.1 -2.07,1.9 -5.27,1.9 -3.48,0 -7.43,-2.4 l 2.2,-4.7 z" />
</g>

<g id="social-media" transform="translate(430 48)">
<path class="a" d="m 3.7698,35.3 0,-6.9 q 3.1642,1.9 5.3172,1.9 1.251,0 1.976,-0.7 0.725,-0.7 0.725,-1.9 0,-0.8 -0.593,-1.6 Q 10.623,25.3 9.197,24.2 5.747,21.6 4.1873,19.3 2.6492,17 2.6492,14.2 q 0,-3.8 2.395,-6.1 2.3948,-2.4 6.1938,-2.4 2.813,0 5.582,1.2 l 0,6.5 q -2.967,-1.6 -4.812,-1.6 -1.231,0 -1.956,0.6 -0.7014,0.6 -0.7014,1.7 0,1.8 3.3164,4.1 1.977,1.4 3.999,3.9 2.043,2.4 2.043,5.7 0,3.8 -2.658,6.3 -2.659,2.5 -6.7444,2.5 -2.7906,0 -5.5368,-1.3 z" />
<path class="a" d="m 30.355,14.9 q 4.372,0 6.657,2.9 2.286,2.9 2.286,8.1 0,5.1 -2.373,7.9 -2.374,2.7 -6.57,2.7 -4.021,0 -6.394,-2.8 -2.351,-2.8 -2.351,-7.8 0,-5.2 2.241,-8.1 2.263,-2.9 6.504,-2.9 z m 0.04,15.9 q 1.252,0 1.867,-1.1 0.638,-1.2 0.638,-4 0,-2.8 -0.616,-3.9 -0.615,-1.2 -1.845,-1.2 -1.209,0 -1.846,1.1 -0.637,1.1 -0.637,4 0,5.1 2.439,5.1 z" />
<path class="a" d="m 54.019,29.6 0,5.3 q -2.285,1.5 -4.592,1.5 -3.406,0 -5.471,-2.9 -2.044,-3 -2.044,-8 0,-4.7 2.11,-7.6 2.109,-3 5.449,-3 2.329,0 4.592,1.6 l 0,5.3 q -1.296,-0.7 -2.329,-0.7 -1.538,0 -2.483,1.2 -0.945,1.3 -0.945,3.3 0,2.2 0.923,3.5 0.923,1.2 2.505,1.2 0.967,0 2.285,-0.7 z" />
<path class="a" d="m 57.821,9.5 q 0,-1.4 0.988,-2.4 0.989,-1 2.373,-1 1.407,0 2.395,1 0.989,1 0.989,2.4 0,1.4 -0.989,2.4 -0.988,1 -2.395,1 -1.362,0 -2.373,-1 -0.988,-1 -0.988,-2.4 z m 0.175,6.1 6.394,0 0,20.2 -6.394,0 0,-20.2 z" />
<path class="a" d="m 79.486,35.8 0,-2.7 -0.09,0 q -1.165,1.8 -2.264,2.6 -1.076,0.8 -2.548,0.8 -2.879,0 -4.593,-3 -1.713,-2.9 -1.713,-8 0,-4.8 1.735,-7.7 1.736,-2.9 4.571,-2.9 1.516,0 2.57,0.8 1.055,0.7 2.198,2.4 l 0.09,0 0,-2.5 6.394,0 0,20.2 -6.35,0 z m 0,-10.2 q 0,-5 -2.461,-5 -2.483,0 -2.483,5 0,5.2 2.571,5.2 2.373,0 2.373,-5.2 z" />
<path class="a" d="m 90.867,4.8 6.398,0 0,31 -6.398,0 0,-31 z" />
<path class="a" d="m 116.2,6.5 8.41,0 q 1.8,9.5 2.84,16.3 l 0.72,-4.6 q 0.44,-2.6 0.95,-5.1 l 1.29,-6.6 8.59,0 3.34,29.3 -6.59,0 -1.78,-20.2 -4.11,20.2 -4.5,0 -4.31,-20.2 -1.71,20.2 -6.31,0 3.17,-29.3 z" />
<path class="a" d="m 156.43,29.6 5.38,0 q -1.54,6.8 -7.69,6.8 -3.84,0 -6.08,-2.9 -2.25,-2.9 -2.25,-8 0,-4.8 2.25,-7.7 2.24,-2.9 5.95,-2.9 2.24,0 4.31,1.4 2.06,1.4 3.01,3.7 0.94,2.3 1.05,7.3 l -10.66,0 q 0.14,4.5 2.51,4.5 0.81,0 1.45,-0.6 0.64,-0.6 0.77,-1.6 z m -4.64,-5.8 4.64,0 q -0.1,-2.1 -0.59,-3.2 -0.53,-1 -1.67,-1 -1.28,0 -1.83,1 -0.55,1 -0.55,3.2 z" />
<path class="a" d="m 176.16,4.8 6.35,0 0,31 -6.39,0 0,-2.7 -0.1,0 q -2.13,3.4 -4.81,3.4 -2.82,0 -4.55,-3 -1.72,-2.9 -1.72,-7.8 0,-4.9 1.76,-7.8 1.76,-3 4.64,-3 2.61,0 4.81,3 l 0,-13.1 z m 0,20.7 q 0,-4.9 -2.42,-4.9 -2.48,0 -2.48,5.3 0,2.3 0.66,3.6 0.68,1.3 1.87,1.3 1.1,0 1.73,-1.4 0.64,-1.4 0.64,-3.9 z" />
<path class="a" d="m 187.37,9.5 q 0,-1.4 0.99,-2.4 0.98,-1 2.37,-1 1.4,0 2.39,1 0.99,1 0.99,2.4 0,1.4 -0.99,2.4 -0.99,1 -2.39,1 -1.36,0 -2.37,-1 -0.99,-1 -0.99,-2.4 z m 0.17,6.1 6.4,0 0,20.2 -6.4,0 0,-20.2 z" />
<path class="a" d="m 209.03,35.8 0,-2.7 -0.1,0 q -1.16,1.8 -2.26,2.6 -1.08,0.8 -2.55,0.8 -2.88,0 -4.59,-3 -1.71,-2.9 -1.71,-8 0,-4.8 1.73,-7.7 1.74,-2.9 4.57,-2.9 1.52,0 2.57,0.8 1.06,0.7 2.2,2.4 l 0.1,0 0,-2.5 6.39,0 0,20.2 -6.35,0 z m 0,-10.2 q 0,-5 -2.46,-5 -2.48,0 -2.48,5 0,5.2 2.57,5.2 2.37,0 2.37,-5.2 z" />
</g>

<g id="social-media-articles" transform="translate(648 48)">
<path class="a" d="m 3.675,35.288 0,-6.9 q 3.164,1.9 5.317,1.9 1.253,0 1.978,-0.7 0.725,-0.7 0.725,-1.9 0,-0.8 -0.593,-1.6 -0.572,-0.8 -2,-1.9 -3.449,-2.6 -5.01,-4.9 -1.538,-2.3 -1.538,-5.1 0,-3.8 2.395,-6.098 2.395,-2.4 6.197,-2.4 2.812,0 5.581,1.2 l 0,6.498 q -2.967,-1.6 -4.812,-1.6 -1.231,0 -1.9555,0.6 -0.7035,0.6 -0.7035,1.7 0,1.8 3.318,4.1 1.977,1.4 3.999,3.9 2.043,2.4 2.043,5.7 0,3.8 -2.658,6.3 -2.659,2.5 -6.746,2.5 -2.79,0 -5.537,-1.3 z" />
<path class="a" d="m 30.26,14.888 q 4.37,0 6.66,2.9 2.29,2.9 2.29,8.1 0,5.1 -2.38,7.9 -2.37,2.7 -6.57,2.7 -4.02,0 -6.39,-2.8 -2.35,-2.8 -2.35,-7.8 0,-5.2 2.24,-8.1 2.26,-2.9 6.5,-2.9 z m 0,15.9 q 1.25,0 1.87,-1.1 0.64,-1.2 0.64,-4 0,-2.8 -0.62,-3.9 -0.61,-1.2 -1.84,-1.2 -1.21,0 -1.85,1.1 -0.64,1.1 -0.64,4 0,5.1 2.44,5.1 z" />
<path class="a" d="m 53.93,29.588 0,5.3 q -2.29,1.5 -4.6,1.5 -3.4,0 -5.47,-2.9 -2.04,-3 -2.04,-8 0,-4.7 2.11,-7.6 2.11,-3 5.45,-3 2.33,0 4.59,1.6 l 0,5.3 q -1.3,-0.7 -2.33,-0.7 -1.54,0 -2.48,1.2 -0.95,1.3 -0.95,3.3 0,2.2 0.93,3.5 0.92,1.2 2.5,1.2 0.97,0 2.29,-0.7 z" />
<path class="a" d="m 57.73,9.4895 q 0,-1.3995 0.99,-2.3995 0.99,-1 2.37,-1 1.41,0 2.4,1 0.98,1 0.98,2.3995 0,1.3985 -0.98,2.3985 -0.99,1 -2.4,1 -1.36,0 -2.37,-1 -0.99,-1 -0.99,-2.3985 z m 0.17,6.0985 6.4,0 0,20.2 -6.4,0 0,-20.2 z" />
<path class="a" d="m 79.39,35.788 0,-2.7 -0.1,0 q -1.16,1.8 -2.26,2.6 -1.08,0.8 -2.55,0.8 -2.88,0 -4.59,-3 -1.71,-2.9 -1.71,-8 0,-4.8 1.73,-7.7 1.74,-2.9 4.57,-2.9 1.52,0 2.57,0.8 1.06,0.7 2.2,2.4 l 0.1,0 0,-2.5 6.39,0 0,20.2 -6.35,0 z m 0,-10.2 q 0,-5 -2.46,-5 -2.48,0 -2.48,5 0,5.2 2.57,5.2 2.37,0 2.37,-5.2 z" />
<path class="a" d="m 90.78,4.79 6.39,0 0,30.998 -6.39,0 0,-30.998 z" />
<path class="a" d="m 116.11,6.49 8.41,0 q 1.81,9.498 2.84,16.298 l 0.72,-4.6 q 0.44,-2.6 0.95,-5.1 l 1.3,-6.598 8.59,0 3.34,29.298 -6.6,0 -1.78,-20.2 -4.1,20.2 -4.51,0 -4.3,-20.2 -1.72,20.2 -6.31,0 3.17,-29.298 z" />
<path class="a" d="m 156.34,29.588 5.38,0 q -1.53,6.8 -7.69,6.8 -3.84,0 -6.08,-2.9 -2.24,-2.9 -2.24,-8 0,-4.8 2.24,-7.7 2.24,-2.9 5.95,-2.9 2.24,0 4.31,1.4 2.06,1.4 3.01,3.7 0.94,2.3 1.05,7.3 l -10.65,0 q 0.13,4.5 2.5,4.5 0.81,0 1.45,-0.6 0.64,-0.6 0.77,-1.6 z m -4.64,-5.8 4.64,0 q -0.1,-2.1 -0.59,-3.2 -0.53,-1 -1.67,-1 -1.28,0 -1.83,1 -0.55,1 -0.55,3.2 z" />
<path class="a" d="m 176.07,4.79 6.35,0 0,30.998 -6.39,0 0,-2.7 -0.1,0 q -2.13,3.4 -4.81,3.4 -2.81,0 -4.55,-3 -1.71,-2.9 -1.71,-7.8 0,-4.9 1.75,-7.8 1.76,-3 4.64,-3 2.62,0 4.81,3 l 0,-13.098 z m 0,20.698 q 0,-4.9 -2.41,-4.9 -2.49,0 -2.49,5.3 0,2.3 0.66,3.6 0.68,1.3 1.87,1.3 1.1,0 1.74,-1.4 0.63,-1.4 0.63,-3.9 z" />
<path class="a" d="m 187.28,9.4895 q 0,-1.3995 0.99,-2.3995 0.99,-1 2.37,-1 1.41,0 2.4,1 0.98,1 0.98,2.3995 0,1.3985 -0.98,2.3985 -0.99,1 -2.4,1 -1.36,0 -2.37,-1 -0.99,-1 -0.99,-2.3985 z m 0.17,6.0985 6.4,0 0,20.2 -6.4,0 0,-20.2 z" />
<path class="a" d="m 208.94,35.788 0,-2.7 -0.1,0 q -1.17,1.8 -2.27,2.6 -1.07,0.8 -2.55,0.8 -2.87,0 -4.59,-3 -1.71,-2.9 -1.71,-8 0,-4.8 1.73,-7.7 1.74,-2.9 4.57,-2.9 1.52,0 2.57,0.8 1.06,0.7 2.2,2.4 l 0.1,0 0,-2.5 6.39,0 0,20.2 -6.35,0 z m 0,-10.2 q 0,-5 -2.46,-5 -2.48,0 -2.48,5 0,5.2 2.57,5.2 2.37,0 2.37,-5.2 z" />
<path class="a" d="m 241.29,35.788 0,-2.7 -0.1,0 q -1.17,1.8 -2.26,2.6 -1.08,0.8 -2.55,0.8 -2.88,0 -4.59,-3 -1.72,-2.9 -1.72,-8 0,-4.8 1.74,-7.7 1.73,-2.9 4.57,-2.9 1.51,0 2.57,0.8 1.05,0.7 2.2,2.4 l 0.1,0 0,-2.5 6.4,0 0,20.2 -6.35,0 z m 0,-10.2 q 0,-5 -2.46,-5 -2.49,0 -2.49,5 0,5.2 2.57,5.2 2.38,0 2.38,-5.2 z" />
<path class="a" d="m 258.6,15.588 0,3.4 0.1,0 q 2.28,-4 4.81,-4 0.38,0 1.03,0.2 l 0,6.2 q -1.16,-0.2 -2.15,-0.2 -3.51,0 -3.51,4.6 l 0,10 -6.38,0 0,-20.2 6.11,0 z" />
<path class="a" d="m 269.98,10.188 6.4,0 0,5.4 2.48,0 0,5.3 -2.53,0 0,14.9 -6.35,0 0,-14.9 -2.41,0 0,-5.3 2.41,0 0,-5.4 z" />
<path class="a" d="m 282.11,9.4895 q 0,-1.3995 0.99,-2.3995 0.99,-1 2.37,-1 1.41,0 2.4,1 0.99,1 0.99,2.3995 0,1.3985 -0.99,2.3985 -0.99,1 -2.4,1 -1.36,0 -2.37,-1 -0.99,-1 -0.99,-2.3985 z m 0.18,6.0985 6.39,0 0,20.2 -6.39,0 0,-20.2 z" />
<path class="a" d="m 304.68,29.588 0,5.3 q -2.29,1.5 -4.59,1.5 -3.41,0 -5.48,-2.9 -2.04,-3 -2.04,-8 0,-4.7 2.11,-7.6 2.11,-3 5.45,-3 2.33,0 4.59,1.6 l 0,5.3 q -1.29,-0.7 -2.33,-0.7 -1.53,0 -2.48,1.2 -0.94,1.3 -0.94,3.3 0,2.2 0.92,3.5 0.92,1.2 2.5,1.2 0.97,0 2.29,-0.7 z" />
<path class="a" d="m 308.66,4.79 6.39,0 0,30.998 -6.39,0 0,-30.998 z" />
<path class="a" d="m 329.57,29.588 5.39,0 q -1.54,6.8 -7.69,6.8 -3.85,0 -6.09,-2.9 -2.24,-2.9 -2.24,-8 0,-4.8 2.24,-7.7 2.24,-2.9 5.95,-2.9 2.25,0 4.31,1.4 2.07,1.4 3.01,3.7 0.95,2.3 1.06,7.3 l -10.66,0 q 0.13,4.5 2.5,4.5 0.82,0 1.45,-0.6 0.64,-0.6 0.77,-1.6 z m -4.63,-5.8 4.63,0 q -0.1,-2.1 -0.59,-3.2 -0.53,-1 -1.67,-1 -1.27,0 -1.82,1 -0.55,1 -0.55,3.2 z" />
<path class="a" d="m 339.99,29.288 q 3.27,1.9 4.72,1.9 0.79,0 1.32,-0.4 0.53,-0.4 0.53,-1 0,-0.6 -0.44,-0.9 -0.44,-0.3 -3.3,-1.5 -2.28,-1 -3.29,-2.4 -1.01,-1.4 -1.01,-3.4 0,-2.9 2,-4.8 2.02,-1.9 5.14,-1.9 3.03,0 7.42,2.4 l -2.46,4.6 q -2.85,-1.8 -4.68,-1.8 -1.58,0 -1.58,1.3 0,0.6 0.57,1 0.6,0.5 2.13,1 2.88,1 4.18,2.5 1.32,1.4 1.32,3.5 0,3.1 -2.07,5.1 -2.06,1.9 -5.27,1.9 -3.47,0 -7.43,-2.4 l 2.2,-4.7 z" />
</g>

<g id="wireless" transform="translate(1004 48)">
<path class="a" d="m 2.5036,6.5 6.394,0 3.7814,17.7 0.09,0 3.428,-17.7 5.8,0 3.472,17.5 0.09,0 3.604,-17.5 6.569,0 -7.031,29.3 -6.02,0 -2.791,-13.1 q -0.461,-2.2 -0.769,-4.2 l -0.09,0 q -0.549,3.4 -0.791,4.6 L 15.472,35.8 9.5378,35.8 2.5056,6.5 Z" />
<path class="a" d="m 38.607,9.5 q 0,-1.4 0.989,-2.4 0.988,-1 2.373,-1 1.406,0 2.395,1 0.988,1 0.988,2.4 0,1.4 -0.988,2.4 -0.989,1 -2.395,1 -1.363,0 -2.373,-1 -0.989,-1 -0.989,-2.4 z m 0.176,6.1 6.399,0 0,20.2 -6.399,0 0,-20.2 z" />
<path class="a" d="m 56.322,15.6 0,3.4 0.1,0 q 2.28,-4 4.81,-4 0.37,0 1.03,0.2 l 0,6.2 q -1.16,-0.2 -2.15,-0.2 -3.52,0 -3.52,4.6 l 0,10 -6.37,0 0,-20.2 6.11,0 z" />
<path class="a" d="m 75.172,29.6 5.38,0 q -1.54,6.8 -7.69,6.8 -3.84,0 -6.09,-2.9 -2.24,-2.9 -2.24,-8 0,-4.8 2.24,-7.7 2.25,-2.9 5.96,-2.9 2.24,0 4.31,1.4 2.06,1.4 3.01,3.7 0.94,2.3 1.05,7.3 l -10.66,0 q 0.14,4.5 2.51,4.5 0.81,0 1.45,-0.6 0.64,-0.6 0.77,-1.6 z m -4.64,-5.8 4.64,0 q -0.1,-2.1 -0.6,-3.2 -0.52,-1 -1.67,-1 -1.27,0 -1.82,1 -0.55,1 -0.55,3.2 z" />
<path class="a" d="m 85.012,4.8 6.4,0 0,31 -6.4,0 0,-31 z" />
<path class="a" d="m 105.9,29.6 5.38,0 q -1.54,6.8 -7.69,6.8 -3.832,0 -6.048,-2.9 -2.25,-2.9 -2.25,-8 0,-4.8 2.25,-7.7 2.216,-2.9 5.918,-2.9 2.24,0 4.31,1.4 2.06,1.4 3.01,3.7 0.94,2.3 1.05,7.3 l -10.66,0 q 0.14,4.5 2.51,4.5 0.81,0 1.45,-0.6 0.64,-0.6 0.77,-1.6 z m -4.64,-5.8 4.64,0 q -0.1,-2.1 -0.59,-3.2 -0.53,-1 -1.67,-1 -1.28,0 -1.83,1 -0.55,1 -0.55,3.2 z" />
<path class="a" d="m 116.31,29.3 q 3.28,1.9 4.73,1.9 0.79,0 1.32,-0.4 0.52,-0.4 0.52,-1 0,-0.6 -0.44,-0.9 -0.44,-0.3 -3.29,-1.5 -2.29,-1 -3.3,-2.4 -1.01,-1.4 -1.01,-3.4 0,-2.9 2,-4.8 2.02,-1.9 5.14,-1.9 3.04,0 7.43,2.4 l -2.46,4.6 q -2.86,-1.8 -4.68,-1.8 -1.58,0 -1.58,1.3 0,0.6 0.57,1 0.59,0.5 2.13,1 2.88,1 4.17,2.5 1.32,1.4 1.32,3.5 0,3.1 -2.06,5.1 -2.07,1.9 -5.28,1.9 -3.47,0 -7.42,-2.4 l 2.19,-4.7 z" />
<path class="a" d="m 133.54,29.3 q 3.27,1.9 4.72,1.9 0.8,0 1.32,-0.4 0.53,-0.4 0.53,-1 0,-0.6 -0.44,-0.9 -0.44,-0.3 -3.29,-1.5 -2.29,-1 -3.3,-2.4 -1.01,-1.4 -1.01,-3.4 0,-2.9 2,-4.8 2.02,-1.9 5.14,-1.9 3.03,0 7.43,2.4 l -2.46,4.6 q -2.86,-1.8 -4.68,-1.8 -1.59,0 -1.59,1.3 0,0.6 0.57,1 0.6,0.5 2.14,1 2.87,1 4.17,2.5 1.32,1.4 1.32,3.5 0,3.1 -2.07,5.1 -2.06,1.9 -5.27,1.9 -3.47,0 -7.43,-2.4 l 2.2,-4.7 z" />
</g>

<g id="wireless-articles" transform="translate(1153 48)">
<path class="a" d="m 2.7,6.51 6.4,0 3.78,17.702 0.1,0 3.42,-17.702 5.81,0 3.47,17.502 0.1,0 3.6,-17.502 6.57,0 -7.03,29.302 -6.02,0 -2.79,-13.1 q -0.46,-2.2 -0.77,-4.2 l -0.1,0 q -0.55,3.4 -0.79,4.6 l -2.77,12.7 -5.9295,0 L 2.72,6.51 Z" />
<path class="a" d="m 38.81,9.51 q 0,-1.4 0.98,-2.4 0.99,-1 2.38,-1 1.4,0 2.39,1 0.99,1 0.99,2.4 0,1.402 -0.99,2.402 -0.99,1 -2.39,1 -1.37,0 -2.38,-1 -0.98,-1 -0.98,-2.402 z m 0.17,6.102 6.39,0 0,20.2 -6.39,0 0,-20.2 z" />
<path class="a" d="m 56.52,15.612 0,3.4 0.1,0 q 2.28,-4 4.81,-4 0.37,0 1.03,0.2 l 0,6.2 q -1.16,-0.2 -2.15,-0.2 -3.52,0 -3.52,4.6 l 0,10 -6.37,0 0,-20.2 6.11,0 z" />
<path class="a" d="m 75.37,29.612 5.38,0 q -1.54,6.8 -7.69,6.8 -3.84,0 -6.09,-2.9 -2.24,-2.9 -2.24,-8 0,-4.8 2.24,-7.7 2.25,-2.9 5.96,-2.9 2.24,0 4.31,1.4 2.06,1.4 3.01,3.7 0.94,2.3 1.05,7.3 l -10.66,0 q 0.14,4.5 2.51,4.5 0.81,0 1.45,-0.6 0.64,-0.6 0.77,-1.6 z m -4.64,-5.8 4.64,0 q -0.1,-2.1 -0.6,-3.2 -0.52,-1 -1.67,-1 -1.27,0 -1.82,1 -0.55,1 -0.55,3.2 z" />
<path class="a" d="m 85.21,4.81 6.4,0 0,31.002 -6.4,0 0,-31.002 z" />
<path class="a" d="m 106.13,29.612 5.38,0 q -1.54,6.8 -7.69,6.8 -3.843,0 -6.08,-2.9 -2.25,-2.9 -2.25,-8 0,-4.8 2.25,-7.7 2.237,-2.9 5.95,-2.9 2.24,0 4.31,1.4 2.06,1.4 3.01,3.7 0.94,2.3 1.05,7.3 l -10.65,0 q 0.13,4.5 2.5,4.5 0.81,0 1.45,-0.6 0.64,-0.6 0.77,-1.6 z m -4.64,-5.8 4.64,0 q -0.1,-2.1 -0.59,-3.2 -0.53,-1 -1.67,-1 -1.28,0 -1.83,1 -0.55,1 -0.55,3.2 z" />
<path class="a" d="m 116.54,29.312 q 3.28,1.9 4.73,1.9 0.79,0 1.32,-0.4 0.52,-0.4 0.52,-1 0,-0.6 -0.43,-0.9 -0.44,-0.3 -3.3,-1.5 -2.29,-1 -3.3,-2.4 -1.01,-1.4 -1.01,-3.4 0,-2.9 2,-4.8 2.02,-1.9 5.14,-1.9 3.04,0 7.43,2.4 l -2.46,4.6 q -2.86,-1.8 -4.68,-1.8 -1.58,0 -1.58,1.3 0,0.6 0.57,1 0.59,0.5 2.13,1 2.88,1 4.17,2.5 1.32,1.4 1.32,3.5 0,3.1 -2.06,5.1 -2.07,1.9 -5.28,1.9 -3.47,0 -7.42,-2.4 l 2.19,-4.7 z" />
<path class="a" d="m 133.77,29.312 q 3.28,1.9 4.73,1.9 0.79,0 1.31,-0.4 0.53,-0.4 0.53,-1 0,-0.6 -0.44,-0.9 -0.44,-0.3 -3.29,-1.5 -2.29,-1 -3.3,-2.4 -1.01,-1.4 -1.01,-3.4 0,-2.9 2,-4.8 2.02,-1.9 5.14,-1.9 3.03,0 7.43,2.4 l -2.46,4.6 q -2.86,-1.8 -4.68,-1.8 -1.59,0 -1.59,1.3 0,0.6 0.58,1 0.59,0.5 2.13,1 2.87,1 4.17,2.5 1.32,1.4 1.32,3.5 0,3.1 -2.07,5.1 -2.06,1.9 -5.27,1.9 -3.47,0 -7.43,-2.4 l 2.2,-4.7 z" />
<path class="a" d="m 171.39,35.812 0,-2.7 -0.1,0 q -1.16,1.8 -2.26,2.6 -1.08,0.8 -2.55,0.8 -2.88,0 -4.59,-3 -1.72,-2.9 -1.72,-8 0,-4.8 1.74,-7.7 1.73,-2.9 4.57,-2.9 1.51,0 2.57,0.8 1.05,0.7 2.2,2.4 l 0.1,0 0,-2.5 6.4,0 0,20.2 -6.35,0 z m 0,-10.2 q 0,-5 -2.46,-5 -2.49,0 -2.49,5 0,5.2 2.58,5.2 2.37,0 2.37,-5.2 z" />
<path class="a" d="m 188.7,15.612 0,3.4 0.1,0 q 2.29,-4 4.81,-4 0.38,0 1.04,0.2 l 0,6.2 q -1.17,-0.2 -2.16,-0.2 -3.51,0 -3.51,4.6 l 0,10 -6.38,0 0,-20.2 6.11,0 z" />
<path class="a" d="m 200.08,10.21 6.4,0 0,5.402 2.48,0 0,5.3 -2.53,0 0,14.9 -6.35,0 0,-14.9 -2.41,0 0,-5.3 2.41,0 0,-5.402 z" />
<path class="a" d="m 212.21,9.51 q 0,-1.4 0.99,-2.4 0.99,-1 2.38,-1 1.4,0 2.39,1 0.99,1 0.99,2.4 0,1.402 -0.99,2.402 -0.99,1 -2.39,1 -1.37,0 -2.38,-1 -0.99,-1 -0.99,-2.402 z m 0.18,6.102 6.39,0 0,20.2 -6.39,0 0,-20.2 z" />
<path class="a" d="m 234.78,29.612 0,5.3 q -2.29,1.5 -4.59,1.5 -3.41,0 -5.47,-2.9 -2.05,-3 -2.05,-8 0,-4.7 2.11,-7.6 2.11,-3 5.45,-3 2.33,0 4.59,1.6 l 0,5.3 q -1.29,-0.7 -2.33,-0.7 -1.53,0 -2.48,1.2 -0.94,1.3 -0.94,3.3 0,2.2 0.92,3.5 0.92,1.2 2.5,1.2 0.97,0 2.29,-0.7 z" />
<path class="a" d="m 238.76,4.81 6.39,0 0,31.002 -6.39,0 0,-31.002 z" />
<path class="a" d="m 259.67,29.612 5.39,0 q -1.54,6.8 -7.69,6.8 -3.85,0 -6.09,-2.9 -2.24,-2.9 -2.24,-8 0,-4.8 2.24,-7.7 2.24,-2.9 5.96,-2.9 2.24,0 4.3,1.4 2.07,1.4 3.01,3.7 0.95,2.3 1.06,7.3 l -10.66,0 q 0.13,4.5 2.51,4.5 0.81,0 1.45,-0.6 0.63,-0.6 0.76,-1.6 z m -4.63,-5.8 4.63,0 q -0.1,-2.1 -0.59,-3.2 -0.53,-1 -1.67,-1 -1.27,0 -1.82,1 -0.55,1 -0.55,3.2 z" />
<path class="a" d="m 270.09,29.312 q 3.27,1.9 4.72,1.9 0.79,0 1.32,-0.4 0.53,-0.4 0.53,-1 0,-0.6 -0.44,-0.9 -0.44,-0.3 -3.3,-1.5 -2.28,-1 -3.29,-2.4 -1.01,-1.4 -1.01,-3.4 0,-2.9 2,-4.8 2.02,-1.9 5.14,-1.9 3.03,0 7.43,2.4 l -2.47,4.6 q -2.85,-1.8 -4.68,-1.8 -1.58,0 -1.58,1.3 0,0.6 0.57,1 0.6,0.5 2.13,1 2.88,1 4.18,2.5 1.32,1.4 1.32,3.5 0,3.1 -2.07,5.1 -2.06,1.9 -5.27,1.9 -3.47,0 -7.43,-2.4 l 2.2,-4.7 z" />
</g>

<g id="passwords" transform="translate(1439 48)">
<path class="a" d="m 2.6616,6.607 8.2414,0 q 4.352,0 6.989,2.5 2.636,2.398 2.636,6.498 0,4.3 -2.68,6.7 -2.659,2.4 -7.386,2.4 l -1.1434,0 0,11.2 -6.657,0 0,-29.298 z m 6.657,5.598 0,6.9 q 2.2434,0 3.2994,-0.8 1.077,-0.9 1.077,-2.6 0,-1.9 -1.033,-2.7 -1.034,-0.8 -3.3434,-0.8 z" />
<path class="a" d="m 34.613,35.905 0,-2.7 -0.09,0 q -1.165,1.8 -2.263,2.6 -1.077,0.8 -2.549,0.8 -2.879,0 -4.592,-3 -1.714,-2.9 -1.714,-8 0,-4.8 1.736,-7.7 1.735,-2.9 4.57,-2.9 1.516,0 2.571,0.8 1.054,0.7 2.197,2.4 l 0.09,0 0,-2.5 6.394,0 0,20.2 -6.35,0 z m 0,-10.2 q 0,-5 -2.461,-5 -2.483,0 -2.483,5 0,5.2 2.571,5.2 2.373,0 2.373,-5.2 z" />
<path class="a" d="m 46.564,29.405 q 3.28,1.9 4.73,1.9 0.79,0 1.31,-0.4 0.53,-0.4 0.53,-1 0,-0.6 -0.44,-0.9 -0.44,-0.3 -3.29,-1.5 -2.29,-1 -3.3,-2.4 -1.01,-1.4 -1.01,-3.4 0,-2.9 2,-4.8 2.02,-1.9 5.14,-1.9 3.03,0 7.43,2.4 l -2.46,4.6 q -2.86,-1.8 -4.68,-1.8 -1.59,0 -1.59,1.3 0,0.6 0.58,1 0.59,0.5 2.13,1 2.87,1 4.17,2.5 1.32,1.4 1.32,3.5 0,3.1 -2.07,5.1 -2.06,1.9 -5.27,1.9 -3.47,0 -7.425,-2.4 l 2.195,-4.7 z" />
<path class="a" d="m 63.794,29.405 q 3.27,1.9 4.72,1.9 0.79,0 1.32,-0.4 0.53,-0.4 0.53,-1 0,-0.6 -0.44,-0.9 -0.44,-0.3 -3.3,-1.5 -2.28,-1 -3.29,-2.4 -1.01,-1.4 -1.01,-3.4 0,-2.9 2,-4.8 2.02,-1.9 5.14,-1.9 3.03,0 7.42,2.4 l -2.46,4.6 q -2.85,-1.8 -4.68,-1.8 -1.58,0 -1.58,1.3 0,0.6 0.57,1 0.6,0.5 2.13,1 2.88,1 4.18,2.5 1.32,1.4 1.32,3.5 0,3.1 -2.07,5.1 -2.06,1.9 -5.27,1.9 -3.47,0 -7.43,-2.4 l 2.2,-4.7 z" />
<path class="a" d="m 78.664,15.705 6.31,0 q 2.2,9.6 2.48,11.3 l 0.1,0 2.16,-11.3 5.4,0 2.15,11.2 0.1,0 q 0.53,-2.6 0.73,-3.5 l 1.837,-7.7 6.319,0 -6.269,20.2 -4.807,0 q -2.46,-9 -2.75,-10.9 l -0.1,0 q -0.2,1.5 -2.66,10.9 l -4.77,0 -6.21,-20.2 z" />
<path class="a" d="m 116.27,15.005 q 4.37,0 6.66,2.9 2.28,2.9 2.28,8.1 0,5.1 -2.37,7.9 -2.38,2.7 -6.57,2.7 -4.02,0 -6.4,-2.8 -2.35,-2.8 -2.35,-7.8 0,-5.2 2.24,-8.1 2.27,-2.9 6.51,-2.9 z m 0,15.9 q 1.25,0 1.87,-1.1 0.64,-1.2 0.64,-4 0,-2.8 -0.62,-3.9 -0.61,-1.2 -1.84,-1.2 -1.21,0 -1.85,1.1 -0.64,1.1 -0.64,4 0,5.1 2.44,5.1 z" />
<path class="a" d="m 135.08,15.705 0,3.4 0.1,0 q 2.29,-4 4.82,-4 0.37,0 1.03,0.2 l 0,6.2 q -1.17,-0.2 -2.15,-0.2 -3.52,0 -3.52,4.6 l 0,10 -6.37,0 0,-20.2 6.11,0 z" />
<path class="a" d="m 154.5,4.907 6.35,0 0,30.998 -6.39,0 0,-2.7 -0.1,0 q -2.13,3.4 -4.81,3.4 -2.82,0 -4.55,-3 -1.72,-2.9 -1.72,-7.8 0,-4.9 1.76,-7.8 1.76,-3 4.64,-3 2.61,0 4.81,3 l 0,-13.098 z m 0,20.698 q 0,-4.9 -2.42,-4.9 -2.48,0 -2.48,5.3 0,2.3 0.66,3.6 0.68,1.3 1.87,1.3 1.1,0 1.73,-1.4 0.64,-1.4 0.64,-3.9 z" />
<path class="a" d="m 166.45,29.405 q 3.28,1.9 4.73,1.9 0.79,0 1.32,-0.4 0.52,-0.4 0.52,-1 0,-0.6 -0.44,-0.9 -0.44,-0.3 -3.29,-1.5 -2.29,-1 -3.3,-2.4 -1.01,-1.4 -1.01,-3.4 0,-2.9 2,-4.8 2.02,-1.9 5.14,-1.9 3.03,0 7.43,2.4 l -2.46,4.6 q -2.86,-1.8 -4.68,-1.8 -1.58,0 -1.58,1.3 0,0.6 0.57,1 0.59,0.5 2.13,1 2.88,1 4.17,2.5 1.32,1.4 1.32,3.5 0,3.1 -2.06,5.1 -2.07,1.9 -5.28,1.9 -3.47,0 -7.42,-2.4 l 2.19,-4.7 z" />
</g>

<g id="passwords-articles" transform="translate(1621 48)">
<path class="a" d="m 2.57,6.5 8.24,0 q 4.35,0 6.98,2.5 2.64,2.4 2.64,6.5 0,4.3 -2.68,6.7 -2.66,2.4 -7.38,2.4 l -1.14,0 0,11.2 -6.66,0 0,-29.3 z m 6.66,5.6 0,6.9 q 2.24,0 3.29,-0.8 1.08,-0.9 1.08,-2.6 0,-1.9 -1.04,-2.7 -1.03,-0.8 -3.33,-0.8 z" />
<path class="a" d="m 34.52,35.8 0,-2.7 -0.1,0 q -1.17,1.8 -2.27,2.6 -1.07,0.8 -2.55,0.8 -2.87,0 -4.59,-3 -1.71,-2.9 -1.71,-8 0,-4.8 1.73,-7.7 1.74,-2.9 4.57,-2.9 1.52,0 2.57,0.8 1.06,0.7 2.2,2.4 l 0.1,0 0,-2.5 6.4,0 0,20.2 -6.35,0 z m 0,-10.2 q 0,-5 -2.47,-5 -2.48,0 -2.48,5 0,5.2 2.57,5.2 2.38,0 2.38,-5.2 z" />
<path class="a" d="m 46.47,29.3 q 3.27,1.9 4.72,1.9 0.79,0 1.32,-0.4 0.53,-0.4 0.53,-1 0,-0.6 -0.44,-0.9 Q 52.16,28.6 49.3,27.4 47.02,26.4 46.01,25 45,23.6 45,21.6 q 0,-2.9 2,-4.8 2.02,-1.9 5.14,-1.9 3.03,0 7.42,2.4 l -2.46,4.6 q -2.85,-1.8 -4.68,-1.8 -1.58,0 -1.58,1.3 0,0.6 0.57,1 0.6,0.5 2.13,1 2.88,1 4.18,2.5 1.32,1.4 1.32,3.5 0,3.1 -2.07,5.1 -2.06,1.9 -5.27,1.9 -3.47,0 -7.43,-2.4 l 2.2,-4.7 z" />
<path class="a" d="m 63.7,29.3 q 3.27,1.9 4.72,1.9 0.79,0 1.32,-0.4 0.53,-0.4 0.53,-1 0,-0.6 -0.44,-0.9 -0.44,-0.3 -3.3,-1.5 -2.29,-1 -3.3,-2.4 -1.01,-1.4 -1.01,-3.4 0,-2.9 2,-4.8 2.02,-1.9 5.14,-1.9 3.04,0 7.43,2.4 l -2.46,4.6 q -2.86,-1.8 -4.68,-1.8 -1.58,0 -1.58,1.3 0,0.6 0.57,1 0.59,0.5 2.13,1 2.88,1 4.18,2.5 1.31,1.4 1.31,3.5 0,3.1 -2.06,5.1 -2.07,1.9 -5.28,1.9 -3.47,0 -7.42,-2.4 l 2.2,-4.7 z" />
<path class="a" d="m 78.57,15.6 6.31,0 q 2.19,9.6 2.48,11.3 l 0.1,0 2.15,-11.3 5.41,0 2.15,11.2 0.1,0 Q 97.8,24.2 98,23.3 l 1.837,-7.7 6.303,0 -6.253,20.2 -4.817,0 q -2.46,-9 -2.74,-10.9 l -0.1,0 q -0.2,1.5 -2.66,10.9 l -4.77,0 -6.22,-20.2 z" />
<path class="a" d="m 116.17,14.9 q 4.37,0 6.65,2.9 2.29,2.9 2.29,8.1 0,5.1 -2.37,7.9 -2.38,2.7 -6.57,2.7 -4.02,0 -6.4,-2.8 -2.35,-2.8 -2.35,-7.8 0,-5.2 2.24,-8.1 2.27,-2.9 6.51,-2.9 z m 0,15.9 q 1.25,0 1.87,-1.1 0.64,-1.2 0.64,-4 0,-2.8 -0.62,-3.9 -0.62,-1.2 -1.85,-1.2 -1.2,0 -1.84,1.1 -0.64,1.1 -0.64,4 0,5.1 2.44,5.1 z" />
<path class="a" d="m 134.98,15.6 0,3.4 0.1,0 q 2.29,-4 4.81,-4 0.38,0 1.04,0.2 l 0,6.2 q -1.17,-0.2 -2.16,-0.2 -3.51,0 -3.51,4.6 l 0,10 -6.37,0 0,-20.2 6.11,0 z" />
<path class="a" d="m 154.4,4.8 6.35,0 0,31 -6.4,0 0,-2.7 -0.1,0 q -2.13,3.4 -4.81,3.4 -2.82,0 -4.55,-3 -1.72,-2.9 -1.72,-7.8 0,-4.9 1.76,-7.8 1.76,-3 4.64,-3 2.61,0 4.81,3 l 0,-13.1 z m 0,20.7 q 0,-4.9 -2.42,-4.9 -2.48,0 -2.48,5.3 0,2.3 0.66,3.6 0.68,1.3 1.87,1.3 1.09,0 1.73,-1.4 0.64,-1.4 0.64,-3.9 z" />
<path class="a" d="m 186.74,35.8 0,-2.7 -0.1,0 q -1.16,1.8 -2.26,2.6 -1.08,0.8 -2.55,0.8 -2.88,0 -4.59,-3 -1.71,-2.9 -1.71,-8 0,-4.8 1.73,-7.7 1.74,-2.9 4.57,-2.9 1.52,0 2.57,0.8 1.06,0.7 2.2,2.4 l 0.1,0 0,-2.5 6.39,0 0,20.2 -6.35,0 z m 0,-10.2 q 0,-5 -2.46,-5 -2.48,0 -2.48,5 0,5.2 2.57,5.2 2.37,0 2.37,-5.2 z" />
<path class="a" d="m 204.06,15.6 0,3.4 0.1,0 q 2.29,-4 4.82,-4 0.37,0 1.03,0.2 l 0,6.2 q -1.16,-0.2 -2.15,-0.2 -3.52,0 -3.52,4.6 l 0,10 -6.37,0 0,-20.2 6.11,0 z" />
<path class="a" d="m 215.44,10.2 6.39,0 0,5.4 2.49,0 0,5.3 -2.53,0 0,14.9 -6.35,0 0,-14.9 -2.42,0 0,-5.3 2.42,0 0,-5.4 z" />
<path class="a" d="m 227.57,9.5 q 0,-1.4 0.99,-2.4 0.99,-1 2.37,-1 1.41,0 2.39,1 0.99,1 0.99,2.4 0,1.4 -0.99,2.4 -0.98,1 -2.39,1 -1.36,0 -2.37,-1 -0.99,-1 -0.99,-2.4 z m 0.17,6.1 6.4,0 0,20.2 -6.4,0 0,-20.2 z" />
<path class="a" d="m 250.13,29.6 0,5.3 q -2.28,1.5 -4.59,1.5 -3.4,0 -5.47,-2.9 -2.04,-3 -2.04,-8 0,-4.7 2.11,-7.6 2.11,-3 5.45,-3 2.32,0 4.59,1.6 l 0,5.3 q -1.3,-0.7 -2.33,-0.7 -1.54,0 -2.48,1.2 -0.95,1.3 -0.95,3.3 0,2.2 0.92,3.5 0.93,1.2 2.51,1.2 0.97,0 2.28,-0.7 z" />
<path class="a" d="m 254.11,4.8 6.39,0 0,31 -6.39,0 0,-31 z" />
<path class="a" d="m 275.03,29.6 5.38,0 q -1.54,6.8 -7.69,6.8 -3.84,0 -6.08,-2.9 -2.25,-2.9 -2.25,-8 0,-4.8 2.25,-7.7 2.24,-2.9 5.95,-2.9 2.24,0 4.31,1.4 2.06,1.4 3.01,3.7 0.94,2.3 1.05,7.3 l -10.66,0 q 0.14,4.5 2.51,4.5 0.81,0 1.45,-0.6 0.64,-0.6 0.77,-1.6 z m -4.64,-5.8 4.64,0 q -0.1,-2.1 -0.59,-3.2 -0.53,-1 -1.67,-1 -1.28,0 -1.83,1 -0.55,1 -0.55,3.2 z" />
<path class="a" d="m 285.44,29.3 q 3.28,1.9 4.73,1.9 0.79,0 1.32,-0.4 0.52,-0.4 0.52,-1 0,-0.6 -0.44,-0.9 -0.44,-0.3 -3.29,-1.5 -2.29,-1 -3.3,-2.4 -1.01,-1.4 -1.01,-3.4 0,-2.9 2,-4.8 2.02,-1.9 5.14,-1.9 3.03,0 7.43,2.4 l -2.46,4.6 q -2.86,-1.8 -4.68,-1.8 -1.58,0 -1.58,1.3 0,0.6 0.57,1 0.59,0.5 2.13,1 2.88,1 4.17,2.5 1.32,1.4 1.32,3.5 0,3.1 -2.06,5.1 -2.07,1.9 -5.28,1.9 -3.47,0 -7.42,-2.4 l 2.19,-4.7 z" />
</g>

<g id="muppets" transform="translate(0 96)">
<path class="a" d="m 5.705,6.5 8.415,0 q 1.802,9.5 2.835,16.3 l 0.725,-4.6 q 0.439,-2.6 0.945,-5.1 l 1.296,-6.6 8.591,0 3.34,29.3 -6.591,0 -1.78,-20.2 -4.109,20.2 -4.505,0 -4.306,-20.2 -1.714,20.2 -6.306,0 3.164,-29.3 z" />
<path class="a" d="m 36.291,15.6 6.399,0 0,13 q 0,1 0.46,1.7 0.48,0.6 1.29,0.6 1.85,0 1.85,-2.7 l 0,-12.6 6.39,0 0,11.7 q 0,4.5 -2.08,6.8 -2.09,2.4 -6.03,2.4 -4.39,0 -6.346,-2.4 -1.933,-2.4 -1.933,-6.1 l 0,-12.4 z" />
<path class="a" d="m 63.82,15.6 0,2.6 0.11,0 q 2.13,-3.2 4.81,-3.2 2.88,0 4.62,3 1.76,2.9 1.76,7.9 0,4.7 -1.8,7.7 -1.78,2.9 -4.58,2.9 -2.94,0 -4.81,-3.4 l -0.11,0 0,11 -6.37,0 0,-28.5 6.37,0 z m 4.92,10 q 0,-5 -2.52,-5 -2.4,0 -2.4,5.1 0,5.2 2.4,5.2 2.52,0 2.52,-5.3 z" />
<path class="a" d="m 85.27,15.6 0,2.6 0.11,0 q 2.13,-3.2 4.81,-3.2 2.88,0 4.61,3 1.76,2.9 1.76,7.9 0,4.7 -1.8,7.7 -1.78,2.9 -4.57,2.9 -2.94,0 -4.81,-3.4 l -0.11,0 0,11 -6.37,0 0,-28.5 6.37,0 z m 4.92,10 q 0,-5 -2.53,-5 -2.39,0 -2.39,5.1 0,5.2 2.39,5.2 2.53,0 2.53,-5.3 z" />
<path class="a" d="m 109.83,29.6 5.39,0 q -1.54,6.8 -7.69,6.8 -3.85,0 -6.09,-2.9 -2.24,-2.9 -2.24,-8 0,-4.8 2.24,-7.7 2.24,-2.9 5.95,-2.9 2.25,0 4.31,1.4 2.07,1.4 3.01,3.7 0.95,2.3 1.06,7.3 l -10.66,0 q 0.13,4.5 2.5,4.5 0.82,0 1.45,-0.6 0.64,-0.6 0.77,-1.6 z m -4.63,-5.8 4.63,0 q -0.1,-2.1 -0.59,-3.2 -0.53,-1 -1.67,-1 -1.27,0 -1.82,1 -0.55,1 -0.55,3.2 z" />
<path class="a" d="m 120.29,10.2 6.4,0 0,5.4 2.48,0 0,5.3 -2.53,0 0,14.9 -6.35,0 0,-14.9 -2.41,0 0,-5.3 2.41,0 0,-5.4 z" />
<path class="a" d="m 133.17,29.3 q 3.27,1.9 4.72,1.9 0.79,0 1.32,-0.4 0.53,-0.4 0.53,-1 0,-0.6 -0.44,-0.9 -0.44,-0.3 -3.3,-1.5 -2.28,-1 -3.29,-2.4 -1.01,-1.4 -1.01,-3.4 0,-2.9 2,-4.8 2.02,-1.9 5.14,-1.9 3.03,0 7.42,2.4 l -2.46,4.6 q -2.85,-1.8 -4.68,-1.8 -1.58,0 -1.58,1.3 0,0.6 0.57,1 0.6,0.5 2.13,1 2.88,1 4.18,2.5 1.32,1.4 1.32,3.5 0,3.1 -2.07,5.1 -2.06,1.9 -5.27,1.9 -3.47,0 -7.43,-2.4 l 2.2,-4.7 z" />
</g>

<g id="muppets-articles" transform="translate(149 96)">
<path class="a" d="m 5.97,6.5 8.41,0 q 1.81,9.5 2.84,16.3 l 0.72,-4.6 q 0.44,-2.6 0.95,-5.1 l 1.3,-6.6 8.59,0 3.34,29.3 -6.6,0 -1.78,-20.2 -4.1,20.2 -4.51,0 -4.3,-20.2 -1.718,20.2 -6.307,0 L 5.97,6.5 Z" />
<path class="a" d="m 36.56,15.6 6.39,0 0,13 q 0,1 0.46,1.7 0.48,0.6 1.3,0.6 1.84,0 1.84,-2.7 l 0,-12.6 6.4,0 0,11.7 q 0,4.5 -2.09,6.8 -2.09,2.4 -6.02,2.4 -4.4,0 -6.35,-2.4 -1.93,-2.4 -1.93,-6.1 l 0,-12.4 z" />
<path class="a" d="m 64.09,15.6 0,2.6 0.11,0 q 2.13,-3.2 4.81,-3.2 2.88,0 4.61,3 1.76,2.9 1.76,7.9 0,4.7 -1.8,7.7 -1.78,2.9 -4.57,2.9 -2.95,0 -4.81,-3.4 l -0.11,0 0,11 -6.38,0 0,-28.5 6.38,0 z m 4.92,10 q 0,-5 -2.53,-5 -2.39,0 -2.39,5.1 0,5.2 2.39,5.2 2.53,0 2.53,-5.3 z" />
<path class="a" d="m 85.53,15.6 0,2.6 0.11,0 q 2.13,-3.2 4.81,-3.2 2.88,0 4.62,3 1.76,2.9 1.76,7.9 0,4.7 -1.81,7.7 -1.78,2.9 -4.57,2.9 -2.94,0 -4.81,-3.4 l -0.11,0 0,11 -6.37,0 0,-28.5 6.37,0 z m 4.92,10 q 0,-5 -2.52,-5 -2.4,0 -2.4,5.1 0,5.2 2.4,5.2 2.52,0 2.52,-5.3 z" />
<path class="a" d="m 110.1,29.6 5.38,0 q -1.54,6.8 -7.69,6.8 -3.84,0 -6.09,-2.9 -2.24,-2.9 -2.24,-8 0,-4.8 2.24,-7.7 2.25,-2.9 5.96,-2.9 2.24,0 4.31,1.4 2.06,1.4 3.01,3.7 0.94,2.3 1.05,7.3 l -10.66,0 q 0.14,4.5 2.51,4.5 0.81,0 1.45,-0.6 0.64,-0.6 0.77,-1.6 z m -4.64,-5.8 4.64,0 q -0.1,-2.1 -0.6,-3.2 -0.52,-1 -1.67,-1 -1.27,0 -1.82,1 -0.55,1 -0.55,3.2 z" />
<path class="a" d="m 120.56,10.2 6.39,0 0,5.4 2.48,0 0,5.3 -2.52,0 0,14.9 -6.35,0 0,-14.9 -2.42,0 0,-5.3 2.42,0 0,-5.4 z" />
<path class="a" d="m 153.82,35.8 0,-2.7 -0.1,0 q -1.17,1.8 -2.27,2.6 -1.07,0.8 -2.55,0.8 -2.87,0 -4.59,-3 -1.71,-2.9 -1.71,-8 0,-4.8 1.73,-7.7 1.74,-2.9 4.57,-2.9 1.52,0 2.57,0.8 1.06,0.7 2.2,2.4 l 0.1,0 0,-2.5 6.39,0 0,20.2 -6.35,0 z m 0,-10.2 q 0,-5 -2.46,-5 -2.48,0 -2.48,5 0,5.2 2.57,5.2 2.37,0 2.37,-5.2 z" />
<path class="a" d="m 171.14,15.6 0,3.4 0.1,0 q 2.28,-4 4.81,-4 0.37,0 1.03,0.2 l 0,6.2 q -1.16,-0.2 -2.15,-0.2 -3.52,0 -3.52,4.6 l 0,10 -6.37,0 0,-20.2 6.11,0 z" />
<path class="a" d="m 182.52,10.2 6.39,0 0,5.4 2.49,0 0,5.3 -2.53,0 0,14.9 -6.35,0 0,-14.9 -2.42,0 0,-5.3 2.42,0 0,-5.4 z" />
<path class="a" d="m 194.65,9.5 q 0,-1.4 0.99,-2.4 0.99,-1 2.37,-1 1.41,0 2.4,1 0.98,1 0.98,2.4 0,1.4 -0.98,2.4 -0.99,1 -2.4,1 -1.36,0 -2.37,-1 -0.99,-1 -0.99,-2.4 z m 0.17,6.1 6.4,0 0,20.2 -6.4,0 0,-20.2 z" />
<path class="a" d="m 217.21,29.6 0,5.3 q -2.28,1.5 -4.59,1.5 -3.4,0 -5.47,-2.9 -2.04,-3 -2.04,-8 0,-4.7 2.11,-7.6 2.11,-3 5.45,-3 2.33,0 4.59,1.6 l 0,5.3 q -1.3,-0.7 -2.33,-0.7 -1.54,0 -2.48,1.2 -0.95,1.3 -0.95,3.3 0,2.2 0.92,3.5 0.93,1.2 2.51,1.2 0.97,0 2.28,-0.7 z" />
<path class="a" d="m 221.19,4.8 6.4,0 0,31 -6.4,0 0,-31 z" />
<path class="a" d="m 242.11,29.6 5.38,0 q -1.54,6.8 -7.69,6.8 -3.84,0 -6.08,-2.9 -2.25,-2.9 -2.25,-8 0,-4.8 2.25,-7.7 2.24,-2.9 5.95,-2.9 2.24,0 4.31,1.4 2.06,1.4 3.01,3.7 0.94,2.3 1.05,7.3 l -10.65,0 q 0.13,4.5 2.5,4.5 0.81,0 1.45,-0.6 0.64,-0.6 0.77,-1.6 z m -4.64,-5.8 4.64,0 q -0.1,-2.1 -0.59,-3.2 -0.53,-1 -1.67,-1 -1.28,0 -1.83,1 -0.55,1 -0.55,3.2 z" />
<path class="a" d="m 252.52,29.3 q 3.28,1.9 4.73,1.9 0.79,0 1.32,-0.4 0.52,-0.4 0.52,-1 0,-0.6 -0.43,-0.9 -0.44,-0.3 -3.3,-1.5 -2.29,-1 -3.3,-2.4 -1.01,-1.4 -1.01,-3.4 0,-2.9 2,-4.8 2.02,-1.9 5.14,-1.9 3.04,0 7.43,2.4 l -2.46,4.6 q -2.86,-1.8 -4.68,-1.8 -1.58,0 -1.58,1.3 0,0.6 0.57,1 0.59,0.5 2.13,1 2.88,1 4.17,2.5 1.32,1.4 1.32,3.5 0,3.1 -2.06,5.1 -2.07,1.9 -5.28,1.9 -3.47,0 -7.42,-2.4 l 2.19,-4.7 z" />
</g>

<g id="weebles" transform="translate(417 96)">
<path class="a" d="m 2.5446,6.5 6.394,0 3.7824,17.7 0.09,0 3.428,-17.7 5.801,0 3.472,17.5 0.09,0 3.603,-17.5 6.57,0 -7.031,29.3 -6.021,0 -2.79,-13.1 q -0.462,-2.2 -0.769,-4.2 l -0.09,0 q -0.55,3.4 -0.791,4.6 L 15.514,35.8 9.5798,35.8 2.5476,6.5 Z" />
<path class="a" d="m 46.91,29.6 5.383,0 q -1.538,6.8 -7.69,6.8 -3.845,0 -6.087,-2.9 -2.241,-2.9 -2.241,-8 0,-4.8 2.241,-7.7 2.242,-2.9 5.955,-2.9 2.241,0 4.307,1.4 2.065,1.4 3.01,3.7 0.945,2.3 1.055,7.3 l -10.657,0 q 0.132,4.5 2.505,4.5 0.813,0 1.45,-0.6 0.637,-0.6 0.769,-1.6 z m -4.636,-5.8 4.636,0 q -0.07,-2.1 -0.593,-3.2 -0.528,-1 -1.67,-1 -1.275,0 -1.824,1 -0.549,1 -0.549,3.2 z" />
<path class="a" d="m 66.072,29.6 5.38,0 q -1.54,6.8 -7.69,6.8 -3.84,0 -6.09,-2.9 -2.24,-2.9 -2.24,-8 0,-4.8 2.24,-7.7 2.25,-2.9 5.96,-2.9 2.24,0 4.31,1.4 2.06,1.4 3.01,3.7 0.94,2.3 1.05,7.3 l -10.66,0 q 0.14,4.5 2.51,4.5 0.81,0 1.45,-0.6 0.64,-0.6 0.77,-1.6 z m -4.64,-5.8 4.64,0 q -0.1,-2.1 -0.6,-3.2 -0.52,-1 -1.67,-1 -1.27,0 -1.82,1 -0.55,1 -0.55,3.2 z" />
<path class="a" d="m 75.742,4.8 6.37,0 0,13.2 0.11,0 q 1.16,-1.6 2.17,-2.3 1.04,-0.8 2.64,-0.8 2.68,0 4.48,2.8 1.8,2.8 1.8,8.1 0,4.8 -1.73,7.7 -1.72,3 -4.46,3 -2.86,0 -4.9,-3.3 l -0.11,0 0,2.6 -6.37,0 0,-31 z m 11.25,20.8 q 0,-5 -2.58,-5 -2.3,0 -2.3,4.8 0,2.8 0.59,4.1 0.62,1.3 1.93,1.3 2.36,0 2.36,-5.2 z" />
<path class="a" d="m 97.272,4.8 6.358,0 0,31 -6.358,0 0,-31 z" />
<path class="a" d="m 118.16,29.6 5.38,0 q -1.54,6.8 -7.69,6.8 -3.85,0 -6.09,-2.9 -2.24,-2.9 -2.24,-8 0,-4.8 2.24,-7.7 2.24,-2.9 5.96,-2.9 2.24,0 4.3,1.4 2.07,1.4 3.02,3.7 0.94,2.3 1.05,7.3 l -10.66,0 q 0.13,4.5 2.51,4.5 0.81,0 1.45,-0.6 0.64,-0.6 0.77,-1.6 z m -4.64,-5.8 4.64,0 q -0.1,-2.1 -0.6,-3.2 -0.52,-1 -1.67,-1 -1.27,0 -1.82,1 -0.55,1 -0.55,3.2 z" />
<path class="a" d="m 128.57,29.3 q 3.28,1.9 4.73,1.9 0.79,0 1.31,-0.4 0.53,-0.4 0.53,-1 0,-0.6 -0.44,-0.9 -0.44,-0.3 -3.29,-1.5 -2.29,-1 -3.3,-2.4 -1.01,-1.4 -1.01,-3.4 0,-2.9 2,-4.8 2.02,-1.9 5.14,-1.9 3.03,0 7.43,2.4 l -2.46,4.6 q -2.86,-1.8 -4.68,-1.8 -1.59,0 -1.59,1.3 0,0.6 0.58,1 0.59,0.5 2.13,1 2.88,1 4.17,2.5 1.32,1.4 1.32,3.5 0,3.1 -2.06,5.1 -2.07,1.9 -5.28,1.9 -3.47,0 -7.42,-2.4 l 2.19,-4.7 z" />
</g>

<g id="weeble-articles" transform="translate(561 96)">
<path class="a" d="m 2.98,6.5 6.4,0 3.782,17.7 0.1,0 3.42,-17.7 5.8,0 3.48,17.5 0.1,0 3.6,-17.5 6.57,0 -7.03,29.3 -6.02,0 -2.79,-13.1 q -0.47,-2.2 -0.77,-4.2 l -0.1,0 q -0.55,3.4 -0.79,4.6 l -2.77,12.7 -5.932,0 L 2.99,6.5 Z" />
<path class="a" d="m 47.342,29.6 5.39,0 q -1.54,6.8 -7.69,6.8 -3.85,0 -6.09,-2.9 -2.24,-2.9 -2.24,-8 0,-4.8 2.24,-7.7 2.24,-2.9 5.96,-2.9 2.24,0 4.3,1.4 2.07,1.4 3.01,3.7 0.95,2.3 1.06,7.3 l -10.66,0 q 0.13,4.5 2.51,4.5 0.81,0 1.45,-0.6 0.63,-0.6 0.76,-1.6 z m -4.63,-5.8 4.63,0 q -0.1,-2.1 -0.59,-3.2 -0.53,-1 -1.67,-1 -1.27,0 -1.82,1 -0.55,1 -0.55,3.2 z" />
<path class="a" d="m 66.502,29.6 5.39,0 q -1.54,6.8 -7.69,6.8 -3.85,0 -6.09,-2.9 -2.24,-2.9 -2.24,-8 0,-4.8 2.24,-7.7 2.24,-2.9 5.96,-2.9 2.24,0 4.3,1.4 2.07,1.4 3.01,3.7 0.95,2.3 1.06,7.3 l -10.66,0 q 0.13,4.5 2.51,4.5 0.81,0 1.45,-0.6 0.63,-0.6 0.76,-1.6 z m -4.63,-5.8 4.63,0 q -0.1,-2.1 -0.59,-3.2 -0.53,-1 -1.67,-1 -1.27,0 -1.82,1 -0.55,1 -0.55,3.2 z" />
<path class="a" d="m 76.172,4.8 6.37,0 0,13.2 0.11,0 q 1.17,-1.6 2.18,-2.3 1.03,-0.8 2.64,-0.8 2.68,0 4.48,2.8 1.8,2.8 1.8,8.1 0,4.8 -1.73,7.7 -1.72,3 -4.47,3 -2.85,0 -4.9,-3.3 l -0.11,0 0,2.6 -6.37,0 0,-31 z m 11.25,20.8 q 0,-5 -2.57,-5 -2.31,0 -2.31,4.8 0,2.8 0.6,4.1 0.61,1.3 1.93,1.3 2.35,0 2.35,-5.2 z" />
<path class="a" d="m 97.712,4.8 6.378,0 0,31 -6.378,0 0,-31 z" />
<path class="a" d="m 118.61,29.6 5.39,0 q -1.54,6.8 -7.69,6.8 -3.85,0 -6.09,-2.9 -2.24,-2.9 -2.24,-8 0,-4.8 2.24,-7.7 2.24,-2.9 5.96,-2.9 2.24,0 4.3,1.4 2.07,1.4 3.01,3.7 0.95,2.3 1.06,7.3 l -10.66,0 q 0.13,4.5 2.51,4.5 0.81,0 1.45,-0.6 0.63,-0.6 0.76,-1.6 z m -4.63,-5.8 4.63,0 q -0.1,-2.1 -0.59,-3.2 -0.53,-1 -1.67,-1 -1.27,0 -1.82,1 -0.55,1 -0.55,3.2 z" />
<path class="a" d="m 149.42,35.8 0,-2.7 -0.1,0 q -1.16,1.8 -2.26,2.6 -1.08,0.8 -2.55,0.8 -2.88,0 -4.59,-3 -1.72,-2.9 -1.72,-8 0,-4.8 1.74,-7.7 1.74,-2.9 4.57,-2.9 1.52,0 2.57,0.8 1.06,0.7 2.2,2.4 l 0.1,0 0,-2.5 6.39,0 0,20.2 -6.35,0 z m 0,-10.2 q 0,-5 -2.46,-5 -2.48,0 -2.48,5 0,5.2 2.57,5.2 2.37,0 2.37,-5.2 z" />
<path class="a" d="m 166.73,15.6 0,3.4 0.1,0 q 2.29,-4 4.81,-4 0.38,0 1.04,0.2 l 0,6.2 q -1.17,-0.2 -2.16,-0.2 -3.51,0 -3.51,4.6 l 0,10 -6.37,0 0,-20.2 6.1,0 z" />
<path class="a" d="m 178.12,10.2 6.39,0 0,5.4 2.48,0 0,5.3 -2.52,0 0,14.9 -6.35,0 0,-14.9 -2.42,0 0,-5.3 2.42,0 0,-5.4 z" />
<path class="a" d="m 190.25,9.5 q 0,-1.4 0.98,-2.4 0.99,-1 2.38,-1 1.4,0 2.39,1 0.99,1 0.99,2.4 0,1.4 -0.99,2.4 -0.99,1 -2.39,1 -1.37,0 -2.38,-1 -0.98,-1 -0.98,-2.4 z m 0.17,6.1 6.4,0 0,20.2 -6.4,0 0,-20.2 z" />
<path class="a" d="m 212.81,29.6 0,5.3 q -2.28,1.5 -4.59,1.5 -3.41,0 -5.47,-2.9 -2.05,-3 -2.05,-8 0,-4.7 2.11,-7.6 2.11,-3 5.45,-3 2.33,0 4.6,1.6 l 0,5.3 q -1.3,-0.7 -2.33,-0.7 -1.54,0 -2.49,1.2 -0.94,1.3 -0.94,3.3 0,2.2 0.92,3.5 0.92,1.2 2.51,1.2 0.96,0 2.28,-0.7 z" />
<path class="a" d="m 216.79,4.8 6.39,0 0,31 -6.39,0 0,-31 z" />
<path class="a" d="m 237.71,29.6 5.38,0 q -1.54,6.8 -7.69,6.8 -3.85,0 -6.09,-2.9 -2.24,-2.9 -2.24,-8 0,-4.8 2.24,-7.7 2.24,-2.9 5.96,-2.9 2.24,0 4.3,1.4 2.07,1.4 3.01,3.7 0.95,2.3 1.06,7.3 l -10.66,0 q 0.13,4.5 2.51,4.5 0.81,0 1.45,-0.6 0.63,-0.6 0.77,-1.6 z m -4.64,-5.8 4.64,0 q -0.1,-2.1 -0.6,-3.2 -0.52,-1 -1.67,-1 -1.27,0 -1.82,1 -0.55,1 -0.55,3.2 z" />
<path class="a" d="m 248.12,29.3 q 3.28,1.9 4.73,1.9 0.79,0 1.31,-0.4 0.53,-0.4 0.53,-1 0,-0.6 -0.44,-0.9 -0.44,-0.3 -3.29,-1.5 -2.29,-1 -3.3,-2.4 -1.01,-1.4 -1.01,-3.4 0,-2.9 2,-4.8 2.02,-1.9 5.14,-1.9 3.03,0 7.43,2.4 l -2.46,4.6 q -2.86,-1.8 -4.68,-1.8 -1.59,0 -1.59,1.3 0,0.6 0.58,1 0.59,0.5 2.13,1 2.87,1 4.17,2.5 1.32,1.4 1.32,3.5 0,3.1 -2.07,5.1 -2.06,1.9 -5.27,1.9 -3.47,0 -7.43,-2.4 l 2.2,-4.7 z" />
</g>

<style>
.a{fill:#b2b5ff;fill-opacity:1;stroke:#000000;stroke-width:1.1;stroke-opacity:1}
</style>

</svg>