<?xml version="1.0" encoding="UTF-8" standalone="no"?>
<svg xmlns="http://www.w3.org/2000/svg" viewBox="0 0 774 58" width="100%" height="100%">

<view id="base" viewBox="0 0 258 58" />
<view id="categories" viewBox="258 0 258 58" />
<view id="tags" viewBox="516 0 258 58" />

<g id="base" transform="translate(0 0)">
<path class="a" d="m 10.542956,34.871424 -0.240552,-25.3927302 10.143276,0.16148 4.770948,4.1581102 -0.160368,17.31873 -3.20736,4.48107 -11.305944,-0.72666 z m 8.339136,-5.6518 -0.160368,-12.15137 -1.483404,0 -0.160368,11.82841 1.80414,0.32296 z" />
<path class="a" d="m 37.338444,15.493824 2.044692,2.26072 -0.481104,14.73505 -2.80644,3.26997 -6.61518,-0.16148 -2.365428,-2.66442 -0.721656,-13.36247 2.044692,-4.15811 8.900424,0.08074 z m -5.051592,14.9369 1.483404,-0.16148 -0.160368,-9.36584 -1.20276,0.16148 -0.120276,9.36584 z" />
<path class="a" d="m 40.921667,35.476974 0.320736,-20.22537 4.891224,0.16148 0,1.41295 1.643772,-1.89739 5.131776,0 1.323036,3.31034 -0.280644,17.96465 -5.61288,0.16148 -0.160368,-14.89653 -1.042392,-0.16148 -0.120276,14.00839 -6.093984,0.16148 z" />
<path class="a" d="m 56.933409,17.391214 -1.443312,-2.78553 -0.240552,-4.8040302 4.530396,0 -0.320736,4.9251402 -1.082484,2.54331 -1.443312,0.12111 z" />
<path class="a" d="m 70.024449,17.431584 -0.240552,-1.93776 -1.924416,0.08074 0.04009,-4.27922 -5.332236,0.12111 0,4.19848 -1.964508,0 0.120277,1.93776 1.844231,0 0,18.1665 4.971408,-0.32296 0.320736,-17.96465 2.164968,0 z" />
<path class="a" d="m 80.811202,15.453454 -3.80874,-0.84777 3.768648,-2.70479 -1.80414,-2.3010903 -2.686164,4.2388503 0.160368,-4.2792203 -2.565888,0.20185 1.082484,3.3910803 -2.445612,-2.09924 -1.483404,2.09924 3.969108,1.49369 -3.287544,2.0185 1.964508,1.6148 1.80414,-2.17998 0.521196,3.47182 2.245152,-0.68629 -1.643772,-3.26997 3.447912,1.97813 0.761748,-2.13961 z" />
<path class="a" d="m 83.304924,35.275124 -0.60138,-24.6257 7.096284,-0.16148 0.441012,9.72917 1.323036,0 -0.280644,-10.2943502 7.497204,0.1614802 -0.721656,26.15976 -6.21426,-0.12111 -0.160368,-10.53657 -1.443312,0 -0.160368,9.85028 -6.775548,-0.16148 z" />
<path class="a" d="m 99.919049,23.325604 0.441011,-5.36921 1.88433,-2.8259 6.69536,0.32296 2.36543,3.59293 0,10.25398 1.4834,0.44407 0,5.81328 -4.12947,0.20185 -0.72166,-1.85702 -0.64147,1.65517 -4.28985,0.16148 -2.80644,-2.8259 0.32074,-5.97476 2.4857,-2.26072 3.28755,-0.24222 -0.32074,-4.31959 -1.0023,0 0.16037,3.2296 -5.211961,0 z m 5.773251,8.80066 1.0023,0 -0.16037,-4.48107 -1.0023,0 0.16037,4.48107 z" />
<path class="a" d="m 120.30984,26.393724 0,4.88477 -1.24285,-0.16148 -0.0802,-10.13287 1.16267,-0.08074 0.24055,3.99663 4.57049,-0.28259 -0.16037,-6.0555 -1.92441,-3.14886 -6.29445,0.32296 -2.68616,3.06812 0.40092,12.95877 1.92442,3.55256 5.81334,0.92851 2.64607,-3.26997 0.28064,-7.22623 -4.65067,0.64592 z" />
<path class="a" d="m 126.4359,35.557714 -0.32074,-25.55421 5.49261,0.32296 0.16036,10.73842 1.16267,-1.33221 1.76405,-5.08662 6.05389,0.60555 -3.08708,8.03363 -1.48341,1.45332 2.36543,1.37258 0.60138,10.0925 -5.57279,-0.28259 0,-7.71067 -1.60368,0.4037 0.16037,6.78216 -5.69306,0.16148 z" />
<path class="a" d="m 150.1884,15.453454 -3.80874,-0.84777 3.76865,-2.70479 -1.80414,-2.3010903 -2.68616,4.2388503 0.16037,-4.2792203 -2.56589,0.20185 1.08248,3.3910803 -2.44561,-2.09924 -1.4834,2.09924 3.9691,1.49369 -3.28754,2.0185 1.96451,1.6148 1.80414,-2.17998 0.52119,3.47182 2.24516,-0.68629 -1.64378,-3.26997 3.44792,1.97813 0.76174,-2.13961 z" />
<path class="a" d="m 151.60064,35.315494 0.80184,-25.5945802 7.25666,0.20185 2.44561,11.9091502 1.32303,-13.5643202 7.85804,0.56518 1.24285,27.0479002 -5.93362,-0.16148 -0.76175,-11.42471 -2.64607,11.26323 -1.64377,0 -2.72626,-9.93102 -0.40092,10.01176 -6.81564,-0.32296 z" />
<path class="a" d="m 173.52596,19.611564 1.68386,-4.48107 7.17647,0.32296 2.16497,3.59293 -0.32074,7.71067 -5.61288,0.16148 0,3.55256 1.04239,0 0.16037,-2.22035 4.41012,-0.16148 -0.12028,5.6518 -2.12487,1.65517 -6.45481,0.20185 -2.0046,-3.31034 0,-12.67618 z m 5.21196,4.15811 1.20276,-0.12111 -0.28065,-4.31959 -1.08248,0 0.16037,4.4407 z" />
<path class="a" d="m 195.37109,15.453454 -3.80874,-0.84777 3.76864,-2.70479 -1.80414,-2.3010903 -2.68616,4.2388503 0.16037,-4.2792203 -2.56589,0.20185 1.08248,3.3910803 -2.44561,-2.09924 -1.4834,2.09924 3.96911,1.49369 -3.28755,2.0185 1.96451,1.6148 1.80414,-2.17998 0.5212,3.47182 2.24515,-0.68629 -1.64377,-3.26997 3.44791,1.97813 0.76175,-2.13961 z" />
<path class="a" d="m 197.3837,34.790684 -0.40092,-24.70644 12.0677,-0.6055502 3.04699,4.6021802 -0.32074,7.46845 -1.80414,1.89739 1.56359,1.49369 0,8.19511 -2.0046,2.4222 -12.14788,-0.76703 z m 6.45482,-20.06389 0,5.77291 1.36312,0.12111 -0.16036,-5.81328 -1.20276,-0.08074 z m -0.16037,16.02689 1.32303,0.16148 0,-5.69217 -1.16266,0 -0.16037,5.53069 z" />
<path class="a" d="m 213.1128,35.598084 -0.20046,-20.185 4.65067,0.36333 0.44101,1.45332 1.32304,-1.93776 3.12717,0.20185 1.5235,1.81665 -0.12028,9.08325 -4.32993,-0.16148 -0.0802,-5.57106 -1.24285,0.12111 -0.40092,14.9369 -4.69076,-0.12111 z" />
<path class="a" d="m 236.15367,15.493824 2.04469,2.26072 -0.4811,14.73505 -2.80644,3.26997 -6.61518,-0.16148 -2.36543,-2.66442 -0.72166,-13.36247 2.0447,-4.15811 8.90042,0.08074 z m -5.05159,14.9369 1.4834,-0.16148 -0.16037,-9.36584 -1.20276,0.16148 -0.12027,9.36584 z" />
<path class="a" d="m 240.45855,29.219624 -1.12258,-19.9024103 7.09629,-0.20185 -0.44102,19.6601903 -5.53269,0.44407 z m 0.20046,1.53406 6.25435,-0.20185 0.20046,5.81328 -6.45481,-0.44407 0,-5.16736 z" />
<path class="z" d="m 35.498,53.579 -2.38,-7.779 1.362,0 1.238,4.49 0.461,1.67 q 0.03,-0.125 0.403,-1.604 l 1.238,-4.556 1.355,0 1.165,4.512 0.388,1.487 0.447,-1.502 1.333,-4.497 1.281,0 -2.431,7.779 -1.37,0 -1.238,-4.659 -0.3,-1.325 -1.575,5.984 -1.377,0 z" />
<path class="z" d="m 46.367,53.579 -2.38,-7.779 1.362,0 1.238,4.49 0.462,1.67 q 0.03,-0.125 0.402,-1.604 l 1.238,-4.556 1.355,0 1.165,4.512 0.388,1.487 0.447,-1.502 1.333,-4.497 1.281,0 -2.431,7.779 -1.37,0 -1.238,-4.659 -0.3,-1.325 -1.575,5.984 -1.377,0 z" />
<path class="z" d="m 57.237,53.579 -2.381,-7.779 1.362,0 1.238,4.49 0.462,1.67 q 0.03,-0.125 0.403,-1.604 l 1.237,-4.556 1.355,0 1.165,4.512 0.388,1.487 0.447,-1.502 1.333,-4.497 1.282,0 -2.432,7.779 -1.37,0 -1.238,-4.659 -0.3,-1.325 -1.575,5.984 -1.376,0 z" />
<path class="z" d="m 66.223,53.579 0,-1.502 1.502,0 0,1.502 -1.502,0 z" />
<path class="z" d="m 75.056,53.579 0,-0.982 q -0.739,1.157 -2.175,1.157 -0.93,0 -1.714,-0.512 -0.776,-0.513 -1.208,-1.429 -0.425,-0.922 -0.425,-2.116 0,-1.165 0.388,-2.11 0.388,-0.952 1.165,-1.457 0.776,-0.506 1.735,-0.506 0.704,0 1.253,0.301 0.549,0.293 0.893,0.769 l 0,-3.853 1.312,0 0,10.738 -1.224,0 z m -4.167,-3.882 q 0,1.494 0.63,2.234 0.63,0.739 1.487,0.739 0.864,0 1.464,-0.703 0.608,-0.71 0.608,-2.16 0,-1.597 -0.615,-2.344 -0.615,-0.747 -1.516,-0.747 -0.879,0 -1.472,0.718 -0.586,0.717 -0.586,2.263 z" />
<path class="z" d="m 77.869,49.689 q 0,-2.16 1.201,-3.2 1.003,-0.865 2.446,-0.865 1.604,0 2.622,1.055 1.018,1.048 1.018,2.901 0,1.501 -0.454,2.365 -0.446,0.857 -1.311,1.333 -0.857,0.476 -1.875,0.476 -1.633,0 -2.644,-1.047 -1.003,-1.047 -1.003,-3.018 z m 1.355,0 q 0,1.495 0.652,2.242 0.652,0.739 1.64,0.739 0.982,0 1.634,-0.747 0.651,-0.747 0.651,-2.278 0,-1.442 -0.659,-2.182 -0.652,-0.747 -1.626,-0.747 -0.988,0 -1.64,0.74 -0.652,0.739 -0.652,2.233 z" />
<path class="z" d="m 86.709,53.579 0,-7.779 1.187,0 0,1.106 q 0.857,-1.282 2.475,-1.282 0.703,0 1.289,0.257 0.594,0.249 0.887,0.659 0.293,0.41 0.41,0.974 0.07,0.366 0.07,1.282 l 0,4.783 -1.318,0 0,-4.732 q 0,-0.806 -0.154,-1.201 -0.154,-0.403 -0.549,-0.637 -0.389,-0.242 -0.916,-0.242 -0.842,0 -1.458,0.535 -0.607,0.534 -0.607,2.029 l 0,4.248 -1.319,0 z" />
<path class="z" d="m 97.937,52.399 0.191,1.165 q -0.557,0.117 -0.996,0.117 -0.718,0 -1.114,-0.227 -0.395,-0.227 -0.556,-0.593 -0.161,-0.374 -0.161,-1.56 l 0,-4.475 -0.967,0 0,-1.026 0.967,0 0,-1.926 1.311,-0.791 0,2.717 1.325,0 0,1.026 -1.325,0 0,4.548 q 0,0.564 0.07,0.725 0.07,0.161 0.228,0.256 0.161,0.1 0.454,0.1 0.219,0 0.578,-0.05 z" />
<path class="z" d="m 98.706,50.356 0,-1.326 4.054,0 0,1.326 -4.054,0 z" />
<path class="z" d="m 104.23,53.579 0,-10.738 1.32,0 0,3.853 q 0.92,-1.07 2.33,-1.07 0.86,0 1.5,0.345 0.63,0.337 0.91,0.937 0.27,0.601 0.27,1.743 l 0,4.93 -1.31,0 0,-4.93 q 0,-0.988 -0.44,-1.435 -0.42,-0.454 -1.2,-0.454 -0.59,0 -1.11,0.307 -0.51,0.301 -0.73,0.821 -0.22,0.52 -0.22,1.435 l 0,4.256 -1.32,0 z" />
<path class="z" d="m 117.65,52.619 q -0.73,0.623 -1.41,0.879 -0.67,0.256 -1.45,0.256 -1.28,0 -1.97,-0.622 -0.69,-0.63 -0.69,-1.604 0,-0.571 0.26,-1.04 0.26,-0.476 0.68,-0.762 0.42,-0.286 0.95,-0.432 0.39,-0.103 1.17,-0.198 1.6,-0.19 2.35,-0.454 0,-0.271 0,-0.344 0,-0.806 -0.37,-1.135 -0.51,-0.447 -1.5,-0.447 -0.93,0 -1.38,0.329 -0.44,0.323 -0.65,1.15 l -1.29,-0.175 q 0.17,-0.828 0.58,-1.334 0.4,-0.512 1.16,-0.783 0.76,-0.279 1.77,-0.279 0.99,0 1.62,0.235 0.62,0.234 0.91,0.593 0.29,0.352 0.41,0.894 0.1,0.337 0.1,1.215 l 0,1.758 q 0,1.839 0.1,2.329 0.1,0.484 0.33,0.931 l -1.37,0 q -0.21,-0.411 -0.27,-0.96 z m -0.11,-2.944 q -0.71,0.293 -2.15,0.498 -0.81,0.117 -1.15,0.263 -0.34,0.147 -0.52,0.433 -0.18,0.278 -0.18,0.622 0,0.528 0.39,0.879 0.41,0.352 1.18,0.352 0.76,0 1.35,-0.33 0.59,-0.337 0.87,-0.915 0.21,-0.447 0.21,-1.319 l 0,-0.483 z" />
<path class="z" d="m 126,50.729 1.3,0.169 q -0.21,1.34 -1.09,2.102 -0.87,0.754 -2.15,0.754 -1.59,0 -2.57,-1.04 -0.96,-1.047 -0.96,-2.995 0,-1.26 0.41,-2.205 0.42,-0.945 1.27,-1.413 0.86,-0.477 1.86,-0.477 1.27,0 2.07,0.645 0.81,0.637 1.04,1.816 l -1.29,0.198 q -0.18,-0.784 -0.65,-1.179 -0.46,-0.396 -1.12,-0.396 -0.99,0 -1.62,0.718 -0.62,0.711 -0.62,2.256 0,1.567 0.6,2.278 0.6,0.71 1.57,0.71 0.77,0 1.29,-0.476 0.52,-0.476 0.66,-1.465 z" />
<path class="z" d="m 128.44,53.579 0,-10.738 1.31,0 0,6.123 3.12,-3.164 1.71,0 -2.97,2.886 3.27,4.893 -1.63,0 -2.57,-3.977 -0.93,0.893 0,3.084 -1.31,0 z" />
<path class="z" d="m 135.42,50.356 0,-1.326 4.05,0 0,1.326 -4.05,0 z" />
<path class="z" d="m 140.94,53.579 0,-7.779 1.18,0 0,1.092 q 0.36,-0.572 0.97,-0.916 0.61,-0.352 1.39,-0.352 0.86,0 1.41,0.359 0.56,0.359 0.78,1.004 0.93,-1.363 2.4,-1.363 1.16,0 1.78,0.645 0.63,0.637 0.63,1.97 l 0,5.34 -1.31,0 0,-4.9 q 0,-0.791 -0.14,-1.136 -0.12,-0.351 -0.46,-0.564 -0.33,-0.212 -0.79,-0.212 -0.82,0 -1.36,0.549 -0.54,0.542 -0.54,1.744 l 0,4.519 -1.32,0 0,-5.054 q 0,-0.879 -0.32,-1.318 -0.33,-0.44 -1.06,-0.44 -0.55,0 -1.03,0.293 -0.47,0.293 -0.68,0.857 -0.21,0.564 -0.21,1.626 l 0,4.036 -1.32,0 z" />
<path class="z" d="m 158.8,51.074 1.36,0.168 q -0.32,1.194 -1.19,1.853 -0.87,0.659 -2.23,0.659 -1.7,0 -2.71,-1.047 -0.99,-1.055 -0.99,-2.952 0,-1.963 1.01,-3.047 1.01,-1.084 2.62,-1.084 1.56,0 2.55,1.062 0.99,1.063 0.99,2.989 0,0.117 -0,0.351 l -5.8,0 q 0.1,1.282 0.72,1.963 0.66,0.681 1.63,0.681 0.73,0 1.24,-0.38 0.51,-0.381 0.81,-1.216 z m -4.33,-2.132 4.35,0 q -0.1,-0.981 -0.5,-1.472 -0.63,-0.762 -1.64,-0.762 -0.9,0 -1.53,0.608 -0.61,0.608 -0.68,1.626 z" />
<path class="z" d="m 161.31,50.356 0,-1.326 4.05,0 0,1.326 -4.05,0 z" />
<path class="z" d="m 168.05,53.579 -1.22,0 0,-10.738 1.32,0 0,3.831 q 0.83,-1.048 2.13,-1.048 0.72,0 1.35,0.293 0.65,0.286 1.06,0.813 0.42,0.52 0.65,1.26 0.23,0.74 0.23,1.582 0,2 -0.98,3.091 -0.99,1.091 -2.38,1.091 -1.37,0 -2.16,-1.15 l 0,0.975 z m -0,-3.948 q 0,1.399 0.38,2.021 0.62,1.018 1.68,1.018 0.87,0 1.5,-0.747 0.63,-0.754 0.63,-2.241 0,-1.523 -0.61,-2.248 -0.6,-0.726 -1.46,-0.726 -0.86,0 -1.49,0.755 -0.63,0.747 -0.63,2.168 z" />
<path class="z" d="m 175.17,53.579 0,-7.779 1.19,0 0,1.179 q 0.45,-0.827 0.83,-1.091 0.39,-0.264 0.85,-0.264 0.67,0 1.36,0.425 l -0.46,1.223 q -0.48,-0.285 -0.96,-0.285 -0.44,0 -0.78,0.263 -0.34,0.257 -0.49,0.718 -0.22,0.703 -0.22,1.538 l 0,4.073 -1.32,0 z" />
<path class="z" d="m 179.7,49.689 q 0,-2.16 1.21,-3.2 1,-0.865 2.44,-0.865 1.61,0 2.62,1.055 1.02,1.048 1.02,2.901 0,1.501 -0.45,2.365 -0.45,0.857 -1.31,1.333 -0.86,0.476 -1.88,0.476 -1.63,0 -2.64,-1.047 -1.01,-1.047 -1.01,-3.018 z m 1.36,0 q 0,1.495 0.65,2.242 0.65,0.739 1.64,0.739 0.98,0 1.64,-0.747 0.65,-0.747 0.65,-2.278 0,-1.442 -0.66,-2.182 -0.65,-0.747 -1.63,-0.747 -0.99,0 -1.64,0.74 -0.65,0.739 -0.65,2.233 z" />
<path class="z" d="m 188.92,53.579 0,-1.502 1.5,0 0,1.502 -1.5,0 z" />
<path class="z" d="m 197.78,50.729 1.3,0.169 q -0.22,1.34 -1.09,2.102 -0.88,0.754 -2.15,0.754 -1.6,0 -2.57,-1.04 -0.97,-1.047 -0.97,-2.995 0,-1.26 0.42,-2.205 0.42,-0.945 1.27,-1.413 0.85,-0.477 1.86,-0.477 1.26,0 2.07,0.645 0.81,0.637 1.03,1.816 l -1.28,0.198 q -0.18,-0.784 -0.65,-1.179 -0.46,-0.396 -1.12,-0.396 -1,0 -1.62,0.718 -0.62,0.711 -0.62,2.256 0,1.567 0.6,2.278 0.6,0.71 1.57,0.71 0.77,0 1.29,-0.476 0.52,-0.476 0.66,-1.465 z" />
<path class="z" d="m 199.71,49.689 q 0,-2.16 1.21,-3.2 1,-0.865 2.44,-0.865 1.61,0 2.62,1.055 1.02,1.048 1.02,2.901 0,1.501 -0.45,2.365 -0.45,0.857 -1.31,1.333 -0.86,0.476 -1.88,0.476 -1.63,0 -2.64,-1.047 -1.01,-1.047 -1.01,-3.018 z m 1.36,0 q 0,1.495 0.65,2.242 0.65,0.739 1.64,0.739 0.98,0 1.64,-0.747 0.65,-0.747 0.65,-2.278 0,-1.442 -0.66,-2.182 -0.65,-0.747 -1.63,-0.747 -0.99,0 -1.64,0.74 -0.65,0.739 -0.65,2.233 z" />
<path class="z" d="m 208.55,53.579 0,-7.779 1.18,0 0,1.092 q 0.37,-0.572 0.98,-0.916 0.61,-0.352 1.38,-0.352 0.87,0 1.42,0.359 0.55,0.359 0.78,1.004 0.92,-1.363 2.4,-1.363 1.16,0 1.78,0.645 0.62,0.637 0.62,1.97 l 0,5.34 -1.31,0 0,-4.9 q 0,-0.791 -0.13,-1.136 -0.12,-0.351 -0.46,-0.564 -0.34,-0.212 -0.79,-0.212 -0.82,0 -1.36,0.549 -0.55,0.542 -0.55,1.744 l 0,4.519 -1.31,0 0,-5.054 q 0,-0.879 -0.33,-1.318 -0.32,-0.44 -1.05,-0.44 -0.56,0 -1.03,0.293 -0.47,0.293 -0.68,0.857 -0.22,0.564 -0.22,1.626 l 0,4.036 -1.32,0 z" />
</g>

<g id="categories" transform="translate(258 0)">
<path class="b" d="m 10.542956,34.871424 -0.240552,-25.3927302 10.143276,0.16148 4.770948,4.1581102 -0.160368,17.31873 -3.20736,4.48107 -11.305944,-0.72666 z m 8.339136,-5.6518 -0.160368,-12.15137 -1.483404,0 -0.160368,11.82841 1.80414,0.32296 z" />
<path class="b" d="m 37.338444,15.493824 2.044692,2.26072 -0.481104,14.73505 -2.80644,3.26997 -6.61518,-0.16148 -2.365428,-2.66442 -0.721656,-13.36247 2.044692,-4.15811 8.900424,0.08074 z m -5.051592,14.9369 1.483404,-0.16148 -0.160368,-9.36584 -1.20276,0.16148 -0.120276,9.36584 z" />
<path class="b" d="m 40.921667,35.476974 0.320736,-20.22537 4.891224,0.16148 0,1.41295 1.643772,-1.89739 5.131776,0 1.323036,3.31034 -0.280644,17.96465 -5.61288,0.16148 -0.160368,-14.89653 -1.042392,-0.16148 -0.120276,14.00839 -6.093984,0.16148 z" />
<path class="b" d="m 56.933409,17.391214 -1.443312,-2.78553 -0.240552,-4.8040302 4.530396,0 -0.320736,4.9251402 -1.082484,2.54331 -1.443312,0.12111 z" />
<path class="b" d="m 70.024449,17.431584 -0.240552,-1.93776 -1.924416,0.08074 0.04009,-4.27922 -5.332236,0.12111 0,4.19848 -1.964508,0 0.120277,1.93776 1.844231,0 0,18.1665 4.971408,-0.32296 0.320736,-17.96465 2.164968,0 z" />
<path class="b" d="m 80.811202,15.453454 -3.80874,-0.84777 3.768648,-2.70479 -1.80414,-2.3010903 -2.686164,4.2388503 0.160368,-4.2792203 -2.565888,0.20185 1.082484,3.3910803 -2.445612,-2.09924 -1.483404,2.09924 3.969108,1.49369 -3.287544,2.0185 1.964508,1.6148 1.80414,-2.17998 0.521196,3.47182 2.245152,-0.68629 -1.643772,-3.26997 3.447912,1.97813 0.761748,-2.13961 z" />
<path class="b" d="m 83.304924,35.275124 -0.60138,-24.6257 7.096284,-0.16148 0.441012,9.72917 1.323036,0 -0.280644,-10.2943502 7.497204,0.1614802 -0.721656,26.15976 -6.21426,-0.12111 -0.160368,-10.53657 -1.443312,0 -0.160368,9.85028 -6.775548,-0.16148 z" />
<path class="b" d="m 99.919049,23.325604 0.441011,-5.36921 1.88433,-2.8259 6.69536,0.32296 2.36543,3.59293 0,10.25398 1.4834,0.44407 0,5.81328 -4.12947,0.20185 -0.72166,-1.85702 -0.64147,1.65517 -4.28985,0.16148 -2.80644,-2.8259 0.32074,-5.97476 2.4857,-2.26072 3.28755,-0.24222 -0.32074,-4.31959 -1.0023,0 0.16037,3.2296 -5.211961,0 z m 5.773251,8.80066 1.0023,0 -0.16037,-4.48107 -1.0023,0 0.16037,4.48107 z" />
<path class="b" d="m 120.30984,26.393724 0,4.88477 -1.24285,-0.16148 -0.0802,-10.13287 1.16267,-0.08074 0.24055,3.99663 4.57049,-0.28259 -0.16037,-6.0555 -1.92441,-3.14886 -6.29445,0.32296 -2.68616,3.06812 0.40092,12.95877 1.92442,3.55256 5.81334,0.92851 2.64607,-3.26997 0.28064,-7.22623 -4.65067,0.64592 z" />
<path class="b" d="m 126.4359,35.557714 -0.32074,-25.55421 5.49261,0.32296 0.16036,10.73842 1.16267,-1.33221 1.76405,-5.08662 6.05389,0.60555 -3.08708,8.03363 -1.48341,1.45332 2.36543,1.37258 0.60138,10.0925 -5.57279,-0.28259 0,-7.71067 -1.60368,0.4037 0.16037,6.78216 -5.69306,0.16148 z" />
<path class="b" d="m 150.1884,15.453454 -3.80874,-0.84777 3.76865,-2.70479 -1.80414,-2.3010903 -2.68616,4.2388503 0.16037,-4.2792203 -2.56589,0.20185 1.08248,3.3910803 -2.44561,-2.09924 -1.4834,2.09924 3.9691,1.49369 -3.28754,2.0185 1.96451,1.6148 1.80414,-2.17998 0.52119,3.47182 2.24516,-0.68629 -1.64378,-3.26997 3.44792,1.97813 0.76174,-2.13961 z" />
<path class="b" d="m 151.60064,35.315494 0.80184,-25.5945802 7.25666,0.20185 2.44561,11.9091502 1.32303,-13.5643202 7.85804,0.56518 1.24285,27.0479002 -5.93362,-0.16148 -0.76175,-11.42471 -2.64607,11.26323 -1.64377,0 -2.72626,-9.93102 -0.40092,10.01176 -6.81564,-0.32296 z" />
<path class="b" d="m 173.52596,19.611564 1.68386,-4.48107 7.17647,0.32296 2.16497,3.59293 -0.32074,7.71067 -5.61288,0.16148 0,3.55256 1.04239,0 0.16037,-2.22035 4.41012,-0.16148 -0.12028,5.6518 -2.12487,1.65517 -6.45481,0.20185 -2.0046,-3.31034 0,-12.67618 z m 5.21196,4.15811 1.20276,-0.12111 -0.28065,-4.31959 -1.08248,0 0.16037,4.4407 z" />
<path class="b" d="m 195.37109,15.453454 -3.80874,-0.84777 3.76864,-2.70479 -1.80414,-2.3010903 -2.68616,4.2388503 0.16037,-4.2792203 -2.56589,0.20185 1.08248,3.3910803 -2.44561,-2.09924 -1.4834,2.09924 3.96911,1.49369 -3.28755,2.0185 1.96451,1.6148 1.80414,-2.17998 0.5212,3.47182 2.24515,-0.68629 -1.64377,-3.26997 3.44791,1.97813 0.76175,-2.13961 z" />
<path class="b" d="m 197.3837,34.790684 -0.40092,-24.70644 12.0677,-0.6055502 3.04699,4.6021802 -0.32074,7.46845 -1.80414,1.89739 1.56359,1.49369 0,8.19511 -2.0046,2.4222 -12.14788,-0.76703 z m 6.45482,-20.06389 0,5.77291 1.36312,0.12111 -0.16036,-5.81328 -1.20276,-0.08074 z m -0.16037,16.02689 1.32303,0.16148 0,-5.69217 -1.16266,0 -0.16037,5.53069 z" />
<path class="b" d="m 213.1128,35.598084 -0.20046,-20.185 4.65067,0.36333 0.44101,1.45332 1.32304,-1.93776 3.12717,0.20185 1.5235,1.81665 -0.12028,9.08325 -4.32993,-0.16148 -0.0802,-5.57106 -1.24285,0.12111 -0.40092,14.9369 -4.69076,-0.12111 z" />
<path class="b" d="m 236.15367,15.493824 2.04469,2.26072 -0.4811,14.73505 -2.80644,3.26997 -6.61518,-0.16148 -2.36543,-2.66442 -0.72166,-13.36247 2.0447,-4.15811 8.90042,0.08074 z m -5.05159,14.9369 1.4834,-0.16148 -0.16037,-9.36584 -1.20276,0.16148 -0.12027,9.36584 z" />
<path class="b" d="m 240.45855,29.219624 -1.12258,-19.9024103 7.09629,-0.20185 -0.44102,19.6601903 -5.53269,0.44407 z m 0.20046,1.53406 6.25435,-0.20185 0.20046,5.81328 -6.45481,-0.44407 0,-5.16736 z" />
<path class="z" d="m 35.498,53.579 -2.38,-7.779 1.362,0 1.238,4.49 0.461,1.67 q 0.03,-0.125 0.403,-1.604 l 1.238,-4.556 1.355,0 1.165,4.512 0.388,1.487 0.447,-1.502 1.333,-4.497 1.281,0 -2.431,7.779 -1.37,0 -1.238,-4.659 -0.3,-1.325 -1.575,5.984 -1.377,0 z" />
<path class="z" d="m 46.367,53.579 -2.38,-7.779 1.362,0 1.238,4.49 0.462,1.67 q 0.03,-0.125 0.402,-1.604 l 1.238,-4.556 1.355,0 1.165,4.512 0.388,1.487 0.447,-1.502 1.333,-4.497 1.281,0 -2.431,7.779 -1.37,0 -1.238,-4.659 -0.3,-1.325 -1.575,5.984 -1.377,0 z" />
<path class="z" d="m 57.237,53.579 -2.381,-7.779 1.362,0 1.238,4.49 0.462,1.67 q 0.03,-0.125 0.403,-1.604 l 1.237,-4.556 1.355,0 1.165,4.512 0.388,1.487 0.447,-1.502 1.333,-4.497 1.282,0 -2.432,7.779 -1.37,0 -1.238,-4.659 -0.3,-1.325 -1.575,5.984 -1.376,0 z" />
<path class="z" d="m 66.223,53.579 0,-1.502 1.502,0 0,1.502 -1.502,0 z" />
<path class="z" d="m 75.056,53.579 0,-0.982 q -0.739,1.157 -2.175,1.157 -0.93,0 -1.714,-0.512 -0.776,-0.513 -1.208,-1.429 -0.425,-0.922 -0.425,-2.116 0,-1.165 0.388,-2.11 0.388,-0.952 1.165,-1.457 0.776,-0.506 1.735,-0.506 0.704,0 1.253,0.301 0.549,0.293 0.893,0.769 l 0,-3.853 1.312,0 0,10.738 -1.224,0 z m -4.167,-3.882 q 0,1.494 0.63,2.234 0.63,0.739 1.487,0.739 0.864,0 1.464,-0.703 0.608,-0.71 0.608,-2.16 0,-1.597 -0.615,-2.344 -0.615,-0.747 -1.516,-0.747 -0.879,0 -1.472,0.718 -0.586,0.717 -0.586,2.263 z" />
<path class="z" d="m 77.869,49.689 q 0,-2.16 1.201,-3.2 1.003,-0.865 2.446,-0.865 1.604,0 2.622,1.055 1.018,1.048 1.018,2.901 0,1.501 -0.454,2.365 -0.446,0.857 -1.311,1.333 -0.857,0.476 -1.875,0.476 -1.633,0 -2.644,-1.047 -1.003,-1.047 -1.003,-3.018 z m 1.355,0 q 0,1.495 0.652,2.242 0.652,0.739 1.64,0.739 0.982,0 1.634,-0.747 0.651,-0.747 0.651,-2.278 0,-1.442 -0.659,-2.182 -0.652,-0.747 -1.626,-0.747 -0.988,0 -1.64,0.74 -0.652,0.739 -0.652,2.233 z" />
<path class="z" d="m 86.709,53.579 0,-7.779 1.187,0 0,1.106 q 0.857,-1.282 2.475,-1.282 0.703,0 1.289,0.257 0.594,0.249 0.887,0.659 0.293,0.41 0.41,0.974 0.07,0.366 0.07,1.282 l 0,4.783 -1.318,0 0,-4.732 q 0,-0.806 -0.154,-1.201 -0.154,-0.403 -0.549,-0.637 -0.389,-0.242 -0.916,-0.242 -0.842,0 -1.458,0.535 -0.607,0.534 -0.607,2.029 l 0,4.248 -1.319,0 z" />
<path class="z" d="m 97.937,52.399 0.191,1.165 q -0.557,0.117 -0.996,0.117 -0.718,0 -1.114,-0.227 -0.395,-0.227 -0.556,-0.593 -0.161,-0.374 -0.161,-1.56 l 0,-4.475 -0.967,0 0,-1.026 0.967,0 0,-1.926 1.311,-0.791 0,2.717 1.325,0 0,1.026 -1.325,0 0,4.548 q 0,0.564 0.07,0.725 0.07,0.161 0.228,0.256 0.161,0.1 0.454,0.1 0.219,0 0.578,-0.05 z" />
<path class="z" d="m 98.706,50.356 0,-1.326 4.054,0 0,1.326 -4.054,0 z" />
<path class="z" d="m 104.23,53.579 0,-10.738 1.32,0 0,3.853 q 0.92,-1.07 2.33,-1.07 0.86,0 1.5,0.345 0.63,0.337 0.91,0.937 0.27,0.601 0.27,1.743 l 0,4.93 -1.31,0 0,-4.93 q 0,-0.988 -0.44,-1.435 -0.42,-0.454 -1.2,-0.454 -0.59,0 -1.11,0.307 -0.51,0.301 -0.73,0.821 -0.22,0.52 -0.22,1.435 l 0,4.256 -1.32,0 z" />
<path class="z" d="m 117.65,52.619 q -0.73,0.623 -1.41,0.879 -0.67,0.256 -1.45,0.256 -1.28,0 -1.97,-0.622 -0.69,-0.63 -0.69,-1.604 0,-0.571 0.26,-1.04 0.26,-0.476 0.68,-0.762 0.42,-0.286 0.95,-0.432 0.39,-0.103 1.17,-0.198 1.6,-0.19 2.35,-0.454 0,-0.271 0,-0.344 0,-0.806 -0.37,-1.135 -0.51,-0.447 -1.5,-0.447 -0.93,0 -1.38,0.329 -0.44,0.323 -0.65,1.15 l -1.29,-0.175 q 0.17,-0.828 0.58,-1.334 0.4,-0.512 1.16,-0.783 0.76,-0.279 1.77,-0.279 0.99,0 1.62,0.235 0.62,0.234 0.91,0.593 0.29,0.352 0.41,0.894 0.1,0.337 0.1,1.215 l 0,1.758 q 0,1.839 0.1,2.329 0.1,0.484 0.33,0.931 l -1.37,0 q -0.21,-0.411 -0.27,-0.96 z m -0.11,-2.944 q -0.71,0.293 -2.15,0.498 -0.81,0.117 -1.15,0.263 -0.34,0.147 -0.52,0.433 -0.18,0.278 -0.18,0.622 0,0.528 0.39,0.879 0.41,0.352 1.18,0.352 0.76,0 1.35,-0.33 0.59,-0.337 0.87,-0.915 0.21,-0.447 0.21,-1.319 l 0,-0.483 z" />
<path class="z" d="m 126,50.729 1.3,0.169 q -0.21,1.34 -1.09,2.102 -0.87,0.754 -2.15,0.754 -1.59,0 -2.57,-1.04 -0.96,-1.047 -0.96,-2.995 0,-1.26 0.41,-2.205 0.42,-0.945 1.27,-1.413 0.86,-0.477 1.86,-0.477 1.27,0 2.07,0.645 0.81,0.637 1.04,1.816 l -1.29,0.198 q -0.18,-0.784 -0.65,-1.179 -0.46,-0.396 -1.12,-0.396 -0.99,0 -1.62,0.718 -0.62,0.711 -0.62,2.256 0,1.567 0.6,2.278 0.6,0.71 1.57,0.71 0.77,0 1.29,-0.476 0.52,-0.476 0.66,-1.465 z" />
<path class="z" d="m 128.44,53.579 0,-10.738 1.31,0 0,6.123 3.12,-3.164 1.71,0 -2.97,2.886 3.27,4.893 -1.63,0 -2.57,-3.977 -0.93,0.893 0,3.084 -1.31,0 z" />
<path class="z" d="m 135.42,50.356 0,-1.326 4.05,0 0,1.326 -4.05,0 z" />
<path class="z" d="m 140.94,53.579 0,-7.779 1.18,0 0,1.092 q 0.36,-0.572 0.97,-0.916 0.61,-0.352 1.39,-0.352 0.86,0 1.41,0.359 0.56,0.359 0.78,1.004 0.93,-1.363 2.4,-1.363 1.16,0 1.78,0.645 0.63,0.637 0.63,1.97 l 0,5.34 -1.31,0 0,-4.9 q 0,-0.791 -0.14,-1.136 -0.12,-0.351 -0.46,-0.564 -0.33,-0.212 -0.79,-0.212 -0.82,0 -1.36,0.549 -0.54,0.542 -0.54,1.744 l 0,4.519 -1.32,0 0,-5.054 q 0,-0.879 -0.32,-1.318 -0.33,-0.44 -1.06,-0.44 -0.55,0 -1.03,0.293 -0.47,0.293 -0.68,0.857 -0.21,0.564 -0.21,1.626 l 0,4.036 -1.32,0 z" />
<path class="z" d="m 158.8,51.074 1.36,0.168 q -0.32,1.194 -1.19,1.853 -0.87,0.659 -2.23,0.659 -1.7,0 -2.71,-1.047 -0.99,-1.055 -0.99,-2.952 0,-1.963 1.01,-3.047 1.01,-1.084 2.62,-1.084 1.56,0 2.55,1.062 0.99,1.063 0.99,2.989 0,0.117 -0,0.351 l -5.8,0 q 0.1,1.282 0.72,1.963 0.66,0.681 1.63,0.681 0.73,0 1.24,-0.38 0.51,-0.381 0.81,-1.216 z m -4.33,-2.132 4.35,0 q -0.1,-0.981 -0.5,-1.472 -0.63,-0.762 -1.64,-0.762 -0.9,0 -1.53,0.608 -0.61,0.608 -0.68,1.626 z" />
<path class="z" d="m 161.31,50.356 0,-1.326 4.05,0 0,1.326 -4.05,0 z" />
<path class="z" d="m 168.05,53.579 -1.22,0 0,-10.738 1.32,0 0,3.831 q 0.83,-1.048 2.13,-1.048 0.72,0 1.35,0.293 0.65,0.286 1.06,0.813 0.42,0.52 0.65,1.26 0.23,0.74 0.23,1.582 0,2 -0.98,3.091 -0.99,1.091 -2.38,1.091 -1.37,0 -2.16,-1.15 l 0,0.975 z m -0,-3.948 q 0,1.399 0.38,2.021 0.62,1.018 1.68,1.018 0.87,0 1.5,-0.747 0.63,-0.754 0.63,-2.241 0,-1.523 -0.61,-2.248 -0.6,-0.726 -1.46,-0.726 -0.86,0 -1.49,0.755 -0.63,0.747 -0.63,2.168 z" />
<path class="z" d="m 175.17,53.579 0,-7.779 1.19,0 0,1.179 q 0.45,-0.827 0.83,-1.091 0.39,-0.264 0.85,-0.264 0.67,0 1.36,0.425 l -0.46,1.223 q -0.48,-0.285 -0.96,-0.285 -0.44,0 -0.78,0.263 -0.34,0.257 -0.49,0.718 -0.22,0.703 -0.22,1.538 l 0,4.073 -1.32,0 z" />
<path class="z" d="m 179.7,49.689 q 0,-2.16 1.21,-3.2 1,-0.865 2.44,-0.865 1.61,0 2.62,1.055 1.02,1.048 1.02,2.901 0,1.501 -0.45,2.365 -0.45,0.857 -1.31,1.333 -0.86,0.476 -1.88,0.476 -1.63,0 -2.64,-1.047 -1.01,-1.047 -1.01,-3.018 z m 1.36,0 q 0,1.495 0.65,2.242 0.65,0.739 1.64,0.739 0.98,0 1.64,-0.747 0.65,-0.747 0.65,-2.278 0,-1.442 -0.66,-2.182 -0.65,-0.747 -1.63,-0.747 -0.99,0 -1.64,0.74 -0.65,0.739 -0.65,2.233 z" />
<path class="z" d="m 188.92,53.579 0,-1.502 1.5,0 0,1.502 -1.5,0 z" />
<path class="z" d="m 197.78,50.729 1.3,0.169 q -0.22,1.34 -1.09,2.102 -0.88,0.754 -2.15,0.754 -1.6,0 -2.57,-1.04 -0.97,-1.047 -0.97,-2.995 0,-1.26 0.42,-2.205 0.42,-0.945 1.27,-1.413 0.85,-0.477 1.86,-0.477 1.26,0 2.07,0.645 0.81,0.637 1.03,1.816 l -1.28,0.198 q -0.18,-0.784 -0.65,-1.179 -0.46,-0.396 -1.12,-0.396 -1,0 -1.62,0.718 -0.62,0.711 -0.62,2.256 0,1.567 0.6,2.278 0.6,0.71 1.57,0.71 0.77,0 1.29,-0.476 0.52,-0.476 0.66,-1.465 z" />
<path class="z" d="m 199.71,49.689 q 0,-2.16 1.21,-3.2 1,-0.865 2.44,-0.865 1.61,0 2.62,1.055 1.02,1.048 1.02,2.901 0,1.501 -0.45,2.365 -0.45,0.857 -1.31,1.333 -0.86,0.476 -1.88,0.476 -1.63,0 -2.64,-1.047 -1.01,-1.047 -1.01,-3.018 z m 1.36,0 q 0,1.495 0.65,2.242 0.65,0.739 1.64,0.739 0.98,0 1.64,-0.747 0.65,-0.747 0.65,-2.278 0,-1.442 -0.66,-2.182 -0.65,-0.747 -1.63,-0.747 -0.99,0 -1.64,0.74 -0.65,0.739 -0.65,2.233 z" />
<path class="z" d="m 208.55,53.579 0,-7.779 1.18,0 0,1.092 q 0.37,-0.572 0.98,-0.916 0.61,-0.352 1.38,-0.352 0.87,0 1.42,0.359 0.55,0.359 0.78,1.004 0.92,-1.363 2.4,-1.363 1.16,0 1.78,0.645 0.62,0.637 0.62,1.97 l 0,5.34 -1.31,0 0,-4.9 q 0,-0.791 -0.13,-1.136 -0.12,-0.351 -0.46,-0.564 -0.34,-0.212 -0.79,-0.212 -0.82,0 -1.36,0.549 -0.55,0.542 -0.55,1.744 l 0,4.519 -1.31,0 0,-5.054 q 0,-0.879 -0.33,-1.318 -0.32,-0.44 -1.05,-0.44 -0.56,0 -1.03,0.293 -0.47,0.293 -0.68,0.857 -0.22,0.564 -0.22,1.626 l 0,4.036 -1.32,0 z" />
</g>

<g id="tags" transform="translate(516 0)">
<path class="c" d="m 10.542956,34.871424 -0.240552,-25.3927302 10.143276,0.16148 4.770948,4.1581102 -0.160368,17.31873 -3.20736,4.48107 -11.305944,-0.72666 z m 8.339136,-5.6518 -0.160368,-12.15137 -1.483404,0 -0.160368,11.82841 1.80414,0.32296 z" />
<path class="c" d="m 37.338444,15.493824 2.044692,2.26072 -0.481104,14.73505 -2.80644,3.26997 -6.61518,-0.16148 -2.365428,-2.66442 -0.721656,-13.36247 2.044692,-4.15811 8.900424,0.08074 z m -5.051592,14.9369 1.483404,-0.16148 -0.160368,-9.36584 -1.20276,0.16148 -0.120276,9.36584 z" />
<path class="c" d="m 40.921667,35.476974 0.320736,-20.22537 4.891224,0.16148 0,1.41295 1.643772,-1.89739 5.131776,0 1.323036,3.31034 -0.280644,17.96465 -5.61288,0.16148 -0.160368,-14.89653 -1.042392,-0.16148 -0.120276,14.00839 -6.093984,0.16148 z" />
<path class="c" d="m 56.933409,17.391214 -1.443312,-2.78553 -0.240552,-4.8040302 4.530396,0 -0.320736,4.9251402 -1.082484,2.54331 -1.443312,0.12111 z" />
<path class="c" d="m 70.024449,17.431584 -0.240552,-1.93776 -1.924416,0.08074 0.04009,-4.27922 -5.332236,0.12111 0,4.19848 -1.964508,0 0.120277,1.93776 1.844231,0 0,18.1665 4.971408,-0.32296 0.320736,-17.96465 2.164968,0 z" />
<path class="c" d="m 80.811202,15.453454 -3.80874,-0.84777 3.768648,-2.70479 -1.80414,-2.3010903 -2.686164,4.2388503 0.160368,-4.2792203 -2.565888,0.20185 1.082484,3.3910803 -2.445612,-2.09924 -1.483404,2.09924 3.969108,1.49369 -3.287544,2.0185 1.964508,1.6148 1.80414,-2.17998 0.521196,3.47182 2.245152,-0.68629 -1.643772,-3.26997 3.447912,1.97813 0.761748,-2.13961 z" />
<path class="c" d="m 83.304924,35.275124 -0.60138,-24.6257 7.096284,-0.16148 0.441012,9.72917 1.323036,0 -0.280644,-10.2943502 7.497204,0.1614802 -0.721656,26.15976 -6.21426,-0.12111 -0.160368,-10.53657 -1.443312,0 -0.160368,9.85028 -6.775548,-0.16148 z" />
<path class="c" d="m 99.919049,23.325604 0.441011,-5.36921 1.88433,-2.8259 6.69536,0.32296 2.36543,3.59293 0,10.25398 1.4834,0.44407 0,5.81328 -4.12947,0.20185 -0.72166,-1.85702 -0.64147,1.65517 -4.28985,0.16148 -2.80644,-2.8259 0.32074,-5.97476 2.4857,-2.26072 3.28755,-0.24222 -0.32074,-4.31959 -1.0023,0 0.16037,3.2296 -5.211961,0 z m 5.773251,8.80066 1.0023,0 -0.16037,-4.48107 -1.0023,0 0.16037,4.48107 z" />
<path class="c" d="m 120.30984,26.393724 0,4.88477 -1.24285,-0.16148 -0.0802,-10.13287 1.16267,-0.08074 0.24055,3.99663 4.57049,-0.28259 -0.16037,-6.0555 -1.92441,-3.14886 -6.29445,0.32296 -2.68616,3.06812 0.40092,12.95877 1.92442,3.55256 5.81334,0.92851 2.64607,-3.26997 0.28064,-7.22623 -4.65067,0.64592 z" />
<path class="c" d="m 126.4359,35.557714 -0.32074,-25.55421 5.49261,0.32296 0.16036,10.73842 1.16267,-1.33221 1.76405,-5.08662 6.05389,0.60555 -3.08708,8.03363 -1.48341,1.45332 2.36543,1.37258 0.60138,10.0925 -5.57279,-0.28259 0,-7.71067 -1.60368,0.4037 0.16037,6.78216 -5.69306,0.16148 z" />
<path class="c" d="m 150.1884,15.453454 -3.80874,-0.84777 3.76865,-2.70479 -1.80414,-2.3010903 -2.68616,4.2388503 0.16037,-4.2792203 -2.56589,0.20185 1.08248,3.3910803 -2.44561,-2.09924 -1.4834,2.09924 3.9691,1.49369 -3.28754,2.0185 1.96451,1.6148 1.80414,-2.17998 0.52119,3.47182 2.24516,-0.68629 -1.64378,-3.26997 3.44792,1.97813 0.76174,-2.13961 z" />
<path class="c" d="m 151.60064,35.315494 0.80184,-25.5945802 7.25666,0.20185 2.44561,11.9091502 1.32303,-13.5643202 7.85804,0.56518 1.24285,27.0479002 -5.93362,-0.16148 -0.76175,-11.42471 -2.64607,11.26323 -1.64377,0 -2.72626,-9.93102 -0.40092,10.01176 -6.81564,-0.32296 z" />
<path class="c" d="m 173.52596,19.611564 1.68386,-4.48107 7.17647,0.32296 2.16497,3.59293 -0.32074,7.71067 -5.61288,0.16148 0,3.55256 1.04239,0 0.16037,-2.22035 4.41012,-0.16148 -0.12028,5.6518 -2.12487,1.65517 -6.45481,0.20185 -2.0046,-3.31034 0,-12.67618 z m 5.21196,4.15811 1.20276,-0.12111 -0.28065,-4.31959 -1.08248,0 0.16037,4.4407 z" />
<path class="c" d="m 195.37109,15.453454 -3.80874,-0.84777 3.76864,-2.70479 -1.80414,-2.3010903 -2.68616,4.2388503 0.16037,-4.2792203 -2.56589,0.20185 1.08248,3.3910803 -2.44561,-2.09924 -1.4834,2.09924 3.96911,1.49369 -3.28755,2.0185 1.96451,1.6148 1.80414,-2.17998 0.5212,3.47182 2.24515,-0.68629 -1.64377,-3.26997 3.44791,1.97813 0.76175,-2.13961 z" />
<path class="c" d="m 197.3837,34.790684 -0.40092,-24.70644 12.0677,-0.6055502 3.04699,4.6021802 -0.32074,7.46845 -1.80414,1.89739 1.56359,1.49369 0,8.19511 -2.0046,2.4222 -12.14788,-0.76703 z m 6.45482,-20.06389 0,5.77291 1.36312,0.12111 -0.16036,-5.81328 -1.20276,-0.08074 z m -0.16037,16.02689 1.32303,0.16148 0,-5.69217 -1.16266,0 -0.16037,5.53069 z" />
<path class="c" d="m 213.1128,35.598084 -0.20046,-20.185 4.65067,0.36333 0.44101,1.45332 1.32304,-1.93776 3.12717,0.20185 1.5235,1.81665 -0.12028,9.08325 -4.32993,-0.16148 -0.0802,-5.57106 -1.24285,0.12111 -0.40092,14.9369 -4.69076,-0.12111 z" />
<path class="c" d="m 236.15367,15.493824 2.04469,2.26072 -0.4811,14.73505 -2.80644,3.26997 -6.61518,-0.16148 -2.36543,-2.66442 -0.72166,-13.36247 2.0447,-4.15811 8.90042,0.08074 z m -5.05159,14.9369 1.4834,-0.16148 -0.16037,-9.36584 -1.20276,0.16148 -0.12027,9.36584 z" />
<path class="c" d="m 240.45855,29.219624 -1.12258,-19.9024103 7.09629,-0.20185 -0.44102,19.6601903 -5.53269,0.44407 z m 0.20046,1.53406 6.25435,-0.20185 0.20046,5.81328 -6.45481,-0.44407 0,-5.16736 z" />
<path class="z" d="m 35.498,53.579 -2.38,-7.779 1.362,0 1.238,4.49 0.461,1.67 q 0.03,-0.125 0.403,-1.604 l 1.238,-4.556 1.355,0 1.165,4.512 0.388,1.487 0.447,-1.502 1.333,-4.497 1.281,0 -2.431,7.779 -1.37,0 -1.238,-4.659 -0.3,-1.325 -1.575,5.984 -1.377,0 z" />
<path class="z" d="m 46.367,53.579 -2.38,-7.779 1.362,0 1.238,4.49 0.462,1.67 q 0.03,-0.125 0.402,-1.604 l 1.238,-4.556 1.355,0 1.165,4.512 0.388,1.487 0.447,-1.502 1.333,-4.497 1.281,0 -2.431,7.779 -1.37,0 -1.238,-4.659 -0.3,-1.325 -1.575,5.984 -1.377,0 z" />
<path class="z" d="m 57.237,53.579 -2.381,-7.779 1.362,0 1.238,4.49 0.462,1.67 q 0.03,-0.125 0.403,-1.604 l 1.237,-4.556 1.355,0 1.165,4.512 0.388,1.487 0.447,-1.502 1.333,-4.497 1.282,0 -2.432,7.779 -1.37,0 -1.238,-4.659 -0.3,-1.325 -1.575,5.984 -1.376,0 z" />
<path class="z" d="m 66.223,53.579 0,-1.502 1.502,0 0,1.502 -1.502,0 z" />
<path class="z" d="m 75.056,53.579 0,-0.982 q -0.739,1.157 -2.175,1.157 -0.93,0 -1.714,-0.512 -0.776,-0.513 -1.208,-1.429 -0.425,-0.922 -0.425,-2.116 0,-1.165 0.388,-2.11 0.388,-0.952 1.165,-1.457 0.776,-0.506 1.735,-0.506 0.704,0 1.253,0.301 0.549,0.293 0.893,0.769 l 0,-3.853 1.312,0 0,10.738 -1.224,0 z m -4.167,-3.882 q 0,1.494 0.63,2.234 0.63,0.739 1.487,0.739 0.864,0 1.464,-0.703 0.608,-0.71 0.608,-2.16 0,-1.597 -0.615,-2.344 -0.615,-0.747 -1.516,-0.747 -0.879,0 -1.472,0.718 -0.586,0.717 -0.586,2.263 z" />
<path class="z" d="m 77.869,49.689 q 0,-2.16 1.201,-3.2 1.003,-0.865 2.446,-0.865 1.604,0 2.622,1.055 1.018,1.048 1.018,2.901 0,1.501 -0.454,2.365 -0.446,0.857 -1.311,1.333 -0.857,0.476 -1.875,0.476 -1.633,0 -2.644,-1.047 -1.003,-1.047 -1.003,-3.018 z m 1.355,0 q 0,1.495 0.652,2.242 0.652,0.739 1.64,0.739 0.982,0 1.634,-0.747 0.651,-0.747 0.651,-2.278 0,-1.442 -0.659,-2.182 -0.652,-0.747 -1.626,-0.747 -0.988,0 -1.64,0.74 -0.652,0.739 -0.652,2.233 z" />
<path class="z" d="m 86.709,53.579 0,-7.779 1.187,0 0,1.106 q 0.857,-1.282 2.475,-1.282 0.703,0 1.289,0.257 0.594,0.249 0.887,0.659 0.293,0.41 0.41,0.974 0.07,0.366 0.07,1.282 l 0,4.783 -1.318,0 0,-4.732 q 0,-0.806 -0.154,-1.201 -0.154,-0.403 -0.549,-0.637 -0.389,-0.242 -0.916,-0.242 -0.842,0 -1.458,0.535 -0.607,0.534 -0.607,2.029 l 0,4.248 -1.319,0 z" />
<path class="z" d="m 97.937,52.399 0.191,1.165 q -0.557,0.117 -0.996,0.117 -0.718,0 -1.114,-0.227 -0.395,-0.227 -0.556,-0.593 -0.161,-0.374 -0.161,-1.56 l 0,-4.475 -0.967,0 0,-1.026 0.967,0 0,-1.926 1.311,-0.791 0,2.717 1.325,0 0,1.026 -1.325,0 0,4.548 q 0,0.564 0.07,0.725 0.07,0.161 0.228,0.256 0.161,0.1 0.454,0.1 0.219,0 0.578,-0.05 z" />
<path class="z" d="m 98.706,50.356 0,-1.326 4.054,0 0,1.326 -4.054,0 z" />
<path class="z" d="m 104.23,53.579 0,-10.738 1.32,0 0,3.853 q 0.92,-1.07 2.33,-1.07 0.86,0 1.5,0.345 0.63,0.337 0.91,0.937 0.27,0.601 0.27,1.743 l 0,4.93 -1.31,0 0,-4.93 q 0,-0.988 -0.44,-1.435 -0.42,-0.454 -1.2,-0.454 -0.59,0 -1.11,0.307 -0.51,0.301 -0.73,0.821 -0.22,0.52 -0.22,1.435 l 0,4.256 -1.32,0 z" />
<path class="z" d="m 117.65,52.619 q -0.73,0.623 -1.41,0.879 -0.67,0.256 -1.45,0.256 -1.28,0 -1.97,-0.622 -0.69,-0.63 -0.69,-1.604 0,-0.571 0.26,-1.04 0.26,-0.476 0.68,-0.762 0.42,-0.286 0.95,-0.432 0.39,-0.103 1.17,-0.198 1.6,-0.19 2.35,-0.454 0,-0.271 0,-0.344 0,-0.806 -0.37,-1.135 -0.51,-0.447 -1.5,-0.447 -0.93,0 -1.38,0.329 -0.44,0.323 -0.65,1.15 l -1.29,-0.175 q 0.17,-0.828 0.58,-1.334 0.4,-0.512 1.16,-0.783 0.76,-0.279 1.77,-0.279 0.99,0 1.62,0.235 0.62,0.234 0.91,0.593 0.29,0.352 0.41,0.894 0.1,0.337 0.1,1.215 l 0,1.758 q 0,1.839 0.1,2.329 0.1,0.484 0.33,0.931 l -1.37,0 q -0.21,-0.411 -0.27,-0.96 z m -0.11,-2.944 q -0.71,0.293 -2.15,0.498 -0.81,0.117 -1.15,0.263 -0.34,0.147 -0.52,0.433 -0.18,0.278 -0.18,0.622 0,0.528 0.39,0.879 0.41,0.352 1.18,0.352 0.76,0 1.35,-0.33 0.59,-0.337 0.87,-0.915 0.21,-0.447 0.21,-1.319 l 0,-0.483 z" />
<path class="z" d="m 126,50.729 1.3,0.169 q -0.21,1.34 -1.09,2.102 -0.87,0.754 -2.15,0.754 -1.59,0 -2.57,-1.04 -0.96,-1.047 -0.96,-2.995 0,-1.26 0.41,-2.205 0.42,-0.945 1.27,-1.413 0.86,-0.477 1.86,-0.477 1.27,0 2.07,0.645 0.81,0.637 1.04,1.816 l -1.29,0.198 q -0.18,-0.784 -0.65,-1.179 -0.46,-0.396 -1.12,-0.396 -0.99,0 -1.62,0.718 -0.62,0.711 -0.62,2.256 0,1.567 0.6,2.278 0.6,0.71 1.57,0.71 0.77,0 1.29,-0.476 0.52,-0.476 0.66,-1.465 z" />
<path class="z" d="m 128.44,53.579 0,-10.738 1.31,0 0,6.123 3.12,-3.164 1.71,0 -2.97,2.886 3.27,4.893 -1.63,0 -2.57,-3.977 -0.93,0.893 0,3.084 -1.31,0 z" />
<path class="z" d="m 135.42,50.356 0,-1.326 4.05,0 0,1.326 -4.05,0 z" />
<path class="z" d="m 140.94,53.579 0,-7.779 1.18,0 0,1.092 q 0.36,-0.572 0.97,-0.916 0.61,-0.352 1.39,-0.352 0.86,0 1.41,0.359 0.56,0.359 0.78,1.004 0.93,-1.363 2.4,-1.363 1.16,0 1.78,0.645 0.63,0.637 0.63,1.97 l 0,5.34 -1.31,0 0,-4.9 q 0,-0.791 -0.14,-1.136 -0.12,-0.351 -0.46,-0.564 -0.33,-0.212 -0.79,-0.212 -0.82,0 -1.36,0.549 -0.54,0.542 -0.54,1.744 l 0,4.519 -1.32,0 0,-5.054 q 0,-0.879 -0.32,-1.318 -0.33,-0.44 -1.06,-0.44 -0.55,0 -1.03,0.293 -0.47,0.293 -0.68,0.857 -0.21,0.564 -0.21,1.626 l 0,4.036 -1.32,0 z" />
<path class="z" d="m 158.8,51.074 1.36,0.168 q -0.32,1.194 -1.19,1.853 -0.87,0.659 -2.23,0.659 -1.7,0 -2.71,-1.047 -0.99,-1.055 -0.99,-2.952 0,-1.963 1.01,-3.047 1.01,-1.084 2.62,-1.084 1.56,0 2.55,1.062 0.99,1.063 0.99,2.989 0,0.117 -0,0.351 l -5.8,0 q 0.1,1.282 0.72,1.963 0.66,0.681 1.63,0.681 0.73,0 1.24,-0.38 0.51,-0.381 0.81,-1.216 z m -4.33,-2.132 4.35,0 q -0.1,-0.981 -0.5,-1.472 -0.63,-0.762 -1.64,-0.762 -0.9,0 -1.53,0.608 -0.61,0.608 -0.68,1.626 z" />
<path class="z" d="m 161.31,50.356 0,-1.326 4.05,0 0,1.326 -4.05,0 z" />
<path class="z" d="m 168.05,53.579 -1.22,0 0,-10.738 1.32,0 0,3.831 q 0.83,-1.048 2.13,-1.048 0.72,0 1.35,0.293 0.65,0.286 1.06,0.813 0.42,0.52 0.65,1.26 0.23,0.74 0.23,1.582 0,2 -0.98,3.091 -0.99,1.091 -2.38,1.091 -1.37,0 -2.16,-1.15 l 0,0.975 z m -0,-3.948 q 0,1.399 0.38,2.021 0.62,1.018 1.68,1.018 0.87,0 1.5,-0.747 0.63,-0.754 0.63,-2.241 0,-1.523 -0.61,-2.248 -0.6,-0.726 -1.46,-0.726 -0.86,0 -1.49,0.755 -0.63,0.747 -0.63,2.168 z" />
<path class="z" d="m 175.17,53.579 0,-7.779 1.19,0 0,1.179 q 0.45,-0.827 0.83,-1.091 0.39,-0.264 0.85,-0.264 0.67,0 1.36,0.425 l -0.46,1.223 q -0.48,-0.285 -0.96,-0.285 -0.44,0 -0.78,0.263 -0.34,0.257 -0.49,0.718 -0.22,0.703 -0.22,1.538 l 0,4.073 -1.32,0 z" />
<path class="z" d="m 179.7,49.689 q 0,-2.16 1.21,-3.2 1,-0.865 2.44,-0.865 1.61,0 2.62,1.055 1.02,1.048 1.02,2.901 0,1.501 -0.45,2.365 -0.45,0.857 -1.31,1.333 -0.86,0.476 -1.88,0.476 -1.63,0 -2.64,-1.047 -1.01,-1.047 -1.01,-3.018 z m 1.36,0 q 0,1.495 0.65,2.242 0.65,0.739 1.64,0.739 0.98,0 1.64,-0.747 0.65,-0.747 0.65,-2.278 0,-1.442 -0.66,-2.182 -0.65,-0.747 -1.63,-0.747 -0.99,0 -1.64,0.74 -0.65,0.739 -0.65,2.233 z" />
<path class="z" d="m 188.92,53.579 0,-1.502 1.5,0 0,1.502 -1.5,0 z" />
<path class="z" d="m 197.78,50.729 1.3,0.169 q -0.22,1.34 -1.09,2.102 -0.88,0.754 -2.15,0.754 -1.6,0 -2.57,-1.04 -0.97,-1.047 -0.97,-2.995 0,-1.26 0.42,-2.205 0.42,-0.945 1.27,-1.413 0.85,-0.477 1.86,-0.477 1.26,0 2.07,0.645 0.81,0.637 1.03,1.816 l -1.28,0.198 q -0.18,-0.784 -0.65,-1.179 -0.46,-0.396 -1.12,-0.396 -1,0 -1.62,0.718 -0.62,0.711 -0.62,2.256 0,1.567 0.6,2.278 0.6,0.71 1.57,0.71 0.77,0 1.29,-0.476 0.52,-0.476 0.66,-1.465 z" />
<path class="z" d="m 199.71,49.689 q 0,-2.16 1.21,-3.2 1,-0.865 2.44,-0.865 1.61,0 2.62,1.055 1.02,1.048 1.02,2.901 0,1.501 -0.45,2.365 -0.45,0.857 -1.31,1.333 -0.86,0.476 -1.88,0.476 -1.63,0 -2.64,-1.047 -1.01,-1.047 -1.01,-3.018 z m 1.36,0 q 0,1.495 0.65,2.242 0.65,0.739 1.64,0.739 0.98,0 1.64,-0.747 0.65,-0.747 0.65,-2.278 0,-1.442 -0.66,-2.182 -0.65,-0.747 -1.63,-0.747 -0.99,0 -1.64,0.74 -0.65,0.739 -0.65,2.233 z" />
<path class="z" d="m 208.55,53.579 0,-7.779 1.18,0 0,1.092 q 0.37,-0.572 0.98,-0.916 0.61,-0.352 1.38,-0.352 0.87,0 1.42,0.359 0.55,0.359 0.78,1.004 0.92,-1.363 2.4,-1.363 1.16,0 1.78,0.645 0.62,0.637 0.62,1.97 l 0,5.34 -1.31,0 0,-4.9 q 0,-0.791 -0.13,-1.136 -0.12,-0.351 -0.46,-0.564 -0.34,-0.212 -0.79,-0.212 -0.82,0 -1.36,0.549 -0.55,0.542 -0.55,1.744 l 0,4.519 -1.31,0 0,-5.054 q 0,-0.879 -0.33,-1.318 -0.32,-0.44 -1.05,-0.44 -0.56,0 -1.03,0.293 -0.47,0.293 -0.68,0.857 -0.22,0.564 -0.22,1.626 l 0,4.036 -1.32,0 z" />
</g>

<style>
.a{fill:#3ed481;fill-opacity:1;stroke:#000000;stroke-width:0.75;stroke-miterlimit:4;stroke-opacity:1}
.b{fill:#f6ca2f;fill-opacity:1;stroke:#000000;stroke-width:0.75;stroke-miterlimit:4;stroke-opacity:1}
.c{fill:#b2b5ff;fill-opacity:1;stroke:#000000;stroke-width:0.75;stroke-miterlimit:4;stroke-opacity:1}
.z{fill:#000000;fill-opacity:1;stroke:#000000;stroke-width:0.1;stroke-opacity:1}
</style>

</svg>