<?xml version="1.0" encoding="UTF-8" standalone="no"?>
<svg xmlns="http://www.w3.org/2000/svg" viewBox="0 0 768 48" width="100%" height="100%">

<view id="base" viewBox="0 0 256 48" />
<view id="categories" viewBox="256 0 256 48" />
<view id="tags" viewBox="512 0 256 48" />

<g id="base" transform="translate(0 0)">
<path class="a" d="m 10.542956,34.871424 -0.240552,-25.3927302 10.143276,0.16148 4.770948,4.1581102 -0.160368,17.31873 -3.20736,4.48107 -11.305944,-0.72666 z m 8.339136,-5.6518 -0.160368,-12.15137 -1.483404,0 -0.160368,11.82841 1.80414,0.32296 z" />
<path class="a" d="m 37.338444,15.493824 2.044692,2.26072 -0.481104,14.73505 -2.80644,3.26997 -6.61518,-0.16148 -2.365428,-2.66442 -0.721656,-13.36247 2.044692,-4.15811 8.900424,0.08074 z m -5.051592,14.9369 1.483404,-0.16148 -0.160368,-9.36584 -1.20276,0.16148 -0.120276,9.36584 z" />
<path class="a" d="m 40.921667,35.476974 0.320736,-20.22537 4.891224,0.16148 0,1.41295 1.643772,-1.89739 5.131776,0 1.323036,3.31034 -0.280644,17.96465 -5.61288,0.16148 -0.160368,-14.89653 -1.042392,-0.16148 -0.120276,14.00839 -6.093984,0.16148 z" />
<path class="a" d="m 56.933409,17.391214 -1.443312,-2.78553 -0.240552,-4.8040302 4.530396,0 -0.320736,4.9251402 -1.082484,2.54331 -1.443312,0.12111 z" />
<path class="a" d="m 70.024449,17.431584 -0.240552,-1.93776 -1.924416,0.08074 0.04009,-4.27922 -5.332236,0.12111 0,4.19848 -1.964508,0 0.120277,1.93776 1.844231,0 0,18.1665 4.971408,-0.32296 0.320736,-17.96465 2.164968,0 z" />
<path class="a" d="m 80.811202,15.453454 -3.80874,-0.84777 3.768648,-2.70479 -1.80414,-2.3010903 -2.686164,4.2388503 0.160368,-4.2792203 -2.565888,0.20185 1.082484,3.3910803 -2.445612,-2.09924 -1.483404,2.09924 3.969108,1.49369 -3.287544,2.0185 1.964508,1.6148 1.80414,-2.17998 0.521196,3.47182 2.245152,-0.68629 -1.643772,-3.26997 3.447912,1.97813 0.761748,-2.13961 z" />
<path class="a" d="m 83.304924,35.275124 -0.60138,-24.6257 7.096284,-0.16148 0.441012,9.72917 1.323036,0 -0.280644,-10.2943502 7.497204,0.1614802 -0.721656,26.15976 -6.21426,-0.12111 -0.160368,-10.53657 -1.443312,0 -0.160368,9.85028 -6.775548,-0.16148 z" />
<path class="a" d="m 99.919049,23.325604 0.441011,-5.36921 1.88433,-2.8259 6.69536,0.32296 2.36543,3.59293 0,10.25398 1.4834,0.44407 0,5.81328 -4.12947,0.20185 -0.72166,-1.85702 -0.64147,1.65517 -4.28985,0.16148 -2.80644,-2.8259 0.32074,-5.97476 2.4857,-2.26072 3.28755,-0.24222 -0.32074,-4.31959 -1.0023,0 0.16037,3.2296 -5.211961,0 z m 5.773251,8.80066 1.0023,0 -0.16037,-4.48107 -1.0023,0 0.16037,4.48107 z" />
<path class="a" d="m 120.30984,26.393724 0,4.88477 -1.24285,-0.16148 -0.0802,-10.13287 1.16267,-0.08074 0.24055,3.99663 4.57049,-0.28259 -0.16037,-6.0555 -1.92441,-3.14886 -6.29445,0.32296 -2.68616,3.06812 0.40092,12.95877 1.92442,3.55256 5.81334,0.92851 2.64607,-3.26997 0.28064,-7.22623 -4.65067,0.64592 z" />
<path class="a" d="m 126.4359,35.557714 -0.32074,-25.55421 5.49261,0.32296 0.16036,10.73842 1.16267,-1.33221 1.76405,-5.08662 6.05389,0.60555 -3.08708,8.03363 -1.48341,1.45332 2.36543,1.37258 0.60138,10.0925 -5.57279,-0.28259 0,-7.71067 -1.60368,0.4037 0.16037,6.78216 -5.69306,0.16148 z" />
<path class="a" d="m 150.1884,15.453454 -3.80874,-0.84777 3.76865,-2.70479 -1.80414,-2.3010903 -2.68616,4.2388503 0.16037,-4.2792203 -2.56589,0.20185 1.08248,3.3910803 -2.44561,-2.09924 -1.4834,2.09924 3.9691,1.49369 -3.28754,2.0185 1.96451,1.6148 1.80414,-2.17998 0.52119,3.47182 2.24516,-0.68629 -1.64378,-3.26997 3.44792,1.97813 0.76174,-2.13961 z" />
<path class="a" d="m 151.60064,35.315494 0.80184,-25.5945802 7.25666,0.20185 2.44561,11.9091502 1.32303,-13.5643202 7.85804,0.56518 1.24285,27.0479002 -5.93362,-0.16148 -0.76175,-11.42471 -2.64607,11.26323 -1.64377,0 -2.72626,-9.93102 -0.40092,10.01176 -6.81564,-0.32296 z" />
<path class="a" d="m 173.52596,19.611564 1.68386,-4.48107 7.17647,0.32296 2.16497,3.59293 -0.32074,7.71067 -5.61288,0.16148 0,3.55256 1.04239,0 0.16037,-2.22035 4.41012,-0.16148 -0.12028,5.6518 -2.12487,1.65517 -6.45481,0.20185 -2.0046,-3.31034 0,-12.67618 z m 5.21196,4.15811 1.20276,-0.12111 -0.28065,-4.31959 -1.08248,0 0.16037,4.4407 z" />
<path class="a" d="m 195.37109,15.453454 -3.80874,-0.84777 3.76864,-2.70479 -1.80414,-2.3010903 -2.68616,4.2388503 0.16037,-4.2792203 -2.56589,0.20185 1.08248,3.3910803 -2.44561,-2.09924 -1.4834,2.09924 3.96911,1.49369 -3.28755,2.0185 1.96451,1.6148 1.80414,-2.17998 0.5212,3.47182 2.24515,-0.68629 -1.64377,-3.26997 3.44791,1.97813 0.76175,-2.13961 z" />
<path class="a" d="m 197.3837,34.790684 -0.40092,-24.70644 12.0677,-0.6055502 3.04699,4.6021802 -0.32074,7.46845 -1.80414,1.89739 1.56359,1.49369 0,8.19511 -2.0046,2.4222 -12.14788,-0.76703 z m 6.45482,-20.06389 0,5.77291 1.36312,0.12111 -0.16036,-5.81328 -1.20276,-0.08074 z m -0.16037,16.02689 1.32303,0.16148 0,-5.69217 -1.16266,0 -0.16037,5.53069 z" />
<path class="a" d="m 213.1128,35.598084 -0.20046,-20.185 4.65067,0.36333 0.44101,1.45332 1.32304,-1.93776 3.12717,0.20185 1.5235,1.81665 -0.12028,9.08325 -4.32993,-0.16148 -0.0802,-5.57106 -1.24285,0.12111 -0.40092,14.9369 -4.69076,-0.12111 z" />
<path class="a" d="m 236.15367,15.493824 2.04469,2.26072 -0.4811,14.73505 -2.80644,3.26997 -6.61518,-0.16148 -2.36543,-2.66442 -0.72166,-13.36247 2.0447,-4.15811 8.90042,0.08074 z m -5.05159,14.9369 1.4834,-0.16148 -0.16037,-9.36584 -1.20276,0.16148 -0.12027,9.36584 z" />
<path class="a" d="m 240.45855,29.219624 -1.12258,-19.9024103 7.09629,-0.20185 -0.44102,19.6601903 -5.53269,0.44407 z m 0.20046,1.53406 6.25435,-0.20185 0.20046,5.81328 -6.45481,-0.44407 0,-5.16736 z" />
</g>

<g id="categories" transform="translate(256 0)">
<path class="b" d="m 10.542956,34.871424 -0.240552,-25.3927302 10.143276,0.16148 4.770948,4.1581102 -0.160368,17.31873 -3.20736,4.48107 -11.305944,-0.72666 z m 8.339136,-5.6518 -0.160368,-12.15137 -1.483404,0 -0.160368,11.82841 1.80414,0.32296 z" />
<path class="b" d="m 37.338444,15.493824 2.044692,2.26072 -0.481104,14.73505 -2.80644,3.26997 -6.61518,-0.16148 -2.365428,-2.66442 -0.721656,-13.36247 2.044692,-4.15811 8.900424,0.08074 z m -5.051592,14.9369 1.483404,-0.16148 -0.160368,-9.36584 -1.20276,0.16148 -0.120276,9.36584 z" />
<path class="b" d="m 40.921667,35.476974 0.320736,-20.22537 4.891224,0.16148 0,1.41295 1.643772,-1.89739 5.131776,0 1.323036,3.31034 -0.280644,17.96465 -5.61288,0.16148 -0.160368,-14.89653 -1.042392,-0.16148 -0.120276,14.00839 -6.093984,0.16148 z" />
<path class="b" d="m 56.933409,17.391214 -1.443312,-2.78553 -0.240552,-4.8040302 4.530396,0 -0.320736,4.9251402 -1.082484,2.54331 -1.443312,0.12111 z" />
<path class="b" d="m 70.024449,17.431584 -0.240552,-1.93776 -1.924416,0.08074 0.04009,-4.27922 -5.332236,0.12111 0,4.19848 -1.964508,0 0.120277,1.93776 1.844231,0 0,18.1665 4.971408,-0.32296 0.320736,-17.96465 2.164968,0 z" />
<path class="b" d="m 80.811202,15.453454 -3.80874,-0.84777 3.768648,-2.70479 -1.80414,-2.3010903 -2.686164,4.2388503 0.160368,-4.2792203 -2.565888,0.20185 1.082484,3.3910803 -2.445612,-2.09924 -1.483404,2.09924 3.969108,1.49369 -3.287544,2.0185 1.964508,1.6148 1.80414,-2.17998 0.521196,3.47182 2.245152,-0.68629 -1.643772,-3.26997 3.447912,1.97813 0.761748,-2.13961 z" />
<path class="b" d="m 83.304924,35.275124 -0.60138,-24.6257 7.096284,-0.16148 0.441012,9.72917 1.323036,0 -0.280644,-10.2943502 7.497204,0.1614802 -0.721656,26.15976 -6.21426,-0.12111 -0.160368,-10.53657 -1.443312,0 -0.160368,9.85028 -6.775548,-0.16148 z" />
<path class="b" d="m 99.919049,23.325604 0.441011,-5.36921 1.88433,-2.8259 6.69536,0.32296 2.36543,3.59293 0,10.25398 1.4834,0.44407 0,5.81328 -4.12947,0.20185 -0.72166,-1.85702 -0.64147,1.65517 -4.28985,0.16148 -2.80644,-2.8259 0.32074,-5.97476 2.4857,-2.26072 3.28755,-0.24222 -0.32074,-4.31959 -1.0023,0 0.16037,3.2296 -5.211961,0 z m 5.773251,8.80066 1.0023,0 -0.16037,-4.48107 -1.0023,0 0.16037,4.48107 z" />
<path class="b" d="m 120.30984,26.393724 0,4.88477 -1.24285,-0.16148 -0.0802,-10.13287 1.16267,-0.08074 0.24055,3.99663 4.57049,-0.28259 -0.16037,-6.0555 -1.92441,-3.14886 -6.29445,0.32296 -2.68616,3.06812 0.40092,12.95877 1.92442,3.55256 5.81334,0.92851 2.64607,-3.26997 0.28064,-7.22623 -4.65067,0.64592 z" />
<path class="b" d="m 126.4359,35.557714 -0.32074,-25.55421 5.49261,0.32296 0.16036,10.73842 1.16267,-1.33221 1.76405,-5.08662 6.05389,0.60555 -3.08708,8.03363 -1.48341,1.45332 2.36543,1.37258 0.60138,10.0925 -5.57279,-0.28259 0,-7.71067 -1.60368,0.4037 0.16037,6.78216 -5.69306,0.16148 z" />
<path class="b" d="m 150.1884,15.453454 -3.80874,-0.84777 3.76865,-2.70479 -1.80414,-2.3010903 -2.68616,4.2388503 0.16037,-4.2792203 -2.56589,0.20185 1.08248,3.3910803 -2.44561,-2.09924 -1.4834,2.09924 3.9691,1.49369 -3.28754,2.0185 1.96451,1.6148 1.80414,-2.17998 0.52119,3.47182 2.24516,-0.68629 -1.64378,-3.26997 3.44792,1.97813 0.76174,-2.13961 z" />
<path class="b" d="m 151.60064,35.315494 0.80184,-25.5945802 7.25666,0.20185 2.44561,11.9091502 1.32303,-13.5643202 7.85804,0.56518 1.24285,27.0479002 -5.93362,-0.16148 -0.76175,-11.42471 -2.64607,11.26323 -1.64377,0 -2.72626,-9.93102 -0.40092,10.01176 -6.81564,-0.32296 z" />
<path class="b" d="m 173.52596,19.611564 1.68386,-4.48107 7.17647,0.32296 2.16497,3.59293 -0.32074,7.71067 -5.61288,0.16148 0,3.55256 1.04239,0 0.16037,-2.22035 4.41012,-0.16148 -0.12028,5.6518 -2.12487,1.65517 -6.45481,0.20185 -2.0046,-3.31034 0,-12.67618 z m 5.21196,4.15811 1.20276,-0.12111 -0.28065,-4.31959 -1.08248,0 0.16037,4.4407 z" />
<path class="b" d="m 195.37109,15.453454 -3.80874,-0.84777 3.76864,-2.70479 -1.80414,-2.3010903 -2.68616,4.2388503 0.16037,-4.2792203 -2.56589,0.20185 1.08248,3.3910803 -2.44561,-2.09924 -1.4834,2.09924 3.96911,1.49369 -3.28755,2.0185 1.96451,1.6148 1.80414,-2.17998 0.5212,3.47182 2.24515,-0.68629 -1.64377,-3.26997 3.44791,1.97813 0.76175,-2.13961 z" />
<path class="b" d="m 197.3837,34.790684 -0.40092,-24.70644 12.0677,-0.6055502 3.04699,4.6021802 -0.32074,7.46845 -1.80414,1.89739 1.56359,1.49369 0,8.19511 -2.0046,2.4222 -12.14788,-0.76703 z m 6.45482,-20.06389 0,5.77291 1.36312,0.12111 -0.16036,-5.81328 -1.20276,-0.08074 z m -0.16037,16.02689 1.32303,0.16148 0,-5.69217 -1.16266,0 -0.16037,5.53069 z" />
<path class="b" d="m 213.1128,35.598084 -0.20046,-20.185 4.65067,0.36333 0.44101,1.45332 1.32304,-1.93776 3.12717,0.20185 1.5235,1.81665 -0.12028,9.08325 -4.32993,-0.16148 -0.0802,-5.57106 -1.24285,0.12111 -0.40092,14.9369 -4.69076,-0.12111 z" />
<path class="b" d="m 236.15367,15.493824 2.04469,2.26072 -0.4811,14.73505 -2.80644,3.26997 -6.61518,-0.16148 -2.36543,-2.66442 -0.72166,-13.36247 2.0447,-4.15811 8.90042,0.08074 z m -5.05159,14.9369 1.4834,-0.16148 -0.16037,-9.36584 -1.20276,0.16148 -0.12027,9.36584 z" />
<path class="b" d="m 240.45855,29.219624 -1.12258,-19.9024103 7.09629,-0.20185 -0.44102,19.6601903 -5.53269,0.44407 z m 0.20046,1.53406 6.25435,-0.20185 0.20046,5.81328 -6.45481,-0.44407 0,-5.16736 z" />
</g>

<g id="tags" transform="translate(512 0)">
<path class="c" d="m 10.542956,34.871424 -0.240552,-25.3927302 10.143276,0.16148 4.770948,4.1581102 -0.160368,17.31873 -3.20736,4.48107 -11.305944,-0.72666 z m 8.339136,-5.6518 -0.160368,-12.15137 -1.483404,0 -0.160368,11.82841 1.80414,0.32296 z" />
<path class="c" d="m 37.338444,15.493824 2.044692,2.26072 -0.481104,14.73505 -2.80644,3.26997 -6.61518,-0.16148 -2.365428,-2.66442 -0.721656,-13.36247 2.044692,-4.15811 8.900424,0.08074 z m -5.051592,14.9369 1.483404,-0.16148 -0.160368,-9.36584 -1.20276,0.16148 -0.120276,9.36584 z" />
<path class="c" d="m 40.921667,35.476974 0.320736,-20.22537 4.891224,0.16148 0,1.41295 1.643772,-1.89739 5.131776,0 1.323036,3.31034 -0.280644,17.96465 -5.61288,0.16148 -0.160368,-14.89653 -1.042392,-0.16148 -0.120276,14.00839 -6.093984,0.16148 z" />
<path class="c" d="m 56.933409,17.391214 -1.443312,-2.78553 -0.240552,-4.8040302 4.530396,0 -0.320736,4.9251402 -1.082484,2.54331 -1.443312,0.12111 z" />
<path class="c" d="m 70.024449,17.431584 -0.240552,-1.93776 -1.924416,0.08074 0.04009,-4.27922 -5.332236,0.12111 0,4.19848 -1.964508,0 0.120277,1.93776 1.844231,0 0,18.1665 4.971408,-0.32296 0.320736,-17.96465 2.164968,0 z" />
<path class="c" d="m 80.811202,15.453454 -3.80874,-0.84777 3.768648,-2.70479 -1.80414,-2.3010903 -2.686164,4.2388503 0.160368,-4.2792203 -2.565888,0.20185 1.082484,3.3910803 -2.445612,-2.09924 -1.483404,2.09924 3.969108,1.49369 -3.287544,2.0185 1.964508,1.6148 1.80414,-2.17998 0.521196,3.47182 2.245152,-0.68629 -1.643772,-3.26997 3.447912,1.97813 0.761748,-2.13961 z" />
<path class="c" d="m 83.304924,35.275124 -0.60138,-24.6257 7.096284,-0.16148 0.441012,9.72917 1.323036,0 -0.280644,-10.2943502 7.497204,0.1614802 -0.721656,26.15976 -6.21426,-0.12111 -0.160368,-10.53657 -1.443312,0 -0.160368,9.85028 -6.775548,-0.16148 z" />
<path class="c" d="m 99.919049,23.325604 0.441011,-5.36921 1.88433,-2.8259 6.69536,0.32296 2.36543,3.59293 0,10.25398 1.4834,0.44407 0,5.81328 -4.12947,0.20185 -0.72166,-1.85702 -0.64147,1.65517 -4.28985,0.16148 -2.80644,-2.8259 0.32074,-5.97476 2.4857,-2.26072 3.28755,-0.24222 -0.32074,-4.31959 -1.0023,0 0.16037,3.2296 -5.211961,0 z m 5.773251,8.80066 1.0023,0 -0.16037,-4.48107 -1.0023,0 0.16037,4.48107 z" />
<path class="c" d="m 120.30984,26.393724 0,4.88477 -1.24285,-0.16148 -0.0802,-10.13287 1.16267,-0.08074 0.24055,3.99663 4.57049,-0.28259 -0.16037,-6.0555 -1.92441,-3.14886 -6.29445,0.32296 -2.68616,3.06812 0.40092,12.95877 1.92442,3.55256 5.81334,0.92851 2.64607,-3.26997 0.28064,-7.22623 -4.65067,0.64592 z" />
<path class="c" d="m 126.4359,35.557714 -0.32074,-25.55421 5.49261,0.32296 0.16036,10.73842 1.16267,-1.33221 1.76405,-5.08662 6.05389,0.60555 -3.08708,8.03363 -1.48341,1.45332 2.36543,1.37258 0.60138,10.0925 -5.57279,-0.28259 0,-7.71067 -1.60368,0.4037 0.16037,6.78216 -5.69306,0.16148 z" />
<path class="c" d="m 150.1884,15.453454 -3.80874,-0.84777 3.76865,-2.70479 -1.80414,-2.3010903 -2.68616,4.2388503 0.16037,-4.2792203 -2.56589,0.20185 1.08248,3.3910803 -2.44561,-2.09924 -1.4834,2.09924 3.9691,1.49369 -3.28754,2.0185 1.96451,1.6148 1.80414,-2.17998 0.52119,3.47182 2.24516,-0.68629 -1.64378,-3.26997 3.44792,1.97813 0.76174,-2.13961 z" />
<path class="c" d="m 151.60064,35.315494 0.80184,-25.5945802 7.25666,0.20185 2.44561,11.9091502 1.32303,-13.5643202 7.85804,0.56518 1.24285,27.0479002 -5.93362,-0.16148 -0.76175,-11.42471 -2.64607,11.26323 -1.64377,0 -2.72626,-9.93102 -0.40092,10.01176 -6.81564,-0.32296 z" />
<path class="c" d="m 173.52596,19.611564 1.68386,-4.48107 7.17647,0.32296 2.16497,3.59293 -0.32074,7.71067 -5.61288,0.16148 0,3.55256 1.04239,0 0.16037,-2.22035 4.41012,-0.16148 -0.12028,5.6518 -2.12487,1.65517 -6.45481,0.20185 -2.0046,-3.31034 0,-12.67618 z m 5.21196,4.15811 1.20276,-0.12111 -0.28065,-4.31959 -1.08248,0 0.16037,4.4407 z" />
<path class="c" d="m 195.37109,15.453454 -3.80874,-0.84777 3.76864,-2.70479 -1.80414,-2.3010903 -2.68616,4.2388503 0.16037,-4.2792203 -2.56589,0.20185 1.08248,3.3910803 -2.44561,-2.09924 -1.4834,2.09924 3.96911,1.49369 -3.28755,2.0185 1.96451,1.6148 1.80414,-2.17998 0.5212,3.47182 2.24515,-0.68629 -1.64377,-3.26997 3.44791,1.97813 0.76175,-2.13961 z" />
<path class="c" d="m 197.3837,34.790684 -0.40092,-24.70644 12.0677,-0.6055502 3.04699,4.6021802 -0.32074,7.46845 -1.80414,1.89739 1.56359,1.49369 0,8.19511 -2.0046,2.4222 -12.14788,-0.76703 z m 6.45482,-20.06389 0,5.77291 1.36312,0.12111 -0.16036,-5.81328 -1.20276,-0.08074 z m -0.16037,16.02689 1.32303,0.16148 0,-5.69217 -1.16266,0 -0.16037,5.53069 z" />
<path class="c" d="m 213.1128,35.598084 -0.20046,-20.185 4.65067,0.36333 0.44101,1.45332 1.32304,-1.93776 3.12717,0.20185 1.5235,1.81665 -0.12028,9.08325 -4.32993,-0.16148 -0.0802,-5.57106 -1.24285,0.12111 -0.40092,14.9369 -4.69076,-0.12111 z" />
<path class="c" d="m 236.15367,15.493824 2.04469,2.26072 -0.4811,14.73505 -2.80644,3.26997 -6.61518,-0.16148 -2.36543,-2.66442 -0.72166,-13.36247 2.0447,-4.15811 8.90042,0.08074 z m -5.05159,14.9369 1.4834,-0.16148 -0.16037,-9.36584 -1.20276,0.16148 -0.12027,9.36584 z" />
<path class="c" d="m 240.45855,29.219624 -1.12258,-19.9024103 7.09629,-0.20185 -0.44102,19.6601903 -5.53269,0.44407 z m 0.20046,1.53406 6.25435,-0.20185 0.20046,5.81328 -6.45481,-0.44407 0,-5.16736 z" />
</g>

<style>
.a{fill:#3ed481;fill-opacity:1;stroke:#000000;stroke-width:0.75;stroke-miterlimit:4;stroke-opacity:1}
.b{fill:#f6ca2f;fill-opacity:1;stroke:#000000;stroke-width:0.75;stroke-miterlimit:4;stroke-opacity:1}
.c{fill:#b2b5ff;fill-opacity:1;stroke:#000000;stroke-width:0.75;stroke-miterlimit:4;stroke-opacity:1}
</style>

</svg>