<?xml version="1.0" encoding="UTF-8" standalone="no"?>
<svg xmlns="http://www.w3.org/2000/svg" viewBox="0 0 2102 96" width="100%" height="100%">

<view id="how-to" viewBox="0 0 124 48" />
<view id="how-to-articles" viewBox="124 0 260 48" />
<view id="interview" viewBox="384 0 178 48" />
<view id="interview-articles" viewBox="562 0 298 48" />
<view id="news" viewBox="860 0 94 48" />
<view id="news-articles" viewBox="954 0 230 48" />
<view id="opinion" viewBox="1184 0 134 48" />
<view id="opinion-articles" viewBox="1318 0 270 48" />
<view id="review" viewBox="1588 0 138 48" />
<view id="review-articles" viewBox="1726 0 258 48" />
<view id="topical" viewBox="1984 0 118 48" />
<view id="topical-articles" viewBox="0 48 256 48" />
<view id="1-key" viewBox="256 48 140 48" />
<view id="1-key-articles" viewBox="396 48 276 48" />
<view id="2-keys" viewBox="672 48 158 48" />
<view id="2-keys-articles" viewBox="830 48 276 48" />
<view id="3-keys" viewBox="1106 48 186 48" />
<view id="3-keys-articles" viewBox="1292 48 304 48" />
<view id="series" viewBox="1596 48 104 48" />
<view id="multi-article-series" viewBox="1700 48 332 48" />

<g id="how-to" transform="translate(0 0)">
<path class="a" d="m 2.4619,6.4794 6.658,0 0,10.7976 5.9101,0 0,-10.7976 6.657,0 0,29.2976 -6.657,0 0,-12.2 -5.9101,0 0,12.2 -6.658,0 0,-29.2976 z" />
<path class="a" d="m 34.849,14.877 q 4.372,0 6.658,2.9 2.285,2.9 2.285,8.1 0,5.1 -2.373,7.9 -2.373,2.7 -6.57,2.7 -4.021,0 -6.394,-2.8 -2.351,-2.8 -2.351,-7.8 0,-5.2 2.241,-8.1 2.263,-2.9 6.504,-2.9 z m 0.04,15.9 q 1.252,0 1.868,-1.1 0.637,-1.2 0.637,-4 0,-2.8 -0.615,-3.9 -0.616,-1.2 -1.846,-1.2 -1.209,0 -1.846,1.1 -0.637,1.1 -0.637,4 0,5.1 2.439,5.1 z" />
<path class="a" d="m 44.715,15.577 6.306,0 q 2.197,9.6 2.483,11.3 l 0.09,0 2.153,-11.3 5.405,0 2.154,11.2 0.09,0 q 0.528,-2.6 0.725,-3.5 l 1.846,-7.7 6.301,0 -6.257,20.2 -4.812,0 q -2.461,-9 -2.746,-10.9 l -0.09,0 q -0.198,1.5 -2.659,10.9 l -4.768,0 -6.218,-20.2 z" />
<path class="a" d="m 74.818,22.977 10.13,0 0,5.5 -10.13,0 0,-5.5 z" />
<path class="a" d="m 87.628,6.4794 15.902,0 0,6.6976 -4.612,0 0,22.6 -6.74,0 0,-22.6 -4.55,0 0,-6.6976 z" />
<path class="a" d="m 113,14.877 q 4.37,0 6.65,2.9 2.29,2.9 2.29,8.1 0,5.1 -2.37,7.9 -2.38,2.7 -6.57,2.7 -4.03,0 -6.4,-2.8 -2.35,-2.8 -2.35,-7.8 0,-5.2 2.24,-8.1 2.26,-2.9 6.51,-2.9 z m 0,15.9 q 1.25,0 1.87,-1.1 0.63,-1.2 0.63,-4 0,-2.8 -0.61,-3.9 -0.62,-1.2 -1.85,-1.2 -1.2,0 -1.84,1.1 -0.64,1.1 -0.64,4 0,5.1 2.44,5.1 z" />
</g>

<g id="how-to-articles" transform="translate(124 0)">
<path class="a" d="m 2.1565,6.66 6.658,0 0,10.799 5.9085,0 0,-10.799 6.658,0 0,29.299 -6.658,0 0,-12.2 -5.9085,0 0,12.2 -6.658,0 0,-29.299 z" />
<path class="a" d="m 34.542,15.059 q 4.373,0 6.658,2.9 2.285,2.9 2.285,8.1 0,5.1 -2.373,7.9 -2.373,2.7 -6.57,2.7 -4.021,0 -6.394,-2.8 -2.351,-2.8 -2.351,-7.8 0,-5.2 2.241,-8.1 2.264,-2.9 6.504,-2.9 z m 0.04,15.9 q 1.253,0 1.868,-1.1 0.637,-1.2 0.637,-4 0,-2.8 -0.615,-3.9 -0.615,-1.2 -1.846,-1.2 -1.208,0 -1.845,1.1 -0.638,1.1 -0.638,4 0,5.1 2.439,5.1 z" />
<path class="a" d="m 44.408,15.759 6.303,0 q 2.2,9.6 2.49,11.3 l 0.1,0 2.15,-11.3 5.4,0 2.16,11.2 0.1,0 q 0.52,-2.6 0.72,-3.5 l 1.85,-7.7 6.3,0 -6.26,20.2 -4.81,0 q -2.46,-9 -2.75,-10.9 l -0.1,0 q -0.19,1.5 -2.66,10.9 l -4.76,0 -6.221,-20.2 z" />
<path class="a" d="m 74.511,23.159 10.13,0 0,5.5 -10.13,0 0,-5.5 z" />
<path class="a" d="m 87.321,6.66 15.889,0 0,6.699 -4.599,0 0,22.6 -6.74,0 0,-22.6 -4.55,0 0,-6.699 z" />
<path class="a" d="m 112.68,15.059 q 4.38,0 6.66,2.9 2.29,2.9 2.29,8.1 0,5.1 -2.38,7.9 -2.37,2.7 -6.57,2.7 -4.02,0 -6.39,-2.8 -2.35,-2.8 -2.35,-7.8 0,-5.2 2.24,-8.1 2.26,-2.9 6.5,-2.9 z m 0,15.9 q 1.25,0 1.86,-1.1 0.64,-1.2 0.64,-4 0,-2.8 -0.61,-3.9 -0.62,-1.2 -1.85,-1.2 -1.21,0 -1.84,1.1 -0.64,1.1 -0.64,4 0,5.1 2.44,5.1 z" />
<path class="a" d="m 146.52,35.959 0,-2.7 -0.1,0 q -1.16,1.8 -2.26,2.6 -1.08,0.8 -2.55,0.8 -2.88,0 -4.59,-3 -1.72,-2.9 -1.72,-8 0,-4.8 1.74,-7.7 1.74,-2.9 4.57,-2.9 1.52,0 2.57,0.8 1.06,0.7 2.2,2.4 l 0.1,0 0,-2.5 6.39,0 0,20.2 -6.35,0 z m 0,-10.2 q 0,-5 -2.46,-5 -2.48,0 -2.48,5 0,5.2 2.57,5.2 2.37,0 2.37,-5.2 z" />
<path class="a" d="m 163.84,15.759 0,3.4 0.1,0 q 2.29,-4 4.82,-4 0.37,0 1.03,0.2 l 0,6.2 q -1.17,-0.2 -2.16,-0.2 -3.51,0 -3.51,4.6 l 0,10 -6.37,0 0,-20.2 6.11,0 z" />
<path class="a" d="m 175.22,10.359 6.39,0 0,5.4 2.48,0 0,5.3 -2.52,0 0,14.9 -6.35,0 0,-14.9 -2.42,0 0,-5.3 2.42,0 0,-5.4 z" />
<path class="a" d="m 187.35,9.66 q 0,-1.4 0.98,-2.4 0.99,-1 2.38,-1 1.4,0 2.39,1 0.99,1 0.99,2.4 0,1.399 -0.99,2.399 -0.99,1 -2.39,1 -1.36,0 -2.38,-1 -0.98,-1 -0.98,-2.399 z m 0.17,6.099 6.4,0 0,20.2 -6.4,0 0,-20.2 z" />
<path class="a" d="m 209.91,29.759 0,5.3 q -2.28,1.5 -4.59,1.5 -3.41,0 -5.47,-2.9 -2.04,-3 -2.04,-8 0,-4.7 2.1,-7.6 2.11,-3 5.45,-3 2.33,0 4.6,1.6 l 0,5.3 q -1.3,-0.7 -2.33,-0.7 -1.54,0 -2.49,1.2 -0.94,1.3 -0.94,3.3 0,2.2 0.92,3.5 0.92,1.2 2.51,1.2 0.96,0 2.28,-0.7 z" />
<path class="a" d="m 213.89,4.96 6.39,0 0,30.999 -6.39,0 0,-30.999 z" />
<path class="a" d="m 234.81,29.759 5.38,0 q -1.54,6.8 -7.69,6.8 -3.85,0 -6.09,-2.9 -2.24,-2.9 -2.24,-8 0,-4.8 2.24,-7.7 2.24,-2.9 5.96,-2.9 2.24,0 4.3,1.4 2.07,1.4 3.02,3.7 0.94,2.3 1.05,7.3 l -10.66,0 q 0.13,4.5 2.51,4.5 0.81,0 1.45,-0.6 0.64,-0.6 0.77,-1.6 z m -4.64,-5.8 4.64,0 q -0.1,-2.1 -0.6,-3.2 -0.52,-1 -1.67,-1 -1.27,0 -1.82,1 -0.55,1 -0.55,3.2 z" />
<path class="a" d="m 245.22,29.459 q 3.28,1.9 4.73,1.9 0.79,0 1.31,-0.4 0.53,-0.4 0.53,-1 0,-0.6 -0.44,-0.9 -0.44,-0.3 -3.29,-1.5 -2.29,-1 -3.3,-2.4 -1.01,-1.4 -1.01,-3.4 0,-2.9 2,-4.8 2.02,-1.9 5.14,-1.9 3.03,0 7.43,2.4 l -2.46,4.6 q -2.86,-1.8 -4.68,-1.8 -1.59,0 -1.59,1.3 0,0.6 0.58,1 0.59,0.5 2.13,1 2.88,1 4.17,2.5 1.32,1.4 1.32,3.5 0,3.1 -2.06,5.1 -2.07,1.9 -5.28,1.9 -3.47,0 -7.43,-2.4 l 2.2,-4.7 z" />
</g>

<g id="interview" transform="translate(384 0)">
<path class="a" d="m 2.3552,6.4996 6.658,0 0,29.2984 -6.658,0 0,-29.2984 z" />
<path class="a" d="m 21.231,15.598 0,2.7 0.11,0 q 2.241,-3.4 5.471,-3.4 2.109,0 3.34,1.4 1.252,1.4 1.252,3.8 l 0,15.7 -6.394,0 0,-12.5 q 0,-1 -0.483,-1.6 -0.484,-0.7 -1.253,-0.7 -2.043,0 -2.043,2.6 l 0,12.2 -6.372,0 0,-20.2 6.372,0 z" />
<path class="a" d="m 36.919,10.198 6.394,0 0,5.4 2.483,0 0,5.3 -2.527,0 0,14.9 -6.35,0 0,-14.9 -2.417,0 0,-5.3 2.417,0 0,-5.4 z" />
<path class="a" d="m 58.54,29.598 5.384,0 q -1.538,6.8 -7.691,6.8 -3.845,0 -6.086,-2.9 -2.241,-2.9 -2.241,-8 0,-4.8 2.241,-7.7 2.241,-2.9 5.954,-2.9 2.242,0 4.307,1.4 2.066,1.4 3.01,3.7 0.945,2.3 1.055,7.3 l -10.657,0 q 0.132,4.5 2.505,4.5 0.813,0 1.45,-0.6 0.638,-0.6 0.769,-1.6 z m -4.636,-5.8 4.636,0 q -0.07,-2.1 -0.593,-3.2 -0.527,-1 -1.67,-1 -1.274,0 -1.823,1 -0.55,1 -0.55,3.2 z" />
<path class="a" d="m 74.318,15.598 0,3.4 0.1,0 q 2.28,-4 4.81,-4 0.37,0 1.03,0.2 l 0,6.2 q -1.16,-0.2 -2.15,-0.2 -3.51,0 -3.51,4.6 l 0,10 -6.378,0 0,-20.2 6.108,0 z" />
<path class="a" d="m 82.538,15.598 6.24,0 2.52,10.9 0.1,0 2.53,-10.9 6.332,0 -6.292,20.2 -5.18,0 -6.24,-20.2 z" />
<path class="a" d="m 103.19,9.4992 q 0,-1.3996 0.99,-2.3996 0.99,-1 2.38,-1 1.4,0 2.39,1 0.99,1 0.99,2.3996 0,1.3988 -0.99,2.3988 -0.99,1 -2.39,1 -1.37,0 -2.38,-1 -0.99,-1 -0.99,-2.3988 z m 0.18,6.0988 6.39,0 0,20.2 -6.39,0 0,-20.2 z" />
<path class="a" d="m 124.29,29.598 5.38,0 q -1.54,6.8 -7.69,6.8 -3.84,0 -6.08,-2.9 -2.25,-2.9 -2.25,-8 0,-4.8 2.25,-7.7 2.24,-2.9 5.95,-2.9 2.24,0 4.31,1.4 2.06,1.4 3.01,3.7 0.94,2.3 1.05,7.3 l -10.66,0 q 0.14,4.5 2.51,4.5 0.81,0 1.45,-0.6 0.64,-0.6 0.77,-1.6 z m -4.64,-5.8 4.64,0 q -0.1,-2.1 -0.59,-3.2 -0.53,-1 -1.67,-1 -1.28,0 -1.83,1 -0.55,1 -0.55,3.2 z" />
<path class="a" d="m 131.91,15.598 6.31,0 q 2.2,9.6 2.48,11.3 l 0.1,0 2.15,-11.3 5.41,0 2.15,11.2 0.1,0 q 0.53,-2.6 0.73,-3.5 l 1.84,-7.7 6.31,0 -6.27,20.2 -4.81,0 q -2.46,-9 -2.74,-10.9 l -0.1,0 q -0.2,1.5 -2.66,10.9 l -4.77,0 -6.23,-20.2 z" />
<path class="a" d="m 163,29.298 q 3.28,1.9 4.73,1.9 0.79,0 1.32,-0.4 0.52,-0.4 0.52,-1 0,-0.6 -0.44,-0.9 -0.43,-0.3 -3.29,-1.5 -2.29,-1 -3.3,-2.4 -1.01,-1.4 -1.01,-3.4 0,-2.9 2,-4.8 2.02,-1.9 5.14,-1.9 3.04,0 7.43,2.4 l -2.46,4.6 q -2.86,-1.8 -4.68,-1.8 -1.58,0 -1.58,1.3 0,0.6 0.57,1 0.59,0.5 2.13,1 2.88,1 4.17,2.5 1.32,1.4 1.32,3.5 0,3.1 -2.06,5.1 -2.07,1.9 -5.28,1.9 -3.47,0 -7.42,-2.4 l 2.19,-4.7 z" />
</g>

<g id="interview-articles" transform="translate(562 0)">
<path class="a" d="m 2.4179,6.6352 6.657,0 0,29.2988 -6.657,0 0,-29.2988 z" />
<path class="a" d="m 21.293,15.735 0,2.7 0.11,0 q 2.241,-3.4 5.471,-3.4 2.109,0 3.339,1.4 1.25,1.4 1.25,3.8 l 0,15.699 -6.391,0 0,-12.499 q 0,-1 -0.483,-1.6 -0.484,-0.7 -1.253,-0.7 -2.043,0 -2.043,2.6 l 0,12.199 -6.372,0 0,-20.199 6.372,0 z" />
<path class="a" d="m 36.983,10.335 6.39,0 0,5.4 2.48,0 0,5.3 -2.52,0 0,14.899 -6.35,0 0,-14.899 -2.42,0 0,-5.3 2.42,0 0,-5.4 z" />
<path class="a" d="m 58.603,29.734 5.38,0 q -1.54,6.8 -7.69,6.8 -3.84,0 -6.08,-2.9 -2.25,-2.9 -2.25,-7.999 0,-4.8 2.25,-7.7 2.24,-2.9 5.95,-2.9 2.24,0 4.31,1.4 2.06,1.4 3.01,3.7 0.94,2.3 1.05,7.299 l -10.66,0 q 0.14,4.5 2.51,4.5 0.81,0 1.45,-0.6 0.64,-0.6 0.77,-1.6 z m -4.64,-5.799 4.64,0 q -0.1,-2.1 -0.59,-3.2 -0.53,-1 -1.67,-1 -1.28,0 -1.83,1 -0.55,1 -0.55,3.2 z" />
<path class="a" d="m 74.383,15.735 0,3.4 0.1,0 q 2.28,-4 4.81,-4 0.37,0 1.03,0.2 l 0,6.2 q -1.16,-0.2 -2.15,-0.2 -3.52,0 -3.52,4.6 l 0,9.999 -6.37,0 0,-20.199 6.11,0 z" />
<path class="a" d="m 82.593,15.735 6.24,0 2.53,10.9 0.1,0 2.53,-10.9 6.317,0 -6.277,20.199 -5.18,0 -6.24,-20.199 z" />
<path class="a" d="m 103.24,9.6352 q 0,-1.4 0.99,-2.4 0.99,-1 2.38,-1 1.4,0 2.39,1 0.99,1 0.99,2.4 0,1.3998 -0.99,2.3998 -0.99,1 -2.39,1 -1.37,0 -2.38,-1 -0.99,-1 -0.99,-2.3998 z m 0.18,6.0998 6.39,0 0,20.199 -6.39,0 0,-20.199 z" />
<path class="a" d="m 124.34,29.734 5.38,0 q -1.54,6.8 -7.69,6.8 -3.84,0 -6.08,-2.9 -2.25,-2.9 -2.25,-7.999 0,-4.8 2.25,-7.7 2.24,-2.9 5.95,-2.9 2.24,0 4.31,1.4 2.06,1.4 3.01,3.7 0.94,2.3 1.05,7.299 l -10.66,0 q 0.14,4.5 2.51,4.5 0.81,0 1.45,-0.6 0.64,-0.6 0.77,-1.6 z m -4.64,-5.799 4.64,0 q -0.1,-2.1 -0.59,-3.2 -0.53,-1 -1.67,-1 -1.28,0 -1.83,1 -0.55,1 -0.55,3.2 z" />
<path class="a" d="m 131.96,15.735 6.31,0 q 2.2,9.6 2.48,11.299 l 0.1,0 2.15,-11.299 5.41,0 2.15,11.199 0.1,0 q 0.53,-2.599 0.73,-3.499 l 1.84,-7.7 6.31,0 -6.27,20.199 -4.81,0 q -2.46,-9 -2.74,-10.899 l -0.1,0 q -0.2,1.5 -2.66,10.899 l -4.77,0 -6.23,-20.199 z" />
<path class="a" d="m 183.45,35.934 0,-2.7 -0.1,0 q -1.17,1.8 -2.27,2.6 -1.07,0.8 -2.54,0.8 -2.88,0 -4.6,-3 -1.71,-2.9 -1.71,-7.999 0,-4.8 1.73,-7.7 1.74,-2.9 4.58,-2.9 1.51,0 2.57,0.8 1.05,0.7 2.19,2.4 l 0.1,0 0,-2.5 6.4,0 0,20.199 -6.35,0 z m 0,-10.199 q 0,-5 -2.47,-5 -2.48,0 -2.48,5 0,5.199 2.57,5.199 2.38,0 2.38,-5.199 z" />
<path class="a" d="m 200.76,15.735 0,3.4 0.1,0 q 2.28,-4 4.81,-4 0.37,0 1.03,0.2 l 0,6.2 q -1.16,-0.2 -2.15,-0.2 -3.52,0 -3.52,4.6 l 0,9.999 -6.37,0 0,-20.199 6.11,0 z" />
<path class="a" d="m 212.14,10.335 6.4,0 0,5.4 2.48,0 0,5.3 -2.53,0 0,14.899 -6.35,0 0,-14.899 -2.42,0 0,-5.3 2.42,0 0,-5.4 z" />
<path class="a" d="m 224.27,9.6352 q 0,-1.4 0.99,-2.4 0.99,-1 2.37,-1 1.41,0 2.4,1 0.99,1 0.99,2.4 0,1.3998 -0.99,2.3998 -0.99,1 -2.4,1 -1.36,0 -2.37,-1 -0.99,-1 -0.99,-2.3998 z m 0.18,6.0998 6.39,0 0,20.199 -6.39,0 0,-20.199 z" />
<path class="a" d="m 246.84,29.734 0,5.3 q -2.29,1.5 -4.6,1.5 -3.4,0 -5.47,-2.9 -2.04,-3 -2.04,-7.999 0,-4.7 2.11,-7.6 2.11,-3 5.45,-3 2.33,0 4.59,1.6 l 0,5.3 q -1.3,-0.7 -2.33,-0.7 -1.54,0 -2.48,1.2 -0.95,1.3 -0.95,3.3 0,2.199 0.93,3.499 0.92,1.2 2.5,1.2 0.97,0 2.29,-0.7 z" />
<path class="a" d="m 250.81,4.9352 6.4,0 0,30.9988 -6.4,0 0,-30.9988 z" />
<path class="a" d="m 271.73,29.734 5.38,0 q -1.53,6.8 -7.69,6.8 -3.84,0 -6.08,-2.9 -2.24,-2.9 -2.24,-7.999 0,-4.8 2.24,-7.7 2.24,-2.9 5.95,-2.9 2.24,0 4.31,1.4 2.06,1.4 3.01,3.7 0.94,2.3 1.05,7.299 l -10.65,0 q 0.13,4.5 2.5,4.5 0.81,0 1.45,-0.6 0.64,-0.6 0.77,-1.6 z m -4.64,-5.799 4.64,0 q -0.1,-2.1 -0.59,-3.2 -0.53,-1 -1.67,-1 -1.28,0 -1.83,1 -0.55,1 -0.55,3.2 z" />
<path class="a" d="m 282.15,29.434 q 3.27,1.9 4.72,1.9 0.79,0 1.32,-0.4 0.53,-0.4 0.53,-1 0,-0.6 -0.44,-0.9 -0.44,-0.3 -3.3,-1.5 -2.28,-0.999 -3.3,-2.399 -1.01,-1.4 -1.01,-3.4 0,-2.9 2,-4.8 2.03,-1.9 5.15,-1.9 3.03,0 7.42,2.4 l -2.46,4.6 q -2.86,-1.8 -4.68,-1.8 -1.58,0 -1.58,1.3 0,0.6 0.57,1 0.59,0.5 2.13,1 2.88,1 4.18,2.5 1.31,1.399 1.31,3.499 0,3.1 -2.06,5.1 -2.07,1.9 -5.27,1.9 -3.48,0 -7.43,-2.4 l 2.2,-4.7 z" />
</g>

<g id="news" transform="translate(860 0)">
<path class="a" d="m 2.8804,6.4838 6.724,0 8.4596,16.9012 -0.242,-3.2 0,-13.7012 6.658,0 0,29.3012 -6.833,0 -8.2846,-16.7 0.176,3.7 0,13 -6.658,0 0,-29.3012 z" />
<path class="a" d="m 39.619,29.585 5.384,0 q -1.539,6.8 -7.691,6.8 -3.845,0 -6.086,-2.9 -2.241,-2.9 -2.241,-8 0,-4.8 2.241,-7.7 2.241,-2.9 5.954,-2.9 2.242,0 4.307,1.4 2.065,1.4 3.01,3.7 0.945,2.3 1.055,7.3 l -10.657,0 q 0.132,4.5 2.505,4.5 0.813,0 1.45,-0.6 0.637,-0.6 0.769,-1.6 z m -4.636,-5.8 4.636,0 q -0.07,-2.1 -0.593,-3.2 -0.527,-1 -1.67,-1 -1.274,0 -1.824,1 -0.549,1 -0.549,3.2 z" />
<path class="a" d="m 47.244,15.585 6.306,0 q 2.197,9.6 2.483,11.3 l 0.09,0 2.153,-11.3 5.402,0 2.16,11.2 0.1,0 q 0.52,-2.6 0.72,-3.5 l 1.85,-7.7 6.3,0 -6.26,20.2 -4.81,0 q -2.46,-9 -2.75,-10.9 l -0.1,0 q -0.19,1.5 -2.656,10.9 l -4.768,0 -6.218,-20.2 z" />
<path class="a" d="m 78.338,29.285 q 3.27,1.9 4.72,1.9 0.79,0 1.32,-0.4 0.53,-0.4 0.53,-1 0,-0.6 -0.44,-0.9 -0.44,-0.3 -3.3,-1.5 -2.28,-1 -3.29,-2.4 -1.01,-1.4 -1.01,-3.4 0,-2.9 1.99,-4.8 2.03,-1.9 5.15,-1.9 3.03,0 7.42,2.4 l -2.46,4.6 q -2.85,-1.8 -4.68,-1.8 -1.58,0 -1.58,1.3 0,0.6 0.57,1 0.59,0.5 2.13,1 2.88,1 4.18,2.5 1.32,1.4 1.32,3.5 0,3.1 -2.07,5.1 -2.06,1.9 -5.27,1.9 -3.47,0 -7.43,-2.4 l 2.2,-4.7 z" />
</g>

<g id="news-articles" transform="translate(954 0)">
<path class="a" d="m 2.8605,6.558 6.724,0 8.4595,16.902 -0.242,-3.2 0,-13.702 6.658,0 0,29.302 -6.833,0 -8.2845,-16.7 0.176,3.7 0,13 -6.658,0 0,-29.302 z" />
<path class="a" d="m 39.599,29.66 5.384,0 q -1.539,6.8 -7.691,6.8 -3.845,0 -6.086,-2.9 -2.241,-2.9 -2.241,-8 0,-4.8 2.241,-7.7 2.241,-2.9 5.954,-2.9 2.242,0 4.307,1.4 2.065,1.4 3.01,3.7 0.945,2.3 1.055,7.3 l -10.657,0 q 0.132,4.5 2.505,4.5 0.813,0 1.45,-0.6 0.637,-0.6 0.769,-1.6 z m -4.636,-5.8 4.636,0 q -0.07,-2.1 -0.593,-3.2 -0.527,-1 -1.67,-1 -1.274,0 -1.824,1 -0.549,1 -0.549,3.2 z" />
<path class="a" d="m 47.224,15.66 6.309,0 q 2.19,9.6 2.48,11.3 l 0.1,0 2.15,-11.3 5.41,0 2.15,11.2 0.1,0 q 0.53,-2.6 0.73,-3.5 l 1.84,-7.7 6.31,0 -6.26,20.2 -4.82,0 q -2.46,-9 -2.74,-10.9 l -0.1,0 q -0.2,1.5 -2.66,10.9 l -4.77,0 -6.217,-20.2 z" />
<path class="a" d="m 78.313,29.36 q 3.28,1.9 4.73,1.9 0.79,0 1.32,-0.4 0.52,-0.4 0.52,-1 0,-0.6 -0.44,-0.9 -0.44,-0.3 -3.29,-1.5 -2.29,-1 -3.3,-2.4 -1.01,-1.4 -1.01,-3.4 0,-2.9 2,-4.8 2.02,-1.9 5.14,-1.9 3.03,0 7.43,2.4 l -2.46,4.6 q -2.86,-1.8 -4.68,-1.8 -1.58,0 -1.58,1.3 0,0.6 0.57,1 0.59,0.5 2.13,1 2.88,1 4.17,2.5 1.32,1.4 1.32,3.5 0,3.1 -2.06,5.1 -2.07,1.9 -5.28,1.9 -3.47,0 -7.42,-2.4 l 2.19,-4.7 z" />
<path class="a" d="m 115.93,35.86 0,-2.7 -0.1,0 q -1.16,1.8 -2.26,2.6 -1.08,0.8 -2.55,0.8 -2.88,0 -4.59,-3 -1.72,-2.9 -1.72,-8 0,-4.8 1.74,-7.7 1.73,-2.9 4.57,-2.9 1.52,0 2.57,0.8 1.05,0.7 2.2,2.4 l 0.1,0 0,-2.5 6.39,0 0,20.2 -6.35,0 z m 0,-10.2 q 0,-5 -2.46,-5 -2.48,0 -2.48,5 0,5.2 2.57,5.2 2.37,0 2.37,-5.2 z" />
<path class="a" d="m 133.24,15.66 0,3.4 0.1,0 q 2.29,-4 4.81,-4 0.38,0 1.04,0.2 l 0,6.2 q -1.17,-0.2 -2.16,-0.2 -3.51,0 -3.51,4.6 l 0,10 -6.37,0 0,-20.2 6.1,0 z" />
<path class="a" d="m 144.63,10.259 6.39,0 0,5.401 2.48,0 0,5.3 -2.52,0 0,14.9 -6.35,0 0,-14.9 -2.42,0 0,-5.3 2.42,0 0,-5.401 z" />
<path class="a" d="m 156.75,9.558 q 0,-1.4 0.99,-2.4 0.99,-1 2.38,-1 1.4,0 2.39,1 0.99,1 0.99,2.4 0,1.402 -0.99,2.402 -0.99,1 -2.39,1 -1.37,0 -2.38,-1 -0.99,-1 -0.99,-2.402 z m 0.18,6.102 6.39,0 0,20.2 -6.39,0 0,-20.2 z" />
<path class="a" d="m 179.32,29.66 0,5.3 q -2.28,1.5 -4.59,1.5 -3.41,0 -5.47,-2.9 -2.05,-3 -2.05,-8 0,-4.7 2.11,-7.6 2.11,-3 5.45,-3 2.33,0 4.59,1.6 l 0,5.3 q -1.29,-0.7 -2.32,-0.7 -1.54,0 -2.49,1.2 -0.94,1.3 -0.94,3.3 0,2.2 0.92,3.5 0.92,1.2 2.51,1.2 0.96,0 2.28,-0.7 z" />
<path class="a" d="m 183.3,4.858 6.39,0 0,31.002 -6.39,0 0,-31.002 z" />
<path class="a" d="m 204.22,29.66 5.38,0 q -1.54,6.8 -7.69,6.8 -3.85,0 -6.09,-2.9 -2.24,-2.9 -2.24,-8 0,-4.8 2.24,-7.7 2.24,-2.9 5.96,-2.9 2.24,0 4.3,1.4 2.07,1.4 3.01,3.7 0.95,2.3 1.06,7.3 l -10.66,0 q 0.13,4.5 2.51,4.5 0.81,0 1.45,-0.6 0.63,-0.6 0.77,-1.6 z m -4.64,-5.8 4.64,0 q -0.1,-2.1 -0.6,-3.2 -0.53,-1 -1.67,-1 -1.27,0 -1.82,1 -0.55,1 -0.55,3.2 z" />
<path class="a" d="m 214.63,29.36 q 3.27,1.9 4.72,1.9 0.8,0 1.32,-0.4 0.53,-0.4 0.53,-1 0,-0.6 -0.44,-0.9 -0.44,-0.3 -3.3,-1.5 -2.28,-1 -3.29,-2.4 -1.01,-1.4 -1.01,-3.4 0,-2.9 2,-4.8 2.02,-1.9 5.14,-1.9 3.03,0 7.43,2.4 l -2.46,4.6 q -2.86,-1.8 -4.68,-1.8 -1.59,0 -1.59,1.3 0,0.6 0.57,1 0.6,0.5 2.14,1 2.87,1 4.17,2.5 1.32,1.4 1.32,3.5 0,3.1 -2.07,5.1 -2.06,1.9 -5.27,1.9 -3.47,0 -7.43,-2.4 l 2.2,-4.7 z" />
</g>

<g id="opinion" transform="translate(1184 0)">
<path class="a" d="m 13.692,36.459 q -5.319,0 -8.109,-4 -2.791,-4.1 -2.791,-11.8 0,-7.1 2.791,-11.1016 2.812,-3.9 7.824,-3.9 5.339,0 8.152,3.9 2.834,4.0016 2.834,11.4016 0,7.4 -2.79,11.5 -2.769,4 -7.911,4 z m -0.241,-24.2 q -3.6046,0 -3.6046,8.5 0,5.4 0.9016,7.2 0.923,1.9 2.659,1.9 1.868,0 2.856,-1.9 1.011,-1.8 1.011,-7.1 0,-8.6 -3.823,-8.6 z" />
<path class="a" d="m 35.028,15.559 0,2.6 0.11,0 q 2.131,-3.2 4.812,-3.2 2.878,0 4.614,3 1.758,2.9 1.758,7.9 0,4.7 -1.802,7.7 -1.78,2.9 -4.57,2.9 -2.945,0 -4.812,-3.4 l -0.11,0 0,11 -6.372,0 0,-28.5 6.372,0 z m 4.922,10 q 0,-5 -2.527,-5 -2.395,0 -2.395,5.1 0,5.2 2.395,5.2 2.527,0 2.527,-5.3 z" />
<path class="a" d="m 50.101,9.4574 q 0,-1.4 0.989,-2.4 0.989,-1 2.373,-1 1.406,0 2.395,1 0.989,1 0.989,2.4 0,1.4016 -0.989,2.4016 -0.989,1 -2.395,1 -1.362,0 -2.373,-1 -0.989,-1 -0.989,-2.4016 z m 0.176,6.1016 6.394,0 0,20.2 -6.394,0 0,-20.2 z" />
<path class="a" d="m 68.075,15.559 0,2.7 0.11,0 q 2.24,-3.4 5.47,-3.4 2.11,0 3.34,1.4 1.25,1.4 1.25,3.8 l 0,15.7 -6.39,0 0,-12.5 q 0,-1 -0.48,-1.6 -0.49,-0.7 -1.26,-0.7 -2.04,0 -2.04,2.6 l 0,12.2 -6.372,0 0,-20.2 6.372,0 z" />
<path class="a" d="m 82.975,9.4574 q 0,-1.4 0.99,-2.4 0.99,-1 2.37,-1 1.41,0 2.39,1 0.99,1 0.99,2.4 0,1.4016 -0.99,2.4016 -0.98,1 -2.39,1 -1.36,0 -2.37,-1 -0.99,-1 -0.99,-2.4016 z m 0.17,6.1016 6.4,0 0,20.2 -6.4,0 0,-20.2 z" />
<path class="a" d="m 102.18,14.859 q 4.37,0 6.66,2.9 2.29,2.9 2.29,8.1 0,5.1 -2.38,7.9 -2.37,2.7 -6.57,2.7 -4.025,0 -6.395,-2.8 -2.35,-2.8 -2.35,-7.8 0,-5.2 2.24,-8.1 2.26,-2.9 6.505,-2.9 z m 0,15.9 q 1.25,0 1.86,-1.1 0.64,-1.2 0.64,-4 0,-2.8 -0.61,-3.9 -0.62,-1.2 -1.85,-1.2 -1.21,0 -1.85,1.1 -0.635,1.1 -0.635,4 0,5.1 2.445,5.1 z" />
<path class="a" d="m 121.25,15.559 0,2.7 0.11,0 q 2.25,-3.4 5.48,-3.4 2.11,0 3.34,1.4 1.25,1.4 1.25,3.8 l 0,15.7 -6.4,0 0,-12.5 q 0,-1 -0.48,-1.6 -0.48,-0.7 -1.25,-0.7 -2.05,0 -2.05,2.6 l 0,12.2 -6.37,0 0,-20.2 6.37,0 z" />
</g>

<g id="opinion-articles" transform="translate(1318 0)">
<path class="a" d="m 12.869,36.427 q -5.3195,0 -8.1105,-4 -2.79,-4.1 -2.79,-11.8 0,-7.101 2.79,-11.1 2.813,-3.9005 7.8245,-3.9005 5.34,0 8.152,3.9005 2.835,3.999 2.835,11.4 0,7.4 -2.791,11.5 -2.768,4 -7.91,4 z M 12.627,12.226 q -3.6055,0 -3.6055,8.501 0,5.4 0.901,7.2 0.9235,1.9 2.6605,1.9 1.868,0 2.857,-1.9 1.01,-1.8 1.01,-7.1 0,-8.601 -3.823,-8.601 z" />
<path class="a" d="m 34.204,15.527 0,2.6 0.11,0 q 2.132,-3.2 4.812,-3.2 2.879,0 4.615,3 1.757,2.9 1.757,7.9 0,4.7 -1.801,7.7 -1.78,2.9 -4.571,2.9 -2.944,0 -4.812,-3.4 l -0.11,0 0,11 -6.372,0 0,-28.5 6.372,0 z m 4.922,10 q 0,-5 -2.527,-5 -2.395,0 -2.395,5.1 0,5.2 2.395,5.2 2.527,0 2.527,-5.3 z" />
<path class="a" d="m 49.278,9.4265 q 0,-1.4 0.988,-2.4 0.989,-1 2.373,-1 1.407,0 2.395,1 0.989,1 0.989,2.4 0,1.3995 -0.989,2.3995 -0.988,1 -2.395,1 -1.362,0 -2.373,-1 -0.988,-1 -0.988,-2.3995 z m 0.175,6.1005 6.394,0 0,20.2 -6.394,0 0,-20.2 z" />
<path class="a" d="m 67.251,15.527 0,2.7 0.11,0 q 2.241,-3.4 5.471,-3.4 2.11,0 3.34,1.4 1.253,1.4 1.253,3.8 l 0,15.7 -6.394,0 0,-12.5 q 0,-1 -0.484,-1.6 -0.483,-0.7 -1.252,-0.7 -2.044,0 -2.044,2.6 l 0,12.2 -6.372,0 0,-20.2 6.372,0 z" />
<path class="a" d="m 82.149,9.4265 q 0,-1.4 0.988,-2.4 0.989,-1 2.374,-1 1.406,0 2.395,1 0.988,1 0.988,2.4 0,1.3995 -0.988,2.3995 -0.989,1 -2.395,1 -1.363,0 -2.374,-1 -0.988,-1 -0.988,-2.3995 z m 0.176,6.1005 6.394,0 0,20.2 -6.394,0 0,-20.2 z" />
<path class="a" d="m 101.34,14.827 q 4.38,0 6.66,2.9 2.29,2.9 2.29,8.1 0,5.1 -2.38,7.9 -2.37,2.7 -6.57,2.7 -4.011,0 -6.381,-2.8 -2.35,-2.8 -2.35,-7.8 0,-5.2 2.24,-8.1 2.26,-2.9 6.491,-2.9 z m 0,15.9 q 1.25,0 1.86,-1.1 0.64,-1.2 0.64,-4 0,-2.8 -0.61,-3.9 -0.62,-1.2 -1.85,-1.2 -1.2,0 -1.831,1.1 -0.64,1.1 -0.64,4 0,5.1 2.431,5.1 z" />
<path class="a" d="m 120.42,15.527 0,2.7 0.1,0 q 2.25,-3.4 5.48,-3.4 2.11,0 3.34,1.4 1.25,1.4 1.25,3.8 l 0,15.7 -6.4,0 0,-12.5 q 0,-1 -0.48,-1.6 -0.48,-0.7 -1.25,-0.7 -2.04,0 -2.04,2.6 l 0,12.2 -6.38,0 0,-20.2 6.38,0 z" />
<path class="a" d="m 156.45,35.727 0,-2.7 -0.1,0 q -1.16,1.8 -2.26,2.6 -1.08,0.8 -2.55,0.8 -2.88,0 -4.59,-3 -1.72,-2.9 -1.72,-8 0,-4.8 1.74,-7.7 1.74,-2.9 4.57,-2.9 1.52,0 2.57,0.8 1.06,0.7 2.2,2.4 l 0.1,0 0,-2.5 6.39,0 0,20.2 -6.35,0 z m 0,-10.2 q 0,-5 -2.46,-5 -2.48,0 -2.48,5 0,5.2 2.57,5.2 2.37,0 2.37,-5.2 z" />
<path class="a" d="m 173.76,15.527 0,3.4 0.1,0 q 2.29,-4 4.81,-4 0.38,0 1.04,0.2 l 0,6.2 q -1.17,-0.2 -2.16,-0.2 -3.51,0 -3.51,4.6 l 0,10 -6.37,0 0,-20.2 6.1,0 z" />
<path class="a" d="m 185.15,10.126 6.39,0 0,5.401 2.48,0 0,5.3 -2.52,0 0,14.9 -6.35,0 0,-14.9 -2.42,0 0,-5.3 2.42,0 0,-5.401 z" />
<path class="a" d="m 197.28,9.4265 q 0,-1.4 0.98,-2.4 0.99,-1 2.38,-1 1.4,0 2.39,1 0.99,1 0.99,2.4 0,1.3995 -0.99,2.3995 -0.99,1 -2.39,1 -1.37,0 -2.38,-1 -0.98,-1 -0.98,-2.3995 z m 0.17,6.1005 6.4,0 0,20.2 -6.4,0 0,-20.2 z" />
<path class="a" d="m 219.84,29.527 0,5.3 q -2.28,1.5 -4.59,1.5 -3.41,0 -5.47,-2.9 -2.05,-3 -2.05,-8 0,-4.7 2.11,-7.6 2.11,-3 5.45,-3 2.33,0 4.6,1.6 l 0,5.3 q -1.3,-0.7 -2.33,-0.7 -1.54,0 -2.49,1.2 -0.94,1.3 -0.94,3.3 0,2.2 0.92,3.5 0.92,1.2 2.51,1.2 0.96,0 2.28,-0.7 z" />
<path class="a" d="m 223.82,4.7265 6.39,0 0,31.0005 -6.39,0 0,-31.0005 z" />
<path class="a" d="m 244.74,29.527 5.38,0 q -1.54,6.8 -7.69,6.8 -3.85,0 -6.09,-2.9 -2.24,-2.9 -2.24,-8 0,-4.8 2.24,-7.7 2.24,-2.9 5.96,-2.9 2.24,0 4.3,1.4 2.07,1.4 3.01,3.7 0.95,2.3 1.06,7.3 l -10.66,0 q 0.13,4.5 2.51,4.5 0.81,0 1.45,-0.6 0.63,-0.6 0.77,-1.6 z m -4.64,-5.8 4.64,0 q -0.1,-2.1 -0.6,-3.2 -0.52,-1 -1.67,-1 -1.27,0 -1.82,1 -0.55,1 -0.55,3.2 z" />
<path class="a" d="m 255.15,29.227 q 3.28,1.9 4.73,1.9 0.79,0 1.31,-0.4 0.53,-0.4 0.53,-1 0,-0.6 -0.44,-0.9 -0.44,-0.3 -3.29,-1.5 -2.29,-1 -3.3,-2.4 -1.01,-1.4 -1.01,-3.4 0,-2.9 2,-4.8 2.02,-1.9 5.14,-1.9 3.03,0 7.43,2.4 l -2.46,4.6 q -2.86,-1.8 -4.68,-1.8 -1.59,0 -1.59,1.3 0,0.6 0.58,1 0.59,0.5 2.13,1 2.88,1 4.17,2.5 1.32,1.4 1.32,3.5 0,3.1 -2.07,5.1 -2.06,1.9 -5.27,1.9 -3.47,0 -7.43,-2.4 l 2.2,-4.7 z" />
</g>

<g id="review" transform="translate(1588 0)">
<path class="a" d="m 2.4236,6.4644 7.7554,0 q 4.702,0 7.426,2.4 2.725,2.4016 2.725,6.6016 0,2.1 -1.033,4.1 -1.032,2 -3.01,3 l 5.317,13.2 -7.031,0 -5.3814,-13.4 -0.11,0 0,13.4 -6.658,0 0,-29.3016 z m 6.658,5.6016 0,7 q 4.4144,-0.1 4.4144,-3.1 0,-2 -1.032,-2.9 -1.011,-0.9 -3.3824,-1 z" />
<path class="a" d="m 34.59,29.566 5.384,0 q -1.54,6.8 -7.691,6.8 -3.845,0 -6.086,-2.9 -2.242,-2.9 -2.242,-8 0,-4.8 2.242,-7.7 2.241,-2.9 5.954,-2.9 2.241,0 4.307,1.4 2.066,1.4 3.006,3.7 0.95,2.3 1.06,7.3 l -10.658,0 q 0.132,4.5 2.505,4.5 0.813,0 1.45,-0.6 0.637,-0.6 0.769,-1.6 z m -4.636,-5.8 4.636,0 q -0.07,-2.1 -0.593,-3.2 -0.527,-1 -1.67,-1 -1.274,0 -1.824,1 -0.549,1 -0.549,3.2 z" />
<path class="a" d="m 42.324,15.566 6.24,0 2.53,10.9 0.1,0 2.52,-10.9 6.33,0 -6.28,20.2 -5.19,0 -6.24,-20.2 z" />
<path class="a" d="m 62.984,9.4644 q 0,-1.4 0.98,-2.4 0.99,-1 2.38,-1 1.4,0 2.39,1 0.99,1 0.99,2.4 0,1.4016 -0.99,2.4016 -0.99,1 -2.39,1 -1.37,0 -2.38,-1 -0.98,-1 -0.98,-2.4016 z m 0.17,6.1016 6.4,0 0,20.2 -6.4,0 0,-20.2 z" />
<path class="a" d="m 84.074,29.566 5.38,0 q -1.54,6.8 -7.69,6.8 -3.84,0 -6.08,-2.9 -2.25,-2.9 -2.25,-8 0,-4.8 2.25,-7.7 2.24,-2.9 5.95,-2.9 2.24,0 4.31,1.4 2.06,1.4 3.01,3.7 0.94,2.3 1.05,7.3 l -10.65,0 q 0.13,4.5 2.5,4.5 0.81,0 1.45,-0.6 0.64,-0.6 0.77,-1.6 z m -4.64,-5.8 4.64,0 q -0.1,-2.1 -0.59,-3.2 -0.53,-1 -1.67,-1 -1.28,0 -1.83,1 -0.55,1 -0.55,3.2 z" />
<path class="a" d="m 91.694,15.566 6.31,0 q 2.196,9.6 2.476,11.3 l 0.1,0 2.15,-11.3 5.41,0 2.15,11.2 0.1,0 q 0.53,-2.6 0.73,-3.5 l 1.84,-7.7 6.31,0 -6.26,20.2 -4.82,0 q -2.46,-9 -2.74,-10.9 l -0.1,0 q -0.2,1.5 -2.66,10.9 l -4.766,0 -6.22,-20.2 z" />
<path class="a" d="m 122.79,29.266 q 3.27,1.9 4.72,1.9 0.79,0 1.32,-0.4 0.53,-0.4 0.53,-1 0,-0.6 -0.44,-0.9 -0.44,-0.3 -3.3,-1.5 -2.29,-1 -3.3,-2.4 -1.01,-1.4 -1.01,-3.4 0,-2.9 2,-4.8 2.02,-1.9 5.14,-1.9 3.04,0 7.43,2.4 l -2.46,4.6 q -2.86,-1.8 -4.68,-1.8 -1.58,0 -1.58,1.3 0,0.6 0.57,1 0.59,0.5 2.13,1 2.88,1 4.18,2.5 1.31,1.4 1.31,3.5 0,3.1 -2.06,5.1 -2.07,1.9 -5.28,1.9 -3.47,0 -7.42,-2.4 l 2.2,-4.7 z" />
</g>

<g id="review-articles" transform="translate(1726 0)">
<path class="a" d="m 3.012,6.497 7.759,0 q 4.702,0 7.426,2.4 2.725,2.401 2.725,6.601 0,2.1 -1.033,4.1 -1.032,2 -3.01,3 l 5.317,13.2 -7.031,0 -5.3845,-13.4 -0.1105,0 0,13.4 -6.658,0 0,-29.301 z m 6.658,5.601 0,7 q 4.419,-0.1 4.419,-3.1 0,-2 -1.033,-2.9 -1.011,-0.9 -3.386,-1 z" />
<path class="a" d="m 35.182,29.598 5.384,0 q -1.539,6.8 -7.691,6.8 -3.845,0 -6.086,-2.9 -2.242,-2.9 -2.242,-8 0,-4.8 2.242,-7.7 2.241,-2.9 5.954,-2.9 2.242,0 4.307,1.4 2.065,1.4 3.01,3.7 0.945,2.3 1.055,7.3 l -10.657,0 q 0.132,4.5 2.505,4.5 0.813,0 1.45,-0.6 0.637,-0.6 0.769,-1.6 z m -4.636,-5.8 4.636,0 q -0.07,-2.1 -0.593,-3.2 -0.527,-1 -1.67,-1 -1.274,0 -1.824,1 -0.549,1 -0.549,3.2 z" />
<path class="a" d="m 42.917,15.598 6.245,0 2.52,10.9 0.1,0 2.53,-10.9 6.33,0 -6.29,20.2 -5.18,0 -6.243,-20.2 z" />
<path class="a" d="m 63.572,9.497 q 0,-1.4 0.99,-2.4 0.99,-1 2.37,-1 1.41,0 2.4,1 0.99,1 0.99,2.4 0,1.401 -0.99,2.401 -0.99,1 -2.4,1 -1.36,0 -2.37,-1 -0.99,-1 -0.99,-2.401 z m 0.18,6.101 6.39,0 0,20.2 -6.39,0 0,-20.2 z" />
<path class="a" d="m 84.662,29.598 5.39,0 q -1.54,6.8 -7.69,6.8 -3.85,0 -6.09,-2.9 -2.24,-2.9 -2.24,-8 0,-4.8 2.24,-7.7 2.24,-2.9 5.95,-2.9 2.25,0 4.31,1.4 2.07,1.4 3.01,3.7 0.95,2.3 1.06,7.3 l -10.66,0 q 0.13,4.5 2.5,4.5 0.82,0 1.45,-0.6 0.64,-0.6 0.77,-1.6 z m -4.63,-5.8 4.63,0 q -0.1,-2.1 -0.59,-3.2 -0.53,-1 -1.67,-1 -1.27,0 -1.82,1 -0.55,1 -0.55,3.2 z" />
<path class="a" d="m 92.292,15.598 6.3,0 q 2.188,9.6 2.468,11.3 l 0.1,0 2.15,-11.3 5.41,0 2.15,11.2 0.1,0 q 0.53,-2.6 0.73,-3.5 l 1.84,-7.7 6.31,0 -6.27,20.2 -4.81,0 q -2.46,-9 -2.74,-10.9 l -0.1,0 q -0.2,1.5 -2.66,10.9 l -4.748,0 -6.22,-20.2 z" />
<path class="a" d="m 143.76,35.798 0,-2.7 -0.1,0 q -1.17,1.8 -2.27,2.6 -1.07,0.8 -2.54,0.8 -2.88,0 -4.6,-3 -1.71,-2.9 -1.71,-8 0,-4.8 1.73,-7.7 1.74,-2.9 4.58,-2.9 1.51,0 2.57,0.8 1.05,0.7 2.19,2.4 l 0.1,0 0,-2.5 6.4,0 0,20.2 -6.35,0 z m 0,-10.2 q 0,-5 -2.47,-5 -2.48,0 -2.48,5 0,5.2 2.57,5.2 2.38,0 2.38,-5.2 z" />
<path class="a" d="m 161.07,15.598 0,3.4 0.1,0 q 2.28,-4 4.81,-4 0.37,0 1.03,0.2 l 0,6.2 q -1.16,-0.2 -2.15,-0.2 -3.52,0 -3.52,4.6 l 0,10 -6.37,0 0,-20.2 6.11,0 z" />
<path class="a" d="m 172.45,10.197 6.4,0 0,5.401 2.48,0 0,5.3 -2.53,0 0,14.9 -6.35,0 0,-14.9 -2.42,0 0,-5.3 2.42,0 0,-5.401 z" />
<path class="a" d="m 184.58,9.497 q 0,-1.4 0.99,-2.4 0.99,-1 2.37,-1 1.41,0 2.4,1 0.99,1 0.99,2.4 0,1.401 -0.99,2.401 -0.99,1 -2.4,1 -1.36,0 -2.37,-1 -0.99,-1 -0.99,-2.401 z m 0.18,6.101 6.39,0 0,20.2 -6.39,0 0,-20.2 z" />
<path class="a" d="m 207.15,29.598 0,5.3 q -2.29,1.5 -4.6,1.5 -3.4,0 -5.47,-2.9 -2.04,-3 -2.04,-8 0,-4.7 2.11,-7.6 2.11,-3 5.45,-3 2.33,0 4.59,1.6 l 0,5.3 q -1.3,-0.7 -2.33,-0.7 -1.54,0 -2.48,1.2 -0.95,1.3 -0.95,3.3 0,2.2 0.93,3.5 0.92,1.2 2.5,1.2 0.97,0 2.29,-0.7 z" />
<path class="a" d="m 211.12,4.797 6.4,0 0,31.001 -6.4,0 0,-31.001 z" />
<path class="a" d="m 232.04,29.598 5.38,0 q -1.53,6.8 -7.69,6.8 -3.84,0 -6.08,-2.9 -2.24,-2.9 -2.24,-8 0,-4.8 2.24,-7.7 2.24,-2.9 5.95,-2.9 2.24,0 4.31,1.4 2.06,1.4 3.01,3.7 0.94,2.3 1.05,7.3 l -10.65,0 q 0.13,4.5 2.5,4.5 0.82,0 1.45,-0.6 0.64,-0.6 0.77,-1.6 z m -4.63,-5.8 4.63,0 q -0.1,-2.1 -0.59,-3.2 -0.53,-1 -1.67,-1 -1.28,0 -1.83,1 -0.54,1 -0.54,3.2 z" />
<path class="a" d="m 242.46,29.298 q 3.27,1.9 4.72,1.9 0.79,0 1.32,-0.4 0.53,-0.4 0.53,-1 0,-0.6 -0.44,-0.9 -0.44,-0.3 -3.3,-1.5 -2.28,-1 -3.3,-2.4 -1.01,-1.4 -1.01,-3.4 0,-2.9 2,-4.8 2.03,-1.9 5.15,-1.9 3.03,0 7.42,2.4 l -2.46,4.6 q -2.86,-1.8 -4.68,-1.8 -1.58,0 -1.58,1.3 0,0.6 0.57,1 0.59,0.5 2.13,1 2.88,1 4.18,2.5 1.31,1.4 1.31,3.5 0,3.1 -2.06,5.1 -2.07,1.9 -5.27,1.9 -3.48,0 -7.43,-2.4 l 2.2,-4.7 z" />
</g>

<g id="topical" transform="translate(1984 0)">
<path class="a" d="m 2.0083,6.4267 15.8897,0 0,6.7003 -4.593,0 0,22.6 -6.7487,0 0,-22.6 -4.548,0 0,-6.7003 z" />
<path class="a" d="m 27.368,14.827 q 4.372,0 6.658,2.9 2.285,2.9 2.285,8.1 0,5.1 -2.373,7.9 -2.373,2.7 -6.57,2.7 -4.021,0 -6.394,-2.8 -2.351,-2.8 -2.351,-7.8 0,-5.2 2.241,-8.1 2.263,-2.9 6.504,-2.9 z m 0.04,15.9 q 1.252,0 1.867,-1.1 0.638,-1.2 0.638,-4 0,-2.8 -0.616,-3.9 -0.615,-1.2 -1.845,-1.2 -1.209,0 -1.846,1.1 -0.637,1.1 -0.637,4 0,5.1 2.439,5.1 z" />
<path class="a" d="m 46.44,15.527 0,2.6 0.11,0 q 2.131,-3.2 4.812,-3.2 2.878,0 4.614,3 1.758,2.9 1.758,7.9 0,4.7 -1.802,7.7 -1.779,2.9 -4.57,2.9 -2.944,0 -4.812,-3.4 l -0.11,0 0,11 -6.372,0 0,-28.5 6.372,0 z m 4.922,10 q 0,-5 -2.527,-5 -2.395,0 -2.395,5.1 0,5.2 2.395,5.2 2.527,0 2.527,-5.3 z" />
<path class="a" d="m 61.513,9.4267 q 0,-1.4 0.989,-2.4 0.989,-1 2.373,-1 1.406,0 2.395,1 0.989,1 0.989,2.4 0,1.4003 -0.989,2.4003 -0.989,1 -2.395,1 -1.362,0 -2.373,-1 -0.989,-1 -0.989,-2.4003 z m 0.176,6.1003 6.394,0 0,20.2 -6.394,0 0,-20.2 z" />
<path class="a" d="m 84.079,29.527 0,5.3 q -2.285,1.5 -4.592,1.5 -3.406,0 -5.471,-2.9 -2.044,-3 -2.044,-8 0,-4.7 2.11,-7.6 2.109,-3 5.449,-3 2.329,0 4.592,1.6 l 0,5.3 q -1.296,-0.7 -2.329,-0.7 -1.538,0 -2.483,1.2 -0.945,1.3 -0.945,3.3 0,2.2 0.923,3.5 0.923,1.2 2.505,1.2 0.967,0 2.285,-0.7 z" />
<path class="a" d="m 97.946,35.727 0,-2.7 -0.1,0 q -1.166,1.8 -2.265,2.6 -1.077,0.8 -2.549,0.8 -2.878,0 -4.592,-3 -1.714,-2.9 -1.714,-8 0,-4.8 1.736,-7.7 1.736,-2.9 4.57,-2.9 1.516,0 2.571,0.8 1.055,0.7 2.193,2.4 l 0.1,0 0,-2.5 6.364,0 0,20.2 -6.314,0 z m 0,-10.2 q 0,-5 -2.463,-5 -2.483,0 -2.483,5 0,5.2 2.571,5.2 2.375,0 2.375,-5.2 z" />
<path class="a" d="m 109.29,4.7267 6.39,0 0,31.0003 -6.39,0 0,-31.0003 z" />
</g>

<g id="topical-articles" transform="translate(0 48)">
<path class="a" d="m 1.8915,6.5865 15.8855,0 0,6.6995 -4.593,0 0,22.6 -6.7445,0 0,-22.6 -4.548,0 0,-6.6995 z" />
<path class="a" d="m 27.247,14.986 q 4.372,0 6.658,2.9 2.285,2.9 2.285,8.1 0,5.1 -2.373,7.9 -2.373,2.7 -6.57,2.7 -4.021,0 -6.394,-2.8 -2.351,-2.8 -2.351,-7.8 0,-5.2 2.241,-8.1 2.263,-2.9 6.504,-2.9 z m 0.04,15.9 q 1.252,0 1.867,-1.1 0.638,-1.2 0.638,-4 0,-2.8 -0.616,-3.9 -0.615,-1.2 -1.845,-1.2 -1.209,0 -1.846,1.1 -0.637,1.1 -0.637,4 0,5.1 2.439,5.1 z" />
<path class="a" d="m 46.321,15.686 0,2.6 0.11,0 q 2.13,-3.2 4.81,-3.2 2.88,0 4.61,3 1.76,2.9 1.76,7.9 0,4.7 -1.8,7.7 -1.78,2.9 -4.57,2.9 -2.94,0 -4.81,-3.4 l -0.11,0 0,11 -6.374,0 0,-28.5 6.374,0 z m 4.92,10 q 0,-5 -2.53,-5 -2.39,0 -2.39,5.1 0,5.2 2.39,5.2 2.53,0 2.53,-5.3 z" />
<path class="a" d="m 61.391,9.5865 q 0,-1.4 0.99,-2.4 0.99,-1 2.37,-1 1.41,0 2.4,1 0.99,1 0.99,2.4 0,1.3995 -0.99,2.3995 -0.99,1 -2.4,1 -1.36,0 -2.37,-1 -0.99,-1 -0.99,-2.3995 z m 0.18,6.0995 6.39,0 0,20.2 -6.39,0 0,-20.2 z" />
<path class="a" d="m 83.961,29.686 0,5.3 q -2.29,1.5 -4.6,1.5 -3.4,0 -5.47,-2.9 -2.04,-3 -2.04,-8 0,-4.7 2.11,-7.6 2.11,-3 5.45,-3 2.33,0 4.59,1.6 l 0,5.3 q -1.3,-0.7 -2.33,-0.7 -1.54,0 -2.48,1.2 -0.95,1.3 -0.95,3.3 0,2.2 0.93,3.5 0.92,1.2 2.5,1.2 0.97,0 2.29,-0.7 z" />
<path class="a" d="m 97.821,35.886 0,-2.7 -0.1,0 q -1.16,1.8 -2.26,2.6 -1.08,0.8 -2.55,0.8 -2.88,0 -4.59,-3 -1.72,-2.9 -1.72,-8 0,-4.8 1.74,-7.7 1.74,-2.9 4.57,-2.9 1.52,0 2.57,0.8 1.06,0.7 2.2,2.4 l 0.1,0 0,-2.5 6.409,0 0,20.2 -6.369,0 z m 0,-10.2 q 0,-5 -2.46,-5 -2.48,0 -2.48,5 0,5.2 2.57,5.2 2.37,0 2.37,-5.2 z" />
<path class="a" d="m 109.22,4.8865 6.39,0 0,30.9995 -6.39,0 0,-30.9995 z" />
<path class="a" d="m 141.78,35.886 0,-2.7 -0.1,0 q -1.16,1.8 -2.26,2.6 -1.08,0.8 -2.55,0.8 -2.88,0 -4.59,-3 -1.71,-2.9 -1.71,-8 0,-4.8 1.73,-7.7 1.74,-2.9 4.57,-2.9 1.52,0 2.57,0.8 1.06,0.7 2.2,2.4 l 0.1,0 0,-2.5 6.39,0 0,20.2 -6.35,0 z m 0,-10.2 q 0,-5 -2.46,-5 -2.48,0 -2.48,5 0,5.2 2.57,5.2 2.37,0 2.37,-5.2 z" />
<path class="a" d="m 159.1,15.686 0,3.4 0.1,0 q 2.29,-4 4.82,-4 0.37,0 1.03,0.2 l 0,6.2 q -1.17,-0.2 -2.15,-0.2 -3.52,0 -3.52,4.6 l 0,10 -6.37,0 0,-20.2 6.11,0 z" />
<path class="a" d="m 170.48,10.286 6.39,0 0,5.4 2.48,0 0,5.3 -2.52,0 0,14.9 -6.35,0 0,-14.9 -2.42,0 0,-5.3 2.42,0 0,-5.4 z" />
<path class="a" d="m 182.61,9.5865 q 0,-1.4 0.99,-2.4 0.98,-1 2.37,-1 1.4,0 2.39,1 0.99,1 0.99,2.4 0,1.3995 -0.99,2.3995 -0.99,1 -2.39,1 -1.36,0 -2.37,-1 -0.99,-1 -0.99,-2.3995 z m 0.17,6.0995 6.4,0 0,20.2 -6.4,0 0,-20.2 z" />
<path class="a" d="m 205.17,29.686 0,5.3 q -2.28,1.5 -4.59,1.5 -3.41,0 -5.47,-2.9 -2.04,-3 -2.04,-8 0,-4.7 2.1,-7.6 2.11,-3 5.45,-3 2.33,0 4.6,1.6 l 0,5.3 q -1.3,-0.7 -2.33,-0.7 -1.54,0 -2.49,1.2 -0.94,1.3 -0.94,3.3 0,2.2 0.92,3.5 0.93,1.2 2.51,1.2 0.96,0 2.28,-0.7 z" />
<path class="a" d="m 209.15,4.8865 6.39,0 0,30.9995 -6.39,0 0,-30.9995 z" />
<path class="a" d="m 230.07,29.686 5.38,0 q -1.54,6.8 -7.69,6.8 -3.84,0 -6.09,-2.9 -2.24,-2.9 -2.24,-8 0,-4.8 2.24,-7.7 2.25,-2.9 5.96,-2.9 2.24,0 4.31,1.4 2.06,1.4 3.01,3.7 0.94,2.3 1.05,7.3 l -10.66,0 q 0.14,4.5 2.51,4.5 0.81,0 1.45,-0.6 0.64,-0.6 0.77,-1.6 z m -4.64,-5.8 4.64,0 q -0.1,-2.1 -0.6,-3.2 -0.52,-1 -1.67,-1 -1.27,0 -1.82,1 -0.55,1 -0.55,3.2 z" />
<path class="a" d="m 240.48,29.386 q 3.28,1.9 4.73,1.9 0.79,0 1.31,-0.4 0.53,-0.4 0.53,-1 0,-0.6 -0.44,-0.9 -0.44,-0.3 -3.29,-1.5 -2.29,-1 -3.3,-2.4 -1.01,-1.4 -1.01,-3.4 0,-2.9 2,-4.8 2.02,-1.9 5.14,-1.9 3.03,0 7.43,2.4 l -2.46,4.6 q -2.86,-1.8 -4.68,-1.8 -1.58,0 -1.58,1.3 0,0.6 0.57,1 0.59,0.5 2.13,1 2.88,1 4.17,2.5 1.32,1.4 1.32,3.5 0,3.1 -2.06,5.1 -2.07,1.9 -5.28,1.9 -3.47,0 -7.42,-2.4 l 2.19,-4.7 z" />
</g>

<g id="1-key" transform="translate(256 48)">
<path class="a" d="m 13.406,36.438 q -5.3165,0 -8.1065,-4 -2.791,-4.1 -2.791,-11.8 0,-7.1 2.791,-11.099 2.812,-3.9005 7.8205,-3.9005 5.339,0 8.152,3.9005 2.834,3.999 2.834,11.399 0,7.4 -2.79,11.5 -2.769,4 -7.91,4 z m -0.242,-24.2 q -3.602,0 -3.602,8.5 0,5.4 0.899,7.2 0.923,1.9 2.659,1.9 1.868,0 2.856,-1.9 1.011,-1.8 1.011,-7.1 0,-8.6 -3.823,-8.6 z" />
<path class="a" d="m 34.741,15.538 0,2.7 0.11,0 q 2.241,-3.4 5.471,-3.4 2.11,0 3.34,1.4 1.252,1.4 1.252,3.8 l 0,15.7 -6.394,0 0,-12.5 q 0,-1 -0.483,-1.6 -0.483,-0.7 -1.252,-0.7 -2.044,0 -2.044,2.6 l 0,12.2 -6.372,0 0,-20.2 6.372,0 z" />
<path class="a" d="m 59.131,29.538 5.38,0 q -1.53,6.8 -7.687,6.8 -3.846,0 -6.087,-2.9 -2.241,-2.9 -2.241,-8 0,-4.8 2.241,-7.7 2.241,-2.9 5.955,-2.9 2.241,0 4.309,1.4 2.06,1.4 3.01,3.7 0.94,2.3 1.05,7.3 l -10.654,0 q 0.131,4.5 2.505,4.5 0.812,0 1.45,-0.6 0.637,-0.6 0.769,-1.6 z m -4.636,-5.8 4.636,0 q -0.07,-2.1 -0.594,-3.2 -0.527,-1 -1.669,-1 -1.275,0 -1.824,1 -0.549,1 -0.549,3.2 z" />
<path class="a" d="m 80.581,6.4385 6.65,0 0,13.7995 0.11,0 6.29,-13.7995 6.989,0 -6.819,14.9995 6.539,14.3 -7.329,0 -5.67,-12.2 -0.11,0 0,12.2 -6.65,0 0,-29.2995 z" />
<path class="a" d="m 111.97,29.538 5.38,0 q -1.54,6.8 -7.69,6.8 -3.84,0 -6.08,-2.9 -2.26,-2.9 -2.26,-8 0,-4.8 2.26,-7.7 2.24,-2.9 5.95,-2.9 2.24,0 4.31,1.4 2.06,1.4 3.01,3.7 0.94,2.3 1.05,7.3 l -10.66,0 q 0.14,4.5 2.51,4.5 0.81,0 1.45,-0.6 0.64,-0.6 0.77,-1.6 z m -4.64,-5.8 4.64,0 q -0.1,-2.1 -0.59,-3.2 -0.53,-1 -1.67,-1 -1.28,0 -1.83,1 -0.55,1 -0.55,3.2 z" />
<path class="a" d="m 119.2,15.538 6.3,0 1.61,5.2 q 0.83,2.8 1.45,5.5 l 0.11,0 q 0.5,-2.6 0.83,-3.7 l 2.13,-7 6.4,0 -8.61,28.5 -6.38,0 2.6,-8.6 -6.44,-19.9 z" />
</g>

<g id="1-key-articles" transform="translate(396 48)">
<path class="a" d="m 13.417,36.547 q -5.3195,0 -8.1095,-4 -2.791,-4.1 -2.791,-11.8 0,-7.1 2.791,-11.1005 2.812,-3.9 7.8235,-3.9 5.339,0 8.152,3.9 2.834,4.0005 2.834,11.4005 0,7.4 -2.79,11.5 -2.769,4 -7.91,4 z m -0.242,-24.2 q -3.6055,0 -3.6055,8.5 0,5.4 0.9015,7.2 0.924,1.9 2.66,1.9 1.868,0 2.856,-1.9 1.011,-1.8 1.011,-7.1 0,-8.6 -3.823,-8.6 z" />
<path class="a" d="m 34.752,15.647 0,2.7 0.11,0 q 2.241,-3.4 5.467,-3.4 2.11,0 3.34,1.4 1.26,1.4 1.26,3.8 l 0,15.7 -6.398,0 0,-12.5 q 0,-1 -0.483,-1.6 -0.483,-0.7 -1.252,-0.7 -2.044,0 -2.044,2.6 l 0,12.2 -6.372,0 0,-20.2 6.372,0 z" />
<path class="a" d="m 59.139,29.647 5.39,0 q -1.54,6.8 -7.69,6.8 -3.85,0 -6.09,-2.9 -2.24,-2.9 -2.24,-8 0,-4.8 2.24,-7.7 2.24,-2.9 5.95,-2.9 2.25,0 4.31,1.4 2.07,1.4 3.01,3.7 0.95,2.3 1.06,7.3 l -10.66,0 q 0.13,4.5 2.5,4.5 0.82,0 1.45,-0.6 0.64,-0.6 0.77,-1.6 z m -4.63,-5.8 4.63,0 q -0.1,-2.1 -0.59,-3.2 -0.53,-1 -1.67,-1 -1.27,0 -1.82,1 -0.55,1 -0.55,3.2 z" />
<path class="a" d="m 80.589,6.5465 6.66,0 0,13.8005 0.11,0 6.28,-13.8005 6.981,0 -6.801,15.0005 6.531,14.3 -7.321,0 -5.67,-12.2 -0.11,0 0,12.2 -6.66,0 0,-29.3005 z" />
<path class="a" d="m 111.96,29.647 5.38,0 q -1.54,6.8 -7.69,6.8 -3.84,0 -6.08,-2.9 -2.25,-2.9 -2.25,-8 0,-4.8 2.25,-7.7 2.24,-2.9 5.95,-2.9 2.24,0 4.31,1.4 2.06,1.4 3.01,3.7 0.94,2.3 1.05,7.3 l -10.66,0 q 0.14,4.5 2.51,4.5 0.81,0 1.45,-0.6 0.64,-0.6 0.77,-1.6 z m -4.64,-5.8 4.64,0 q -0.1,-2.1 -0.59,-3.2 -0.53,-1 -1.67,-1 -1.28,0 -1.83,1 -0.55,1 -0.55,3.2 z" />
<path class="a" d="m 119.19,15.647 6.3,0 1.61,5.2 q 0.83,2.8 1.45,5.5 l 0.11,0 q 0.5,-2.6 0.83,-3.7 l 2.13,-7 6.4,0 -8.61,28.5 -6.38,0 2.6,-8.6 -6.44,-19.9 z" />
<path class="a" d="m 162.01,35.847 0,-2.7 -0.1,0 q -1.16,1.8 -2.26,2.6 -1.08,0.8 -2.55,0.8 -2.88,0 -4.59,-3 -1.71,-2.9 -1.71,-8 0,-4.8 1.73,-7.7 1.74,-2.9 4.57,-2.9 1.52,0 2.57,0.8 1.06,0.7 2.2,2.4 l 0.1,0 0,-2.5 6.39,0 0,20.2 -6.35,0 z m 0,-10.2 q 0,-5 -2.46,-5 -2.48,0 -2.48,5 0,5.2 2.57,5.2 2.37,0 2.37,-5.2 z" />
<path class="a" d="m 179.33,15.647 0,3.4 0.1,0 q 2.28,-4 4.81,-4 0.37,0 1.03,0.2 l 0,6.2 q -1.16,-0.2 -2.15,-0.2 -3.52,0 -3.52,4.6 l 0,10 -6.37,0 0,-20.2 6.11,0 z" />
<path class="a" d="m 190.71,10.247 6.39,0 0,5.4 2.49,0 0,5.3 -2.53,0 0,14.9 -6.35,0 0,-14.9 -2.42,0 0,-5.3 2.42,0 0,-5.4 z" />
<path class="a" d="m 202.84,9.5465 q 0,-1.4 0.99,-2.4 0.99,-1 2.37,-1 1.41,0 2.39,1 0.99,1 0.99,2.4 0,1.4005 -0.99,2.4005 -0.98,1 -2.39,1 -1.36,0 -2.37,-1 -0.99,-1 -0.99,-2.4005 z m 0.17,6.1005 6.4,0 0,20.2 -6.4,0 0,-20.2 z" />
<path class="a" d="m 225.4,29.647 0,5.3 q -2.28,1.5 -4.59,1.5 -3.4,0 -5.47,-2.9 -2.04,-3 -2.04,-8 0,-4.7 2.11,-7.6 2.11,-3 5.45,-3 2.32,0 4.59,1.6 l 0,5.3 q -1.3,-0.7 -2.33,-0.7 -1.54,0 -2.48,1.2 -0.95,1.3 -0.95,3.3 0,2.2 0.92,3.5 0.93,1.2 2.51,1.2 0.97,0 2.28,-0.7 z" />
<path class="a" d="m 229.38,4.8465 6.39,0 0,31.0005 -6.39,0 0,-31.0005 z" />
<path class="a" d="m 250.3,29.647 5.38,0 q -1.54,6.8 -7.69,6.8 -3.84,0 -6.08,-2.9 -2.25,-2.9 -2.25,-8 0,-4.8 2.25,-7.7 2.24,-2.9 5.95,-2.9 2.24,0 4.31,1.4 2.06,1.4 3.01,3.7 0.94,2.3 1.05,7.3 l -10.66,0 q 0.14,4.5 2.51,4.5 0.81,0 1.45,-0.6 0.64,-0.6 0.77,-1.6 z m -4.64,-5.8 4.64,0 q -0.1,-2.1 -0.59,-3.2 -0.53,-1 -1.67,-1 -1.28,0 -1.83,1 -0.55,1 -0.55,3.2 z" />
<path class="a" d="m 260.71,29.347 q 3.28,1.9 4.73,1.9 0.79,0 1.32,-0.4 0.52,-0.4 0.52,-1 0,-0.6 -0.44,-0.9 -0.44,-0.3 -3.29,-1.5 -2.29,-1 -3.3,-2.4 -1.01,-1.4 -1.01,-3.4 0,-2.9 2,-4.8 2.02,-1.9 5.14,-1.9 3.04,0 7.43,2.4 l -2.46,4.6 q -2.86,-1.8 -4.68,-1.8 -1.58,0 -1.58,1.3 0,0.6 0.57,1 0.59,0.5 2.13,1 2.88,1 4.17,2.5 1.32,1.4 1.32,3.5 0,3.1 -2.06,5.1 -2.07,1.9 -5.28,1.9 -3.47,0 -7.42,-2.4 l 2.19,-4.7 z" />
</g>

<g id="2-keys" transform="translate(672 48)">
<path class="a" d="m 2.3731,6.3435 15.8899,0 0,6.7005 -4.593,0 0,22.6 -6.7487,0 0,-22.6 -4.5482,0 0,-6.7005 z" />
<path class="a" d="m 19.317,15.444 6.307,0 q 2.197,9.6 2.482,11.3 l 0.09,0 2.154,-11.3 5.405,0 2.153,11.2 0.09,0 q 0.528,-2.6 0.725,-3.5 l 1.846,-7.7 6.306,0 -6.262,20.2 -4.812,0 q -2.461,-9 -2.747,-10.9 l -0.09,0 q -0.197,1.5 -2.658,10.9 l -4.768,0 -6.219,-20.2 z" />
<path class="a" d="m 56.913,14.744 q 4.372,0 6.657,2.9 2.285,2.9 2.285,8.1 0,5.1 -2.373,7.9 -2.373,2.7 -6.569,2.7 -4.021,0 -6.394,-2.8 -2.351,-2.8 -2.351,-7.8 0,-5.2 2.241,-8.1 2.263,-2.9 6.504,-2.9 z m 0.04,15.9 q 1.252,0 1.867,-1.1 0.637,-1.2 0.637,-4 0,-2.8 -0.615,-3.9 -0.615,-1.2 -1.845,-1.2 -1.209,0 -1.846,1.1 -0.637,1.1 -0.637,4 0,5.1 2.439,5.1 z" />
<path class="a" d="m 81.39,6.3435 6.658,0 0,13.8005 0.11,0 6.284,-13.8005 6.968,0 -6.792,15.0005 6.522,14.3 -7.313,0 -5.669,-12.2 -0.11,0 0,12.2 -6.658,0 0,-29.3005 z" />
<path class="a" d="m 112.75,29.444 5.38,0 q -1.54,6.8 -7.69,6.8 -3.84,0 -6.08,-2.9 -2.25,-2.9 -2.25,-8 0,-4.8 2.25,-7.7 2.24,-2.9 5.95,-2.9 2.24,0 4.31,1.4 2.06,1.4 3.01,3.7 0.94,2.3 1.05,7.3 l -10.66,0 q 0.14,4.5 2.51,4.5 0.81,0 1.45,-0.6 0.64,-0.6 0.77,-1.6 z m -4.64,-5.8 4.64,0 q -0.1,-2.1 -0.59,-3.2 -0.53,-1 -1.67,-1 -1.28,0 -1.83,1 -0.55,1 -0.55,3.2 z" />
<path class="a" d="m 119.98,15.444 6.3,0 1.61,5.2 q 0.83,2.8 1.45,5.5 l 0.11,0 q 0.5,-2.6 0.83,-3.7 l 2.13,-7 6.4,0 -8.61,28.499 -6.38,0 2.6,-8.599 -6.44,-19.9 z" />
<path class="a" d="m 142.41,29.144 q 3.28,1.9 4.73,1.9 0.79,0 1.31,-0.4 0.53,-0.4 0.53,-1 0,-0.6 -0.44,-0.9 -0.44,-0.3 -3.29,-1.5 -2.29,-1 -3.3,-2.4 -1.01,-1.4 -1.01,-3.4 0,-2.9 2,-4.8 2.02,-1.9 5.14,-1.9 3.03,0 7.43,2.4 l -2.46,4.6 q -2.86,-1.8 -4.68,-1.8 -1.59,0 -1.59,1.3 0,0.6 0.58,1 0.59,0.5 2.13,1 2.88,1 4.17,2.5 1.32,1.4 1.32,3.5 0,3.1 -2.06,5.1 -2.07,1.9 -5.28,1.9 -3.47,0 -7.43,-2.4 l 2.2,-4.7 z" />
</g>

<g id="2-keys-articles" transform="translate(830 48)">
<path class="a" d="m 1.9864,6.703 15.8866,0 0,6.7 -4.593,0 0,22.6 -6.7456,0 0,-22.6 -4.548,0 0,-6.7 z" />
<path class="a" d="m 18.927,15.803 6.306,0 q 2.198,9.6 2.483,11.3 l 0.09,0 2.154,-11.3 5.406,0 2.15,11.2 0.1,0 q 0.53,-2.6 0.73,-3.5 l 1.84,-7.7 6.31,0 -6.26,20.2 -4.81,0 q -2.466,-9 -2.752,-10.9 l -0.09,0 q -0.197,1.5 -2.658,10.9 l -4.768,0 -6.219,-20.2 z" />
<path class="a" d="m 56.526,15.103 q 4.37,0 6.65,2.9 2.29,2.9 2.29,8.1 0,5.1 -2.37,7.9 -2.38,2.7 -6.57,2.7 -4.02,0 -6.4,-2.8 -2.35,-2.8 -2.35,-7.8 0,-5.2 2.24,-8.1 2.27,-2.9 6.51,-2.9 z m 0,15.9 q 1.25,0 1.87,-1.1 0.63,-1.2 0.63,-4 0,-2.8 -0.61,-3.9 -0.62,-1.2 -1.85,-1.2 -1.21,0 -1.84,1.1 -0.64,1.1 -0.64,4 0,5.1 2.44,5.1 z" />
<path class="a" d="m 80.996,6.703 6.66,0 0,13.8 0.11,0 6.29,-13.8 6.994,0 -6.824,15 6.534,14.3 -7.324,0 -5.67,-12.2 -0.11,0 0,12.2 -6.66,0 0,-29.3 z" />
<path class="a" d="m 112.38,29.803 5.39,0 q -1.54,6.8 -7.69,6.8 -3.85,0 -6.09,-2.9 -2.24,-2.9 -2.24,-8 0,-4.8 2.24,-7.7 2.24,-2.9 5.96,-2.9 2.24,0 4.3,1.4 2.07,1.4 3.01,3.7 0.95,2.3 1.06,7.3 l -10.66,0 q 0.13,4.5 2.5,4.5 0.82,0 1.45,-0.6 0.64,-0.6 0.77,-1.6 z m -4.63,-5.8 4.63,0 q -0.1,-2.1 -0.59,-3.2 -0.53,-1 -1.67,-1 -1.27,0 -1.82,1 -0.55,1 -0.55,3.2 z" />
<path class="a" d="m 119.61,15.803 6.31,0 1.6,5.2 q 0.84,2.8 1.45,5.5 l 0.11,0 q 0.51,-2.6 0.84,-3.7 l 2.13,-7 6.39,0 -8.61,28.5 -6.37,0 2.59,-8.6 -6.44,-19.9 z" />
<path class="a" d="m 162.44,36.003 0,-2.7 -0.1,0 q -1.16,1.8 -2.26,2.6 -1.08,0.8 -2.55,0.8 -2.88,0 -4.59,-3 -1.72,-2.9 -1.72,-8 0,-4.8 1.74,-7.7 1.73,-2.9 4.57,-2.9 1.51,0 2.57,0.8 1.05,0.7 2.2,2.4 l 0.1,0 0,-2.5 6.4,0 0,20.2 -6.35,0 z m 0,-10.2 q 0,-5 -2.46,-5 -2.49,0 -2.49,5 0,5.2 2.57,5.2 2.38,0 2.38,-5.2 z" />
<path class="a" d="m 179.75,15.803 0,3.4 0.1,0 q 2.29,-4 4.81,-4 0.38,0 1.03,0.2 l 0,6.2 q -1.16,-0.2 -2.15,-0.2 -3.51,0 -3.51,4.6 l 0,10 -6.38,0 0,-20.2 6.11,0 z" />
<path class="a" d="m 191.13,10.403 6.4,0 0,5.4 2.48,0 0,5.3 -2.53,0 0,14.9 -6.35,0 0,-14.9 -2.41,0 0,-5.3 2.41,0 0,-5.4 z" />
<path class="a" d="m 203.26,9.7032 q 0,-1.4002 0.99,-2.4002 0.99,-1 2.37,-1 1.41,0 2.4,1 0.99,1 0.99,2.4002 0,1.3998 -0.99,2.3998 -0.99,1 -2.4,1 -1.36,0 -2.37,-1 -0.99,-1 -0.99,-2.3998 z m 0.18,6.0998 6.39,0 0,20.2 -6.39,0 0,-20.2 z" />
<path class="a" d="m 225.83,29.803 0,5.3 q -2.29,1.5 -4.59,1.5 -3.41,0 -5.47,-2.9 -2.05,-3 -2.05,-8 0,-4.7 2.11,-7.6 2.11,-3 5.45,-3 2.33,0 4.59,1.6 l 0,5.3 q -1.29,-0.7 -2.33,-0.7 -1.53,0 -2.48,1.2 -0.94,1.3 -0.94,3.3 0,2.2 0.92,3.5 0.92,1.2 2.5,1.2 0.97,0 2.29,-0.7 z" />
<path class="a" d="m 229.81,5.003 6.39,0 0,31 -6.39,0 0,-31 z" />
<path class="a" d="m 250.72,29.803 5.39,0 q -1.54,6.8 -7.69,6.8 -3.85,0 -6.09,-2.9 -2.24,-2.9 -2.24,-8 0,-4.8 2.24,-7.7 2.24,-2.9 5.95,-2.9 2.25,0 4.31,1.4 2.07,1.4 3.01,3.7 0.95,2.3 1.06,7.3 l -10.66,0 q 0.13,4.5 2.5,4.5 0.82,0 1.45,-0.6 0.64,-0.6 0.77,-1.6 z m -4.63,-5.8 4.63,0 q -0.1,-2.1 -0.59,-3.2 -0.53,-1 -1.67,-1 -1.27,0 -1.82,1 -0.55,1 -0.55,3.2 z" />
<path class="a" d="m 261.14,29.503 q 3.27,1.9 4.72,1.9 0.79,0 1.32,-0.4 0.53,-0.4 0.53,-1 0,-0.6 -0.44,-0.9 -0.44,-0.3 -3.3,-1.5 -2.28,-1 -3.29,-2.4 -1.01,-1.4 -1.01,-3.4 0,-2.9 2,-4.8 2.02,-1.9 5.14,-1.9 3.03,0 7.42,2.4 l -2.46,4.6 q -2.85,-1.8 -4.68,-1.8 -1.58,0 -1.58,1.3 0,0.6 0.57,1 0.6,0.5 2.13,1 2.88,1 4.18,2.5 1.32,1.4 1.32,3.5 0,3.1 -2.07,5.1 -2.06,1.9 -5.27,1.9 -3.47,0 -7.43,-2.4 l 2.2,-4.7 z" />
</g>

<g id="3-keys" transform="translate(1106 48)">
<path class="a" d="m 3.07,6.4072 15.886,0 0,6.6988 -4.592,0 0,22.6 -6.745,0 0,-22.6 -4.549,0 0,-6.6988 z" />
<path class="a" d="m 22.406,4.7072 6.372,0 0,13.3988 0.11,0 q 2.351,-3.3 5.427,-3.3 2.197,0 3.406,1.5 1.23,1.4 1.23,4 l 0,15.4 -6.394,0 0,-12.3 q 0,-1.2 -0.483,-1.9 -0.462,-0.6 -1.297,-0.6 -1.999,0 -1.999,2.7 l 0,12.1 -6.372,0 0,-30.9988 z" />
<path class="a" d="m 49.784,15.506 0,3.4 0.09,0 q 2.285,-4 4.812,-4 0.373,0 1.032,0.2 l 0,6.2 q -1.164,-0.2 -2.153,-0.2 -3.516,0 -3.516,4.6 l 0,10 -6.372,0 0,-20.2 6.109,0 z" />
<path class="a" d="m 68.64,29.506 5.38,0 q -1.54,6.8 -7.69,6.8 -3.85,0 -6.09,-2.9 -2.24,-2.9 -2.24,-8 0,-4.8 2.24,-7.7 2.24,-2.9 5.96,-2.9 2.24,0 4.3,1.4 2.07,1.4 3.01,3.7 0.95,2.3 1.06,7.3 l -10.66,0 q 0.13,4.5 2.51,4.5 0.81,0 1.45,-0.6 0.63,-0.6 0.77,-1.6 z m -4.64,-5.8 4.64,0 q -0.1,-2.1 -0.6,-3.2 -0.52,-1 -1.67,-1 -1.27,0 -1.82,1 -0.55,1 -0.55,3.2 z" />
<path class="a" d="m 87.8,29.506 5.38,0 q -1.54,6.8 -7.69,6.8 -3.85,0 -6.09,-2.9 -2.24,-2.9 -2.24,-8 0,-4.8 2.24,-7.7 2.24,-2.9 5.96,-2.9 2.24,0 4.3,1.4 2.07,1.4 3.01,3.7 0.95,2.3 1.06,7.3 l -10.66,0 q 0.13,4.5 2.51,4.5 0.81,0 1.45,-0.6 0.64,-0.6 0.77,-1.6 z m -4.64,-5.8 4.64,0 q -0.1,-2.1 -0.6,-3.2 -0.52,-1 -1.67,-1 -1.27,0 -1.82,1 -0.55,1 -0.55,3.2 z" />
<path class="a" d="m 109.25,6.4072 6.65,0 0,13.7988 0.11,0 6.29,-13.7988 6.99,0 -6.82,14.9988 6.53,14.3 -7.32,0 -5.67,-12.2 -0.11,0 0,12.2 -6.65,0 0,-29.2988 z" />
<path class="a" d="m 140.62,29.506 5.39,0 q -1.54,6.8 -7.69,6.8 -3.85,0 -6.09,-2.9 -2.24,-2.9 -2.24,-8 0,-4.8 2.24,-7.7 2.24,-2.9 5.95,-2.9 2.25,0 4.31,1.4 2.07,1.4 3.01,3.7 0.95,2.3 1.06,7.3 l -10.66,0 q 0.13,4.5 2.5,4.5 0.82,0 1.45,-0.6 0.64,-0.6 0.77,-1.6 z m -4.63,-5.8 4.63,0 q -0.1,-2.1 -0.59,-3.2 -0.53,-1 -1.67,-1 -1.27,0 -1.82,1 -0.55,1 -0.55,3.2 z" />
<path class="a" d="m 147.85,15.506 6.31,0 1.6,5.2 q 0.84,2.8 1.45,5.5 l 0.11,0 q 0.51,-2.6 0.84,-3.7 l 2.13,-7 6.39,0 -8.61,28.5 -6.37,0 2.59,-8.6 -6.44,-19.9 z" />
<path class="a" d="m 170.29,29.206 q 3.27,1.9 4.72,1.9 0.79,0 1.32,-0.4 0.53,-0.4 0.53,-1 0,-0.6 -0.44,-0.9 -0.44,-0.3 -3.3,-1.5 -2.28,-1 -3.29,-2.4 -1.02,-1.4 -1.02,-3.4 0,-2.9 2,-4.8 2.03,-1.9 5.15,-1.9 3.03,0 7.42,2.4 l -2.46,4.6 q -2.85,-1.8 -4.68,-1.8 -1.58,0 -1.58,1.3 0,0.6 0.57,1 0.59,0.5 2.13,1 2.88,1 4.18,2.5 1.32,1.4 1.32,3.5 0,3.1 -2.07,5.1 -2.07,1.9 -5.27,1.9 -3.48,0 -7.43,-2.4 l 2.2,-4.7 z" />
</g>

<g id="3-keys-articles" transform="translate(1292 48)">
<path class="a" d="m 2.4891,6.6215 15.8859,0 0,6.7005 -4.592,0 0,22.6 -6.7449,0 0,-22.6 -4.549,0 0,-6.7005 z" />
<path class="a" d="m 21.825,4.9215 6.372,0 0,13.4005 0.11,0 q 2.35,-3.3 5.43,-3.3 2.19,0 3.4,1.5 1.23,1.4 1.23,4 l 0,15.4 -6.39,0 0,-12.3 q 0,-1.2 -0.48,-1.9 -0.47,-0.6 -1.3,-0.6 -2,0 -2,2.7 l 0,12.1 -6.372,0 0,-31.0005 z" />
<path class="a" d="m 49.207,15.722 0,3.4 0.1,0 q 2.28,-4 4.81,-4 0.37,0 1.03,0.2 l 0,6.2 q -1.16,-0.2 -2.15,-0.2 -3.52,0 -3.52,4.6 l 0,10 -6.37,0 0,-20.2 6.11,0 z" />
<path class="a" d="m 68.057,29.722 5.38,0 q -1.54,6.803 -7.69,6.803 -3.84,0 -6.08,-2.903 -2.25,-2.9 -2.25,-8 0,-4.8 2.25,-7.7 2.24,-2.9 5.95,-2.9 2.24,0 4.31,1.4 2.06,1.4 3.01,3.7 0.94,2.3 1.05,7.3 l -10.66,0 q 0.14,4.5 2.51,4.5 0.81,0 1.45,-0.6 0.64,-0.6 0.77,-1.6 z m -4.64,-5.8 4.64,0 q -0.1,-2.1 -0.59,-3.2 -0.53,-1 -1.67,-1 -1.28,0 -1.83,1 -0.55,1 -0.55,3.2 z" />
<path class="a" d="m 87.217,29.722 5.38,0 q -1.54,6.803 -7.69,6.803 -3.84,0 -6.08,-2.903 -2.25,-2.9 -2.25,-8 0,-4.8 2.25,-7.7 2.24,-2.9 5.95,-2.9 2.24,0 4.31,1.4 2.06,1.4 3.01,3.7 0.94,2.3 1.05,7.3 l -10.66,0 q 0.14,4.5 2.51,4.5 0.81,0 1.45,-0.6 0.64,-0.6 0.77,-1.6 z m -4.64,-5.8 4.64,0 q -0.1,-2.1 -0.59,-3.2 -0.53,-1 -1.67,-1 -1.28,0 -1.83,1 -0.55,1 -0.55,3.2 z" />
<path class="a" d="m 108.66,6.6215 6.66,0 0,13.8005 0.11,0 6.28,-13.8005 6.99,0 -6.81,15.0005 6.52,14.3 -7.31,0 -5.67,-12.2 -0.11,0 0,12.2 -6.66,0 0,-29.3005 z" />
<path class="a" d="m 140.04,29.722 5.38,0 q -1.54,6.803 -7.69,6.803 -3.85,0 -6.09,-2.903 -2.24,-2.9 -2.24,-8 0,-4.8 2.24,-7.7 2.24,-2.9 5.96,-2.9 2.24,0 4.3,1.4 2.07,1.4 3.01,3.7 0.95,2.3 1.06,7.3 l -10.66,0 q 0.13,4.5 2.51,4.5 0.81,0 1.45,-0.6 0.63,-0.6 0.77,-1.6 z m -4.64,-5.8 4.64,0 q -0.1,-2.1 -0.6,-3.2 -0.52,-1 -1.67,-1 -1.27,0 -1.82,1 -0.55,1 -0.55,3.2 z" />
<path class="a" d="m 147.27,15.722 6.3,0 1.61,5.2 q 0.83,2.8 1.45,5.5 l 0.11,0 q 0.5,-2.6 0.83,-3.7 l 2.13,-7 6.4,0 -8.62,28.503 -6.37,0 2.59,-8.603 -6.43,-19.9 z" />
<path class="a" d="m 190.09,35.922 0,-2.7 -0.1,0 q -1.16,1.8 -2.26,2.6 -1.08,0.803 -2.55,0.803 -2.88,0 -4.59,-3.003 -1.72,-2.9 -1.72,-8 0,-4.8 1.74,-7.7 1.74,-2.9 4.57,-2.9 1.52,0 2.57,0.8 1.06,0.7 2.2,2.4 l 0.1,0 0,-2.5 6.39,0 0,20.2 -6.35,0 z m 0,-10.2 q 0,-5 -2.46,-5 -2.48,0 -2.48,5 0,5.2 2.57,5.2 2.37,0 2.37,-5.2 z" />
<path class="a" d="m 207.4,15.722 0,3.4 0.1,0 q 2.29,-4 4.81,-4 0.38,0 1.04,0.2 l 0,6.2 q -1.17,-0.2 -2.16,-0.2 -3.51,0 -3.51,4.6 l 0,10 -6.37,0 0,-20.2 6.1,0 z" />
<path class="a" d="m 218.79,10.322 6.39,0 0,5.4 2.48,0 0,5.3 -2.52,0 0,14.9 -6.35,0 0,-14.9 -2.42,0 0,-5.3 2.42,0 0,-5.4 z" />
<path class="a" d="m 230.92,9.6218 q 0,-1.4003 0.98,-2.4003 0.99,-1 2.38,-1 1.4,0 2.39,1 0.99,1 0.99,2.4003 0,1.4002 -0.99,2.4002 -0.99,1 -2.39,1 -1.37,0 -2.38,-1 -0.98,-1 -0.98,-2.4002 z m 0.17,6.1002 6.4,0 0,20.2 -6.4,0 0,-20.2 z" />
<path class="a" d="m 253.48,29.722 0,5.3 q -2.28,1.503 -4.59,1.503 -3.41,0 -5.47,-2.903 -2.05,-3 -2.05,-8 0,-4.7 2.11,-7.6 2.11,-3 5.45,-3 2.33,0 4.6,1.6 l 0,5.3 q -1.3,-0.7 -2.33,-0.7 -1.54,0 -2.49,1.2 -0.94,1.3 -0.94,3.3 0,2.2 0.92,3.5 0.92,1.2 2.51,1.2 0.96,0 2.28,-0.7 z" />
<path class="a" d="m 257.46,4.9215 6.39,0 0,31.0005 -6.39,0 0,-31.0005 z" />
<path class="a" d="m 278.38,29.722 5.38,0 q -1.54,6.803 -7.69,6.803 -3.85,0 -6.09,-2.903 -2.24,-2.9 -2.24,-8 0,-4.8 2.24,-7.7 2.24,-2.9 5.96,-2.9 2.24,0 4.3,1.4 2.07,1.4 3.01,3.7 0.95,2.3 1.06,7.3 l -10.66,0 q 0.13,4.5 2.51,4.5 0.81,0 1.45,-0.6 0.63,-0.6 0.77,-1.6 z m -4.64,-5.8 4.64,0 q -0.1,-2.1 -0.6,-3.2 -0.52,-1 -1.67,-1 -1.27,0 -1.82,1 -0.55,1 -0.55,3.2 z" />
<path class="a" d="m 288.79,29.422 q 3.28,1.9 4.73,1.9 0.79,0 1.31,-0.4 0.53,-0.4 0.53,-1 0,-0.6 -0.44,-0.9 -0.44,-0.3 -3.29,-1.5 -2.29,-1 -3.3,-2.4 -1.01,-1.4 -1.01,-3.4 0,-2.9 2,-4.8 2.02,-1.9 5.14,-1.9 3.03,0 7.43,2.4 l -2.46,4.6 q -2.86,-1.8 -4.68,-1.8 -1.59,0 -1.59,1.3 0,0.6 0.58,1 0.59,0.5 2.13,1 2.88,1 4.17,2.5 1.32,1.4 1.32,3.5 0,3.1 -2.07,5.1 -2.06,1.903 -5.27,1.903 -3.47,0 -7.43,-2.403 l 2.2,-4.7 z" />
</g>

<g id="series" transform="translate(1596 48)">
<path class="b" d="m 3.8098,35.311 0,-6.9 q 3.164,1.9 5.317,1.9 1.2532,0 1.9782,-0.7 0.726,-0.7 0.726,-1.9 0,-0.8 -0.594,-1.6 -0.571,-0.8 -2.0002,-1.9 -3.45,-2.6 -5.01,-4.9 -1.538,-2.3 -1.538,-5.1 0,-3.8 2.395,-6.1003 2.395,-2.4 6.1972,-2.4 2.813,0 5.581,1.2 l 0,6.5003 q -2.966,-1.6 -4.812,-1.6 -1.23,0 -1.955,0.6 -0.7042,0.6 -0.7042,1.7 0,1.8 3.3182,4.1 1.978,1.4 3.999,3.9 2.044,2.4 2.044,5.7 0,3.8 -2.659,6.3 -2.658,2.5 -6.7462,2.5 -2.791,0 -5.537,-1.3 z" />
<path class="b" d="m 32.287,29.611 5.383,0 q -1.538,6.8 -7.69,6.8 -3.845,0 -6.086,-2.9 -2.242,-2.9 -2.242,-8 0,-4.8 2.242,-7.7 2.241,-2.9 5.954,-2.9 2.241,0 4.307,1.4 2.065,1.4 3.01,3.7 0.945,2.3 1.055,7.3 l -10.657,0 q 0.132,4.5 2.505,4.5 0.813,0 1.45,-0.6 0.637,-0.6 0.769,-1.6 z m -4.636,-5.8 4.636,0 q -0.07,-2.1 -0.593,-3.2 -0.528,-1 -1.67,-1 -1.274,0 -1.824,1 -0.549,1 -0.549,3.2 z" />
<path class="b" d="m 48.063,15.611 0,3.4 0.09,0 q 2.286,-4 4.812,-4 0.374,0 1.033,0.2 l 0,6.2 q -1.164,-0.2 -2.153,-0.2 -3.516,0 -3.516,4.6 l 0,10 -6.372,0 0,-20.2 6.108,0 z" />
<path class="b" d="m 57.424,9.5107 q 0,-1.4 0.989,-2.4 0.988,-1 2.373,-1 1.406,0 2.395,1 0.988,1 0.988,2.4 0,1.4003 -0.988,2.4003 -0.989,1 -2.395,1 -1.363,0 -2.373,-1 -0.989,-1 -0.989,-2.4003 z m 0.176,6.1003 6.394,0 0,20.2 -6.394,0 0,-20.2 z" />
<path class="b" d="m 78.516,29.611 5.39,0 q -1.54,6.8 -7.7,6.8 -3.84,0 -6.08,-2.9 -2.243,-2.9 -2.243,-8 0,-4.8 2.243,-7.7 2.24,-2.9 5.95,-2.9 2.24,0 4.31,1.4 2.07,1.4 3.01,3.7 0.94,2.3 1.05,7.3 l -10.65,0 q 0.13,4.5 2.5,4.5 0.82,0 1.45,-0.6 0.64,-0.6 0.77,-1.6 z m -4.63,-5.8 4.63,0 q -0.1,-2.1 -0.59,-3.2 -0.53,-1 -1.67,-1 -1.28,0 -1.82,1 -0.55,1 -0.55,3.2 z" />
<path class="b" d="m 88.936,29.311 q 3.27,1.9 4.72,1.9 0.79,0 1.32,-0.4 0.53,-0.4 0.53,-1 0,-0.6 -0.44,-0.9 -0.44,-0.3 -3.3,-1.5 -2.28,-1 -3.29,-2.4 -1.02,-1.4 -1.02,-3.4 0,-2.9 2,-4.8 2.03,-1.9 5.15,-1.9 3.03,0 7.404,2.4 l -2.444,4.6 q -2.85,-1.8 -4.68,-1.8 -1.58,0 -1.58,1.3 0,0.6 0.57,1 0.59,0.5 2.13,1 2.88,1 4.164,2.5 1.31,1.4 1.31,3.5 0,3.1 -2.044,5.1 -2.07,1.9 -5.27,1.9 -3.48,0 -7.43,-2.4 l 2.2,-4.7 z" />
</g>

<g id="multi-article-series" transform="translate(1700 48)">
<path class="b" d="m 6.797,6.5147 8.415,0 q 1.801,9.5003 2.834,16.3003 l 0.725,-4.6 q 0.44,-2.6 0.945,-5.1 l 1.296,-6.6003 8.592,0 3.34,29.3043 -6.592,0 -1.78,-20.204 -4.109,20.204 -4.504,0 -4.306,-20.204 -1.7141,20.204 -6.3059,0 3.164,-29.3043 z" />
<path class="b" d="m 37.382,15.615 6.394,0 0,13 q 0,1 0.462,1.7 0.483,0.6 1.296,0.6 1.846,0 1.846,-2.7 l 0,-12.6 6.39,0 0,11.7 q 0,4.504 -2.08,6.804 -2.09,2.4 -6.024,2.4 -4.395,0 -6.35,-2.4 -1.934,-2.4 -1.934,-6.104 l 0,-12.4 z" />
<path class="b" d="m 58.72,4.8147 6.39,0 0,31.0043 -6.39,0 0,-31.0043 z" />
<path class="b" d="m 70.93,10.215 6.4,0 0,5.4 2.48,0 0,5.3 -2.53,0 0,14.904 -6.35,0 0,-14.904 -2.41,0 0,-5.3 2.41,0 0,-5.4 z" />
<path class="b" d="m 83.06,9.5148 q 0,-1.4001 0.99,-2.4001 0.99,-1 2.38,-1 1.4,0 2.39,1 0.99,1 0.99,2.4001 0,1.4002 -0.99,2.4002 -0.99,1 -2.39,1 -1.37,0 -2.38,-1 -0.99,-1 -0.99,-2.4002 z m 0.18,6.1002 6.39,0 0,20.204 -6.39,0 0,-20.204 z" />
<path class="b" d="m 94.42,23.015 10.14,0 0,5.5 -10.14,0 0,-5.5 z" />
<path class="b" d="m 129.96,35.819 -6.93,0 -1.12,-4.904 -7.03,0 -1.16,4.904 -6.79,0 7.78,-29.3043 7.47,0 7.78,29.3043 z m -9.32,-10.204 q -1.49,-6.5 -2.24,-12.4 l -0.1,0 q -0.79,6.1 -2.22,12.4 l 4.55,0 z" />
<path class="b" d="m 138.74,15.615 0,3.4 0.1,0 q 2.29,-4 4.81,-4 0.38,0 1.04,0.2 l 0,6.2 q -1.17,-0.2 -2.16,-0.2 -3.51,0 -3.51,4.6 l 0,10.004 -6.37,0 0,-20.204 6.1,0 z" />
<path class="b" d="m 150.13,10.215 6.39,0 0,5.4 2.48,0 0,5.3 -2.52,0 0,14.904 -6.35,0 0,-14.904 -2.42,0 0,-5.3 2.42,0 0,-5.4 z" />
<path class="b" d="m 162.26,9.5148 q 0,-1.4001 0.98,-2.4001 0.99,-1 2.38,-1 1.4,0 2.39,1 0.99,1 0.99,2.4001 0,1.4002 -0.99,2.4002 -0.99,1 -2.39,1 -1.36,0 -2.38,-1 -0.98,-1 -0.98,-2.4002 z m 0.17,6.1002 6.4,0 0,20.204 -6.4,0 0,-20.204 z" />
<path class="b" d="m 184.82,29.615 0,5.304 q -2.28,1.5 -4.59,1.5 -3.41,0 -5.47,-2.9 -2.05,-3.004 -2.05,-8.004 0,-4.7 2.11,-7.6 2.11,-3 5.45,-3 2.33,0 4.6,1.6 l 0,5.3 q -1.3,-0.7 -2.33,-0.7 -1.54,0 -2.49,1.2 -0.94,1.3 -0.94,3.3 0,2.2 0.92,3.5 0.92,1.2 2.51,1.2 0.96,0 2.28,-0.7 z" />
<path class="b" d="m 188.8,4.8147 6.39,0 0,31.0043 -6.39,0 0,-31.0043 z" />
<path class="b" d="m 209.72,29.615 5.38,0 q -1.54,6.804 -7.69,6.804 -3.85,0 -6.09,-2.9 -2.24,-2.904 -2.24,-8.004 0,-4.8 2.24,-7.7 2.24,-2.9 5.96,-2.9 2.24,0 4.3,1.4 2.07,1.4 3.01,3.7 0.95,2.3 1.06,7.3 l -10.66,0 q 0.13,4.504 2.51,4.504 0.81,0 1.45,-0.6 0.63,-0.604 0.77,-1.604 z m -4.64,-5.8 4.64,0 q -0.1,-2.1 -0.6,-3.2 -0.52,-1 -1.67,-1 -1.27,0 -1.82,1 -0.55,1 -0.55,3.2 z" />
<path class="b" d="m 231.16,35.319 0,-6.904 q 3.17,1.9 5.32,1.9 1.25,0 1.98,-0.7 0.72,-0.7 0.72,-1.9 0,-0.8 -0.59,-1.6 -0.57,-0.8 -2,-1.9 -3.45,-2.6 -5.01,-4.9 -1.54,-2.3 -1.54,-5.1 0,-3.8 2.4,-6.1003 2.39,-2.4 6.19,-2.4 2.82,0 5.58,1.2 l 0,6.5003 q -2.96,-1.6 -4.81,-1.6 -1.23,0 -1.95,0.6 -0.71,0.6 -0.71,1.7 0,1.8 3.32,4.1 1.98,1.4 4,3.9 2.04,2.4 2.04,5.7 0,3.804 -2.66,6.304 -2.65,2.5 -6.74,2.5 -2.79,0 -5.54,-1.3 z" />
<path class="b" d="m 259.64,29.615 5.38,0 q -1.54,6.804 -7.69,6.804 -3.84,0 -6.09,-2.9 -2.24,-2.904 -2.24,-8.004 0,-4.8 2.24,-7.7 2.25,-2.9 5.96,-2.9 2.24,0 4.31,1.4 2.06,1.4 3.01,3.7 0.94,2.3 1.05,7.3 l -10.66,0 q 0.14,4.504 2.51,4.504 0.81,0 1.45,-0.6 0.64,-0.604 0.77,-1.604 z m -4.64,-5.8 4.64,0 q -0.1,-2.1 -0.59,-3.2 -0.53,-1 -1.67,-1 -1.28,0 -1.83,1 -0.55,1 -0.55,3.2 z" />
<path class="b" d="m 275.41,15.615 0,3.4 0.1,0 q 2.29,-4 4.81,-4 0.38,0 1.04,0.2 l 0,6.2 q -1.17,-0.2 -2.16,-0.2 -3.51,0 -3.51,4.6 l 0,10.004 -6.37,0 0,-20.204 6.1,0 z" />
<path class="b" d="m 284.78,9.5148 q 0,-1.4001 0.98,-2.4001 0.99,-1 2.38,-1 1.4,0 2.39,1 0.99,1 0.99,2.4001 0,1.4002 -0.99,2.4002 -0.99,1 -2.39,1 -1.37,0 -2.38,-1 -0.98,-1 -0.98,-2.4002 z m 0.17,6.1002 6.4,0 0,20.204 -6.4,0 0,-20.204 z" />
<path class="b" d="m 305.87,29.615 5.38,0 q -1.54,6.804 -7.69,6.804 -3.84,0 -6.08,-2.9 -2.25,-2.904 -2.25,-8.004 0,-4.8 2.25,-7.7 2.24,-2.9 5.95,-2.9 2.24,0 4.31,1.4 2.06,1.4 3.01,3.7 0.94,2.3 1.05,7.3 l -10.66,0 q 0.14,4.504 2.51,4.504 0.81,0 1.45,-0.6 0.64,-0.604 0.77,-1.604 z m -4.64,-5.8 4.64,0 q -0.1,-2.1 -0.59,-3.2 -0.53,-1 -1.67,-1 -1.28,0 -1.83,1 -0.55,1 -0.55,3.2 z" />
<path class="b" d="m 316.28,29.315 q 3.28,1.904 4.73,1.904 0.79,0 1.32,-0.404 0.52,-0.4 0.52,-1 0,-0.6 -0.44,-0.9 -0.44,-0.3 -3.29,-1.5 -2.29,-1 -3.3,-2.4 -1.01,-1.4 -1.01,-3.4 0,-2.9 2,-4.8 2.02,-1.9 5.14,-1.9 3.04,0 7.43,2.4 l -2.46,4.6 q -2.86,-1.8 -4.68,-1.8 -1.58,0 -1.58,1.3 0,0.6 0.57,1 0.59,0.5 2.13,1 2.88,1 4.17,2.5 1.32,1.4 1.32,3.5 0,3.104 -2.06,5.104 -2.07,1.9 -5.28,1.9 -3.47,0 -7.42,-2.4 l 2.19,-4.704 z" />
</g>

<style>
.a{fill:#f6ca2f;fill-opacity:1;stroke:#000000;stroke-width:1.1;stroke-opacity:1}
.b{fill:#3ed481;fill-opacity:1;stroke:#000000;stroke-width:1.1;stroke-opacity:1}

</style>

</svg>