<?xml version="1.0" encoding="UTF-8" standalone="no"?>
<svg xmlns="http://www.w3.org/2000/svg" viewBox="0 0 480 48" height="100%" width="100%">

<view id="security" viewBox="0 0 48 48" />
<view id="privacy" viewBox="48 0 48 48" />
<view id="hardware" viewBox="96 0 48 48" />
<view id="software" viewBox="144 0 48 48" />
<view id="passwords" viewBox="192 0 48 48" />
<view id="big-data" viewBox="240 0 48 48" />
<view id="social-media" viewBox="288 0 48 48" />
<view id="wireless" viewBox="336 0 48 48" />
<view id="muppets" viewBox="384 0 48 48" />
<view id="weebles" viewBox="432 0 48 48" />

<g id="security" transform="translate(0 0)">
<path d="M 42.324,9.9995 C 39.803,9.2771 29.416,5.0522 27.217,4.0401 25.464,3.2324 24.901,3 24.016,3 23.13,3 22.566,3.2324 20.813,4.0401 18.615,5.0522 8.2293,9.2771 5.7077,9.9995 4.2332,10.422 3.2038,11.468 3.2038,12.799 l 0,15.399 c 0,4.463 13.2822,16.799 20.8122,16.799 7.529,0 20.812,-12.337 20.812,-16.799 l 0,-15.399 c 0,-1.331 -1.029,-2.377 -2.504,-2.7995 z M 9.6077,27.875 l 0,-13.184 C 15.036,12.69 22.339,9.6495 24.016,8.9216 l 0,30.4754 C 20.415,39.277 10.851,31.181 9.6077,27.875 Z" /></g>

<g id="privacy" transform="translate(48 0)">
<path d="M 24.004415,3 C 12.404377,3 3,12.404377 3,24.004415 c 0,11.600039 9.404377,21.004416 21.004415,21.004416 11.600039,0 21.004416,-9.404377 21.004416,-21.004416 C 45.008831,12.404377 35.604454,3 24.004415,3 Z m 6.556179,30.806476 c 0.345872,0.862581 0.445293,1.026416 0.445293,1.400294 0,0.757559 -0.603527,1.400295 -1.400294,1.400295 l -11.202355,0 c -0.796768,0 -1.400295,-0.642736 -1.400295,-1.400295 0,-0.373878 0.09942,-0.537713 0.445294,-1.400294 0,0 1.957611,-4.599967 3.814402,-8.960484 -2.503727,-1.067025 -4.259696,-3.549746 -4.259696,-6.442754 0,-3.866213 3.135259,-7.001472 7.001472,-7.001472 3.866213,0 7.001472,3.135259 7.001472,7.001472 0,2.893008 -1.75597,5.375729 -4.259696,6.442754 l 3.814403,8.960484 z" /></g>

<g id="hardware" transform="translate(96 0)">
<path d="m 36.717,9.6386 -25.459,0 c -0.848,0 -1.536,0.6874 -1.536,1.5364 l 0,25.452 c 0,0.849 0.688,1.537 1.536,1.537 l 25.459,0 c 0.848,0 1.537,-0.688 1.537,-1.537 l 0,-25.452 c 0,-0.849 -0.689,-1.5364 -1.537,-1.5364 z" />
<path d="m 24.98,44.108 c 0,0.485 0.394,0.879 0.879,0.879 l 0.351,0 c 0.485,0 0.879,-0.393 0.879,-0.879 l 0,-4.307 -2.108,0 0,4.307 z" />
<path d="m 12.697,44.108 c 0,0.485 0.394,0.879 0.88,0.879 l 0.35,0 c 0.486,0 0.879,-0.393 0.879,-0.879 l 0,-4.307 -2.109,0 0,4.307 z" />
<path d="m 16.792,44.108 c 0,0.485 0.394,0.879 0.879,0.879 l 0.35,0 c 0.486,0 0.88,-0.393 0.88,-0.879 l 0,-4.307 -2.109,0 0,4.307 z" />
<path d="m 33.169,44.108 c 0,0.485 0.393,0.879 0.88,0.879 l 0.349,0 c 0.487,0 0.88,-0.393 0.88,-0.879 l 0,-4.307 -2.109,0 0,4.307 z" />
<path d="m 29.075,44.108 c 0,0.485 0.393,0.879 0.879,0.879 l 0.35,0 c 0.486,0 0.879,-0.393 0.879,-0.879 l 0,-4.307 -2.108,0 0,4.307 z" />
<path d="m 20.886,44.108 c 0,0.485 0.394,0.879 0.879,0.879 l 0.351,0 c 0.485,0 0.879,-0.393 0.879,-0.879 l 0,-4.307 -2.109,0 0,4.307 z" />
<path d="M 27.089,3.8749 C 27.089,3.3895 26.695,2.996 26.21,2.996 l -0.351,0 c -0.485,0 -0.879,0.3935 -0.879,0.8789 l 0,4.1254 2.109,0 0,-4.1254 z" />
<path d="m 35.278,3.8749 c 0,-0.4854 -0.394,-0.8789 -0.88,-0.8789 l -0.35,0 c -0.486,0 -0.879,0.3935 -0.879,0.8789 l 0,4.1254 2.109,0 0,-4.1254 z" />
<path d="m 14.806,3.8749 c 0,-0.4854 -0.393,-0.8789 -0.88,-0.8789 l -0.349,0 c -0.486,0 -0.88,0.3935 -0.88,0.8789 l 0,4.1254 2.109,0 0,-4.1254 z" />
<path d="M 31.183,3.8749 C 31.183,3.3895 30.79,2.996 30.304,2.996 l -0.35,0 c -0.486,0 -0.88,0.3935 -0.88,0.8789 l 0,4.1254 2.109,0 0,-4.1254 z" />
<path d="m 22.995,3.8749 c 0,-0.4854 -0.394,-0.8789 -0.879,-0.8789 l -0.351,0 c -0.485,0 -0.879,0.3935 -0.879,0.8789 l 0,4.1254 2.108,0 0,-4.1254 z" />
<path d="M 18.9,3.8749 C 18.9,3.3895 18.507,2.996 18.021,2.996 l -0.35,0 c -0.485,0 -0.879,0.3935 -0.879,0.8789 l 0,4.1254 2.108,0 0,-4.1254 z" />
<path d="m 44.108,24.984 -4.218,0 0,2.108 4.218,0 c 0.486,0 0.88,-0.393 0.88,-0.879 l 0,-0.35 c 0,-0.485 -0.394,-0.879 -0.88,-0.879 z" />
<path d="m 44.108,16.797 -4.218,0 0,2.108 4.218,0 c 0.486,0 0.88,-0.393 0.88,-0.878 l 0,-0.351 c 0,-0.485 -0.394,-0.879 -0.88,-0.879 z" />
<path d="m 44.108,20.89 -4.218,0 0,2.109 4.218,0 c 0.486,0 0.88,-0.394 0.88,-0.879 l 0,-0.35 c 0,-0.486 -0.394,-0.88 -0.88,-0.88 z" />
<path d="m 44.108,29.078 -4.218,0 0,2.108 4.218,0 c 0.486,0 0.88,-0.394 0.88,-0.879 l 0,-0.351 c 0,-0.485 -0.394,-0.879 -0.88,-0.879 z" />
<path d="m 44.108,12.704 -4.218,0 0,2.108 4.218,0 c 0.486,0 0.88,-0.393 0.88,-0.88 l 0,-0.349 c 0,-0.485 -0.394,-0.879 -0.88,-0.879 z" />
<path d="m 44.108,33.171 -4.218,0 0,2.108 4.218,0 c 0.486,0 0.88,-0.394 0.88,-0.879 l 0,-0.35 c 0,-0.486 -0.394,-0.879 -0.88,-0.879 z" />
<path d="m 2.988,17.676 0,0.351 c 0,0.485 0.393,0.878 0.879,0.878 l 4.218,0 0,-2.108 -4.218,0 c -0.486,0 -0.879,0.394 -0.879,0.879 z" />
<path d="m 2.988,29.956 0,0.351 c 0,0.485 0.393,0.879 0.879,0.879 l 4.218,0 0,-2.108 -4.218,0 c -0.486,0 -0.879,0.393 -0.879,0.878 z" />
<path d="m 2.988,21.77 0,0.35 c 0,0.485 0.393,0.879 0.879,0.879 l 4.218,0 0,-2.109 -4.218,0 c -0.486,0 -0.879,0.394 -0.879,0.88 z" />
<path d="m 2.988,25.863 0,0.35 c 0,0.486 0.393,0.879 0.879,0.879 l 4.218,0 0,-2.108 -4.218,0 c -0.486,0 -0.879,0.394 -0.879,0.879 z" />
<path d="m 2.988,34.05 0,0.35 c 0,0.486 0.393,0.879 0.879,0.879 l 4.218,0 0,-2.108 -4.218,0 c -0.486,0 -0.879,0.393 -0.879,0.879 z" />
<path d="m 2.988,13.583 0,0.35 c 0,0.486 0.393,0.879 0.879,0.879 l 4.218,0 0,-2.108 -4.218,0 c -0.486,0 -0.879,0.394 -0.879,0.879 z" />
</g>

<g id="software" transform="translate(144 0)">
<path d="m 5.7759,15.064 c 0.7862,-1.143 2.3149,-1.407 3.4154,-0.592 l 4.5797,3.398 c -0.978,1.309 -1.804,2.802 -2.444,4.437 L 6.3453,18.61 C 5.245,17.795 4.9897,16.207 5.7759,15.064 Z M 17.308,14.417 c 1.996,-1.376 4.275,-2.158 6.695,-2.158 2.419,0 4.698,0.782 6.693,2.158 0.252,-0.72 0.392,-1.492 0.392,-2.296 0,-1.877 -0.747,-3.5788 -1.961,-4.8363 L 30.462,5.2051 C 30.884,4.5477 30.714,3.6595 30.08,3.2209 29.447,2.7824 28.592,2.9606 28.17,3.618 L 26.835,5.6969 C 25.967,5.322 25.009,5.1127 24.003,5.1127 c -1.008,0 -1.966,0.2093 -2.833,0.5842 L 19.835,3.618 C 19.413,2.9606 18.558,2.7824 17.924,3.2209 17.291,3.6595 17.121,4.5477 17.543,5.2051 l 1.335,2.0796 c -1.214,1.2575 -1.96,2.9593 -1.96,4.8363 0,0.804 0.138,1.576 0.39,2.296 z M 9.8433,31.128 c -0.01,-0.237 -0.014,-0.475 -0.014,-0.714 0,-1.507 0.1464,-2.97 0.4177,-4.371 l -4.7985,0 c -1.3517,0 -2.4474,1.138 -2.4474,2.543 0,1.404 1.0957,2.542 2.4474,2.542 l 4.3946,0 z M 41.659,18.61 c 1.1,-0.815 1.356,-2.403 0.569,-3.546 -0.786,-1.143 -2.314,-1.407 -3.414,-0.592 l -4.58,3.399 c 0.977,1.308 1.804,2.8 2.444,4.435 l 4.981,-3.696 z m 0.897,7.433 -4.799,0 c 0.272,1.401 0.418,2.864 0.418,4.371 0,0.239 0,0.477 -0.01,0.714 l 4.395,0 c 1.352,0 2.448,-1.138 2.448,-2.542 0,-1.405 -1.096,-2.543 -2.448,-2.543 z M 6.3453,38.56 c -1.1003,0.817 -1.3556,2.404 -0.5693,3.548 0.4782,0.694 1.2307,1.064 1.9939,1.064 0.4928,0 0.99,-0.153 1.4215,-0.473 L 12.206,40.463 C 11.426,38.964 10.817,37.31 10.41,35.545 L 6.3453,38.56 Z m 35.3137,0 -4.064,-3.014 c -0.407,1.764 -1.016,3.418 -1.796,4.917 l 3.015,2.236 c 0.431,0.32 0.928,0.474 1.421,0.474 0.764,0 1.516,-0.37 1.994,-1.065 0.786,-1.144 0.53,-2.731 -0.57,-3.548 z m -6.061,-8.146 c 0,6.606 -3.101,12.242 -7.465,14.464 -0.224,-0.862 -0.509,-1.975 -0.823,-3.252 -1.029,0.508 -2.143,0.791 -3.307,0.791 -1.165,0 -2.28,-0.283 -3.308,-0.791 -0.315,1.277 -0.599,2.39 -0.823,3.252 -4.364,-2.222 -7.465,-7.857 -7.465,-14.464 0,-8.548 5.191,-15.478 11.596,-15.478 6.404,0 11.595,6.93 11.595,15.478 z m -8.927,8.552 C 25.407,33.57 24.003,26.675 24.003,22.697 c 0,3.978 -1.406,10.873 -2.669,16.269 0.818,0.497 1.72,0.774 2.669,0.774 0.948,0 1.849,-0.277 2.668,-0.774 z" /></g>

<g id="passwords" transform="translate(192 0)">
<path d="m 43.149,28.204 q 1.353,0.71 1.746,2.118 0.4,1.408 -0.363,2.666 l -1.884,3.011 q -0.765,1.258 -2.28,1.623 -1.516,0.372 -2.869,-0.337 l -7.823,-4.186 0,8.393 q 0,1.421 -1.116,2.466 -1.115,1.037 -2.648,1.037 l -3.765,0 q -1.526,0 -2.647,-1.037 -1.119,-1.045 -1.119,-2.466 l 0,-8.393 -7.817,4.186 Q 9.2198,37.994 7.7051,37.622 6.1905,37.257 5.4275,35.999 l -1.88,-3.011 q -0.769,-1.257 -0.37,-2.666 0.399,-1.408 1.752,-2.118 L 12.739,23.995 4.9295,19.786 q -1.353,-0.715 -1.752,-2.118 -0.399,-1.408 0.37,-2.666 l 1.88,-3.011 q 0.763,-1.258 2.2776,-1.623 1.5147,-0.373 2.8589,0.337 l 7.817,4.185 0,-8.395 q 0,-1.424 1.119,-2.462 1.121,-1.037 2.647,-1.037 l 3.765,0 q 1.533,0 2.648,1.037 1.116,1.038 1.116,2.462 l 0,8.395 7.823,-4.185 q 1.353,-0.71 2.869,-0.337 1.515,0.365 2.28,1.623 l 1.884,3.011 q 0.763,1.258 0.363,2.666 -0.393,1.402 -1.746,2.117 l -7.824,4.209 z" /></g>

<g id="big-data" transform="translate(240 0)">
<g transform="matrix(0.66799,0,0,0.66799,2.597,2.6174)">
<path d="M 41.346,23.165 56.949,12.898 C 47.693,0.782 31.039,-2.888 17.588,4.074 l 10.346,15.722 c 4.702,-1.571 9.969,-0.284 13.412,3.369 z" />
</g>
<g transform="matrix(0.66799,0,0,0.66799,2.597,2.6174)">
<path d="m 49.272,58.248 c 2.078,-1.367 3.943,-2.94 5.58,-4.675 L 39.685,42.303 c -0.199,0.155 -0.405,0.299 -0.617,0.439 -5.933,3.904 -13.907,2.257 -17.809,-3.673 -3.587,-5.451 -2.495,-12.625 2.31,-16.782 L 13.329,6.727 C -0.02,16.567 -3.477,35.253 5.75,49.274 c 9.539,14.498 29.025,18.514 43.522,8.974 z" />
</g>
<g transform="matrix(0.66799,0,0,0.66799,2.597,2.6174)">
<path d="M 57.995,49.664 C 64.433,40.187 65.344,27.62 59.672,17.11 L 44.013,27.415 c 1.419,3.706 1.02,7.823 -0.956,11.147 L 57.995,49.664 Z M 47.758,28.809 58.32,21.859 c 2.92,7.524 2.464,15.912 -1.261,23.091 l -9.968,-7.407 c 1.015,-2.784 1.251,-5.827 0.667,-8.734 z" />
</g></g>

<g id="social-media" transform="translate(288 0)">
<path d="m 36.714,18.788 c -2.445,0 -4.751,-1.049 -6.244,-2.885 l -11.945,5.508 c 0.271,0.787 0.542,1.705 0.542,2.624 0,0.917 -0.135,1.966 -0.542,2.753 l 11.672,5.639 c 1.492,-1.837 3.801,-3.147 6.517,-3.147 4.479,0 8.143,3.54 8.143,7.868 0,4.328 -3.664,7.868 -8.143,7.868 -4.481,0 -8.144,-3.54 -8.144,-7.868 0,-0.394 0,-0.655 0.134,-1.049 L 16.217,30.067 c -1.493,1.181 -3.257,1.836 -5.295,1.836 -4.4774,0 -8.1424,-3.541 -8.1424,-7.868 0,-4.328 3.665,-7.869 8.1424,-7.869 2.038,0 3.938,0.786 5.295,1.966 l 12.487,-5.77 c 0,-0.394 -0.134,-0.917 -0.134,-1.443 0,-4.3272 3.663,-7.8682 8.144,-7.8682 4.479,0 8.143,3.541 8.143,7.8682 0,4.328 -3.664,7.869 -8.143,7.869 z" /></g>

<g id="wireless" transform="translate(336 0)">
<path d="m 43.687,13.587 0.996,-1.209 C 45.241,11.704 45.136,10.698 44.449,10.15 38.641,5.5348 31.379,2.992 23.994,2.992 16.609,2.992 9.343,5.5348 3.536,10.15 2.848,10.698 2.744,11.704 3.301,12.378 l 0.995,1.209 c 0.543,0.66 1.512,0.763 2.184,0.231 4.98,-3.947 11.198,-6.1207 17.514,-6.1207 6.317,0 12.534,2.1737 17.509,6.1207 0.673,0.532 1.642,0.429 2.184,-0.231 z m -5.978,7.26 0.994,-1.207 c 0.559,-0.677 0.454,-1.687 -0.243,-2.232 -4.121,-3.226 -9.26,-5.002 -14.466,-5.002 -5.206,0 -10.344,1.776 -14.469,5.002 -0.698,0.545 -0.803,1.555 -0.245,2.232 l 0.997,1.207 c 0.541,0.653 1.504,0.763 2.177,0.24 3.336,-2.601 7.327,-3.976 11.54,-3.976 4.213,0 8.205,1.375 11.54,3.976 0.674,0.523 1.636,0.413 2.175,-0.24 z m -5.973,7.254 0.991,-1.206 c 0.564,-0.684 0.449,-1.708 -0.269,-2.248 -2.461,-1.853 -5.389,-2.831 -8.464,-2.831 -3.076,0 -6.002,0.978 -8.463,2.831 -0.718,0.54 -0.833,1.564 -0.269,2.248 l 0.991,1.206 c 0.533,0.65 1.481,0.76 2.148,0.264 1.621,-1.206 3.554,-1.843 5.593,-1.843 2.039,0 3.972,0.637 5.594,1.843 0.667,0.496 1.614,0.385 2.148,-0.264 z" />
<path d="m 30.55,38.429 a 6.6186,6.6186 0 0 1 -6.619,6.619 6.6186,6.6186 0 0 1 -6.619,-6.619 6.6186,6.6186 0 0 1 6.619,-6.619 6.6186,6.6186 0 0 1 6.619,6.619 z" /></g>

<g id="muppets" transform="translate(384 0)">
<path d="m 24.467,32.966 c -3.4,0 -6.218,-2.348 -6.56,-5.342 -2.21,-0.761 -4.036,-1.807 -5.375,-2.731 0.713,5.634 5.343,12.836 11.547,12.836 6.383,0 11.646,-7.495 12.341,-13.084 -1.852,1.239 -3.649,2.142 -5.378,2.776 -0.235,3.093 -3.09,5.545 -6.575,5.545" />
<path d="M 45.034,26.296 C 44.723,20.99 43.746,17.449 41.68,14.462 c -0.226,0.674 -0.535,1.32 -0.949,1.92 -0.432,0.632 -1.144,1.012 -1.904,1.012 -0.443,0 -0.874,-0.128 -1.247,-0.371 L 24.882,8.7975 C 24.345,8.4506 23.966,7.8845 23.843,7.2469 23.72,6.6141 23.863,5.9433 24.226,5.4121 c 0.106,-0.154 0.228,-0.2914 0.342,-0.4375 -0.88,-0.02 -1.762,0.014 -2.64,0.104 0.09,0.1144 0.181,0.2192 0.263,0.3375 0.358,0.5176 0.497,1.1504 0.39,1.7776 -0.106,0.6281 -0.446,1.1743 -0.955,1.5403 l -11.424,8.225 c -0.389,0.282 -0.854,0.435 -1.34,0.435 -0.131,0 -0.265,-0.02 -0.396,-0.03 C 7.849,17.248 7.315,16.901 6.957,16.381 6.698,16.006 6.479,15.611 6.278,15.21 c -1.841,3.164 -2.91,6.878 -3.157,11.101 -0.01,0.124 -0.101,3.103 1.589,6.74 1.548,3.33 4.956,7.869 12.395,10.589 2.239,0.82 4.585,1.235 6.973,1.235 2.387,0 4.734,-0.415 6.973,-1.235 14.29,-5.224 13.989,-17.209 13.983,-17.344 l 0,0 z M 40.38,24.232 c -0.429,0 -0.776,-0.355 -0.776,-0.794 0,-0.371 -0.09,-0.717 -0.239,-1.03 -0.02,0.01 -0.02,0.04 -0.05,0.05 -0.426,0.358 -0.849,0.691 -1.27,1.013 -0.02,6.248 -6.013,15.841 -13.97,15.841 -7.857,0 -13.092,-9.375 -13.191,-15.696 -0.791,-0.655 -1.249,-1.124 -1.323,-1.204 -0.145,0.311 -0.234,0.654 -0.234,1.021 0,0.439 -0.347,0.794 -0.776,0.794 -0.429,0 -0.776,-0.355 -0.776,-0.794 0,-2.189 1.741,-3.97 3.881,-3.97 0.429,0 0.776,0.355 0.776,0.794 0,0.439 -0.347,0.794 -0.776,0.794 -0.36,0 -0.696,0.09 -1.001,0.241 0,0 0,0 0.02,0 0.1,0.107 0.655,0.694 1.597,1.454 0.03,0.02 0.06,0.03 0.09,0.05 1.348,1.062 3.668,2.596 6.678,3.514 0.369,0.112 0.738,0.215 1.109,0.303 0.02,0 0.04,0 0.05,0.02 0.424,0.1 0.85,0.179 1.276,0.246 0.03,0 0.06,0 0.09,0.02 1.667,0.25 3.355,0.25 5.04,0.02 0.109,-0.02 0.219,-0.02 0.329,-0.04 0.306,-0.05 0.611,-0.115 0.916,-0.18 0.181,-0.04 0.363,-0.08 0.545,-0.12 0.272,-0.06 0.544,-0.144 0.816,-0.223 2.385,-0.701 4.762,-1.881 7.108,-3.557 0,0 0,0 0,0 0.641,-0.459 1.286,-0.948 1.941,-1.494 -0.298,-0.159 -0.631,-0.247 -0.987,-0.247 -0.429,0 -0.776,-0.355 -0.776,-0.794 0,-0.439 0.347,-0.794 0.776,-0.794 2.14,0 3.881,1.781 3.881,3.97 0,0.439 -0.347,0.794 -0.776,0.794 l 0,0 z" />
<path d="m 25.713,7.4565 12.699,8.2255 c 0.129,0.08 0.273,0.124 0.415,0.124 0.244,0 0.485,-0.118 0.635,-0.338 1.171,-1.701 1.395,-3.853 0.631,-6.0583 C 39.424,7.4788 38.044,5.655 36.309,4.4061 34.994,3.459 33.45,2.958 31.847,2.958 c -2.527,0 -4.902,1.26 -6.353,3.3711 -0.123,0.1779 -0.169,0.3986 -0.127,0.6122 0.04,0.2127 0.166,0.3993 0.346,0.5152 l 0,0 z M 30.51,6.341 c 0.558,-0.099 1.116,-0.091 1.653,0.01 0.654,-0.6732 1.704,-0.7907 2.488,-0.2262 0.788,0.5669 1.031,1.6212 0.627,2.4803 0.273,0.4827 0.476,1.0107 0.573,1.5809 0.07,0.431 -0.209,0.843 -0.632,0.918 -0.05,0 -0.09,0 -0.134,0 -0.371,0 -0.698,-0.272 -0.764,-0.658 -0.05,-0.287 -0.145,-0.5524 -0.26,-0.8048 -0.544,0.1572 -1.146,0.08 -1.644,-0.2779 C 31.919,9.0135 31.645,8.4585 31.607,7.8821 31.335,7.8567 31.059,7.8543 30.775,7.9051 30.354,7.9782 29.951,7.6908 29.878,7.2588 29.804,6.8269 30.087,6.4157 30.51,6.341 l 0,0 z" />
<path d="m 8.73,15.794 c 0.04,0 0.09,0.02 0.132,0.02 0.16,0 0.316,-0.05 0.447,-0.146 L 20.733,7.4351 C 21.085,7.1826 21.169,6.6872 20.922,6.3291 19.47,4.218 17.095,2.958 14.568,2.958 c -1.603,0 -3.146,0.501 -4.461,1.4481 -1.696,1.2204 -2.826,3.0433 -3.18,5.1322 -0.355,2.0897 0.107,4.1957 1.3,5.9297 0.118,0.173 0.299,0.289 0.503,0.326 l 0,0 z m 3.035,-9.6689 c 0.784,-0.5645 1.833,-0.447 2.487,0.2262 0.538,-0.1016 1.096,-0.1103 1.654,-0.01 0.423,0.075 0.705,0.4859 0.632,0.9178 -0.07,0.432 -0.468,0.7202 -0.898,0.6463 -0.28,-0.049 -0.558,-0.047 -0.832,-0.021 -0.04,0.5756 -0.313,1.129 -0.809,1.4871 -0.498,0.358 -1.1,0.4351 -1.644,0.2779 -0.115,0.2548 -0.212,0.5206 -0.26,0.8076 -0.06,0.387 -0.393,0.658 -0.764,0.658 -0.05,0 -0.09,0 -0.134,0 -0.422,-0.08 -0.705,-0.49 -0.632,-0.921 0.1,-0.57 0.299,-1.098 0.572,-1.5807 C 10.733,7.755 10.977,6.6999 11.765,6.133 l 0,0 z" /></g>

<g id="weebles" transform="translate(432 0)">
<path d="M 35.778,38.331 C 26.565,47.545 15.942,46.481 8.7336,39.275 1.5277,32.069 0.46674,21.447 9.6816,12.234 18.896,3.0191 36.507,0.318 42.1,5.9105 47.693,11.505 44.994,29.116 35.778,38.331 Z" /></g>

</svg>